<svg width="20" height="20" viewBox="0 0 20 20" fill="none" xmlns="http://www.w3.org/2000/svg">
<path d="M10.0004 0C4.47754 0 0 4.47669 0 9.99959C0 15.5225 4.47754 20 10.0004 20C15.5229 20 20.0004 15.5225 20.0004 9.99959C20.0004 4.47669 15.5229 0 10.0004 0ZM6.87788 12.2397C6.73282 12.2275 6.56075 12.2449 6.43787 12.3142C6.03009 12.5443 5.63917 12.8041 5.1758 13.0936C5.26084 12.7091 5.31583 12.3724 5.41326 12.0485C5.48489 11.8105 5.45171 11.678 5.23242 11.523C3.8244 10.5289 3.23091 9.04122 3.67507 7.50954C4.08601 6.09263 5.09515 5.23331 6.46633 4.78537C8.33792 4.17402 10.4412 4.79764 11.5793 6.28354C11.9903 6.8203 12.2424 7.42272 12.309 8.13519C11.136 8.19648 10.1161 8.55202 9.28801 9.35534C8.45139 10.167 8.06949 11.1614 8.17386 12.3943C7.7154 12.3376 7.29784 12.2751 6.87788 12.2397ZM15.1313 14.1642C14.7697 14.485 14.6395 14.7491 14.8716 15.172C14.9144 15.25 14.9193 15.349 14.9441 15.4476C14.5727 15.2822 14.232 15.0341 13.8692 14.9962C13.5079 14.9585 13.1281 15.1669 12.75 15.2055C11.5985 15.3234 10.5669 15.0024 9.71625 14.2158C8.09844 12.7194 8.3296 10.425 10.2013 9.19875C11.8649 8.10888 14.3046 8.47222 15.4775 9.98445C16.501 11.304 16.3807 13.0556 15.1313 14.1642Z" fill="#005492"/>
</svg>
