<svg width="16" height="13" viewBox="0 0 16 13" fill="none" xmlns="http://www.w3.org/2000/svg">
<path d="M13.5452 1.01169C12.5077 0.535562 11.4129 0.195738 10.2882 0.000694617C10.278 -0.00102152 10.2675 0.000460649 10.2582 0.00493739C10.2489 0.00941414 10.2412 0.0166656 10.2362 0.0256946C10.0952 0.275695 9.93917 0.602695 9.83017 0.858695C8.61778 0.674703 7.38456 0.674703 6.17217 0.858695C6.05058 0.573514 5.91303 0.295408 5.76017 0.0256946C5.75504 0.0167645 5.74733 0.00959657 5.73804 0.00513421C5.72876 0.00067185 5.71835 -0.00087586 5.70817 0.000694617C4.58317 0.194695 3.48817 0.534695 2.45117 1.01169C2.4423 1.01508 2.43487 1.02144 2.43017 1.02969C0.356169 4.12869 -0.212831 7.15169 0.0661689 10.1367C0.0671689 10.1507 0.0761689 10.1647 0.0871689 10.1737C1.29489 11.0683 2.64576 11.7514 4.08217 12.1937C4.09231 12.1969 4.10321 12.1968 4.11328 12.1934C4.12335 12.1899 4.13207 12.1834 4.13817 12.1747C4.44617 11.7547 4.72017 11.3117 4.95617 10.8457C4.96109 10.8361 4.96277 10.8252 4.96097 10.8145C4.95917 10.8039 4.95398 10.7941 4.94617 10.7867C4.941 10.7818 4.93487 10.7781 4.92817 10.7757C4.49733 10.6101 4.08006 10.4112 3.68017 10.1807C3.669 10.1744 3.66069 10.164 3.65697 10.1517C3.65325 10.1394 3.65439 10.1262 3.66017 10.1147C3.66357 10.1072 3.66872 10.1007 3.67517 10.0957C3.75917 10.0327 3.84317 9.96669 3.92317 9.90069C3.93024 9.89501 3.93872 9.89136 3.9477 9.89013C3.95668 9.88889 3.96583 9.89013 3.97417 9.89369C6.59317 11.0897 9.42817 11.0897 12.0152 9.89369C12.0238 9.88995 12.0333 9.88863 12.0426 9.88986C12.052 9.8911 12.0608 9.89484 12.0682 9.90069C12.1482 9.96669 12.2322 10.0327 12.3162 10.0957C12.323 10.1007 12.3284 10.1073 12.3321 10.1149C12.3357 10.1225 12.3374 10.1308 12.337 10.1393C12.3366 10.1477 12.3341 10.1559 12.3298 10.1631C12.3255 10.1703 12.3194 10.1764 12.3122 10.1807C11.9132 10.4133 11.4954 10.612 11.0632 10.7747C11.0563 10.7772 11.05 10.7812 11.0448 10.7864C11.0396 10.7915 11.0357 10.7978 11.0332 10.8047C11.0309 10.8114 11.0299 10.8185 11.0304 10.8255C11.031 10.8326 11.0329 10.8394 11.0362 10.8457C11.2762 11.3107 11.5512 11.7547 11.8532 12.1747C11.8593 12.1834 11.868 12.1899 11.8781 12.1934C11.8881 12.1968 11.899 12.1969 11.9092 12.1937C13.348 11.7527 14.701 11.0696 15.9102 10.1737C15.9162 10.1695 15.9213 10.164 15.9249 10.1576C15.9285 10.1512 15.9307 10.144 15.9312 10.1367C16.2652 6.68569 15.3722 3.68769 13.5652 1.03069C13.5633 1.02631 13.5606 1.02235 13.5572 1.01908C13.5537 1.0158 13.5496 1.01329 13.5452 1.01169ZM5.34717 8.31869C4.55817 8.31869 3.90917 7.59469 3.90917 6.70669C3.90917 5.81769 4.54617 5.09369 5.34717 5.09369C6.15417 5.09369 6.79717 5.82369 6.78517 6.70669C6.78517 7.59469 6.14817 8.31869 5.34717 8.31869ZM10.6632 8.31869C9.87517 8.31869 9.22517 7.59469 9.22517 6.70669C9.22517 5.81769 9.86217 5.09369 10.6632 5.09369C11.4702 5.09369 12.1142 5.82369 12.1012 6.70669C12.1012 7.59469 11.4702 8.31869 10.6632 8.31869Z" fill="#005492"/>
</svg>
