<svg width="16" height="13" viewBox="0 0 16 13" fill="none" xmlns="http://www.w3.org/2000/svg">
<path d="M14.4002 0H1.59982C1.17665 0.0014851 0.771333 0.17338 0.472795 0.477976C0.174258 0.782572 0.00687379 1.19499 0.00736385 1.62477L0 11.3752C0.00121434 11.8058 0.170156 12.2183 0.469917 12.5228C0.769677 12.8272 1.17589 12.9988 1.59982 13H14.4002C14.8241 12.9988 15.2303 12.8272 15.5301 12.5228C15.8298 12.2183 15.9988 11.8058 16 11.3752V1.62477C15.9988 1.19423 15.8298 0.781681 15.5301 0.477245C15.2303 0.172809 14.8241 0.00123328 14.4002 0ZM14.4002 3.25047L8 7.31332L1.59982 3.25047V1.62477L8 5.68762L14.4002 1.62477V3.25047Z" fill="#005492"/>
</svg>
