<svg width="193" height="55" viewBox="0 0 193 55" fill="none" xmlns="http://www.w3.org/2000/svg">
<path d="M29.424 0.753017C29.424 0.745017 29.785 0.917021 29.803 0.926021C30.159 1.10002 30.503 1.29402 30.846 1.49902C31.381 1.82102 31.898 2.17202 32.399 2.54502C33.0636 3.04118 33.7006 3.5733 34.307 4.13902C35.0542 4.83496 35.7591 5.57495 36.418 6.35502C37.1981 7.27947 37.9189 8.25241 38.576 9.26802C39.3394 10.4499 40.0245 11.6806 40.627 12.952C41.3221 14.4209 41.92 15.9338 42.417 17.481C42.9901 19.2665 43.4497 21.0865 43.793 22.93C44.1894 25.0598 44.4589 27.2113 44.6 29.373C44.764 31.8736 44.7924 34.3813 44.685 36.885C44.7186 37.4821 44.6189 38.0793 44.393 38.633C44.301 38.822 44.216 39.016 44.126 39.207C43.8767 39.7403 43.6274 40.2737 43.378 40.807L41.325 45.207C40.611 46.7343 39.8977 48.262 39.185 49.79C38.7057 50.8174 38.226 51.844 37.746 52.87L37.536 53.32C37.536 53.32 34.18 34.013 18.63 23.12C18.631 23.113 29.424 0.753017 29.424 0.753017Z" fill="#89E3FE"/>
<path d="M23.89 9.04505L16.565 24.3151C16.565 24.3151 34.257 34.8331 36.135 54.8151C36.135 54.8151 32.604 31.451 -0.000976562 38.5881L0.573029 37.5801L2.08102 34.9301L4.20703 31.1951L6.63202 26.9331L9.04001 22.702L11.113 19.0591C11.5863 18.2264 12.0603 17.3931 12.535 16.5591C13.2291 15.3234 14.038 14.156 14.951 13.0721C16.0884 11.657 17.4829 10.4696 19.061 9.57206C19.7839 9.15037 20.5875 8.88553 21.4194 8.79473C22.2514 8.70394 23.0932 8.78922 23.89 9.04505Z" fill="#0191E6"/>
<path d="M3.68201 45.575C3.68201 45.575 23.365 37.01 34.182 51.736C34.182 51.736 30.125 38.063 7.66299 38.736L3.68201 45.575Z" fill="#005492"/>
<path d="M55.892 27.594L62.538 11.706H62.665L69.333 27.594H66.992L62.012 14.916L63.469 13.967L57.919 27.597L55.892 27.594ZM59.792 21.812H65.467L66.143 23.584H59.201L59.792 21.812Z" fill="white"/>
<path d="M75.1769 18.858L75.325 20.988L75.2619 20.65C75.5322 20.0008 76.0055 19.4567 76.6109 19.099C77.2808 18.703 78.048 18.5021 78.826 18.519C79.5667 18.4912 80.2894 18.7518 80.8419 19.246C81.1026 19.486 81.3097 19.7783 81.4496 20.1038C81.5895 20.4293 81.6592 20.7807 81.6539 21.135V27.591H79.6689V21.81C79.6704 21.3903 79.5246 20.9834 79.257 20.66C79.1009 20.4994 78.9112 20.3753 78.7014 20.2968C78.4917 20.2182 78.2671 20.1872 78.0439 20.206C77.5575 20.2034 77.0822 20.3512 76.683 20.629C76.2597 20.9205 75.924 21.3219 75.7119 21.79C75.4699 22.3269 75.3507 22.9111 75.3629 23.5V27.593H73.3829V18.857H75.1769V18.858Z" fill="white"/>
<path d="M89.2079 27.762C88.5931 27.762 87.9834 27.6512 87.4079 27.435C86.851 27.2354 86.3536 26.8983 85.9619 26.455L86.7849 25.316C87.121 25.6377 87.5053 25.9049 87.9239 26.1079C88.2797 26.2781 88.6685 26.3682 89.0629 26.372C89.3269 26.3743 89.5899 26.3389 89.8439 26.2669C90.0676 26.2057 90.2689 26.0815 90.4239 25.909C90.5768 25.7266 90.6559 25.4937 90.6459 25.256C90.6542 25.1159 90.6309 24.9759 90.5778 24.846C90.5247 24.7162 90.443 24.6 90.3389 24.506C90.1102 24.317 89.8494 24.1707 89.5689 24.0739C89.2589 23.9613 88.9209 23.856 88.5549 23.758C87.9291 23.5765 87.3614 23.2349 86.9079 22.7669C86.5281 22.3453 86.3241 21.7943 86.3379 21.227C86.3354 20.7701 86.4559 20.3211 86.6869 19.927C86.9384 19.5076 87.2998 19.1649 87.7319 18.9359C88.2512 18.6625 88.8323 18.5282 89.4189 18.546C89.9686 18.5384 90.5164 18.6132 91.0439 18.768C91.5396 18.9249 91.9988 19.18 92.3939 19.518L91.6129 20.742C91.3617 20.4771 91.0541 20.272 90.7129 20.1419C90.4144 20.0184 90.0958 19.9507 89.7729 19.942C89.5323 19.9399 89.2932 19.9791 89.0659 20.058C88.8646 20.1252 88.6832 20.2413 88.5379 20.396C88.402 20.5498 88.3304 20.7499 88.3379 20.955C88.3254 21.0869 88.3446 21.22 88.394 21.343C88.4434 21.466 88.5216 21.5754 88.6219 21.662C88.8502 21.8516 89.1111 21.998 89.3919 22.094C89.6999 22.206 90.0179 22.319 90.3409 22.432C90.7413 22.5495 91.1243 22.7196 91.4799 22.938C91.8042 23.1361 92.0813 23.4026 92.2919 23.719C92.5061 24.0667 92.6129 24.4698 92.5989 24.878C92.6026 25.3837 92.4755 25.8818 92.2299 26.3239C91.9717 26.78 91.5816 27.1474 91.1109 27.378C90.5161 27.6553 89.8637 27.787 89.2079 27.762Z" fill="white"/>
<path d="M102.628 18.858L105.228 24.746L104.828 24.788L107.234 18.858H109.154L105.144 28.12L102.338 22.127L99.764 28.12L95.734 18.858H97.676L100.376 25.019L99.7 24.872L101.64 20.356L100.922 18.856H102.632L102.628 18.858Z" fill="white"/>
<path d="M116.785 27.8051C115.89 27.8312 115.003 27.6244 114.211 27.205C113.512 26.8233 112.934 26.2526 112.544 25.558C112.141 24.8254 111.937 23.9999 111.953 23.164C111.945 22.3353 112.175 21.5218 112.618 20.821C113.057 20.122 113.662 19.5424 114.379 19.134C115.124 18.708 115.969 18.4895 116.827 18.501C117.877 18.4637 118.902 18.8257 119.696 19.514C120.494 20.2576 121.04 21.2315 121.258 22.3L114.041 24.8311L113.578 23.67L119.465 21.497L119.065 21.7971C118.894 21.33 118.603 20.9162 118.221 20.597C117.787 20.2453 117.239 20.0651 116.681 20.091C116.188 20.0814 115.702 20.2097 115.278 20.4615C114.854 20.7133 114.509 21.0785 114.281 21.5161C114.033 21.9947 113.91 22.5281 113.923 23.067C113.913 23.6167 114.04 24.1603 114.292 24.649C114.527 25.1018 114.886 25.4786 115.326 25.736C115.784 26.0002 116.305 26.135 116.834 26.126C117.213 26.1263 117.589 26.0551 117.942 25.916C118.303 25.7743 118.647 25.5904 118.965 25.368L119.851 26.824C119.397 27.1285 118.904 27.3701 118.385 27.5421C117.869 27.7144 117.329 27.8032 116.785 27.8051Z" fill="white"/>
<path d="M127.146 18.858L127.336 21.389L127.251 21.0309C127.472 20.5157 127.803 20.0552 128.222 19.6819C128.619 19.3181 129.076 19.0252 129.572 18.816C129.959 18.6411 130.373 18.5342 130.796 18.5L130.711 20.483C130.1 20.4132 129.482 20.5427 128.95 20.852C128.463 21.141 128.057 21.5474 127.768 22.034C127.483 22.5084 127.334 23.0517 127.336 23.605V27.593H125.374V18.857H127.146V18.858Z" fill="white"/>
<path d="M143.393 15.061C142.844 14.7807 142.272 14.5466 141.684 14.361C141.098 14.1674 140.486 14.0662 139.869 14.061C139.173 14.0248 138.485 14.2257 137.918 14.631C137.684 14.8077 137.496 15.038 137.369 15.3025C137.243 15.567 137.182 15.8579 137.191 16.151C137.186 16.3745 137.225 16.5969 137.307 16.8051C137.388 17.0133 137.511 17.2032 137.666 17.364C138.019 17.7206 138.434 18.0102 138.89 18.219C139.39 18.459 139.92 18.682 140.483 18.895C140.958 19.0684 141.423 19.2687 141.875 19.495C142.33 19.7217 142.752 20.0093 143.13 20.35C143.51 20.6976 143.812 21.1215 144.016 21.594C144.25 22.1697 144.361 22.7878 144.343 23.409C144.356 24.1943 144.145 24.967 143.734 25.6362C143.322 26.3054 142.729 26.8431 142.022 27.186C141.186 27.5859 140.268 27.7813 139.342 27.756C138.699 27.7584 138.058 27.6842 137.433 27.535C136.846 27.3969 136.276 27.1957 135.733 26.935C135.253 26.7047 134.788 26.4439 134.341 26.154L135.247 24.554C135.616 24.8121 136.004 25.0411 136.408 25.239C136.847 25.4576 137.306 25.6308 137.78 25.756C138.234 25.8798 138.702 25.9437 139.172 25.946C139.661 25.9463 140.147 25.8606 140.607 25.693C141.057 25.5328 141.458 25.2569 141.768 24.893C142.093 24.4793 142.258 23.9617 142.231 23.436C142.245 22.9725 142.1 22.5181 141.819 22.149C141.524 21.7801 141.158 21.474 140.743 21.249C140.277 20.993 139.794 20.7708 139.297 20.584C138.798 20.413 138.309 20.2158 137.831 19.993C137.353 19.7722 136.9 19.4999 136.481 19.181C136.066 18.8651 135.721 18.4668 135.468 18.011C135.195 17.4918 135.06 16.9106 135.078 16.324C135.061 15.5823 135.263 14.852 135.658 14.224C136.053 13.6189 136.603 13.1306 137.251 12.81C137.973 12.4533 138.766 12.2624 139.572 12.251C140.454 12.2367 141.333 12.3574 142.179 12.609C142.873 12.8235 143.542 13.1139 144.173 13.475L143.393 15.061Z" fill="white"/>
<path d="M148.963 27.594V11.263H150.903V20.885L150.861 20.527C151.174 19.9323 151.645 19.4357 152.222 19.092C152.881 18.6986 153.639 18.5005 154.406 18.521C155.147 18.4932 155.869 18.7538 156.422 19.248C156.683 19.488 156.89 19.7803 157.03 20.1058C157.17 20.4313 157.239 20.7827 157.234 21.137V27.593H155.251V21.811C155.253 21.3912 155.107 20.9843 154.839 20.661C154.683 20.5003 154.493 20.3762 154.284 20.2977C154.074 20.2192 153.849 20.1882 153.626 20.207C153.138 20.2051 152.662 20.3561 152.265 20.639C151.843 20.9357 151.508 21.3395 151.294 21.809C151.053 22.3382 150.934 22.9147 150.945 23.496V27.589H148.963V27.594Z" fill="white"/>
<path d="M166.391 27.8051C165.496 27.8311 164.609 27.6243 163.817 27.205C163.118 26.8233 162.54 26.2525 162.15 25.558C161.747 24.8254 161.543 23.9999 161.559 23.164C161.551 22.3353 161.782 21.5218 162.224 20.821C162.663 20.1218 163.268 19.5422 163.985 19.134C164.73 18.708 165.575 18.4895 166.433 18.501C167.483 18.4637 168.508 18.8257 169.302 19.514C170.1 20.2576 170.646 21.2315 170.864 22.3L163.647 24.8311L163.184 23.67L169.071 21.497L168.671 21.7971C168.499 21.3303 168.208 20.9167 167.827 20.597C167.393 20.2453 166.845 20.0651 166.287 20.091C165.794 20.0814 165.308 20.2097 164.884 20.4615C164.46 20.7133 164.115 21.0785 163.887 21.5161C163.639 21.9948 163.516 22.5282 163.529 23.067C163.52 23.6167 163.646 24.1602 163.898 24.649C164.133 25.1018 164.492 25.4786 164.932 25.736C165.39 26.0003 165.911 26.1351 166.44 26.126C166.819 26.1264 167.195 26.0551 167.548 25.916C167.909 25.7743 168.253 25.5904 168.571 25.368L169.457 26.824C169.003 27.1285 168.51 27.3701 167.991 27.5421C167.475 27.7143 166.935 27.8031 166.391 27.8051Z" fill="white"/>
<path d="M179.051 27.8051C178.156 27.831 177.269 27.6242 176.478 27.205C175.779 26.8234 175.201 26.2527 174.811 25.558C174.408 24.8255 174.204 24 174.22 23.164C174.212 22.3353 174.442 21.5218 174.885 20.821C175.324 20.122 175.929 19.5424 176.646 19.134C177.391 18.708 178.236 18.4895 179.094 18.501C180.144 18.4637 181.169 18.8257 181.963 19.514C182.761 20.2576 183.307 21.2315 183.525 22.3L176.308 24.8311L175.844 23.67L181.732 21.497L181.332 21.7971C181.16 21.3304 180.869 20.9167 180.488 20.597C180.054 20.2453 179.506 20.0651 178.948 20.091C178.455 20.0814 177.969 20.2097 177.545 20.4615C177.121 20.7133 176.776 21.0785 176.548 21.5161C176.3 21.9948 176.177 22.5281 176.19 23.067C176.18 23.6167 176.307 24.1603 176.559 24.649C176.794 25.1018 177.153 25.4786 177.593 25.736C178.051 26.0002 178.572 26.135 179.101 26.126C179.48 26.1263 179.856 26.0551 180.209 25.916C180.57 25.7743 180.914 25.5903 181.232 25.368L182.118 26.824C181.664 27.1285 181.171 27.3701 180.652 27.5421C180.136 27.7146 179.595 27.8034 179.051 27.8051Z" fill="white"/>
<path d="M188.483 15.018H190.488V18.9H192.871V20.44H190.486V27.5941H188.481V20.44H186.901V18.9H188.483V15.018Z" fill="white"/>
<path d="M83.6329 36.293V42.687H82.7689V39.776H79.3209V42.684H78.4569V36.29H79.3209V39.14H82.7689V36.29H83.6329V36.293Z" fill="white"/>
<path d="M91.213 37.293C91.1908 37.3318 91.1613 37.3658 91.1259 37.393C91.0931 37.4167 91.0534 37.429 91.0129 37.428C90.9472 37.421 90.885 37.395 90.834 37.353C90.765 37.304 90.6809 37.246 90.5769 37.185C90.459 37.1179 90.3351 37.0617 90.2069 37.017C90.0382 36.9624 89.8613 36.937 89.6839 36.942C89.5101 36.9388 89.337 36.9652 89.1719 37.02C89.0357 37.0649 88.9099 37.1366 88.8019 37.231C88.705 37.3185 88.6282 37.426 88.5769 37.546C88.5255 37.6695 88.5 37.8022 88.502 37.936C88.4955 38.095 88.5423 38.2516 88.6349 38.381C88.7282 38.5043 88.8465 38.6065 88.9819 38.681C89.1376 38.7702 89.3022 38.8429 89.4729 38.898C89.6579 38.958 89.8429 39.022 90.0339 39.088C90.2249 39.154 90.4129 39.227 90.5949 39.308C90.7728 39.3866 90.9382 39.4907 91.0859 39.617C91.2326 39.7444 91.3508 39.9011 91.433 40.077C91.5267 40.2877 91.5721 40.5166 91.5659 40.747C91.567 41.0155 91.5188 41.2819 91.424 41.533C91.3325 41.7733 91.1906 41.9912 91.0079 42.172C90.8158 42.3599 90.5866 42.5057 90.3349 42.6C90.0447 42.7083 89.7367 42.7613 89.4269 42.756C89.0376 42.7617 88.6515 42.685 88.2939 42.531C87.9656 42.3887 87.6696 42.1812 87.424 41.921L87.6729 41.51C87.6968 41.4771 87.7262 41.4487 87.7599 41.426C87.7932 41.4032 87.8326 41.391 87.873 41.391C87.9208 41.3934 87.9669 41.4094 88.006 41.437C88.055 41.469 88.106 41.509 88.174 41.555C88.242 41.601 88.3069 41.655 88.3879 41.711C88.474 41.7724 88.5661 41.8247 88.6629 41.867C88.7756 41.9176 88.8928 41.9575 89.0129 41.986C89.1579 42.0188 89.3063 42.0342 89.4549 42.032C89.6413 42.0345 89.8268 42.0061 90.0039 41.948C90.1558 41.8987 90.2951 41.8168 90.4119 41.708C90.5228 41.6055 90.6105 41.4803 90.6689 41.341C90.7311 41.1898 90.7617 41.0275 90.7589 40.864C90.7671 40.6958 90.7204 40.5295 90.6259 40.39C90.5348 40.2622 90.4162 40.1563 90.2789 40.08C90.124 39.9909 89.9592 39.9201 89.7879 39.869C89.6029 39.811 89.4149 39.75 89.2269 39.69C89.0389 39.63 88.848 39.557 88.666 39.479C88.487 39.4012 88.3214 39.2959 88.1749 39.167C88.0281 39.032 87.9101 38.8687 87.8279 38.687C87.7335 38.4622 87.6881 38.2198 87.6949 37.976C87.6951 37.7489 87.741 37.5241 87.8298 37.315C87.9186 37.1059 88.0486 36.9168 88.2119 36.759C88.3907 36.5879 88.6018 36.4543 88.8329 36.366C89.1023 36.2636 89.3888 36.2137 89.6769 36.219C90.0094 36.2152 90.3397 36.2732 90.6509 36.39C90.9395 36.5002 91.203 36.6671 91.4259 36.881L91.213 37.293Z" fill="white"/>
<path d="M99.9479 41.3661C99.9715 41.3665 99.9947 41.3718 100.016 41.3818C100.037 41.3918 100.056 41.4062 100.072 41.424L100.416 41.794C100.154 42.0979 99.8285 42.3398 99.4619 42.502C99.0343 42.6828 98.5729 42.7694 98.1089 42.756C97.6806 42.7611 97.2558 42.6795 96.8599 42.516C96.4959 42.3649 96.1685 42.1374 95.8999 41.849C95.6265 41.5505 95.4169 41.1993 95.2839 40.817C95.1344 40.3918 95.06 39.9437 95.0639 39.493C95.0583 39.0414 95.1355 38.5927 95.2919 38.169C95.4324 37.7842 95.6498 37.432 95.9309 37.134C96.2089 36.8428 96.5457 36.6141 96.9189 36.463C97.3228 36.2997 97.7552 36.2181 98.1909 36.223C98.9789 36.2014 99.7432 36.4934 100.316 37.035L100.03 37.435C100.013 37.4643 99.9894 37.489 99.9609 37.507C99.9271 37.5282 99.8876 37.5383 99.8479 37.536C99.7737 37.5289 99.7037 37.4984 99.6479 37.449C99.5514 37.3791 99.4512 37.3144 99.3479 37.255C99.1996 37.1731 99.0427 37.108 98.8799 37.061C98.6551 36.9983 98.4222 36.969 98.1889 36.974C97.8806 36.9713 97.5747 37.0294 97.2889 37.145C97.0192 37.258 96.7775 37.4286 96.5809 37.645C96.375 37.8765 96.2176 38.1468 96.1179 38.44C96.0035 38.7808 95.9477 39.1386 95.9529 39.498C95.9476 39.8609 96.0055 40.222 96.1239 40.565C96.2274 40.8567 96.3863 41.1257 96.5919 41.357C96.7867 41.5707 97.0255 41.7396 97.2919 41.852C97.5686 41.9663 97.8655 42.0241 98.1649 42.022C98.3372 42.0232 98.5093 42.0116 98.6799 41.987C98.8244 41.9672 98.9667 41.9338 99.1049 41.887C99.2312 41.8403 99.3522 41.7802 99.4659 41.708C99.584 41.6312 99.695 41.5442 99.7979 41.448C99.8354 41.4024 99.8892 41.373 99.9479 41.3661Z" fill="white"/>
<path d="M108.871 42.688V38.17H109.348C109.397 38.1665 109.446 38.1815 109.485 38.212C109.524 38.2424 109.55 38.2863 109.559 38.335L109.617 38.8C109.775 38.6037 109.965 38.4348 110.178 38.3C110.395 38.1655 110.646 38.0961 110.901 38.1C111.17 38.0873 111.434 38.1782 111.638 38.354C111.836 38.5403 111.977 38.7788 112.046 39.042C112.107 38.8879 112.192 38.7445 112.298 38.617C112.397 38.5003 112.514 38.4006 112.645 38.322C112.772 38.2449 112.909 38.1873 113.053 38.151C113.197 38.1156 113.344 38.0971 113.492 38.096C113.709 38.0923 113.925 38.1307 114.128 38.209C114.309 38.2821 114.471 38.3957 114.602 38.541C114.739 38.6971 114.841 38.8805 114.902 39.079C114.973 39.3149 115.007 39.5606 115.002 39.807V42.686H114.202V39.807C114.221 39.5196 114.14 39.2345 113.971 39.001C113.887 38.9076 113.783 38.8345 113.667 38.7869C113.551 38.7393 113.425 38.7185 113.3 38.726C113.172 38.7256 113.046 38.7489 112.927 38.795C112.811 38.8393 112.706 38.9074 112.618 38.995C112.524 39.0914 112.453 39.2067 112.407 39.333C112.352 39.4839 112.326 39.6436 112.329 39.804V42.683H111.529V39.807C111.551 39.5191 111.473 39.2325 111.309 38.995C111.231 38.9035 111.132 38.8316 111.021 38.7849C110.91 38.7381 110.79 38.718 110.67 38.726C110.477 38.7244 110.288 38.7797 110.127 38.885C109.949 39.0003 109.794 39.1462 109.667 39.316V42.684H108.867L108.871 42.688Z" fill="white"/>
<path d="M118.773 38.805C119.005 38.5757 119.279 38.3922 119.579 38.2641C119.884 38.1416 120.21 38.0807 120.539 38.085C120.77 38.0805 120.999 38.1227 121.213 38.2091C121.401 38.287 121.57 38.4054 121.707 38.5561C121.843 38.7136 121.946 38.8979 122.007 39.0971C122.078 39.3235 122.111 39.5598 122.107 39.797V42.6881H121.754C121.692 42.6918 121.63 42.6786 121.575 42.6501C121.525 42.6134 121.49 42.5602 121.475 42.5L121.385 42.072C121.275 42.1755 121.159 42.273 121.038 42.364C120.927 42.4473 120.808 42.519 120.682 42.578C120.554 42.6367 120.42 42.6813 120.282 42.711C120.127 42.7438 119.969 42.7592 119.811 42.757C119.644 42.7588 119.477 42.7345 119.317 42.685C119.17 42.6396 119.034 42.5647 118.917 42.4651C118.799 42.3632 118.706 42.2356 118.645 42.0921C118.575 41.9237 118.541 41.7424 118.545 41.56C118.546 41.3781 118.597 41.2 118.692 41.0451C118.811 40.8603 118.975 40.7088 119.169 40.6051C119.439 40.4593 119.729 40.3532 120.03 40.2901C120.458 40.2 120.893 40.1524 121.33 40.148V39.7951C121.351 39.5114 121.27 39.2296 121.102 39C121.019 38.9077 120.916 38.8356 120.8 38.789C120.685 38.7424 120.561 38.7226 120.437 38.731C120.269 38.7259 120.102 38.7503 119.943 38.8031C119.823 38.8463 119.708 38.9016 119.599 38.968C119.499 39.028 119.42 39.084 119.35 39.133C119.29 39.1783 119.217 39.2035 119.142 39.205C119.092 39.2063 119.043 39.1908 119.003 39.161C118.964 39.1337 118.93 39.0999 118.903 39.0611L118.773 38.805ZM121.337 40.6521C121.024 40.6584 120.712 40.6871 120.403 40.7381C120.187 40.7727 119.975 40.8327 119.773 40.917C119.635 40.9731 119.513 41.0637 119.42 41.18C119.348 41.2781 119.31 41.3965 119.31 41.518C119.308 41.6239 119.328 41.7291 119.368 41.8271C119.403 41.9092 119.458 41.9815 119.527 42.0381C119.597 42.0947 119.677 42.1359 119.764 42.159C119.859 42.1854 119.957 42.1983 120.056 42.197C120.185 42.1984 120.314 42.184 120.44 42.154C120.553 42.1263 120.663 42.0857 120.767 42.033C120.981 41.9186 121.174 41.768 121.337 41.588V40.6521Z" fill="white"/>
<path d="M129.739 36.114V42.684H129.27C129.22 42.6883 129.17 42.6737 129.131 42.6431C129.091 42.6126 129.064 42.5683 129.056 42.519L128.984 41.97C128.798 42.1951 128.574 42.386 128.322 42.534C128.06 42.6794 127.765 42.7529 127.466 42.747C127.223 42.751 126.982 42.6997 126.761 42.597C126.549 42.4954 126.363 42.3449 126.22 42.158C126.061 41.9409 125.944 41.6955 125.876 41.435C125.791 41.1103 125.75 40.7756 125.755 40.44C125.752 40.1247 125.797 39.8109 125.888 39.509C125.969 39.2385 126.099 38.9854 126.273 38.763C126.442 38.5466 126.66 38.3728 126.908 38.2554C127.157 38.1381 127.429 38.0804 127.704 38.087C127.949 38.0799 128.192 38.1284 128.415 38.229C128.615 38.3239 128.794 38.4563 128.944 38.619V36.119H129.744L129.739 36.114ZM128.944 39.241C128.821 39.0632 128.655 38.9199 128.461 38.825C128.278 38.7447 128.08 38.7044 127.88 38.707C127.694 38.6972 127.508 38.7332 127.339 38.8118C127.17 38.8905 127.023 39.0093 126.911 39.158C126.663 39.5382 126.545 39.9881 126.573 40.441C126.569 40.6954 126.594 40.9493 126.648 41.198C126.687 41.3835 126.763 41.5593 126.871 41.715C126.962 41.8455 127.087 41.9491 127.232 42.015C127.386 42.0799 127.551 42.1113 127.718 42.107C127.958 42.1122 128.196 42.0502 128.403 41.928C128.612 41.7964 128.794 41.6268 128.941 41.428V39.246L128.944 39.241Z" fill="white"/>
<path d="M137.341 42.054C137.24 42.1747 137.122 42.279 136.989 42.3631C136.851 42.4505 136.704 42.5233 136.55 42.58C136.393 42.6369 136.231 42.6794 136.067 42.707C135.904 42.7359 135.739 42.7505 135.573 42.751C135.277 42.7545 134.984 42.7005 134.709 42.592C134.451 42.489 134.218 42.3311 134.027 42.129C133.827 41.9101 133.675 41.6524 133.579 41.372C133.466 41.0388 133.411 40.6888 133.417 40.3371C133.415 40.0361 133.464 39.7369 133.561 39.452C133.651 39.1896 133.792 38.9479 133.977 38.741C134.162 38.5373 134.389 38.3756 134.642 38.267C134.922 38.1486 135.223 38.0903 135.527 38.096C135.784 38.0939 136.038 38.14 136.278 38.232C136.504 38.3184 136.709 38.4524 136.878 38.625C137.054 38.8056 137.19 39.0213 137.278 39.258C137.377 39.5334 137.425 39.8244 137.42 40.117C137.427 40.2017 137.413 40.2868 137.38 40.365C137.362 40.3873 137.339 40.4048 137.313 40.4158C137.287 40.4268 137.258 40.431 137.23 40.428H134.209C134.213 40.6811 134.253 40.9323 134.328 41.174C134.388 41.3683 134.488 41.5483 134.62 41.703C134.742 41.8416 134.894 41.9504 135.065 42.021C135.25 42.0913 135.448 42.1253 135.646 42.1211C135.82 42.1245 135.993 42.1012 136.16 42.052C136.288 42.0129 136.413 41.9627 136.533 41.902C136.623 41.8573 136.709 41.8073 136.793 41.752C136.845 41.7126 136.907 41.6886 136.972 41.683C137.001 41.6817 137.03 41.6879 137.057 41.701C137.083 41.7141 137.105 41.7338 137.122 41.758L137.341 42.054ZM136.696 39.932C136.698 39.7602 136.672 39.5893 136.618 39.426C136.571 39.2781 136.493 39.1418 136.39 39.026C136.289 38.9149 136.165 38.8272 136.026 38.769C135.872 38.7058 135.707 38.6746 135.541 38.677C135.376 38.6681 135.211 38.6929 135.057 38.75C134.902 38.8071 134.76 38.8953 134.641 39.0091C134.406 39.263 134.261 39.5868 134.228 39.931H136.7L136.696 39.932Z" fill="white"/>
<path d="M149.69 42.054C149.589 42.1747 149.471 42.279 149.338 42.3631C149.2 42.4505 149.052 42.5233 148.899 42.58C148.742 42.6369 148.58 42.6794 148.416 42.707C148.253 42.7359 148.088 42.7505 147.922 42.751C147.626 42.7545 147.333 42.7005 147.058 42.592C146.8 42.4891 146.567 42.3311 146.376 42.129C146.176 41.9101 146.024 41.6524 145.928 41.372C145.815 41.0388 145.76 40.6888 145.766 40.337C145.764 40.0361 145.812 39.7368 145.91 39.452C146 39.1896 146.141 38.9478 146.326 38.741C146.511 38.5372 146.738 38.3756 146.991 38.267C147.271 38.1486 147.572 38.0903 147.876 38.096C148.133 38.0939 148.387 38.14 148.627 38.232C148.853 38.3184 149.057 38.4524 149.227 38.625C149.403 38.8056 149.539 39.0213 149.627 39.258C149.726 39.5333 149.774 39.8244 149.769 40.117C149.776 40.2018 149.762 40.287 149.728 40.365C149.71 40.3873 149.687 40.4049 149.661 40.4159C149.635 40.4269 149.606 40.4311 149.578 40.428H146.557C146.56 40.681 146.6 40.9323 146.675 41.174C146.735 41.3683 146.835 41.5482 146.967 41.703C147.089 41.8415 147.241 41.9502 147.412 42.021C147.597 42.0913 147.795 42.1253 147.993 42.121C148.167 42.1246 148.34 42.1013 148.507 42.052C148.635 42.013 148.76 41.9627 148.88 41.902C148.97 41.8573 149.056 41.8072 149.14 41.752C149.192 41.7125 149.254 41.6886 149.319 41.683C149.348 41.6818 149.377 41.688 149.404 41.7011C149.43 41.7142 149.452 41.7338 149.469 41.758L149.69 42.054ZM149.048 39.932C149.05 39.7602 149.024 39.5893 148.97 39.426C148.923 39.2781 148.845 39.1418 148.742 39.026C148.641 38.9149 148.516 38.8271 148.378 38.769C148.224 38.7058 148.058 38.6745 147.892 38.677C147.727 38.6681 147.562 38.6929 147.408 38.75C147.253 38.8071 147.111 38.8953 146.992 39.009C146.757 39.2628 146.611 39.5867 146.578 39.931H149.045L149.048 39.932Z" fill="white"/>
<path d="M153.295 38.805C153.527 38.575 153.801 38.3914 154.102 38.264C154.407 38.1418 154.733 38.081 155.062 38.085C155.293 38.0804 155.522 38.1226 155.736 38.209C155.924 38.287 156.093 38.4054 156.23 38.556C156.366 38.7135 156.469 38.8978 156.53 39.097C156.6 39.3235 156.634 39.5598 156.63 39.797V42.688H156.277C156.215 42.6917 156.153 42.6786 156.098 42.65C156.048 42.6135 156.012 42.5603 155.998 42.5L155.908 42.072C155.798 42.1756 155.682 42.2731 155.561 42.364C155.337 42.5334 155.078 42.6518 154.804 42.711C154.649 42.7437 154.491 42.7592 154.333 42.757C154.165 42.7588 153.999 42.7345 153.839 42.685C153.692 42.6389 153.556 42.5641 153.439 42.465C153.321 42.363 153.228 42.2354 153.167 42.092C153.097 41.9237 153.063 41.7424 153.067 41.56C153.068 41.378 153.118 41.1999 153.214 41.045C153.333 40.8601 153.497 40.7086 153.691 40.605C153.962 40.4592 154.252 40.3531 154.553 40.29C154.98 40.1999 155.416 40.1524 155.853 40.148V39.795C155.873 39.5114 155.793 39.2296 155.625 39C155.542 38.9076 155.439 38.8354 155.323 38.7888C155.208 38.7422 155.084 38.7224 154.96 38.731C154.792 38.7259 154.625 38.7503 154.466 38.803C154.346 38.8463 154.231 38.9015 154.122 38.968C154.022 39.028 153.943 39.084 153.873 39.133C153.813 39.1783 153.74 39.2036 153.665 39.205C153.615 39.2062 153.566 39.1907 153.526 39.161C153.487 39.1336 153.453 39.0998 153.426 39.061L153.295 38.805ZM155.859 40.652C155.546 40.6583 155.234 40.6871 154.925 40.738C154.709 40.7726 154.497 40.8327 154.295 40.917C154.157 40.9731 154.036 41.0637 153.943 41.18C153.871 41.278 153.833 41.3965 153.833 41.518C153.831 41.6239 153.851 41.729 153.891 41.827C153.926 41.9091 153.981 41.9814 154.05 42.038C154.119 42.0946 154.2 42.1359 154.287 42.159C154.382 42.1854 154.48 42.1982 154.579 42.197C154.708 42.1984 154.837 42.1839 154.963 42.154C155.076 42.1261 155.186 42.0856 155.29 42.033C155.504 41.9183 155.697 41.7678 155.86 41.588V40.651L155.859 40.652Z" fill="white"/>
<path d="M163.155 38.912C163.141 38.9431 163.117 38.9692 163.088 38.987C163.059 39.0049 163.025 39.0135 162.991 39.012C162.937 39.0087 162.885 38.9918 162.84 38.963C162.785 38.931 162.716 38.894 162.632 38.853C162.538 38.8081 162.44 38.7703 162.34 38.74C162.21 38.703 162.075 38.6855 161.94 38.688C161.818 38.6864 161.696 38.7039 161.579 38.74C161.479 38.7702 161.386 38.8184 161.304 38.882C161.233 38.9387 161.174 39.0095 161.131 39.09C161.09 39.1695 161.069 39.2576 161.07 39.347C161.066 39.4524 161.102 39.5554 161.17 39.636C161.245 39.719 161.335 39.7869 161.436 39.836C161.556 39.8973 161.682 39.9476 161.812 39.986C161.951 40.029 162.096 40.076 162.243 40.124C162.39 40.172 162.535 40.224 162.674 40.286C162.808 40.3433 162.934 40.4183 163.049 40.509C163.159 40.5987 163.25 40.7099 163.315 40.836C163.385 40.9808 163.419 41.1403 163.415 41.301C163.417 41.4993 163.378 41.6959 163.302 41.879C163.227 42.0547 163.114 42.2117 162.972 42.339C162.815 42.4748 162.634 42.5788 162.437 42.645C162.202 42.7242 161.954 42.7624 161.706 42.758C161.414 42.7619 161.123 42.7099 160.85 42.605C160.611 42.5112 160.391 42.3758 160.199 42.205L160.387 41.905C160.408 41.8693 160.437 41.8385 160.471 41.815C160.509 41.7934 160.552 41.7827 160.595 41.784C160.657 41.7862 160.717 41.8083 160.766 41.847C160.827 41.887 160.899 41.934 160.983 41.986C161.082 42.0413 161.185 42.0875 161.292 42.124C161.439 42.1689 161.592 42.1902 161.746 42.187C161.882 42.1894 162.017 42.1691 162.146 42.127C162.252 42.092 162.35 42.037 162.435 41.965C162.509 41.9 162.568 41.8189 162.606 41.728C162.643 41.6373 162.662 41.54 162.661 41.442C162.665 41.3301 162.63 41.2203 162.561 41.132C162.486 41.0456 162.396 40.974 162.295 40.921C162.175 40.8587 162.049 40.8084 161.919 40.771C161.78 40.73 161.633 40.681 161.485 40.635C161.338 40.5882 161.193 40.5342 161.052 40.473C160.916 40.4152 160.79 40.3384 160.676 40.245C160.564 40.1513 160.474 40.0351 160.41 39.904C160.339 39.7491 160.305 39.5802 160.31 39.41C160.309 39.2375 160.345 39.0669 160.417 38.91C160.49 38.7498 160.596 38.607 160.729 38.491C160.876 38.3636 161.045 38.2655 161.229 38.202C161.448 38.1271 161.679 38.0909 161.911 38.095C162.184 38.0901 162.456 38.138 162.711 38.236C162.938 38.3243 163.146 38.4545 163.324 38.62L163.155 38.912Z" fill="white"/>
<path d="M170.877 38.1661L168.356 44.02C168.334 44.0744 168.3 44.123 168.256 44.162C168.203 44.202 168.137 44.2215 168.071 44.217H167.482L168.309 42.425L166.444 38.17H167.132C167.191 38.1667 167.248 38.1853 167.294 38.222C167.33 38.2522 167.359 38.2906 167.378 38.334L168.586 41.1821C168.633 41.3107 168.674 41.4419 168.707 41.5751C168.747 41.4361 168.794 41.303 168.84 41.175L170.014 38.3331C170.032 38.2852 170.064 38.2439 170.106 38.215C170.148 38.1841 170.198 38.1676 170.25 38.168H170.877V38.1661Z" fill="white"/>
</svg>
