<svg width="19" height="19" viewBox="0 0 19 19" fill="none" xmlns="http://www.w3.org/2000/svg">
<path fill-rule="evenodd" clip-rule="evenodd" d="M15.5241 9.57422C15.5241 13.2234 12.6194 16.1816 9.03624 16.1816C5.45307 16.1816 2.54834 13.2234 2.54834 9.57422C2.54834 5.92504 5.45307 2.9668 9.03624 2.9668C12.6194 2.9668 15.5241 5.92504 15.5241 9.57422ZM9.03624 15.7905C12.4073 15.7905 15.1401 13.0074 15.1401 9.57422C15.1401 6.14106 12.4073 3.35793 9.03624 3.35793C5.66518 3.35793 2.9324 6.14106 2.9324 9.57422C2.9324 13.0074 5.66518 15.7905 9.03624 15.7905Z" fill="#343637"/>
<path fill-rule="evenodd" clip-rule="evenodd" d="M8.26788 15.3996C11.6389 15.3996 14.3717 12.6165 14.3717 9.18336C14.3717 6.90398 13.1671 4.91113 11.3708 3.8291C13.5835 4.76273 15.1399 6.98346 15.1399 9.57441C15.1399 13.0076 12.4071 15.7907 9.03607 15.7907C7.90316 15.7907 6.84234 15.4764 5.93311 14.9287C6.65233 15.2321 7.44089 15.3996 8.26788 15.3996Z" fill="#343637"/>
<path fill-rule="evenodd" clip-rule="evenodd" d="M1.93333 5.32122C2.54836 7.34534 3.82995 9.76707 5.62242 12.1199C7.41489 14.4727 9.39984 16.3386 11.1722 17.4482C12.0571 18.0023 12.9071 18.3791 13.6665 18.5233C14.4255 18.6672 15.1401 18.5851 15.687 18.1529C16.2341 17.7207 16.4895 17.0362 16.5412 16.2517C16.593 15.4668 16.4457 14.5346 16.1385 13.524C15.5235 11.4999 14.2419 9.07815 12.4495 6.72536C10.657 4.37255 8.67205 2.50657 6.89967 1.39695C6.01477 0.842936 5.16476 0.466061 4.40535 0.322047C3.64641 0.17811 2.93184 0.260091 2.38485 0.692311C1.83785 1.12453 1.58234 1.80909 1.53067 2.59352C1.47897 3.37846 1.62626 4.31061 1.93333 5.32122ZM5.92586 11.8801C2.38258 7.22917 0.902621 2.35859 2.62027 1.00134C4.33792 -0.355902 8.60275 2.31418 12.146 6.96512C15.6893 11.616 17.1693 16.4866 15.4516 17.8439C13.734 19.2011 9.46914 16.531 5.92586 11.8801Z" fill="#343637"/>
<path fill-rule="evenodd" clip-rule="evenodd" d="M17.0177 7.11303C15.9658 8.97462 14.1749 11.0667 11.9045 12.9707C9.63413 14.8746 7.27445 16.2632 5.27867 16.9573C4.28289 17.3039 3.34754 17.4879 2.54375 17.4568C1.74074 17.4257 0.999401 17.174 0.512015 16.5713C0.0246282 15.9685 -0.0756491 15.1792 0.0484971 14.3706C0.172739 13.5613 0.529623 12.6617 1.05446 11.7329C2.10637 9.87133 3.89728 7.77924 6.16766 5.87529C8.43807 3.97132 10.7977 2.58271 12.7935 1.88851C13.7893 1.54216 14.7247 1.35804 15.5284 1.38913C16.3314 1.42021 17.0729 1.67186 17.5602 2.27465C18.0476 2.87747 18.1478 3.66671 18.0238 4.4753C17.8995 5.28463 17.5426 6.18421 17.0177 7.11303ZM11.5383 12.5177C16.0004 8.77581 18.4973 4.3568 17.1155 2.6476C15.7335 0.938411 10.996 2.58627 6.53386 6.3282C2.07174 10.0701 -0.425217 14.4891 0.956732 16.1983C2.33868 17.9076 7.07622 16.2597 11.5383 12.5177Z" fill="#343637"/>
<path d="M18.1768 5.31401C18.1768 5.72636 17.8484 6.06063 17.4436 6.06063C17.0388 6.06063 16.7104 5.72636 16.7104 5.31401C16.7104 4.90166 17.0388 4.56738 17.4436 4.56738C17.8484 4.56738 18.1768 4.90166 18.1768 5.31401Z" fill="#343637"/>
<path d="M7.4174 6.06107C7.4174 6.47342 7.08917 6.80768 6.6843 6.80768C6.27941 6.80768 5.95117 6.47342 5.95117 6.06107C5.95117 5.64871 6.27941 5.31445 6.6843 5.31445C7.08917 5.31445 7.4174 5.64871 7.4174 6.06107Z" fill="#343637"/>
<path d="M7.2987 15.9322C7.2987 16.5688 6.79188 17.0851 6.16667 17.0851C5.54149 17.0851 5.03467 16.5688 5.03467 15.9322C5.03467 15.2955 5.54149 14.7793 6.16667 14.7793C6.79188 14.7793 7.2987 15.2955 7.2987 15.9322Z" fill="#343637"/>
</svg>
