<svg width="22" height="18" viewBox="0 0 22 18" fill="none" xmlns="http://www.w3.org/2000/svg">
<path d="M3.76813 13.6859C6.2432 13.7341 8.38804 14.1042 9.97085 14.7563C9.99787 14.7673 10.0265 14.7729 10.0548 14.7729C10.0979 14.7729 10.1407 14.7602 10.1775 14.7356C10.2386 14.6947 10.2753 14.626 10.2753 14.5524L10.2761 2.72073C10.2761 2.63044 10.2211 2.54925 10.1372 2.51589L3.85389 0.0156197C3.78608 -0.0113966 3.70916 -0.00301052 3.64869 0.0380124C3.58822 0.0790808 3.552 0.147392 3.552 0.220463V13.4655C3.552 13.5856 3.6481 13.6836 3.76813 13.6859Z" fill="#505050"/>
<path d="M21.7691 2.11708C21.7133 2.07551 21.6411 2.06277 21.5743 2.08267L19.3521 2.74706C19.2587 2.77498 19.1947 2.86084 19.1947 2.95825V14.3881C19.1947 14.3881 19.2046 14.5684 19.0148 14.5684C18.7974 14.5684 18.6546 14.5684 18.6546 14.5684C16.8618 14.5684 13.5303 14.7545 11.3597 16.0008L10.9289 16.2475L10.4982 16.0008C8.32753 14.7545 4.99605 14.5684 3.20333 14.5684C3.20333 14.5684 2.83621 14.5684 2.7436 14.5684C2.65788 14.5684 2.66314 14.4654 2.66314 14.4654V2.95825C2.66314 2.86084 2.59918 2.77498 2.50585 2.74706L0.28358 2.08267C0.21681 2.06277 0.1446 2.07551 0.0887547 2.11708C0.032909 2.15864 0 2.22419 0 2.29381V16.1224C0 16.1846 0.0263363 16.2439 0.0723908 16.2857C0.118491 16.3275 0.180048 16.3479 0.241968 16.3418C0.90246 16.277 1.93506 16.1998 3.10333 16.1998C5.66924 16.1998 7.73131 16.5745 9.06757 17.2838C9.26389 17.3868 10.4021 18.0001 10.929 18.0001C11.4559 18.0001 12.5941 17.3868 12.7904 17.2838C14.1267 16.5745 16.1888 16.1998 18.7547 16.1998C19.9228 16.1998 20.9555 16.277 21.616 16.3418C21.6779 16.3479 21.7395 16.3275 21.7856 16.2857C21.8317 16.2439 21.8579 16.1846 21.8579 16.1224V2.29381C21.8579 2.22419 21.8249 2.15864 21.7691 2.11708Z" fill="#505050"/>
<path d="M11.6804 14.7356C11.7172 14.7602 11.76 14.7729 11.803 14.7729C11.8314 14.7729 11.86 14.7673 11.887 14.7563C13.4698 14.1042 15.6147 13.7341 18.0898 13.6859C18.2098 13.6836 18.3059 13.5856 18.3059 13.4656V0.22045C18.3059 0.147334 18.2697 0.0790229 18.2092 0.038C18.1488 -0.00297769 18.0718 -0.0114091 18.004 0.0156072L11.7207 2.51588C11.6368 2.54924 11.5818 2.63042 11.5818 2.72072L11.5826 14.5524C11.5826 14.626 11.6193 14.6947 11.6804 14.7356Z" fill="#505050"/>
</svg>
