<svg width="34" height="34" viewBox="0 0 34 34" fill="none" xmlns="http://www.w3.org/2000/svg">
<circle cx="16.9995" cy="17" r="17" fill="#005492"/>
<path d="M23.9995 17C23.9995 16.0073 23.1586 15.2 22.1245 15.2H21.187V12.5C21.187 10.0187 19.0842 8 16.4995 8C13.9148 8 11.812 10.0187 11.812 12.5V15.2H10.8745C9.84045 15.2 8.99951 16.0073 8.99951 17V24.2C8.99951 25.1927 9.84045 26 10.8745 26H22.1245C23.1586 26 23.9995 25.1927 23.9995 24.2V17ZM13.687 12.5C13.687 11.0114 14.9489 9.8 16.4995 9.8C18.0501 9.8 19.312 11.0114 19.312 12.5V15.2H13.687V12.5Z" fill="white"/>
</svg>
