<svg width="213" height="164" viewBox="0 0 213 164" fill="none" xmlns="http://www.w3.org/2000/svg">
<path d="M265.086 86.2105C265.091 101.686 260.938 116.878 253.062 130.191C245.186 143.503 233.879 154.446 220.327 161.871C219.558 162.291 218.78 162.702 217.998 163.099C215.098 164.58 212.114 165.891 209.062 167.026C207.847 167.484 206.619 167.911 205.378 168.306C205.259 168.347 205.136 168.388 205.016 168.422C192.867 172.287 180.01 173.393 167.381 171.66C154.751 169.928 142.665 165.4 131.999 158.405C130.569 157.468 129.168 156.489 127.796 155.47C127.021 154.892 126.256 154.303 125.502 153.698C123.368 152.001 121.319 150.202 119.356 148.303C111.009 140.27 104.371 130.628 99.8418 119.957C95.3123 109.286 92.9851 97.8065 93.0001 86.2105C93.0001 38.5963 131.521 0 179.043 0C226.565 0 265.086 38.5963 265.086 86.2105Z" fill="#D6E4F1"/>
<path d="M54.7875 50.4079L54.7875 50.4079C54.851 50.2694 55.0704 49.7892 55.208 49.2849C55.2772 49.031 55.3182 48.7974 55.3181 48.612C55.3181 48.4151 55.2726 48.3605 55.2696 48.3576C55.269 48.3569 55.2679 48.3559 55.2648 48.3541C55.2615 48.3522 55.2541 48.3485 55.2405 48.3446C55.2118 48.3362 55.1605 48.3283 55.078 48.3321C54.9076 48.34 54.6714 48.3941 54.3648 48.5005C53.8622 48.6748 53.2725 48.9511 52.6257 49.2542C52.4811 49.3219 52.3336 49.391 52.1836 49.4606C51.3858 49.8308 50.5234 50.2113 49.7429 50.4017C48.9867 50.5862 48.1382 50.6347 47.5212 50.1112C47.3902 50.0001 47.2807 49.8713 47.1812 49.7448C47.1344 49.6854 47.0748 49.6064 47.0135 49.5252C46.9613 49.456 46.9078 49.3852 46.8598 49.3232C46.6241 49.0184 46.3003 48.6307 45.765 48.1443C45.5427 47.9423 45.3987 47.8286 45.2941 47.7694C45.2723 47.7571 45.2554 47.7489 45.2426 47.7435C45.2262 47.7704 45.2013 47.817 45.1681 47.8949C45.1276 47.9898 45.0863 48.1013 45.0327 48.2456C45.0202 48.2794 45.007 48.315 44.9929 48.3527C44.9214 48.5445 44.8347 48.7719 44.7221 49.0321C44.3891 49.8016 44.1218 50.1827 43.8993 50.4999C43.8932 50.5087 43.8871 50.5174 43.881 50.526C43.6786 50.8148 43.5234 51.0419 43.353 51.5714C43.2589 51.8637 43.2084 52.0933 43.1618 52.3053C43.141 52.4001 43.1209 52.4914 43.0981 52.5832C43.0654 52.7145 43.0197 52.8754 42.9377 53.017C42.8443 53.1782 42.6959 53.328 42.4709 53.3969L54.7875 50.4079ZM54.7875 50.4079C54.4635 51.1152 54.0284 51.624 53.6684 52.0409C53.6602 52.0504 53.6519 52.0599 53.6437 52.0695C53.4816 52.257 53.3088 52.4569 53.1956 52.6418C53.0804 52.83 52.929 53.1605 53.1022 53.5141C53.2691 53.855 53.6072 53.9466 53.8068 53.9771C54.0006 54.0068 54.2221 54.0017 54.3924 53.9978C54.406 53.9975 54.4193 53.9972 54.4322 53.9969C54.6346 53.9925 54.777 53.9927 54.8824 54.0119C54.883 54.012 54.8837 54.0122 54.8844 54.0123C54.8754 54.0481 54.8572 54.1026 54.8204 54.1802C54.725 54.3807 54.5568 54.6223 54.3527 54.8715C53.9487 55.365 53.4803 55.7979 53.4239 55.8494L53.7252 56.1796L53.4239 55.8494C53.0179 56.2202 52.5887 56.6099 51.9053 56.9351C51.5195 57.1186 51.1743 57.2256 50.8545 57.3246C50.7618 57.3534 50.6712 57.3814 50.5823 57.4105C50.3995 57.4704 50.1947 57.5442 50.0243 57.6527C49.84 57.7701 49.6557 57.9543 49.5924 58.239M54.7875 50.4079L49.5924 58.239M40.0057 64.8756C40.2333 64.3849 40.4427 63.9405 40.63 63.5518L41.0802 63.7659L40.63 63.5518C41.2496 62.2658 42.0218 60.729 43.6188 60.1398M40.0057 64.8756L49.8696 59.1347C49.8696 59.1347 49.8694 59.135 49.8691 59.1356M40.0057 64.8756L40.5611 63.4127L40.5643 63.4043L40.5672 63.3957C41.4443 60.8093 41.2868 58.9372 40.9502 57.6765C40.8761 57.3987 40.7928 57.139 40.7117 56.8861C40.4482 56.0642 40.2074 55.3132 40.3746 54.2423L39.9243 54.1755L40.3746 54.2423C40.4337 53.8635 40.5475 53.4343 40.7012 53.1044C40.7783 52.939 40.8555 52.8203 40.9239 52.7464C40.9692 52.6975 40.9977 52.6817 41.0082 52.6771C41.0169 52.6796 41.0355 52.6868 41.067 52.7066C41.1389 52.7519 41.2177 52.8236 41.3335 52.9344C41.3407 52.9414 41.3482 52.9486 41.3559 52.956C41.4522 53.0485 41.5868 53.1779 41.7307 53.2707C41.8941 53.3761 42.158 53.4926 42.4709 53.3969L40.0057 64.8756ZM43.6188 60.1398L43.7888 60.6087L43.6188 60.1398C43.6188 60.1398 43.6188 60.1398 43.6188 60.1398ZM43.6188 60.1398C44.3616 59.8658 45.2169 59.8257 46.0907 59.7847L46.118 59.7834L46.1337 59.7827C47.0363 59.7403 48.0187 59.6943 49.1215 59.447L49.1216 59.4469C49.2545 59.4171 49.4647 59.3666 49.6473 59.2832C49.7379 59.2418 49.8014 59.2013 49.8399 59.1671C49.8447 59.1628 49.8489 59.1589 49.8523 59.1554M49.8523 59.1554C49.8627 59.1752 49.8655 59.1829 49.8658 59.1828C49.8662 59.1827 49.8611 59.1656 49.866 59.1448C49.8672 59.1401 49.8684 59.137 49.8691 59.1356M49.8523 59.1554C49.8423 59.1362 49.8252 59.1057 49.7965 59.0601C49.7922 59.0532 49.7871 59.0453 49.7813 59.0364C49.704 58.9171 49.5087 58.6158 49.5924 58.239M49.8523 59.1554C49.8631 59.1446 49.8677 59.1379 49.8691 59.1356M49.8691 59.1356L49.5924 58.239M45.2665 47.7107C45.2665 47.7111 45.2647 47.7132 45.2612 47.7161C45.2647 47.7118 45.2665 47.7104 45.2665 47.7107ZM45.2151 47.7341C45.2119 47.7341 45.2101 47.7337 45.21 47.7335C45.2099 47.7333 45.2115 47.7333 45.2151 47.7341ZM54.9452 54.0284C54.9472 54.0293 54.9481 54.0298 54.948 54.0298C54.9479 54.0299 54.9469 54.0294 54.9452 54.0284ZM54.9276 54.0222L55.0459 54.2331L55.3312 54.2377L55.3313 54.2377L55.3432 53.7379C55.7191 54.4074 53.8831 56.1046 53.7596 56.2174C53.3501 56.5914 52.8738 57.0263 52.1174 57.3862C51.6954 57.5869 51.3059 57.7074 50.9824 57.8075L54.9276 54.0222ZM41.0021 52.6759C41.0021 52.6758 41.003 52.6758 41.0048 52.6762C41.0031 52.6762 41.0022 52.676 41.0021 52.6759Z" stroke="#0191E6"/>
<mask id="path-3-inside-1_0_1" fill="white">
<path d="M24.4254 64.7177C24.0967 64.7136 23.9713 65.4932 23.6829 65.4734C23.3955 65.4537 23.42 64.6727 22.8668 63.8777C22.767 63.7344 22.1383 62.831 21.7022 62.9455C20.8757 63.1624 21.4681 66.8452 20.2705 67.2703C20.0077 67.3635 19.6308 67.3098 18.8034 67.5725C18.4742 67.6769 18.3046 67.7582 18.2567 67.9083C18.1887 68.1213 18.425 68.2869 18.7855 68.7817C19.3261 69.5239 19.1742 69.6729 19.6449 70.2011C19.9943 70.5932 20.2616 70.717 20.217 70.8981C20.1538 71.1545 19.5779 71.072 19.4516 71.3684C19.3227 71.6708 19.7489 72.1636 20.1126 72.4601C20.7952 73.0166 21.4554 73.043 22.0654 73.2077C22.7283 73.3867 23.6416 73.8126 24.6131 74.9379L32.8733 85.2423C31.2147 83.0689 26.7474 76.9818 25.1598 74.6021C24.7015 73.9151 24.2529 73.1918 24.4073 72.3681C24.5559 71.5751 25.2454 70.7845 25.6686 69.4962C25.718 69.3457 25.8503 68.9252 25.6661 68.7488C25.5138 68.6029 25.2839 68.7568 25.1397 68.6227C24.9463 68.443 25.2029 68.0202 25.2669 67.3463C25.3121 66.871 25.2386 66.5125 25.1754 66.2041C25.1564 66.1112 24.863 64.7231 24.4254 64.7176L24.4254 64.7177L24.4254 64.7177Z"/>
</mask>
<path d="M24.4254 64.7177L24.4493 63.718L24.4455 63.7179L24.4254 64.7177ZM23.6829 65.4734L23.7591 64.4759L23.7591 64.4759L23.6829 65.4734ZM22.8668 63.8777L23.6892 63.3025L23.6892 63.3025L22.8668 63.8777ZM21.7022 62.9455L21.9493 63.9124L21.9493 63.9124L21.7022 62.9455ZM20.2705 67.2703L19.9423 66.3283L19.9423 66.3283L20.2705 67.2703ZM18.8034 67.5725L18.5073 66.6197L18.5073 66.6197L18.8034 67.5725ZM18.2567 67.9083L17.3041 67.6108L17.3041 67.6109L18.2567 67.9083ZM18.7855 68.7817L19.5956 68.1892L19.5956 68.1892L18.7855 68.7817ZM19.6449 70.2011L18.8959 70.8693L19.6449 70.2011ZM20.217 70.8981L19.2459 70.6661L19.2459 70.6662L20.217 70.8981ZM19.4516 71.3684L18.532 70.9823L18.532 70.9823L19.4516 71.3684ZM20.1126 72.4601L19.477 73.2369L19.477 73.2369L20.1126 72.4601ZM22.0654 73.2077L22.333 72.2423L22.333 72.2423L22.0654 73.2077ZM24.6131 74.9379L25.3954 74.3091L25.3842 74.295L25.3724 74.2814L24.6131 74.9379ZM32.8733 85.2423L32.091 85.8712L33.6702 84.6321L32.8733 85.2423ZM25.1598 74.6021L25.9932 74.0429L25.9932 74.0429L25.1598 74.6021ZM24.4073 72.3681L25.3903 72.545L25.3903 72.545L24.4073 72.3681ZM25.6686 69.4962L24.7186 69.1908L24.7186 69.1908L25.6686 69.4962ZM25.6661 68.7488L26.3609 68.0243L26.3609 68.0243L25.6661 68.7488ZM25.1397 68.6227L24.4557 69.3574L24.4557 69.3574L25.1397 68.6227ZM25.2669 67.3463L24.2713 67.2592L24.2713 67.2592L25.2669 67.3463ZM25.1754 66.2041L26.1553 65.9963L26.1553 65.9963L25.1754 66.2041ZM24.4254 64.7176L24.4455 63.7179L23.4494 63.7055L23.4255 64.7013L24.4254 64.7176ZM24.4254 64.7177L24.4015 65.7174L25.4013 65.7337L25.4253 64.734L24.4254 64.7177ZM24.4455 63.7179C23.9248 63.7114 23.5957 64.0257 23.457 64.186C23.3169 64.3479 23.2135 64.5362 23.1692 64.6146C23.0975 64.7415 23.0917 64.7464 23.102 64.7338C23.1129 64.7205 23.1657 64.6567 23.2661 64.5952C23.3797 64.5256 23.5515 64.4617 23.7591 64.4759L23.6067 66.4709C24.1861 66.5108 24.5352 66.1288 24.6467 65.9924C24.7719 65.8393 24.8721 65.6534 24.9089 65.5883C24.973 65.4748 24.9807 65.4702 24.9655 65.4877C24.9518 65.5035 24.7616 65.7219 24.4053 65.7174L24.4455 63.7179ZM23.7591 64.4759C23.9717 64.4905 24.1426 64.5818 24.2555 64.6821C24.3512 64.7671 24.3922 64.8462 24.3969 64.8549C24.3976 64.8563 24.3843 64.8258 24.3237 64.6439C24.2237 64.3436 24.0548 63.8279 23.6892 63.3025L22.0443 64.4529C22.2319 64.7225 22.3274 64.9948 22.4253 65.2887C22.4637 65.4038 22.5327 65.622 22.627 65.8002C22.7139 65.9645 22.9962 66.4289 23.6067 66.4709L23.7591 64.4759ZM23.6892 63.3025C23.637 63.2276 23.415 62.9066 23.1288 62.6136C22.9881 62.4696 22.7939 62.2923 22.5619 62.1574C22.3498 62.0341 21.9415 61.8509 21.4552 61.9785L21.9493 63.9124C21.8131 63.9482 21.7006 63.9352 21.6354 63.9197C21.6032 63.9121 21.5801 63.9033 21.5667 63.8977C21.5533 63.892 21.5464 63.888 21.5464 63.8879C21.5462 63.8878 21.5504 63.8903 21.5589 63.8964C21.5674 63.9024 21.5786 63.911 21.5925 63.9226C21.6209 63.9462 21.6545 63.9774 21.6925 64.0163C21.8545 64.1822 21.9967 64.3846 22.0443 64.453L23.6892 63.3025ZM21.4552 61.9785C20.9686 62.1062 20.7023 62.4645 20.5708 62.7109C20.4386 62.9587 20.3658 63.2316 20.319 63.4569C20.2262 63.904 20.1787 64.476 20.1308 64.9332C20.0776 65.4404 20.0207 65.8556 19.9275 66.1582C19.8193 66.5096 19.7603 66.3929 19.9423 66.3283L20.5987 68.2122C21.3796 67.9351 21.6956 67.1987 21.8389 66.7332C21.9973 66.219 22.0684 65.6203 22.1202 65.1265C22.1772 64.5828 22.2115 64.1668 22.2774 63.849C22.3101 63.692 22.3359 63.6382 22.3342 63.6414C22.3333 63.6432 22.2293 63.8389 21.9493 63.9124L21.4552 61.9785ZM19.9423 66.3283C19.9718 66.3178 19.9774 66.3209 19.9126 66.3301C19.806 66.3454 19.8036 66.3426 19.6225 66.367C19.3482 66.4039 18.9883 66.467 18.5073 66.6197L19.0994 68.5252C19.4458 68.4153 19.6881 68.3739 19.8748 68.3487C19.9242 68.3421 20.117 68.3188 20.1809 68.3096C20.2866 68.2945 20.4378 68.2693 20.5987 68.2122L19.9423 66.3283ZM18.5073 66.6197C18.3402 66.6728 18.1208 66.7469 17.9261 66.8603C17.7078 66.9874 17.43 67.2165 17.3041 67.6108L19.2092 68.2058C19.1744 68.3149 19.1167 68.4079 19.0516 68.479C18.9919 68.5443 18.9391 68.5769 18.923 68.5863C18.9076 68.5953 18.9097 68.5921 18.9446 68.5784C18.9782 68.5653 19.0271 68.5482 19.0994 68.5252L18.5073 66.6197ZM17.3041 67.6109C17.1089 68.222 17.4411 68.6836 17.5534 68.8361C17.6193 68.9256 17.7035 69.0271 17.7627 69.1C17.8303 69.1834 17.9003 69.2711 17.9755 69.3743L19.5956 68.1892C19.4905 68.0449 19.3957 67.9264 19.3198 67.8329C19.2354 67.7289 19.1971 67.6829 19.1674 67.6425C19.1557 67.6266 19.1566 67.6266 19.1632 67.6377C19.1698 67.649 19.1885 67.6826 19.2064 67.7346C19.2251 67.7892 19.2426 67.8639 19.2449 67.9537C19.2472 68.045 19.2332 68.1307 19.2092 68.2058L17.3041 67.6109ZM17.9754 69.3743C18.1876 69.6655 18.2522 69.8178 18.3291 69.9884C18.4397 70.2335 18.5684 70.5019 18.8959 70.8693L20.3939 69.5328C20.2507 69.3721 20.22 69.3018 20.1537 69.1549C20.0538 68.9334 19.9241 68.6401 19.5956 68.1892L17.9754 69.3743ZM18.8959 70.8693C19.008 70.9951 19.1116 71.0972 19.1973 71.1784C19.239 71.2178 19.2786 71.2544 19.3084 71.2819C19.3408 71.312 19.361 71.3309 19.3765 71.346C19.392 71.3612 19.392 71.3622 19.3847 71.3537C19.3779 71.3457 19.3515 71.3141 19.3223 71.2621C19.2918 71.2078 19.2534 71.1225 19.234 71.0101C19.2137 70.8931 19.219 70.7753 19.2459 70.6661L21.188 71.1302C21.2721 70.7888 21.1891 70.4884 21.0687 70.2738C20.9704 70.0985 20.8414 69.9706 20.7809 69.9114C20.6093 69.7436 20.5419 69.6989 20.3939 69.5328L18.8959 70.8693ZM19.2459 70.6662C19.3306 70.3223 19.5833 70.1766 19.6408 70.1475C19.6724 70.1314 19.6891 70.127 19.6732 70.1323C19.6564 70.1378 19.6364 70.1436 19.5869 70.1579C19.5181 70.1778 19.3349 70.2281 19.1582 70.3202C18.9663 70.4204 18.6877 70.6171 18.532 70.9823L20.3712 71.7544C20.2787 71.9715 20.1194 72.0673 20.073 72.0916C20.0418 72.1078 20.0302 72.1071 20.129 72.0786C20.178 72.0644 20.3669 72.0147 20.5362 71.9287C20.7233 71.8336 21.0718 71.6022 21.188 71.1301L19.2459 70.6662ZM18.532 70.9823C18.3779 71.3437 18.4226 71.6861 18.4898 71.9141C18.5571 72.1427 18.6694 72.338 18.7712 72.4863C18.9757 72.7843 19.2464 73.0489 19.477 73.2369L20.7483 71.6834C20.6867 71.6332 20.6214 71.5736 20.5612 71.5111C20.5001 71.4475 20.4537 71.3907 20.4235 71.3466C20.3894 71.2969 20.3966 71.2937 20.4089 71.3355C20.4211 71.3769 20.4608 71.5443 20.3712 71.7544L18.532 70.9823ZM19.477 73.2369C20.3764 73.9701 21.3998 74.0657 21.7978 74.1731L22.333 72.2423C21.5111 72.0204 21.2141 72.0631 20.7483 71.6834L19.477 73.2369ZM21.7978 74.1731C22.2743 74.3018 23.0149 74.6228 23.8538 75.5945L25.3724 74.2814C24.2684 73.0025 23.1822 72.4716 22.333 72.2423L21.7978 74.1731ZM23.8308 75.5668L32.091 85.8712L33.6556 84.6135L25.3954 74.3091L23.8308 75.5668ZM33.6702 84.6321C32.0157 82.4641 27.5633 76.3965 25.9932 74.0429L24.3264 75.1612C25.9315 77.5671 30.4136 83.6737 32.0764 85.8526L33.6702 84.6321ZM25.9932 74.0429C25.4997 73.3031 25.3215 72.912 25.3903 72.545L23.4243 72.1913C23.1843 73.4717 23.9034 74.527 24.3264 75.1612L25.9932 74.0429ZM25.3903 72.545C25.4306 72.3299 25.5533 72.0776 25.817 71.5826C26.0587 71.1288 26.3765 70.5385 26.6186 69.8015L24.7186 69.1908C24.5375 69.7421 24.299 70.1913 24.053 70.6532C23.8289 71.0738 23.5326 71.6134 23.4243 72.1913L25.3903 72.545ZM26.6186 69.8016C26.6447 69.7221 26.7203 69.4933 26.749 69.2351C26.7695 69.0498 26.8166 68.4608 26.3609 68.0243L24.9713 69.4732C24.8263 69.3344 24.7819 69.1826 24.7687 69.1137C24.7562 69.0482 24.7626 69.0139 24.7609 69.0293C24.7598 69.0396 24.7559 69.062 24.7471 69.0961C24.7387 69.1285 24.7289 69.1593 24.7186 69.1908L26.6186 69.8016ZM26.3609 68.0243C26.1552 67.8273 25.9215 67.738 25.7252 67.7025C25.5578 67.6722 25.4049 67.6809 25.3707 67.6821C25.3392 67.6833 25.3392 67.6832 25.3411 67.6832C25.3461 67.6832 25.3758 67.6834 25.4187 67.6899C25.5177 67.7049 25.6785 67.7531 25.8237 67.8881L24.4557 69.3574C24.6731 69.5594 24.9167 69.6386 25.1041 69.667C25.1912 69.6802 25.2666 69.6827 25.3179 69.6829C25.3662 69.6831 25.4133 69.6811 25.4291 69.6805C25.4894 69.6783 25.4315 69.6842 25.3545 69.6703C25.2487 69.6511 25.1008 69.5973 24.9713 69.4732L26.3609 68.0243ZM25.8237 67.8881C25.9162 67.974 25.9827 68.0778 26.023 68.1842C26.0605 68.2836 26.0676 68.3649 26.0687 68.4061C26.0699 68.4464 26.0659 68.467 26.0675 68.4564C26.0689 68.4467 26.0727 68.4252 26.0823 68.3829C26.1153 68.2369 26.2225 67.8547 26.2626 67.4333L24.2713 67.2592C24.2472 67.5118 24.1942 67.6779 24.1312 67.9567C24.1065 68.0662 24.0632 68.2654 24.0692 68.4783C24.0762 68.7228 24.1518 69.0749 24.4557 69.3574L25.8237 67.8881ZM26.2626 67.4333C26.3229 66.7985 26.2204 66.3141 26.1553 65.9963L24.1956 66.412C24.2568 66.7109 24.3013 66.9436 24.2713 67.2592L26.2626 67.4333ZM26.1553 65.9963C26.1429 65.9358 26.0533 65.5091 25.8978 65.0807C25.8224 64.8728 25.7114 64.6073 25.5549 64.3755C25.442 64.2083 25.0874 63.7259 24.4455 63.7179L24.4053 65.7174C24.1838 65.7146 24.0329 65.623 23.9664 65.5716C23.9042 65.5234 23.8835 65.487 23.8941 65.5027C23.9164 65.5357 23.962 65.6241 24.0169 65.7754C24.1223 66.0657 24.1889 66.3795 24.1956 66.412L26.1553 65.9963ZM23.4255 64.7013L23.4255 64.7014L25.4253 64.734L25.4253 64.7339L23.4255 64.7013ZM24.4493 63.718L24.4493 63.718L24.4015 65.7174L24.4015 65.7174L24.4493 63.718Z" fill="#0191E6" mask="url(#path-3-inside-1_0_1)"/>
<path d="M34.7249 59.4362L34.7205 59.442C34.6715 59.5078 34.6061 59.5954 34.523 59.6948L34.7249 59.4362ZM34.7249 59.4362C34.725 59.4361 34.7251 59.436 34.7251 59.4359C34.8003 59.3355 34.8513 59.276 34.9007 59.2383C34.9341 59.2128 34.9565 59.2047 34.9851 59.2041M34.7249 59.4362L34.9851 59.2041M34.9851 59.2041C35.0144 59.2076 35.0423 59.2199 35.0825 59.2592C35.1365 59.3122 35.1825 59.384 35.2466 59.4905L35.2467 59.4906C35.4383 59.8084 35.521 60.0313 35.5799 60.1902L35.58 60.1902C35.5913 60.2209 35.6054 60.2591 35.619 60.2933C35.6193 60.2942 35.6197 60.2952 35.6202 60.2963C35.6286 60.3177 35.6539 60.3818 35.6876 60.4355L35.6876 60.4355L35.6913 60.4413C35.7961 60.6032 35.9519 60.667 36.0282 60.6926C36.1172 60.7224 36.2077 60.7355 36.2819 60.7422C36.4325 60.7558 36.6045 60.7501 36.7614 60.7389C37.0615 60.7175 37.3864 60.6696 37.5687 60.6427C37.5798 60.6411 37.5905 60.6395 37.6005 60.6381L37.6022 60.6378C38.0226 60.5746 38.3355 60.5303 38.5762 60.5479C38.795 60.564 38.8375 60.6207 38.8624 60.6673L38.8626 60.6676C38.8813 60.7026 38.9023 60.7639 38.8541 60.9039C38.8012 61.058 38.6737 61.2729 38.4278 61.5555C38.2948 61.7081 38.1516 61.8268 38.0161 61.9251L37.4132 62.3625L38.0408 62.7537C38.0636 62.768 38.0754 62.7798 38.0815 62.7876C38.0862 62.7937 38.0918 62.8025 38.096 62.8207C38.096 62.8207 38.096 62.8208 38.096 62.8209L38.0961 62.8212C38.1 62.8382 38.1125 62.8931 38.0013 63.018C37.8767 63.1577 37.6385 63.3314 37.2413 63.5232L37.2401 63.5238C37.0371 63.6226 36.8113 63.7296 36.497 63.7787C36.3475 63.8019 36.2096 63.8067 36.0737 63.8086L35.6059 63.8151L35.5776 64.2821C35.5771 64.2907 35.5759 64.2973 35.5744 64.3028C35.5729 64.3081 35.5703 64.315 35.565 64.3242L35.5646 64.3249C35.5489 64.3524 35.527 64.3758 35.4747 64.3961C35.4133 64.4199 35.3027 64.4406 35.1223 64.4256L35.1223 64.4255L35.115 64.425C34.6577 64.3935 34.2814 64.3002 33.9145 64.209L33.9139 64.2089C33.9022 64.206 33.8904 64.2031 33.8785 64.2001C33.593 64.1294 33.252 64.0449 32.9563 64.0599L32.9563 64.0598L32.9495 64.0603C32.6167 64.0817 32.3431 64.2243 32.1177 64.3958C31.899 64.5622 31.6974 64.778 31.5116 64.9831L31.5116 64.9831L31.5087 64.9864L31.3432 65.1724L31.3039 64.724C31.7712 64.0566 32.0432 63.3637 32.063 62.6681L34.9851 59.2041ZM33.7035 60.5209C33.6973 60.5302 33.6921 60.538 33.6875 60.545C33.6797 60.5567 33.6733 60.5662 33.6658 60.5776L33.3311 61.0893L32.897 60.665C32.8815 60.6499 32.8679 60.6402 32.8562 60.6338C32.8452 60.6279 32.8324 60.6229 32.8148 60.6202L32.8096 60.6194L32.8096 60.6193C32.7682 60.6124 32.6867 60.6207 32.5486 60.7663C32.4155 60.9067 32.3088 61.0974 32.247 61.227C32.0494 61.6445 32.0535 62.0006 32.0616 62.3655L32.0616 62.3657L32.0618 62.375C32.0638 62.4637 32.066 62.565 32.063 62.668L33.7035 60.5209ZM33.7035 60.5209C33.7777 60.4129 33.8387 60.3431 33.8901 60.2918C33.9435 60.2386 33.9932 60.1986 34.0625 60.1435L34.0627 60.1433C34.182 60.0483 34.3199 59.9378 34.5229 59.6949L33.7035 60.5209Z" stroke="#0191E6"/>
<path d="M30.8006 55.7455L30.5762 55.6315L30.5722 55.6295L30.5722 55.6295C30.3285 55.5029 30.0705 55.3637 29.8561 55.1951C29.635 55.0211 29.4304 54.7933 29.3281 54.4771L29.326 54.4706L29.326 54.4706C29.2389 54.1883 29.2366 53.8361 29.2346 53.5405C29.2345 53.5283 29.2344 53.5161 29.2343 53.5041L29.2343 53.5035C29.232 53.1238 29.2294 52.7341 29.1471 52.282L29.1458 52.2749L29.1459 52.2749C29.1159 52.0955 29.0686 51.9932 29.0301 51.9394C28.9974 51.8936 28.9694 51.8787 28.9397 51.8708L28.9389 51.8706C28.9289 51.8679 28.9219 51.8673 28.9167 51.8672C28.9113 51.8671 28.905 51.8677 28.8968 51.8694L28.4374 51.9643L28.3161 51.513C28.2808 51.3816 28.2423 51.249 28.183 51.1099C28.058 50.8173 27.8989 50.6261 27.7536 50.4549L27.7527 50.4539C27.4697 50.1187 27.2434 49.933 27.078 49.8488C26.9312 49.7741 26.8824 49.8003 26.8679 49.808C26.8677 49.8081 26.8676 49.8082 26.8674 49.8083L30.8006 55.7455ZM30.8006 55.7455L30.3757 55.9014C29.6166 55.6229 28.8805 55.5399 28.2036 55.7026L30.8006 55.7455ZM24.6608 52.5285L24.9485 52.9351L24.9481 52.9354C24.8094 53.0341 24.6146 53.1725 24.3551 53.4413L24.355 53.4414C24.2681 53.5314 24.21 53.5948 24.1721 53.6611C24.1438 53.7107 24.1385 53.7418 24.1427 53.7722C24.1505 53.8009 24.1642 53.8209 24.1972 53.8467C24.2456 53.8846 24.3155 53.9185 24.4308 53.9652C24.4309 53.9652 24.431 53.9653 24.4311 53.9653L24.4377 53.9679C24.5133 53.9983 24.614 54.0389 24.7305 54.0936L24.2459 54.4311L24.2406 54.429C24.0077 54.3348 23.7261 54.2063 23.6524 53.8761C23.5859 53.5206 23.8326 53.2653 23.9961 53.096L23.9966 53.0956C24.2882 52.7935 24.5122 52.6341 24.6608 52.5285ZM24.6608 52.5285C24.7152 52.49 24.7763 52.4464 24.7938 52.4275C24.9299 52.2774 24.5794 51.4365 24.4327 51.0846C24.4286 51.075 24.4248 51.0657 24.4211 51.0569L24.4211 51.0568C24.1067 50.309 23.8346 49.6619 24.2603 49.2635C24.5647 48.9781 25.0646 49.0122 25.7861 49.3688C25.8322 49.3916 25.8765 49.4153 25.9191 49.4397C25.8962 49.4891 25.8775 49.5386 25.8624 49.5869L26.3394 49.7332L26.6386 49.3717L26.8668 49.8086C26.851 49.8171 26.8441 49.8245 26.8393 49.8307C26.8333 49.8386 26.8246 49.8534 26.8164 49.8795L26.5926 50.5926L26.0194 50.1198C25.8912 50.0141 25.7414 49.9062 25.5614 49.8172C25.2283 49.6525 24.9898 49.5852 24.8287 49.5741C24.6827 49.5641 24.6296 49.6001 24.6009 49.6269L24.6006 49.6272C24.5617 49.6637 24.517 49.7207 24.5556 49.9382C24.5979 50.1768 24.7179 50.4691 24.8823 50.8602L24.883 50.8617L24.883 50.8617C24.8869 50.8711 24.891 50.881 24.8954 50.8914C24.9661 51.0611 25.0923 51.3637 25.1868 51.6489C25.2362 51.7982 25.284 51.9633 25.3079 52.1125C25.3197 52.1861 25.3292 52.2769 25.3224 52.3706C25.3166 52.4507 25.2935 52.618 25.1632 52.7617L25.1585 52.7669L25.1585 52.7669C25.1149 52.8136 25.0591 52.855 25.0406 52.8687C25.0396 52.8695 25.0387 52.8701 25.0379 52.8707C25.0081 52.8929 24.9745 52.9168 24.9476 52.9358L24.6608 52.5285ZM25.2769 54.423C25.1558 54.3321 25.0151 54.2272 24.7307 54.0937L28.2035 55.7026C28.1032 55.7267 28.0058 55.7554 27.9205 55.7805L27.912 55.783L27.9118 55.7831C27.5616 55.8862 27.2197 55.9829 26.7691 55.9006C26.629 55.8746 26.4189 55.821 26.2508 55.7286C26.0769 55.6331 26.0477 55.556 26.044 55.512L26.0441 55.512L26.0436 55.5068C26.0419 55.4885 26.0435 55.4743 26.0466 55.4618C26.05 55.4485 26.0561 55.4326 26.0669 55.4135L26.368 54.8845L25.7932 54.6942C25.7803 54.6899 25.7693 54.6861 25.7557 54.6815C25.748 54.6789 25.7395 54.6759 25.7294 54.6725C25.6071 54.6288 25.5247 54.588 25.4627 54.5515C25.3982 54.5136 25.3474 54.4759 25.2771 54.4231L25.2769 54.423ZM26.6386 49.3717L26.6474 49.361L26.6386 49.3717Z" stroke="#0191E6"/>
<path d="M35.036 43.6866L35.0317 43.6924C34.9827 43.7582 34.9173 43.8458 34.8342 43.9452L35.036 43.6866ZM35.036 43.6866C35.0361 43.6865 35.0362 43.6863 35.0363 43.6862C35.1115 43.5858 35.1625 43.5264 35.2118 43.4887C35.2452 43.4632 35.2677 43.4551 35.2962 43.4545M35.036 43.6866L35.2962 43.4545M35.2962 43.4545C35.3255 43.4579 35.3535 43.4702 35.3936 43.5096C35.4477 43.5625 35.4936 43.6344 35.5577 43.7409L35.5578 43.741C35.7494 44.0588 35.8321 44.2817 35.8911 44.4406L35.8911 44.4406C35.9024 44.4713 35.9166 44.5094 35.9301 44.5436C35.9305 44.5445 35.9309 44.5455 35.9313 44.5467C35.9398 44.568 35.9651 44.6322 35.9988 44.6859L35.9988 44.6859L36.0025 44.6917C36.1072 44.8535 36.2631 44.9174 36.3394 44.943C36.4284 44.9728 36.5189 44.9859 36.5931 44.9926C36.7436 45.0062 36.9156 45.0005 37.0726 44.9892C37.3727 44.9678 37.6976 44.92 37.8798 44.8931C37.891 44.8915 37.9016 44.8899 37.9117 44.8884L37.9134 44.8882C38.3338 44.825 38.6466 44.7806 38.8874 44.7983C39.1061 44.8143 39.1487 44.871 39.1736 44.9176L39.1738 44.918C39.1925 44.9529 39.2134 45.0143 39.1653 45.1543C39.1123 45.3083 38.9849 45.5233 38.739 45.8058C38.6059 45.9585 38.4627 46.0772 38.3273 46.1755L37.7243 46.6128L38.352 47.0041C38.3748 47.0183 38.3866 47.0302 38.3926 47.038C38.3974 47.0441 38.403 47.0529 38.4071 47.071C38.4071 47.0711 38.4071 47.0712 38.4072 47.0713L38.4072 47.0716C38.4111 47.0886 38.4237 47.1434 38.3124 47.2683C38.1879 47.4081 37.9496 47.5818 37.5525 47.7736L37.5513 47.7742C37.3482 47.8729 37.1225 47.98 36.8082 48.0291C36.6587 48.0523 36.5208 48.057 36.3848 48.0589L35.917 48.0654L35.8888 48.5325C35.8883 48.5411 35.8871 48.5477 35.8855 48.5532C35.884 48.5584 35.8814 48.5654 35.8762 48.5745L35.8757 48.5753C35.86 48.6028 35.8381 48.6262 35.7859 48.6465C35.7244 48.6703 35.6139 48.691 35.4334 48.6759L35.4335 48.6759L35.4262 48.6754C34.9689 48.6439 34.5926 48.5506 34.2256 48.4594L34.225 48.4593C34.2133 48.4564 34.2015 48.4535 34.1896 48.4505C33.9041 48.3798 33.5631 48.2953 33.2675 48.3103L33.2675 48.3102L33.2606 48.3107C32.9279 48.3321 32.6543 48.4747 32.4288 48.6462C32.2101 48.8125 32.0085 49.0284 31.8228 49.2335L31.8228 49.2335L31.8198 49.2368L31.6544 49.4228L31.6151 48.9744C32.0823 48.3069 32.3544 47.6141 32.3742 46.9184L35.2962 43.4545ZM34.0147 44.7712C34.0085 44.7806 34.0033 44.7884 33.9986 44.7954C33.9908 44.807 33.9844 44.8166 33.977 44.828L33.6423 45.3397L33.2081 44.9154C33.1926 44.9003 33.1791 44.8905 33.1674 44.8842C33.1564 44.8782 33.1435 44.8733 33.1259 44.8705L33.1207 44.8697L33.1207 44.8697C33.0793 44.8627 32.9979 44.871 32.8598 45.0166C32.7266 45.1571 32.6199 45.3477 32.5581 45.4774C32.3606 45.8948 32.3647 46.251 32.3728 46.6158L32.3728 46.6161L32.373 46.6253C32.3749 46.7141 32.3771 46.8154 32.3742 46.9183L34.0147 44.7712ZM34.0147 44.7712C34.0889 44.6633 34.1498 44.5934 34.2013 44.5422C34.2547 44.4889 34.3043 44.449 34.3736 44.3939L34.3739 44.3937C34.4931 44.2987 34.631 44.1881 34.8341 43.9453L34.0147 44.7712Z" stroke="#0191E6"/>
<mask id="path-8-inside-2_0_1" fill="white">
<path d="M32.2475 84.9757L31.8913 84.7371L31.8138 84.3074L31.8913 84.7371L31.4685 84.7797C31.4628 84.7394 31.442 84.6467 31.4108 84.5017C31.2406 83.7069 30.7217 81.2883 30.3305 77.4865C30.0576 74.8326 29.9318 72.1067 29.9564 69.3833C29.9811 66.6557 30.1553 64.5933 30.2949 62.9357C30.4005 61.6855 30.5209 60.4954 30.6389 59.336C30.9532 56.2386 31.2497 53.3128 31.1561 50.0667C31.1355 49.342 31.0921 47.8336 30.2714 46.2156C29.7953 45.2772 29.1288 44.44 28.2902 43.7282L28.8379 43.0514C29.7635 43.8382 30.5008 44.7656 31.0295 45.8075C31.9395 47.6014 31.9868 49.245 32.0096 50.0347C32.1048 53.3382 31.8051 56.2922 31.4876 59.4194C31.3706 60.5745 31.2503 61.7596 31.1453 63.0047C31.0068 64.6469 30.8343 66.6913 30.81 69.3839C30.7853 72.0748 30.9098 74.7673 31.179 77.3878C31.5654 81.1416 32.0768 83.5242 32.2448 84.3069C32.3342 84.7249 32.353 84.8124 32.2475 84.9757L32.2475 84.9757L32.2475 84.9757Z"/>
</mask>
<path d="M32.2475 84.9757L32.2241 85.9754L35.6276 86.0321L32.808 84.1438L32.2475 84.9757ZM31.8913 84.7371L30.907 84.9209L30.9817 85.3352L31.3308 85.569L31.8913 84.7371ZM31.8913 84.7371L31.9848 85.732L33.0684 85.6229L32.8756 84.5534L31.8913 84.7371ZM31.4685 84.7797L30.4783 84.927L30.6124 85.8701L31.562 85.7745L31.4685 84.7797ZM31.4108 84.5017L30.4328 84.7173L30.433 84.7181L31.4108 84.5017ZM30.3305 77.4865L29.3357 77.5954L29.3357 77.5954L30.3305 77.4865ZM29.9564 69.3833L28.9563 69.381L28.9563 69.3811L29.9564 69.3833ZM30.2949 62.9357L29.2984 62.8583L29.2983 62.8585L30.2949 62.9357ZM30.6389 59.336L31.6339 59.4306L31.6339 59.4303L30.6389 59.336ZM31.1561 50.0667L30.1564 50.1017L30.1564 50.1022L31.1561 50.0667ZM30.2714 46.2156L31.164 45.7586L31.164 45.7585L30.2714 46.2156ZM28.2902 43.7282L27.5144 43.1024L26.8988 43.8631L27.6399 44.4922L28.2902 43.7282ZM28.8379 43.0514L29.4887 42.2879L28.7096 41.6256L28.0621 42.4257L28.8379 43.0514ZM31.0295 45.8075L31.9221 45.3505L31.9221 45.3503L31.0295 45.8075ZM32.0096 50.0347L33.0093 49.9992L33.0093 49.9992L32.0096 50.0347ZM31.4876 59.4194L30.4926 59.3251L30.4926 59.3253L31.4876 59.4194ZM31.1453 63.0047L30.1487 62.9273L30.1487 62.9273L31.1453 63.0047ZM30.81 69.3839L31.8101 69.3863L31.8101 69.3862L30.81 69.3839ZM31.179 77.3878L30.1841 77.4965L30.1841 77.4968L31.179 77.3878ZM32.2448 84.3069L33.2229 84.0915L33.2228 84.0909L32.2448 84.3069ZM32.2475 84.9757L31.2476 84.959L31.165 88.4877L33.0865 85.5143L32.2475 84.9757ZM32.2475 84.9757L32.2709 83.976L31.2711 83.9593L31.2476 84.959L32.2475 84.9757ZM32.808 84.1438L32.4518 83.9053L31.3308 85.569L31.687 85.8076L32.808 84.1438ZM32.8756 84.5534L32.7982 84.1237L30.8295 84.4912L30.907 84.9209L32.8756 84.5534ZM30.8295 84.4912L30.907 84.9209L32.8756 84.5534L32.7982 84.1237L30.8295 84.4912ZM31.7978 83.7423L31.375 83.7849L31.562 85.7745L31.9848 85.732L31.7978 83.7423ZM32.4587 84.6324C32.4537 84.597 32.4474 84.5639 32.4432 84.5422C32.4385 84.5178 32.4331 84.4919 32.4278 84.4668C32.4176 84.4186 32.4032 84.3526 32.3887 84.2852L30.433 84.7181C30.4497 84.7957 30.4612 84.8486 30.4707 84.8931C30.4751 84.9143 30.478 84.9282 30.4797 84.9372C30.482 84.9486 30.4805 84.9423 30.4783 84.927L32.4587 84.6324ZM32.3889 84.286C32.2228 83.5104 31.7115 81.1303 31.3254 77.3776L29.3357 77.5954C29.7318 81.4464 30.2585 83.9034 30.4328 84.7173L32.3889 84.286ZM31.3254 77.3776C31.0564 74.7614 30.9322 72.0726 30.9565 69.3856L28.9563 69.3811C28.9314 72.1408 29.0588 74.9038 29.3357 77.5954L31.3254 77.3776ZM30.9565 69.3857C30.9808 66.6979 31.1522 64.667 31.2915 63.013L29.2983 62.8585C29.1584 64.5196 28.9814 66.6135 28.9563 69.381L30.9565 69.3857ZM31.2915 63.0132C31.3963 61.7726 31.5158 60.5904 31.6339 59.4306L29.6439 59.2414C29.526 60.4003 29.4047 61.5984 29.2984 62.8583L31.2915 63.0132ZM31.6339 59.4303C31.9475 56.3397 32.2516 53.3517 32.1558 50.0311L30.1564 50.1022C30.2478 53.2739 29.9589 56.1375 29.6439 59.2417L31.6339 59.4303ZM32.1558 50.0316C32.1346 49.2828 32.0903 47.5847 31.164 45.7586L29.3788 46.6725C30.0939 48.0825 30.1365 49.4012 30.1564 50.1017L32.1558 50.0316ZM31.164 45.7585C30.6257 44.6975 29.875 43.7573 28.9405 42.9641L27.6399 44.4922C28.3827 45.1226 28.9649 45.8568 29.3788 46.6726L31.164 45.7585ZM29.066 44.3539L29.6137 43.6772L28.0621 42.4257L27.5144 43.1024L29.066 44.3539ZM28.1871 43.815C29.0166 44.5201 29.6701 45.3446 30.137 46.2646L31.9221 45.3503C31.3315 44.1866 30.5104 43.1563 29.4887 42.2879L28.1871 43.815ZM30.1369 46.2644C30.942 47.8517 30.9879 49.3073 31.0099 50.0703L33.0093 49.9992C32.9858 49.1828 32.937 47.3512 31.9221 45.3505L30.1369 46.2644ZM31.0099 50.0703C31.1029 53.2994 30.8108 56.1914 30.4926 59.3251L32.4827 59.5137C32.7995 56.393 33.1067 53.377 33.0093 49.9992L31.0099 50.0703ZM30.4926 59.3253C30.3757 60.4792 30.2545 61.6725 30.1487 62.9273L32.1419 63.082C32.246 61.8466 32.3655 60.6699 32.4827 59.5136L30.4926 59.3253ZM30.1487 62.9273C30.0099 64.5731 29.8345 66.6491 29.8099 69.3816L31.8101 69.3862C31.834 66.7335 32.0037 64.7207 32.1419 63.082L30.1487 62.9273ZM29.8099 69.3815C29.7849 72.1089 29.911 74.8385 30.1841 77.4965L32.1739 77.279C31.9086 74.696 31.7857 72.0407 31.8101 69.3863L29.8099 69.3815ZM30.1841 77.4968C30.5755 81.2997 31.0947 83.7206 31.2669 84.5229L33.2228 84.0909C33.059 83.3277 32.5552 80.9836 32.1738 77.2788L30.1841 77.4968ZM31.2667 84.5223C31.2903 84.6322 31.3045 84.6992 31.3139 84.7506C31.3182 84.7743 31.32 84.7867 31.3206 84.7918C31.3213 84.7967 31.32 84.7888 31.3195 84.7719C31.319 84.7542 31.3193 84.7254 31.3238 84.6888C31.3283 84.6511 31.3365 84.6113 31.349 84.5711C31.374 84.4905 31.406 84.4409 31.4085 84.4371L33.0865 85.5143C33.228 85.2953 33.3285 85.0355 33.319 84.7017C33.313 84.4923 33.2576 84.2538 33.2229 84.0915L31.2667 84.5223ZM33.2474 84.9924L33.2474 84.9924L31.2476 84.959L31.2476 84.959L33.2474 84.9924ZM32.2241 85.9754L32.2241 85.9754L32.2709 83.976L32.2709 83.976L32.2241 85.9754Z" fill="#0191E6" mask="url(#path-8-inside-2_0_1)"/>
<path d="M26.4216 44.5972L26.4216 44.5971L26.4136 44.5966C25.8713 44.5584 25.3108 44.2241 24.7643 43.4435C24.5401 43.1218 24.424 42.7561 24.1425 41.8231L24.1422 41.8223C24.1053 41.7007 23.908 41.023 23.8006 40.09L23.8006 40.0898C23.7265 39.4476 23.772 39.3365 23.814 39.262L23.8144 39.2613C23.8945 39.1188 24.0295 39.004 24.2166 38.9174L24.5454 38.7653L24.5068 38.4083C24.527 38.4045 24.5581 38.4022 24.6029 38.4043C24.6483 38.4063 24.6922 38.4117 24.7475 38.4186C24.7514 38.4192 24.7554 38.4198 24.7595 38.4204C24.8635 38.4353 25.0333 38.4598 25.2207 38.4531C25.5649 38.4418 25.7766 38.3303 25.9676 38.2297C25.9727 38.227 25.9778 38.2243 25.9829 38.2216L25.9832 38.2215C26.1583 38.1291 26.3275 38.0414 26.5806 37.9939L26.5806 37.9939L26.5827 37.9935C27.0978 37.8947 27.5309 38.0469 27.6955 38.1057L27.6972 38.1063C28.4441 38.3701 28.812 38.9482 29.3464 39.8358C29.4369 39.9872 29.7666 40.5719 29.9738 41.3685L29.9738 41.3686C30.1206 41.9326 30.0752 42.1115 30.0491 42.2031L30.0487 42.2043C29.9824 42.4395 29.8667 42.5807 29.1854 43.1178L29.185 43.1182C28.4802 43.6752 28.1745 43.914 27.9247 44.0532C27.2115 44.4489 26.9016 44.6072 26.4956 44.6006L26.4871 44.6004C26.4624 44.5999 26.441 44.5989 26.4216 44.5972Z" stroke="#0191E6"/>
<path d="M148.341 86.2336C148.341 86.2336 137.475 87.4074 139.551 78.7485C141.627 70.0896 152.443 54.1911 152.443 54.1911L158.223 57.6138L151.012 73.6983L153.85 76.0619L148.341 86.2336L148.341 86.2336Z" fill="#A0616A"/>
<path d="M184.732 76.1229L182.816 89.0153L144.106 88.2955L152.276 74.6685L184.732 76.1229Z" fill="#0191E6"/>
<path d="M162.029 55.1118C164.494 51.8422 164.798 47.9323 162.709 46.3787C160.62 44.8252 156.928 46.2163 154.464 49.4859C151.999 52.7555 151.695 56.6654 153.784 58.2189C155.873 59.7725 159.565 58.3814 162.029 55.1118Z" fill="#A0616A"/>
<path d="M180.206 124.63L178.964 179.675L181.193 179.714L182.436 124.669L180.206 124.63Z" fill="#3F3D56"/>
<path d="M168.76 124.404L167.517 179.449L169.747 179.488L170.989 124.442L168.76 124.404Z" fill="#3F3D56"/>
<path d="M105.348 88.5013L103.37 178.182L105.548 178.22L107.526 88.5399L105.348 88.5013Z" fill="#3F3D56"/>
<path d="M143.005 123.895L141.763 178.94L143.992 178.979L145.235 123.934L143.005 123.895Z" fill="#3F3D56"/>
<path d="M133.88 123.715L132.637 178.76L134.866 178.799L136.109 123.753L133.88 123.715Z" fill="#3F3D56"/>
<path d="M94.311 79.0896L94.8355 69.8184L67.1049 71.6836L66.7491 77.966L94.311 79.0896Z" fill="#A0616A"/>
<path d="M75.6661 70.6476L74.2492 73.8382L72.3702 73.878C72.3702 73.878 74.5442 74.589 75.015 78.6671L73.1927 79.1977C73.1927 79.1977 71.4043 80.8253 68.1722 80.6287L59.5172 79.7897L59.5897 76.7042L65.6134 76.0656C65.6134 76.0656 66.981 75.1842 60.4898 71.4227C60.4898 71.4227 58.3445 70.0311 60.5477 63.3048C60.8505 62.3804 61.6919 61.7234 62.6418 61.7133C63.166 61.7077 63.6502 61.9051 63.8234 62.5706C64.2642 64.2646 63.7018 65.942 65.0362 67.0115C66.3707 68.081 75.6661 70.6476 75.6661 70.6476L75.6661 70.6476Z" fill="#2F2E41"/>
<path d="M174.189 115.117C174.189 115.117 164.187 131.366 142.708 128.122C137.596 127.35 133.17 124.206 130.729 119.629C126.01 110.784 118.903 95.3109 121.602 86.6405L85.3322 79.1125L82.7165 70.1233L122.338 65.4769C125.842 65.0659 129.213 66.8279 130.874 69.9389L149.124 104.13L154.838 104.84L174.189 115.117L174.189 115.117Z" fill="#2F2E41"/>
<path d="M94.962 82.7703L94.7578 73.5339L67.2307 77.6632L67.3687 83.9221L94.962 82.7703Z" fill="#A0616A"/>
<path d="M75.7223 75.876L74.5583 79.1677L72.6832 79.3614C72.6832 79.3614 74.9126 79.8908 75.7057 83.9109L73.9261 84.5885C73.9261 84.5885 72.2671 86.355 69.0207 86.4245L60.3027 86.2993L60.1312 83.2226L66.1021 82.0929C66.1021 82.0929 67.3994 81.1035 60.6133 77.8923C60.6133 77.8923 58.3588 76.6832 60.0292 69.8081C60.2588 68.8631 61.048 68.1403 61.9966 68.0523C62.5202 68.0037 63.0198 68.1605 63.2456 68.8087C63.8201 70.4585 63.3906 72.1741 64.8091 73.129C66.2276 74.084 75.7223 75.876 75.7223 75.876L75.7223 75.876Z" fill="#2F2E41"/>
<path d="M177.544 112.266C177.544 112.266 168.853 129.266 147.148 127.781C141.983 127.428 137.313 124.656 134.511 120.296C129.095 111.868 120.766 97.0326 122.769 88.1763L85.9563 83.6269L82.6281 74.8851L121.817 67.0345C125.284 66.3401 128.789 67.8211 130.695 70.7851L151.642 103.36L157.404 103.603L177.544 112.266L177.544 112.266Z" fill="#2F2E41"/>
<path d="M154.286 40.3877L152.355 41.7841L161.985 55.744L163.894 55.2991L154.286 40.3877Z" fill="#3F3D56"/>
<path d="M179.76 71.3718L190.677 71.0738L194.906 92.5567C194.906 92.5567 184.049 129.973 172.229 128.353C172.229 128.353 165.011 122.763 165.057 120.86C165.102 118.957 155.259 114.038 155.259 114.038L153.082 105.913L160.456 95.0883C160.456 95.0883 163.506 86.5725 173.103 81.9702L179.76 71.3718L179.76 71.3718Z" fill="#0191E6"/>
<path d="M116.625 86.4851L19.4853 84.9028L19.4283 87.284L66.9294 88.0578L64.7838 177.591L67.1589 177.63L69.3044 88.0964L116.568 88.8663L116.625 86.4851Z" fill="#3F3D56"/>
<path d="M185.376 69.7237C192.457 69.839 198.336 64.1768 198.506 57.0767C198.676 49.9766 193.074 44.1274 185.992 44.012C178.91 43.8967 173.032 49.5589 172.862 56.659C172.692 63.7591 178.294 69.6083 185.376 69.7237Z" fill="#A0616A"/>
<path d="M140.532 72.3177L131.496 75.7415L148.499 99.3492L154.783 94.6902L140.532 72.3177Z" fill="#E6E6E6"/>
<path d="M174.515 117.598C174.515 117.598 170.901 128.131 163.964 122.746C157.026 117.361 147.302 100.985 147.302 100.985L152.885 97L164.328 110.111L167.687 108.428L174.515 117.598V117.598Z" fill="#A0616A"/>
<path d="M180.836 80.638L191.457 87.4543L174.459 122.49L164.527 108.058L180.836 80.638Z" fill="#0191E6"/>
<path d="M151.246 101.217C153.577 99.9376 153.888 96.0279 151.94 92.4844C149.992 88.941 146.523 87.1056 144.192 88.3849C141.861 89.6643 141.55 93.574 143.498 97.1174C145.446 100.661 148.915 102.496 151.246 101.217Z" fill="#A0616A"/>
<path fill-rule="evenodd" clip-rule="evenodd" d="M197.151 83.5886C193.485 81.3825 189.868 84.7506 186.316 95.5229C186.316 95.5229 172.131 114.777 171.734 123.12L131.931 122.463L122.809 134.93L123.21 134.96L122.138 135.114C122.138 135.114 143.884 140.716 166.705 141.09C189.527 141.465 187.037 126.168 187.037 126.168C185.482 115.226 194.582 98.906 198.979 91.79C200.705 88.9982 199.941 85.2678 197.151 83.5886Z" fill="#3F3D56"/>
<path d="M180.962 51.462C179.853 54.3714 182.104 57.4596 185.229 57.3143L185.303 57.3108V57.3108C187.349 59.9609 187.334 63.6522 185.267 66.2849C185.033 69.7263 185.508 73.179 186.661 76.432L189.902 85.5718L195.215 83.2316L197.582 89.9151L212.431 82.6722L203.916 62.555L201.411 51.6826C199.629 43.9474 191.828 39.1585 184.079 41.0431L178.135 42.4889C173.438 43.6312 170.653 48.4441 172.018 53.0586L172.018 53.0586L180.962 51.462" fill="#2F2E41"/>
</svg>
