<svg width="316" height="262" viewBox="0 0 316 262" fill="none" xmlns="http://www.w3.org/2000/svg">
<path d="M266.782 95.8677C260.427 88.2782 256.225 79.1229 254.614 69.3564L253.153 60.4952C250.101 41.9834 237.873 26.2817 220.672 18.7884L188.112 4.60332C173.101 -1.93649 155.964 -1.48928 141.314 5.82469L30.6084 61.0977C7.47682 72.6465 -4.56733 98.6789 1.60509 123.785L12.8598 169.568C19.065 194.812 42.0129 212.327 67.9994 211.656L119.189 210.333C121.218 210.28 123.247 210.339 125.27 210.51L219.424 218.456C238.85 220.095 257.704 211.387 269.051 195.534L281.526 178.106C296.208 157.593 295.151 129.744 278.955 110.404L266.783 95.8677H266.782Z" fill="#F4E2C9"/>
<path d="M46.9201 129.089C45.4243 129.089 44.2128 130.302 44.2128 131.797C44.2128 133.291 45.4254 134.504 46.9201 134.504C48.4148 134.504 49.6274 133.291 49.6274 131.797C49.6274 130.302 48.4148 129.089 46.9201 129.089Z" fill="white"/>
<path d="M54.7575 129.089C53.2617 129.089 52.0502 130.302 52.0502 131.797C52.0502 133.291 53.2628 134.504 54.7575 134.504C56.2522 134.504 57.4648 133.291 57.4648 131.797C57.4648 130.302 56.2522 129.089 54.7575 129.089Z" fill="white"/>
<path d="M62.5965 129.089C61.1007 129.089 59.8892 130.302 59.8892 131.797C59.8892 133.291 61.1018 134.504 62.5965 134.504C64.0912 134.504 65.3038 133.291 65.3038 131.797C65.3038 130.302 64.0912 129.089 62.5965 129.089Z" fill="white"/>
<path d="M70.4341 129.089C68.9383 129.089 67.7268 130.302 67.7268 131.797C67.7268 133.291 68.9394 134.504 70.4341 134.504C71.9289 134.504 73.1415 133.291 73.1415 131.797C73.1415 130.302 71.9289 129.089 70.4341 129.089Z" fill="white"/>
<path d="M78.2719 129.089C76.7761 129.089 75.5646 130.302 75.5646 131.797C75.5646 133.291 76.7772 134.504 78.2719 134.504C79.7666 134.504 80.9792 133.291 80.9792 131.797C80.9792 130.302 79.7666 129.089 78.2719 129.089Z" fill="white"/>
<path d="M86.1096 129.089C84.6137 129.089 83.4022 130.302 83.4022 131.797C83.4022 133.291 84.6148 134.504 86.1096 134.504C87.6043 134.504 88.8169 133.291 88.8169 131.797C88.8169 130.302 87.6043 129.089 86.1096 129.089Z" fill="white"/>
<path d="M93.9484 129.089C92.4526 129.089 91.2411 130.302 91.2411 131.797C91.2411 133.291 92.4537 134.504 93.9484 134.504C95.4431 134.504 96.6558 133.291 96.6558 131.797C96.6558 130.302 95.4431 129.089 93.9484 129.089Z" fill="white"/>
<path d="M46.9201 136.5C45.4243 136.5 44.2128 137.712 44.2128 139.207C44.2128 140.702 45.4254 141.914 46.9201 141.914C48.4148 141.914 49.6274 140.702 49.6274 139.207C49.6274 137.712 48.4148 136.5 46.9201 136.5Z" fill="white"/>
<path d="M54.7575 136.5C53.2617 136.5 52.0502 137.712 52.0502 139.207C52.0502 140.702 53.2628 141.914 54.7575 141.914C56.2522 141.914 57.4648 140.702 57.4648 139.207C57.4648 137.712 56.2522 136.5 54.7575 136.5Z" fill="white"/>
<path d="M62.5965 136.5C61.1007 136.5 59.8892 137.712 59.8892 139.207C59.8892 140.702 61.1018 141.914 62.5965 141.914C64.0912 141.914 65.3038 140.702 65.3038 139.207C65.3038 137.712 64.0912 136.5 62.5965 136.5Z" fill="white"/>
<path d="M70.4341 136.5C68.9383 136.5 67.7268 137.712 67.7268 139.207C67.7268 140.702 68.9394 141.914 70.4341 141.914C71.9289 141.914 73.1415 140.702 73.1415 139.207C73.1415 137.712 71.9289 136.5 70.4341 136.5Z" fill="white"/>
<path d="M78.2719 136.5C76.7761 136.5 75.5646 137.712 75.5646 139.207C75.5646 140.702 76.7772 141.914 78.2719 141.914C79.7666 141.914 80.9792 140.702 80.9792 139.207C80.9792 137.712 79.7666 136.5 78.2719 136.5Z" fill="white"/>
<path d="M86.1096 136.5C84.6137 136.5 83.4022 137.712 83.4022 139.207C83.4022 140.702 84.6148 141.914 86.1096 141.914C87.6043 141.914 88.8169 140.702 88.8169 139.207C88.8169 137.712 87.6043 136.5 86.1096 136.5Z" fill="white"/>
<path d="M93.9484 136.5C92.4526 136.5 91.2411 137.712 91.2411 139.207C91.2411 140.702 92.4537 141.914 93.9484 141.914C95.4431 141.914 96.6558 140.702 96.6558 139.207C96.6558 137.712 95.4431 136.5 93.9484 136.5Z" fill="white"/>
<path d="M49.4219 147.654C49.9941 146.273 49.3381 144.689 47.9567 144.117C46.5753 143.545 44.9916 144.201 44.4194 145.582C43.8472 146.964 44.5032 148.547 45.8846 149.119C47.266 149.692 48.8497 149.036 49.4219 147.654Z" fill="white"/>
<path d="M57.2595 147.655C57.8317 146.274 57.1757 144.69 55.7943 144.118C54.4129 143.545 52.8292 144.201 52.257 145.583C51.6848 146.964 52.3408 148.548 53.7222 149.12C55.1036 149.692 56.6873 149.036 57.2595 147.655Z" fill="white"/>
<path d="M63.037 149.282C64.5129 149.042 65.5151 147.652 65.2756 146.176C65.036 144.7 63.6453 143.698 62.1694 143.937C60.6935 144.177 59.6913 145.568 59.9309 147.043C60.1704 148.519 61.5611 149.522 63.037 149.282Z" fill="white"/>
<path d="M70.4344 149.326C71.9296 149.326 73.1417 148.113 73.1417 146.618C73.1417 145.123 71.9296 143.911 70.4344 143.911C68.9392 143.911 67.7271 145.123 67.7271 146.618C67.7271 148.113 68.9392 149.326 70.4344 149.326Z" fill="white"/>
<path d="M80.7734 147.655C81.3456 146.274 80.6896 144.69 79.3082 144.118C77.9268 143.545 76.3431 144.201 75.7709 145.583C75.1987 146.964 75.8547 148.548 77.2361 149.12C78.6175 149.692 80.2012 149.036 80.7734 147.655Z" fill="white"/>
<path d="M86.5503 149.281C88.0262 149.042 89.0285 147.651 88.7889 146.175C88.5493 144.699 87.1586 143.697 85.6827 143.937C84.2068 144.176 83.2046 145.567 83.4442 147.043C83.6837 148.519 85.0744 149.521 86.5503 149.281Z" fill="white"/>
<path d="M93.9487 149.326C95.4439 149.326 96.656 148.113 96.656 146.618C96.656 145.123 95.4439 143.911 93.9487 143.911C92.4535 143.911 91.2413 145.123 91.2413 146.618C91.2413 148.113 92.4535 149.326 93.9487 149.326Z" fill="white"/>
<path d="M46.9201 151.321C45.4243 151.321 44.2128 152.534 44.2128 154.028C44.2128 155.523 45.4254 156.736 46.9201 156.736C48.4148 156.736 49.6274 155.523 49.6274 154.028C49.6274 152.534 48.4148 151.321 46.9201 151.321Z" fill="white"/>
<path d="M54.7575 151.321C53.2617 151.321 52.0502 152.534 52.0502 154.028C52.0502 155.523 53.2628 156.736 54.7575 156.736C56.2522 156.736 57.4648 155.523 57.4648 154.028C57.4648 152.534 56.2522 151.321 54.7575 151.321Z" fill="white"/>
<path d="M62.5965 151.321C61.1007 151.321 59.8892 152.534 59.8892 154.028C59.8892 155.523 61.1018 156.736 62.5965 156.736C64.0912 156.736 65.3038 155.523 65.3038 154.028C65.3038 152.534 64.0912 151.321 62.5965 151.321Z" fill="white"/>
<path d="M70.4341 151.321C68.9383 151.321 67.7268 152.534 67.7268 154.028C67.7268 155.523 68.9394 156.736 70.4341 156.736C71.9289 156.736 73.1415 155.523 73.1415 154.028C73.1415 152.534 71.9289 151.321 70.4341 151.321Z" fill="white"/>
<path d="M78.2719 151.321C76.7761 151.321 75.5646 152.534 75.5646 154.028C75.5646 155.523 76.7772 156.736 78.2719 156.736C79.7666 156.736 80.9792 155.523 80.9792 154.028C80.9792 152.534 79.7666 151.321 78.2719 151.321Z" fill="white"/>
<path d="M86.1096 151.321C84.6137 151.321 83.4022 152.534 83.4022 154.028C83.4022 155.523 84.6148 156.736 86.1096 156.736C87.6043 156.736 88.8169 155.523 88.8169 154.028C88.8169 152.534 87.6043 151.321 86.1096 151.321Z" fill="white"/>
<path d="M93.9484 151.321C92.4526 151.321 91.2411 152.534 91.2411 154.028C91.2411 155.523 92.4537 156.736 93.9484 156.736C95.4431 156.736 96.6558 155.523 96.6558 154.028C96.6558 152.534 95.4431 151.321 93.9484 151.321Z" fill="white"/>
<path d="M46.9201 158.731C45.4243 158.731 44.2128 159.944 44.2128 161.439C44.2128 162.933 45.4254 164.146 46.9201 164.146C48.4148 164.146 49.6274 162.933 49.6274 161.439C49.6274 159.944 48.4148 158.731 46.9201 158.731Z" fill="white"/>
<path d="M54.7575 158.731C53.2617 158.731 52.0502 159.944 52.0502 161.439C52.0502 162.933 53.2628 164.146 54.7575 164.146C56.2522 164.146 57.4648 162.933 57.4648 161.439C57.4648 159.944 56.2522 158.731 54.7575 158.731Z" fill="white"/>
<path d="M62.5965 158.731C61.1007 158.731 59.8892 159.944 59.8892 161.439C59.8892 162.933 61.1018 164.146 62.5965 164.146C64.0912 164.146 65.3038 162.933 65.3038 161.439C65.3038 159.944 64.0912 158.731 62.5965 158.731Z" fill="white"/>
<path d="M70.4341 158.731C68.9383 158.731 67.7268 159.944 67.7268 161.439C67.7268 162.933 68.9394 164.146 70.4341 164.146C71.9289 164.146 73.1415 162.933 73.1415 161.439C73.1415 159.944 71.9289 158.731 70.4341 158.731Z" fill="white"/>
<path d="M78.2719 158.731C76.7761 158.731 75.5646 159.944 75.5646 161.439C75.5646 162.933 76.7772 164.146 78.2719 164.146C79.7666 164.146 80.9792 162.933 80.9792 161.439C80.9792 159.944 79.7666 158.731 78.2719 158.731Z" fill="white"/>
<path d="M86.1096 158.731C84.6137 158.731 83.4022 159.944 83.4022 161.439C83.4022 162.933 84.6148 164.146 86.1096 164.146C87.6043 164.146 88.8169 162.933 88.8169 161.439C88.8169 159.944 87.6043 158.731 86.1096 158.731Z" fill="white"/>
<path d="M93.9484 158.731C92.4526 158.731 91.2411 159.944 91.2411 161.439C91.2411 162.933 92.4537 164.146 93.9484 164.146C95.4431 164.146 96.6558 162.933 96.6558 161.439C96.6558 159.944 95.4431 158.731 93.9484 158.731Z" fill="white"/>
<path d="M49.4221 169.886C49.9943 168.504 49.3383 166.921 47.9569 166.348C46.5755 165.776 44.9918 166.432 44.4196 167.814C43.8474 169.195 44.5034 170.779 45.8848 171.351C47.2662 171.923 48.8499 171.267 49.4221 169.886Z" fill="white"/>
<path d="M57.2599 169.886C57.8321 168.505 57.1761 166.921 55.7947 166.349C54.4133 165.777 52.8296 166.433 52.2574 167.814C51.6852 169.196 52.3412 170.779 53.7226 171.352C55.104 171.924 56.6877 171.268 57.2599 169.886Z" fill="white"/>
<path d="M63.0388 171.514C64.5147 171.274 65.517 169.884 65.2774 168.408C65.0378 166.932 63.6472 165.93 62.1713 166.169C60.6954 166.409 59.6931 167.8 59.9327 169.275C60.1723 170.751 61.5629 171.754 63.0388 171.514Z" fill="white"/>
<path d="M70.4343 171.557C71.9295 171.557 73.1416 170.345 73.1416 168.85C73.1416 167.355 71.9295 166.143 70.4343 166.143C68.939 166.143 67.7269 167.355 67.7269 168.85C67.7269 170.345 68.939 171.557 70.4343 171.557Z" fill="white"/>
<path d="M80.7737 169.886C81.3459 168.505 80.6899 166.921 79.3085 166.349C77.9271 165.777 76.3434 166.433 75.7712 167.814C75.199 169.196 75.855 170.779 77.2364 171.351C78.6178 171.924 80.2015 171.268 80.7737 169.886Z" fill="white"/>
<path d="M86.551 171.512C88.0269 171.273 89.0292 169.882 88.7896 168.406C88.55 166.93 87.1594 165.928 85.6835 166.168C84.2076 166.407 83.2053 167.798 83.4449 169.274C83.6845 170.75 85.0751 171.752 86.551 171.512Z" fill="white"/>
<path d="M93.9485 171.557C95.4438 171.557 96.6559 170.345 96.6559 168.85C96.6559 167.355 95.4438 166.143 93.9485 166.143C92.4533 166.143 91.2412 167.355 91.2412 168.85C91.2412 170.345 92.4533 171.557 93.9485 171.557Z" fill="white"/>
<path d="M49.4211 177.296C49.9933 175.915 49.3373 174.331 47.9559 173.759C46.5745 173.187 44.9908 173.843 44.4186 175.224C43.8464 176.606 44.5024 178.189 45.8838 178.762C47.2652 179.334 48.8489 178.678 49.4211 177.296Z" fill="white"/>
<path d="M57.2589 177.297C57.8311 175.916 57.1751 174.332 55.7937 173.76C54.4123 173.187 52.8286 173.843 52.2564 175.225C51.6842 176.606 52.3402 178.19 53.7216 178.762C55.103 179.334 56.6867 178.678 57.2589 177.297Z" fill="white"/>
<path d="M63.0385 178.924C64.5144 178.684 65.5166 177.293 65.277 175.817C65.0375 174.342 63.6468 173.339 62.1709 173.579C60.695 173.818 59.6927 175.209 59.9323 176.685C60.1719 178.161 61.5626 179.163 63.0385 178.924Z" fill="white"/>
<path d="M70.4343 178.967C71.9295 178.967 73.1416 177.755 73.1416 176.26C73.1416 174.765 71.9295 173.553 70.4343 173.553C68.939 173.553 67.7269 174.765 67.7269 176.26C67.7269 177.755 68.939 178.967 70.4343 178.967Z" fill="white"/>
<path d="M80.7738 177.296C81.346 175.914 80.69 174.331 79.3086 173.759C77.9272 173.186 76.3435 173.842 75.7713 175.224C75.1991 176.605 75.8551 178.189 77.2365 178.761C78.6179 179.333 80.2016 178.677 80.7738 177.296Z" fill="white"/>
<path d="M86.5519 178.923C88.0278 178.683 89.03 177.293 88.7905 175.817C88.5509 174.341 87.1602 173.339 85.6843 173.578C84.2084 173.818 83.2062 175.209 83.4457 176.684C83.6853 178.16 85.076 179.163 86.5519 178.923Z" fill="white"/>
<path d="M93.9485 178.967C95.4438 178.967 96.6559 177.755 96.6559 176.26C96.6559 174.765 95.4438 173.553 93.9485 173.553C92.4533 173.553 91.2412 174.765 91.2412 176.26C91.2412 177.755 92.4533 178.967 93.9485 178.967Z" fill="white"/>
<path d="M209.12 53.8867C211.232 53.7908 212.867 52.0009 212.771 49.8889C212.675 47.7768 210.885 46.1424 208.773 46.2383C206.661 46.3342 205.026 48.1241 205.122 50.2362C205.218 52.3482 207.008 53.9826 209.12 53.8867Z" fill="white"/>
<path d="M220.023 53.9062C222.138 53.9062 223.852 52.1923 223.852 50.0781C223.852 47.9639 222.138 46.25 220.023 46.25C217.909 46.25 216.195 47.9639 216.195 50.0781C216.195 52.1923 217.909 53.9062 220.023 53.9062Z" fill="white"/>
<path d="M231.104 53.9062C233.218 53.9062 234.932 52.1923 234.932 50.0781C234.932 47.9639 233.218 46.25 231.104 46.25C228.99 46.25 227.276 47.9639 227.276 50.0781C227.276 52.1923 228.99 53.9062 231.104 53.9062Z" fill="white"/>
<path d="M242.362 53.8854C244.474 53.7895 246.109 51.9997 246.013 49.8876C245.917 47.7756 244.127 46.1412 242.015 46.2371C239.903 46.333 238.269 48.1229 238.365 50.2349C238.46 52.347 240.25 53.9814 242.362 53.8854Z" fill="white"/>
<path d="M253.266 53.9062C255.38 53.9062 257.094 52.1923 257.094 50.0781C257.094 47.9639 255.38 46.25 253.266 46.25C251.152 46.25 249.438 47.9639 249.438 50.0781C249.438 52.1923 251.152 53.9062 253.266 53.9062Z" fill="white"/>
<path d="M264.347 53.9062C266.461 53.9062 268.175 52.1923 268.175 50.0781C268.175 47.9639 266.461 46.25 264.347 46.25C262.233 46.25 260.519 47.9639 260.519 50.0781C260.519 52.1923 262.233 53.9062 264.347 53.9062Z" fill="white"/>
<path d="M275.604 53.8832C277.716 53.7873 279.35 51.9974 279.254 49.8853C279.158 47.7733 277.368 46.1389 275.256 46.2348C273.144 46.3307 271.51 48.1206 271.606 50.2327C271.702 52.3447 273.492 53.9791 275.604 53.8832Z" fill="white"/>
<path d="M212.481 62.0196C213.29 60.0663 212.362 57.827 210.409 57.0179C208.455 56.2088 206.216 57.1364 205.407 59.0897C204.598 61.0429 205.526 63.2822 207.479 64.0913C209.432 64.9004 211.671 63.9728 212.481 62.0196Z" fill="white"/>
<path d="M220.023 64.3823C222.138 64.3823 223.852 62.6684 223.852 60.5542C223.852 58.44 222.138 56.7261 220.023 56.7261C217.909 56.7261 216.195 58.44 216.195 60.5542C216.195 62.6684 217.909 64.3823 220.023 64.3823Z" fill="white"/>
<path d="M231.104 64.3823C233.218 64.3823 234.932 62.6684 234.932 60.5542C234.932 58.44 233.218 56.7261 231.104 56.7261C228.99 56.7261 227.276 58.44 227.276 60.5542C227.276 62.6684 228.99 64.3823 231.104 64.3823Z" fill="white"/>
<path d="M245.722 62.0187C246.531 60.0655 245.604 57.8261 243.651 57.0171C241.697 56.208 239.458 57.1356 238.649 59.0888C237.84 61.0421 238.767 63.2814 240.721 64.0905C242.674 64.8995 244.913 63.972 245.722 62.0187Z" fill="white"/>
<path d="M253.266 64.3823C255.38 64.3823 257.094 62.6684 257.094 60.5542C257.094 58.44 255.38 56.7261 253.266 56.7261C251.152 56.7261 249.438 58.44 249.438 60.5542C249.438 62.6684 251.152 64.3823 253.266 64.3823Z" fill="white"/>
<path d="M264.347 64.3823C266.461 64.3823 268.175 62.6684 268.175 60.5542C268.175 58.44 266.461 56.7261 264.347 56.7261C262.233 56.7261 260.519 58.44 260.519 60.5542C260.519 62.6684 262.233 64.3823 264.347 64.3823Z" fill="white"/>
<path d="M278.964 62.0189C279.773 60.0656 278.845 57.8263 276.892 57.0172C274.939 56.2081 272.699 57.1357 271.89 59.089C271.081 61.0422 272.009 63.2816 273.962 64.0906C275.915 64.8997 278.155 63.9721 278.964 62.0189Z" fill="white"/>
<path d="M212.48 72.4952C213.289 70.5419 212.362 68.3026 210.409 67.4935C208.455 66.6845 206.216 67.612 205.407 69.5653C204.598 71.5186 205.525 73.7579 207.479 74.567C209.432 75.376 211.671 74.4485 212.48 72.4952Z" fill="white"/>
<path d="M220.024 74.8585C222.138 74.8585 223.852 73.1446 223.852 71.0304C223.852 68.9162 222.138 67.2023 220.024 67.2023C217.909 67.2023 216.195 68.9162 216.195 71.0304C216.195 73.1446 217.909 74.8585 220.024 74.8585Z" fill="white"/>
<path d="M231.104 74.8585C233.219 74.8585 234.932 73.1446 234.932 71.0304C234.932 68.9162 233.219 67.2023 231.104 67.2023C228.99 67.2023 227.276 68.9162 227.276 71.0304C227.276 73.1446 228.99 74.8585 231.104 74.8585Z" fill="white"/>
<path d="M245.722 72.4955C246.531 70.5422 245.604 68.3029 243.65 67.4938C241.697 66.6847 239.458 67.6123 238.649 69.5655C237.84 71.5188 238.767 73.7581 240.72 74.5672C242.674 75.3763 244.913 74.4487 245.722 72.4955Z" fill="white"/>
<path d="M253.266 74.8585C255.38 74.8585 257.094 73.1446 257.094 71.0304C257.094 68.9162 255.38 67.2023 253.266 67.2023C251.152 67.2023 249.438 68.9162 249.438 71.0304C249.438 73.1446 251.152 74.8585 253.266 74.8585Z" fill="white"/>
<path d="M264.347 74.8585C266.461 74.8585 268.175 73.1446 268.175 71.0304C268.175 68.9162 266.461 67.2023 264.347 67.2023C262.233 67.2023 260.519 68.9162 260.519 71.0304C260.519 73.1446 262.233 74.8585 264.347 74.8585Z" fill="white"/>
<path d="M278.963 72.4956C279.773 70.5423 278.845 68.303 276.892 67.4939C274.938 66.6849 272.699 67.6124 271.89 69.5657C271.081 71.5189 272.009 73.7583 273.962 74.5673C275.915 75.3764 278.154 74.4489 278.963 72.4956Z" fill="white"/>
<path d="M209.121 85.3156C211.233 85.2197 212.868 83.4299 212.772 81.3178C212.676 79.2058 210.886 77.5714 208.774 77.6673C206.662 77.7632 205.027 79.5531 205.123 81.6651C205.219 83.7772 207.009 85.4116 209.121 85.3156Z" fill="white"/>
<path d="M220.023 85.3347C222.138 85.3347 223.852 83.6208 223.852 81.5066C223.852 79.3924 222.138 77.6785 220.023 77.6785C217.909 77.6785 216.195 79.3924 216.195 81.5066C216.195 83.6208 217.909 85.3347 220.023 85.3347Z" fill="white"/>
<path d="M231.104 85.3347C233.218 85.3347 234.932 83.6208 234.932 81.5066C234.932 79.3924 233.218 77.6785 231.104 77.6785C228.99 77.6785 227.276 79.3924 227.276 81.5066C227.276 83.6208 228.99 85.3347 231.104 85.3347Z" fill="white"/>
<path d="M242.364 85.3133C244.476 85.2174 246.111 83.4275 246.015 81.3155C245.919 79.2035 244.129 77.5691 242.017 77.665C239.905 77.7609 238.271 79.5508 238.367 81.6628C238.463 83.7748 240.252 85.4092 242.364 85.3133Z" fill="white"/>
<path d="M253.266 85.3347C255.38 85.3347 257.094 83.6208 257.094 81.5066C257.094 79.3924 255.38 77.6785 253.266 77.6785C251.152 77.6785 249.438 79.3924 249.438 81.5066C249.438 83.6208 251.152 85.3347 253.266 85.3347Z" fill="white"/>
<path d="M264.347 85.3347C266.461 85.3347 268.175 83.6208 268.175 81.5066C268.175 79.3924 266.461 77.6785 264.347 77.6785C262.233 77.6785 260.519 79.3924 260.519 81.5066C260.519 83.6208 262.233 85.3347 264.347 85.3347Z" fill="white"/>
<path d="M275.605 85.3121C277.718 85.2162 279.352 83.4264 279.256 81.3143C279.16 79.2023 277.37 77.5679 275.258 77.6638C273.146 77.7597 271.512 79.5496 271.608 81.6616C271.704 83.7737 273.493 85.4081 275.605 85.3121Z" fill="white"/>
<path d="M212.479 93.4486C213.288 91.4953 212.361 89.256 210.408 88.4469C208.454 87.6379 206.215 88.5654 205.406 90.5187C204.597 92.472 205.524 94.7113 207.478 95.5203C209.431 96.3294 211.67 95.4019 212.479 93.4486Z" fill="white"/>
<path d="M220.023 95.8108C222.138 95.8108 223.851 94.0969 223.851 91.9827C223.851 89.8685 222.138 88.1546 220.023 88.1546C217.909 88.1546 216.195 89.8685 216.195 91.9827C216.195 94.0969 217.909 95.8108 220.023 95.8108Z" fill="white"/>
<path d="M231.104 95.8108C233.218 95.8108 234.932 94.0969 234.932 91.9827C234.932 89.8685 233.218 88.1546 231.104 88.1546C228.99 88.1546 227.276 89.8685 227.276 91.9827C227.276 94.0969 228.99 95.8108 231.104 95.8108Z" fill="white"/>
<path d="M245.722 93.4478C246.531 91.4945 245.604 89.2552 243.651 88.4461C241.697 87.637 239.458 88.5646 238.649 90.5179C237.84 92.4711 238.767 94.7104 240.721 95.5195C242.674 96.3286 244.913 95.401 245.722 93.4478Z" fill="white"/>
<path d="M253.266 95.8108C255.38 95.8108 257.094 94.0969 257.094 91.9827C257.094 89.8685 255.38 88.1546 253.266 88.1546C251.152 88.1546 249.438 89.8685 249.438 91.9827C249.438 94.0969 251.152 95.8108 253.266 95.8108Z" fill="white"/>
<path d="M264.347 95.8108C266.461 95.8108 268.175 94.0969 268.175 91.9827C268.175 89.8685 266.461 88.1546 264.347 88.1546C262.232 88.1546 260.519 89.8685 260.519 91.9827C260.519 94.0969 262.232 95.8108 264.347 95.8108Z" fill="white"/>
<path d="M278.964 93.4479C279.773 91.4946 278.845 89.2553 276.892 88.4463C274.939 87.6372 272.699 88.5647 271.89 90.518C271.081 92.4713 272.009 94.7106 273.962 95.5197C275.915 96.3287 278.155 95.4012 278.964 93.4479Z" fill="white"/>
<path d="M212.479 103.924C213.288 101.971 212.361 99.7316 210.408 98.9226C208.454 98.1135 206.215 99.041 205.406 100.994C204.597 102.948 205.524 105.187 207.478 105.996C209.431 106.805 211.67 105.877 212.479 103.924Z" fill="white"/>
<path d="M220.024 106.287C222.138 106.287 223.852 104.573 223.852 102.459C223.852 100.345 222.138 98.6308 220.024 98.6308C217.909 98.6308 216.195 100.345 216.195 102.459C216.195 104.573 217.909 106.287 220.024 106.287Z" fill="white"/>
<path d="M231.104 106.287C233.219 106.287 234.932 104.573 234.932 102.459C234.932 100.345 233.219 98.6308 231.104 98.6308C228.99 98.6308 227.276 100.345 227.276 102.459C227.276 104.573 228.99 106.287 231.104 106.287Z" fill="white"/>
<path d="M245.722 103.923C246.531 101.97 245.604 99.7308 243.65 98.9217C241.697 98.1126 239.458 99.0402 238.649 100.993C237.84 102.947 238.767 105.186 240.72 105.995C242.674 106.804 244.913 105.877 245.722 103.923Z" fill="white"/>
<path d="M253.266 106.287C255.38 106.287 257.094 104.573 257.094 102.459C257.094 100.345 255.38 98.6308 253.266 98.6308C251.152 98.6308 249.438 100.345 249.438 102.459C249.438 104.573 251.152 106.287 253.266 106.287Z" fill="white"/>
<path d="M264.347 106.287C266.461 106.287 268.175 104.573 268.175 102.459C268.175 100.345 266.461 98.6308 264.347 98.6308C262.233 98.6308 260.519 100.345 260.519 102.459C260.519 104.573 262.233 106.287 264.347 106.287Z" fill="white"/>
<path d="M278.964 103.925C279.773 101.971 278.845 99.732 276.892 98.923C274.939 98.1139 272.699 99.0415 271.89 100.995C271.081 102.948 272.009 105.187 273.962 105.996C275.915 106.805 278.155 105.878 278.964 103.925Z" fill="white"/>
<path d="M212.48 114.401C213.289 112.448 212.362 110.208 210.408 109.399C208.455 108.59 206.216 109.518 205.407 111.471C204.598 113.424 205.525 115.664 207.478 116.473C209.432 117.282 211.671 116.354 212.48 114.401Z" fill="white"/>
<path d="M220.023 116.763C222.138 116.763 223.852 115.049 223.852 112.935C223.852 110.821 222.138 109.107 220.023 109.107C217.909 109.107 216.195 110.821 216.195 112.935C216.195 115.049 217.909 116.763 220.023 116.763Z" fill="white"/>
<path d="M231.104 116.763C233.218 116.763 234.932 115.049 234.932 112.935C234.932 110.821 233.218 109.107 231.104 109.107C228.99 109.107 227.276 110.821 227.276 112.935C227.276 115.049 228.99 116.763 231.104 116.763Z" fill="white"/>
<path d="M245.722 114.4C246.531 112.447 245.603 110.208 243.65 109.398C241.697 108.589 239.457 109.517 238.648 111.47C237.839 113.423 238.767 115.663 240.72 116.472C242.673 117.281 244.913 116.353 245.722 114.4Z" fill="white"/>
<path d="M253.266 116.763C255.38 116.763 257.094 115.049 257.094 112.935C257.094 110.821 255.38 109.107 253.266 109.107C251.152 109.107 249.438 110.821 249.438 112.935C249.438 115.049 251.152 116.763 253.266 116.763Z" fill="white"/>
<path d="M264.347 116.763C266.461 116.763 268.175 115.049 268.175 112.935C268.175 110.821 266.461 109.107 264.347 109.107C262.233 109.107 260.519 110.821 260.519 112.935C260.519 115.049 262.233 116.763 264.347 116.763Z" fill="white"/>
<path d="M278.963 114.4C279.772 112.447 278.845 110.208 276.891 109.399C274.938 108.59 272.699 109.517 271.89 111.47C271.081 113.424 272.008 115.663 273.961 116.472C275.915 117.281 278.154 116.354 278.963 114.4Z" fill="white"/>
<path d="M224.439 261.919C274.83 261.919 315.68 257.626 315.68 252.329C315.68 247.032 274.83 242.739 224.439 242.739C174.048 242.739 133.197 247.032 133.197 252.329C133.197 257.626 174.048 261.919 224.439 261.919Z" fill="#F4E2C9"/>
<path d="M67.3575 257.254C101.406 257.254 129.007 254.353 129.007 250.774C129.007 247.196 101.406 244.294 67.3575 244.294C33.3092 244.294 5.70764 247.196 5.70764 250.774C5.70764 254.353 33.3092 257.254 67.3575 257.254Z" fill="#F4E2C9"/>
<path d="M171.3 155.126H161.45L164.514 176.791L175.967 257.772H181.151L173.825 181.422L171.3 155.126Z" fill="#E5745A"/>
<g opacity="0.5">
<path d="M161.45 155.126L164.514 176.79C164.73 176.851 164.942 176.912 165.152 176.98C168.272 177.965 171.142 179.538 173.825 181.422L171.3 155.125H161.45V155.126Z" fill="black"/>
</g>
<path d="M49.2807 181.422L41.9558 257.772H47.1398L58.5913 176.79L61.6551 155.126H51.8054L49.2807 181.422Z" fill="#E5745A"/>
<g opacity="0.5">
<path d="M49.2806 181.422C51.9639 179.538 54.8331 177.965 57.9537 176.98C58.1637 176.912 58.3758 176.849 58.5912 176.79L61.655 155.126H51.8054L49.2806 181.423V181.422Z" fill="black"/>
</g>
<path d="M181.41 144.239H42.9924V162.383H181.41V144.239Z" fill="#C45230"/>
<path d="M111.165 147.609H47.1399V159.274H111.165V147.609Z" fill="#E5745A"/>
<path d="M177.003 147.609H113.497V159.274H177.003V147.609Z" fill="#E5745A"/>
<path d="M101.962 152.015C101.175 152.015 100.536 152.654 100.536 153.441C100.536 154.229 101.175 154.867 101.962 154.867C102.75 154.867 103.388 154.229 103.388 153.441C103.388 152.654 102.75 152.015 101.962 152.015Z" fill="white"/>
<path d="M121.143 152.015C120.356 152.015 119.717 152.654 119.717 153.441C119.717 154.229 120.356 154.867 121.143 154.867C121.931 154.867 122.569 154.229 122.569 153.441C122.569 152.654 121.931 152.015 121.143 152.015Z" fill="white"/>
<g opacity="0.3">
<path d="M153.273 147.609C148.755 150.688 144.882 154.659 141.895 159.274C141.245 160.282 140.636 161.318 140.073 162.384H181.409V144.24H159.246C157.154 145.194 155.156 146.324 153.272 147.61L153.273 147.609Z" fill="black"/>
</g>
<path d="M269.754 144.592C269.764 144.896 270.743 175.091 266.658 186.156L267.068 186.306C268.256 183.089 269.762 176.121 270.192 161.201C270.449 152.29 270.194 144.652 270.192 144.577L269.754 144.592Z" fill="white"/>
<path d="M268.278 139.158C266.237 140.087 265.336 142.495 266.264 144.536C267.193 146.578 269.601 147.479 271.642 146.55C273.684 145.621 274.585 143.213 273.657 141.172C272.727 139.13 270.319 138.229 268.278 139.158Z" fill="#E53F58"/>
<path d="M277.707 145.968C275.46 146.659 266.474 184.331 266.474 184.331C266.474 184.331 265.437 140.093 263.536 143.03C261.635 145.968 263.881 192.624 263.881 192.624L269.929 197.636C269.929 197.636 279.951 145.275 277.706 145.967L277.707 145.968Z" fill="#F4AA40"/>
<path d="M252.65 151.497C250.749 152.361 264.055 195.735 264.055 195.735L270.276 191.242C270.276 191.242 254.55 150.633 252.65 151.497Z" fill="#FCC56B"/>
<path d="M274.262 184.275C272.505 188.922 271.626 192.712 271.618 192.749L272.044 192.847C272.078 192.698 275.57 177.788 282.702 170.487L282.389 170.182C278.613 174.047 275.885 179.98 274.263 184.276L274.262 184.275Z" fill="white"/>
<path d="M284.878 172.58C287.121 172.58 288.939 170.761 288.939 168.519C288.939 166.276 287.121 164.458 284.878 164.458C282.635 164.458 280.817 166.276 280.817 168.519C280.817 170.761 282.635 172.58 284.878 172.58Z" fill="#E53F58"/>
<mask id="mask0_380_1447" style="mask-type:alpha" maskUnits="userSpaceOnUse" x="252" y="188" width="33" height="68">
<path d="M278.063 202.635C277.151 199.876 276.369 196.651 275.979 193.039V188.478H260.253V192.177C259.877 196.385 258.964 200.09 257.901 203.179C257.05 205.653 255.864 208 254.36 210.14C252.958 212.133 252.132 214.556 252.132 217.164V251.898C252.132 253.609 253.532 255.009 255.243 255.009H280.991C282.703 255.009 284.102 253.609 284.102 251.898V217.164C284.102 214.609 283.309 212.23 281.958 210.259C280.335 207.893 278.965 205.36 278.064 202.636L278.063 202.635Z" fill="#4C608E"/>
</mask>
<g mask="url(#mask0_380_1447)">
<path d="M277.15 202.227C276.239 199.468 275.457 196.244 275.066 192.631V188.07H259.341V191.769C258.965 195.977 258.051 199.682 256.989 202.771C256.137 205.245 254.952 207.592 253.447 209.732C252.045 211.726 251.22 214.149 251.22 216.756V251.49C251.22 253.202 252.619 254.601 254.331 254.601H280.079C281.79 254.601 283.189 253.202 283.189 251.49V216.756C283.189 214.201 282.397 211.822 281.045 209.851C279.423 207.485 278.053 204.952 277.152 202.228L277.15 202.227Z" fill="#4C608E"/>
<path d="M289.932 200.252C287.853 193.793 285.383 187.134 280.391 182.536L272.2 180.543C270.582 188.607 270.819 197.039 272.888 205C274.24 210.205 276.376 215.618 274.887 220.786C273.459 225.741 269.065 229.148 265.088 232.432C257.496 238.7 250.361 246.056 246.913 255.279C245.289 259.627 244.625 264.789 247.127 268.698C249.819 272.903 255.289 274.336 260.276 274.567C270.614 275.046 281.084 271.729 289.26 265.385C293.041 262.451 296.398 258.802 298.219 254.376C301.054 247.488 299.869 239.67 298.373 232.375C296.146 221.525 293.327 210.795 289.931 200.252H289.932Z" fill="#364B75"/>
<path d="M253.564 182.812C252.878 186.908 254.103 191.056 254.363 195.202C254.992 205.213 250.028 214.635 245.097 223.372C257.804 215.185 265.203 199.446 263.401 184.44L253.563 182.813L253.564 182.812Z" fill="#7C94C4"/>
</g>
<g opacity="0.3">
<path d="M252.314 215.061L252.13 228.295C256.531 227.204 260.752 224.846 263.791 221.126C267.052 217.137 268.76 211.906 270.394 206.817C264.815 208.215 259.126 209.764 254.369 213.308C253.636 213.854 252.949 214.438 252.314 215.061Z" fill="black"/>
</g>
<path d="M247.873 187.072C246.614 188.432 245.197 190.049 243.957 191.752C243.068 192.972 242.271 194.235 241.688 195.477C239.091 201.014 239.781 207.675 240.537 213.87C240.557 214.032 240.591 214.216 240.719 214.294C240.885 214.395 241.081 214.248 241.222 214.109C242.885 212.487 244.558 210.966 246.162 209.301C249.027 206.328 251.722 203.109 253.823 199.407C257.111 193.611 258.839 186.348 257.058 179.78C253.747 181.773 250.585 184.146 247.873 187.072Z" fill="#F4AA40"/>
<path d="M219.945 199.14C219.977 203.339 220.07 207.599 221.15 211.621C222.23 215.642 224.432 219.459 227.758 221.414C229.559 222.474 231.588 222.938 233.503 223.71C235.428 224.485 237.132 225.647 238.294 227.555C238.9 221.834 236.342 215.675 233.599 211.005C230.378 205.523 225.54 201.187 219.944 199.14H219.945Z" fill="#FCC56B"/>
<path d="M243.15 224.333C242.967 225.107 241.691 228.351 242.503 228.853C242.833 229.058 248.036 226.823 248.869 226.617C253.277 225.53 257.505 223.166 260.549 219.442C263.811 215.453 265.52 210.221 267.152 205.133C261.575 206.528 255.884 208.081 251.127 211.624C246.976 214.716 244.407 219.008 243.15 224.332V224.333Z" fill="#F4AA40"/>
<path d="M247.286 222.673C245.721 224.061 244.104 225.495 242.955 227.395C241.066 230.522 240.72 234.443 240.416 237.901L240.851 237.939C241.151 234.528 241.491 230.662 243.329 227.622C244.443 225.778 246.036 224.366 247.576 223L256.463 215.12L256.174 214.793L247.286 222.673Z" fill="white"/>
<path d="M239.24 236.767C239.305 235.066 239.374 233.306 239.26 231.582C238.759 223.987 234.858 217.357 231.24 211.736L230.873 211.974C234.46 217.547 238.33 224.121 238.824 231.612C238.937 233.313 238.869 235.062 238.803 236.751C238.708 239.212 238.609 241.758 239.063 244.215L239.492 244.135C239.047 241.725 239.144 239.205 239.24 236.767Z" fill="white"/>
<path d="M240.449 216.509C239.889 220.142 239.834 223.877 239.781 227.488L239.58 241.152L240.017 241.159L240.218 227.495C240.271 223.898 240.326 220.179 240.881 216.576C241.944 209.679 244.787 203.324 247.537 197.177L247.137 196.999C244.375 203.172 241.52 209.554 240.449 216.509Z" fill="white"/>
<path d="M231.266 256.475C231.266 256.475 249.385 256.264 249.394 256.156L250.599 237.842H229.825C229.825 237.842 231.263 256.439 231.266 256.475Z" fill="#C45230"/>
<g opacity="0.5">
<path d="M230.381 244.066C230.644 243.953 230.905 243.835 231.168 243.723C235.049 242.064 238.965 240.502 242.917 239.147C243.997 238.706 245.079 238.272 246.162 237.841H229.824L230.381 244.066Z" fill="black"/>
</g>
<path d="M229.193 234.473V239.495C229.369 239.527 229.548 239.548 229.733 239.548H250.44L250.939 234.423H229.733C229.547 234.423 229.367 234.443 229.193 234.474V234.473Z" fill="#C45230"/>
<path d="M187.899 183.719L187.184 183.632C187.041 183.614 186.909 183.717 186.891 183.861L177.646 259.031C177.629 259.174 177.732 259.306 177.875 259.324L178.59 259.411C178.733 259.429 178.865 259.326 178.883 259.183L188.128 184.013C188.145 183.869 188.043 183.737 187.899 183.719Z" fill="#314366"/>
<path d="M238.99 183.719L238.275 183.632C238.132 183.614 237.999 183.717 237.982 183.861L228.737 259.031C228.719 259.174 228.822 259.306 228.965 259.324L229.681 259.411C229.824 259.429 229.956 259.326 229.974 259.183L239.219 184.013C239.236 183.869 239.133 183.737 238.99 183.719Z" fill="#314366"/>
<path d="M178.664 232.363H254.401C254.546 232.363 254.663 232.481 254.663 232.625V233.346C254.663 233.491 254.545 233.608 254.401 233.608H178.664C178.519 233.608 178.402 233.49 178.402 233.346V232.625C178.402 232.48 178.52 232.363 178.664 232.363Z" fill="#314366"/>
<path d="M246.174 184.359C246.156 184.216 246.024 184.113 245.881 184.131L245.166 184.218C245.022 184.236 244.92 184.368 244.937 184.511L254.182 259.681C254.2 259.825 254.332 259.927 254.475 259.91L255.19 259.822C255.334 259.805 255.436 259.673 255.419 259.529L246.174 184.359Z" fill="#314366"/>
<path d="M195.83 184.359C195.813 184.216 195.68 184.113 195.537 184.131L194.822 184.218C194.679 184.236 194.576 184.368 194.593 184.511L203.838 259.681C203.856 259.825 203.988 259.927 204.131 259.91L204.846 259.822C204.99 259.805 205.093 259.673 205.075 259.529L195.83 184.359Z" fill="#314366"/>
<path d="M248.01 177.936H185.314C184.589 177.936 184.001 178.524 184.001 179.248V185.437C184.001 186.162 184.589 186.749 185.314 186.749H248.01C248.735 186.749 249.322 186.162 249.322 185.437V179.248C249.322 178.524 248.735 177.936 248.01 177.936Z" fill="#40557F"/>
<path d="M116.349 126.095L110.906 141.907H131.123L130.346 126.872L116.349 126.095Z" fill="#4C608E"/>
<path d="M75.9114 72.1785L74.6157 74.771L88.0945 128.168L164.561 127.909L165.774 124.485L149.786 71.9194C149.786 71.9194 75.134 72.1785 75.9114 72.1785Z" fill="#4C608E"/>
<path d="M75.9117 72.1785L74.616 74.771L88.0947 128.168L164.562 127.909L165.598 124.54L89.3915 124.799L75.9117 72.1785Z" fill="#2F4268"/>
<path d="M80.8375 75.8076L92.242 118.836H160.155L147.713 75.8076H80.8375Z" fill="#98ACD3"/>
<path d="M140.196 141.128H104.425V144.239H140.196V141.128Z" fill="#2F4268"/>
<path d="M125.491 232.213C122.455 238.273 119.435 243.776 118.253 244.285C115.532 245.451 101.145 248.173 105.034 251.284C108.922 254.395 136.136 253.617 139.247 252.45C141.074 251.766 145.849 243.575 149.481 236.926C152.034 232.253 154.022 228.343 154.022 228.343L133.415 215.513C133.415 215.513 129.438 224.334 125.491 232.214V232.213Z" fill="#FFB38D"/>
<path d="M125.491 232.213C122.455 238.273 119.435 243.776 118.253 244.285C115.532 245.451 101.145 248.173 105.034 251.284C108.922 254.395 136.136 253.617 139.247 252.45C141.074 251.766 145.849 243.575 149.481 236.926C139.843 238.002 131.043 234.904 125.491 232.213Z" fill="#C45230"/>
<path d="M121.46 236.949C121.316 237.057 121.286 237.262 121.394 237.406C121.502 237.551 121.707 237.581 121.853 237.475C121.928 237.419 123.739 236.137 125.812 238.67C125.876 238.749 125.97 238.79 126.065 238.79C126.139 238.79 126.212 238.766 126.273 238.716C126.413 238.601 126.434 238.394 126.319 238.254C123.837 235.222 121.484 236.931 121.46 236.949Z" fill="white"/>
<path d="M119.905 239.671C119.761 239.78 119.732 239.984 119.84 240.129C119.947 240.274 120.153 240.303 120.298 240.197C120.373 240.142 122.184 238.86 124.257 241.393C124.322 241.471 124.416 241.513 124.511 241.513C124.584 241.513 124.657 241.489 124.719 241.438C124.859 241.324 124.879 241.117 124.765 240.977C122.283 237.945 119.929 239.654 119.905 239.671Z" fill="white"/>
<path d="M118.35 242.393C118.206 242.501 118.177 242.706 118.285 242.85C118.392 242.994 118.598 243.025 118.743 242.919C118.82 242.863 120.629 241.582 122.702 244.114C122.767 244.193 122.861 244.234 122.956 244.234C123.029 244.234 123.103 244.21 123.164 244.16C123.304 244.045 123.324 243.839 123.21 243.699C120.728 240.666 118.375 242.376 118.35 242.393Z" fill="white"/>
<path d="M165.639 161.288L159.465 162.636L140.511 190.263L122.919 215.901L145.258 230.795L153.244 236.119L180.018 189.713L187.058 177.512C187.058 177.512 222.062 181.688 229.838 170.023C237.611 158.362 236.056 145.92 236.056 145.92L165.639 161.288Z" fill="#C62846"/>
<g opacity="0.3">
<path d="M159.465 162.636L140.511 190.263L145.258 230.795L153.244 236.119L180.018 189.713L165.639 161.288L159.465 162.636Z" fill="black"/>
</g>
<path d="M172.692 233.631C181.945 230.334 188.374 224.651 187.051 220.937C185.727 217.224 177.154 216.886 167.901 220.183C158.648 223.479 152.219 229.162 153.542 232.876C154.865 236.589 163.439 236.927 172.692 233.631Z" fill="black"/>
<g opacity="0.5">
<path d="M162.48 165.374C165.654 164.06 167.161 160.421 165.846 157.247C164.532 154.073 160.893 152.566 157.719 153.88C154.545 155.195 153.038 158.834 154.352 162.008C155.667 165.182 159.306 166.689 162.48 165.374Z" fill="white"/>
</g>
<g opacity="0.5">
<path d="M190.474 167.966C193.648 166.651 195.155 163.012 193.84 159.838C192.526 156.664 188.887 155.157 185.713 156.472C182.539 157.787 181.032 161.425 182.346 164.599C183.661 167.773 187.3 169.281 190.474 167.966Z" fill="white"/>
</g>
<g opacity="0.5">
<path d="M214.793 156.257C218.229 156.257 221.014 153.472 221.014 150.036C221.014 146.601 218.229 143.816 214.793 143.816C211.358 143.816 208.573 146.601 208.573 150.036C208.573 153.472 211.358 156.257 214.793 156.257Z" fill="white"/>
</g>
<g opacity="0.5">
<path d="M238.64 171.55C242.076 171.55 244.861 168.765 244.861 165.329C244.861 161.894 242.076 159.109 238.64 159.109C235.205 159.109 232.42 161.894 232.42 165.329C232.42 168.765 235.205 171.55 238.64 171.55Z" fill="white"/>
</g>
<g opacity="0.5">
<path d="M168.701 189.221C171.875 187.906 173.382 184.267 172.067 181.093C170.752 177.919 167.114 176.412 163.94 177.727C160.766 179.041 159.258 182.68 160.573 185.854C161.888 189.028 165.527 190.535 168.701 189.221Z" fill="white"/>
</g>
<g opacity="0.5">
<path d="M146.589 204.117C149.981 203.567 152.283 200.372 151.733 196.981C151.183 193.589 147.987 191.287 144.596 191.837C141.205 192.388 138.902 195.583 139.453 198.974C140.003 202.365 143.198 204.668 146.589 204.117Z" fill="white"/>
</g>
<g opacity="0.5">
<path d="M162.952 229.353C166.387 229.353 169.172 226.568 169.172 223.132C169.172 219.697 166.387 216.912 162.952 216.912C159.516 216.912 156.731 219.697 156.731 223.132C156.731 226.568 159.516 229.353 162.952 229.353Z" fill="white"/>
</g>
<g opacity="0.5">
<path d="M210.175 185.073C213.349 183.758 214.856 180.119 213.541 176.945C212.226 173.771 208.588 172.264 205.414 173.579C202.24 174.894 200.732 178.532 202.047 181.706C203.362 184.88 207.001 186.388 210.175 185.073Z" fill="white"/>
</g>
<mask id="mask1_380_1447" style="mask-type:alpha" maskUnits="userSpaceOnUse" x="144" y="143" width="99" height="90">
<path d="M206.498 148.48C206.498 148.48 211.423 149.776 199.499 150.554C187.576 151.331 168.913 151.849 158.026 157.293C147.138 162.737 144.547 172.068 144.029 181.141C143.51 190.213 150.509 220.8 150.509 220.8L153.62 232.724C153.62 232.724 172.801 210.432 187.058 221.059C182.911 205.506 176.95 179.067 176.95 179.067C176.95 179.067 203.648 183.473 222.311 179.326C240.973 175.179 244.343 163.255 241.232 149.776C238.122 136.297 206.498 148.48 206.498 148.48Z" fill="#E53F58"/>
</mask>
<g mask="url(#mask1_380_1447)">
<g opacity="0.4">
<path d="M244.601 161.441L240.55 168.216C243.404 164.528 244.601 161.441 244.601 161.441Z" fill="black"/>
<path d="M212.46 180.364C188.353 178.55 171.505 175.698 171.505 175.698L170.728 236.094L200.278 235.575L240.552 168.217C236.009 174.086 227.266 181.478 212.461 180.364H212.46Z" fill="black"/>
</g>
</g>
<path d="M180.111 226.118C178.787 221.753 177.726 217.948 177.726 217.948C177.726 217.948 162.692 220.541 158.026 229.354C158.026 229.354 159.181 231.818 160.273 234.525C161.184 236.779 162.056 239.203 162.173 240.499C162.432 243.351 161.914 256.052 157.507 256.83C153.101 257.607 149.472 260.977 152.842 261.495C156.212 262.014 166.839 262.791 171.763 259.94C176.688 257.089 186.279 242.055 184.206 237.908C183.148 235.795 181.486 230.655 180.11 226.119L180.111 226.118Z" fill="#FFB38D"/>
<path d="M182.928 234.774C182.032 232.306 181.011 229.085 180.111 226.119C171.394 223.909 164.688 229.087 160.274 234.526C161.186 236.78 162.057 239.205 162.174 240.5C162.433 243.352 161.915 256.053 157.508 256.831C153.102 257.608 149.473 260.978 152.843 261.496C153.47 261.593 154.348 261.699 155.396 261.787C159.971 262.179 167.757 262.262 171.765 259.941C176.689 257.09 186.28 242.056 184.207 237.909C183.841 237.175 183.403 236.082 182.928 234.775V234.774Z" fill="#C45230"/>
<path d="M163.314 237.351C159.435 237.911 159.683 240.809 159.687 240.838C159.704 241.007 159.846 241.132 160.012 241.132C160.023 241.132 160.033 241.132 160.044 241.131C160.223 241.114 160.356 240.954 160.339 240.774C160.331 240.68 160.168 238.469 163.408 238.001C163.587 237.974 163.712 237.808 163.685 237.629C163.659 237.45 163.493 237.326 163.314 237.351Z" fill="white"/>
<path d="M164.557 240.646C160.678 241.206 160.926 244.103 160.93 244.133C160.947 244.302 161.089 244.428 161.256 244.428C161.267 244.428 161.277 244.428 161.289 244.426C161.47 244.407 161.601 244.246 161.583 244.066C161.573 243.972 161.387 241.765 164.651 241.295C164.83 241.269 164.955 241.103 164.928 240.923C164.902 240.744 164.736 240.621 164.557 240.646Z" fill="white"/>
<g opacity="0.5">
<path d="M182.929 234.774C182.231 234.494 181.451 234.315 180.578 234.279C174.842 234.04 169.766 258.925 155.396 261.786C159.971 262.178 167.757 262.261 171.765 259.94C176.69 257.089 186.28 242.055 184.207 237.908C183.842 237.174 183.403 236.081 182.929 234.774Z" fill="black"/>
</g>
<mask id="mask2_380_1447" style="mask-type:alpha" maskUnits="userSpaceOnUse" x="132" y="113" width="75" height="26">
<path d="M182.651 122.819C182.651 122.819 159.322 124.114 153.36 125.152C147.399 126.189 143.856 125.238 140.745 127.052C137.634 128.866 131.241 135.174 132.277 135.174C133.314 135.174 136.598 133.62 136.598 133.62C136.598 133.62 133.228 136.73 134.524 136.73C135.821 136.73 139.104 135.521 139.104 135.521C139.104 135.521 136.511 137.854 138.067 137.854C139.623 137.854 142.819 135.868 142.819 135.868C142.819 135.868 140.66 138.892 141.955 138.633C143.251 138.374 147.658 135.522 147.658 135.522C147.658 135.522 152.842 135.522 155.693 135.004C158.545 134.486 187.057 140.188 192.5 137.337C197.943 134.486 206.238 124.895 206.238 124.895L190.685 113.749L182.65 122.821L182.651 122.819Z" fill="#FFB38D"/>
</mask>
<g mask="url(#mask2_380_1447)">
<path d="M182.651 122.819C182.651 122.819 159.322 124.114 153.36 125.152C147.399 126.189 143.856 125.238 140.745 127.052C137.634 128.866 131.241 135.174 132.277 135.174C133.314 135.174 136.598 133.62 136.598 133.62C136.598 133.62 133.228 136.73 134.524 136.73C135.821 136.73 139.104 135.521 139.104 135.521C139.104 135.521 136.511 137.854 138.067 137.854C139.623 137.854 142.819 135.868 142.819 135.868C142.819 135.868 140.66 138.892 141.955 138.633C143.251 138.374 147.658 135.522 147.658 135.522C147.658 135.522 152.842 135.522 155.693 135.004C158.545 134.486 187.057 140.188 192.5 137.337C197.943 134.486 206.238 124.895 206.238 124.895L190.685 113.749L182.65 122.821L182.651 122.819Z" fill="#FFB38D"/>
<path d="M193.533 107.83C185.88 107.254 178.254 110.125 172 114.572L159.616 123.888C165.99 122.196 172.817 122.246 179.166 124.03C181.778 124.764 184.3 125.782 186.859 126.681C189.313 127.543 191.804 128.298 194.323 128.942C198.163 129.924 202.182 130.651 206.076 129.916C208.982 129.367 212.019 127.644 212.674 124.761C213.048 123.114 212.569 121.388 211.878 119.847C208.74 112.843 201.187 108.405 193.533 107.829V107.83Z" fill="#F78259"/>
<path d="M155.796 133.744C153.646 134.451 151.383 134.812 149.12 134.809C148.505 134.809 147.881 134.782 147.284 134.928C146.023 135.237 145.08 136.247 144.102 137.099C143.122 137.951 141.853 138.719 140.595 138.396L140.271 143.041C141.702 143.867 143.507 143.327 145.037 142.704C148.19 141.42 151.225 139.855 154.136 138.087C154.933 137.604 155.753 137.07 156.202 136.254C156.65 135.437 156.576 134.255 155.796 133.744Z" fill="#F78259"/>
<path d="M143.917 134.353C143.054 134.624 142.225 135.004 141.456 135.478C140.756 135.909 140.102 136.42 139.358 136.769C138.615 137.117 137.741 137.291 136.97 137.008L136.924 138.48C137.828 139.08 139.038 138.765 140.043 138.356C141.823 137.63 143.599 136.565 144.454 134.844C144.514 134.724 144.569 134.582 144.512 134.46C144.419 134.26 144.128 134.288 143.917 134.354V134.353Z" fill="#F78259"/>
<path d="M140.049 133.26C139.876 133.156 139.653 133.226 139.469 133.31C138.42 133.788 137.585 134.629 136.607 135.238C135.569 135.885 134.366 136.267 133.143 136.335L133.666 137.296C134.792 137.155 135.908 136.939 137.005 136.651C137.763 136.452 138.528 136.21 139.159 135.746C139.79 135.283 140.276 134.556 140.266 133.773C140.264 133.578 140.216 133.358 140.048 133.259L140.049 133.26Z" fill="#F78259"/>
<path d="M130.721 134.302L130.753 136.684C132.708 136.244 134.57 135.397 136.189 134.215C136.765 133.794 137.321 133.318 137.67 132.696C138.018 132.073 138.126 131.277 137.792 130.648C135.929 132.607 133.397 133.916 130.723 134.303L130.721 134.302Z" fill="#F78259"/>
</g>
<mask id="mask3_380_1447" style="mask-type:alpha" maskUnits="userSpaceOnUse" x="187" y="96" width="59" height="59">
<path d="M218.811 96.2504C218.811 96.2504 210.905 96.3805 209.09 97.4171C207.275 98.4536 205.461 99.2311 205.461 99.2311C205.461 99.2311 200.795 101.045 197.425 103.119C194.055 105.194 187.316 115.821 187.316 115.821L195.11 122.23L203.387 129.04L203.646 150.036C203.646 150.036 216.088 154.961 229.048 154.184C242.009 153.406 245.379 150.814 245.379 150.814C245.379 150.814 239.936 108.562 236.825 101.824C233.714 95.0837 218.809 96.2504 218.809 96.2504H218.811Z" fill="#FCC56B"/>
</mask>
<g mask="url(#mask3_380_1447)">
<path d="M218.811 96.2504C218.811 96.2504 210.905 96.3805 209.09 97.4171C207.275 98.4536 205.461 99.2311 205.461 99.2311C205.461 99.2311 200.795 101.045 197.425 103.119C194.055 105.194 187.316 115.821 187.316 115.821L195.11 122.23L203.387 129.04L203.646 150.036C203.646 150.036 216.088 154.961 229.048 154.184C242.009 153.406 245.379 150.814 245.379 150.814C245.379 150.814 239.936 108.562 236.825 101.824C233.714 95.0837 218.809 96.2504 218.809 96.2504H218.811Z" fill="#FCC56B"/>
<path d="M182.737 125.152L203.388 129.04L185.675 109.426L182.737 125.152Z" fill="white"/>
<path d="M244.256 147.098C229.222 155.566 201.745 148.135 201.745 148.135C196.907 148.999 207.102 165.415 207.102 165.415L254.278 158.848C254.278 158.848 259.289 138.63 244.256 147.097V147.098Z" fill="white"/>
</g>
<mask id="mask4_380_1447" style="mask-type:alpha" maskUnits="userSpaceOnUse" x="201" y="49" width="44" height="37">
<path d="M206.764 53.0916L201.061 61.6455C201.061 61.6455 216.355 58.5347 221.539 65.7929C228.02 65.7929 235.536 74.0876 236.054 82.3824C236.573 90.6772 244.867 76.9393 244.867 76.9393L234.24 49.2044L206.765 53.0926L206.764 53.0916Z" fill="#D35060"/>
</mask>
<g mask="url(#mask4_380_1447)">
<path d="M233.067 95.602C235.011 80.3082 234.406 64.8427 222.828 63.5896C222.828 63.5896 219.07 60.2197 212.46 60.3498C205.85 60.4799 202.739 63.0713 200.666 66.5703C198.593 70.0693 197.556 77.1974 197.556 77.1974L200.536 77.5866L217.385 81.8641L220.055 87.9972C220.055 87.9972 217.644 100.398 216.997 107.656C216.348 114.914 215.053 129.689 225.551 139.797C230.606 139.797 231.642 139.408 231.642 139.408L227.884 130.595L232.809 139.279L238.641 138.631L237.086 131.244L240.197 137.853L247.455 135.002C247.455 135.002 231.125 110.895 233.069 95.602H233.067Z" fill="#B22630"/>
</g>
<mask id="mask5_380_1447" style="mask-type:alpha" maskUnits="userSpaceOnUse" x="197" y="60" width="51" height="80">
<path d="M233.067 95.602C235.011 80.3082 234.406 64.8427 222.828 63.5896C222.828 63.5896 219.07 60.2197 212.46 60.3498C205.85 60.4799 202.739 63.0713 200.666 66.5703C198.593 70.0693 197.555 77.1974 197.555 77.1974L200.536 77.5866L217.385 81.8641L220.055 87.9972C220.055 87.9972 217.644 100.398 216.997 107.656C216.348 114.914 215.053 129.689 225.551 139.797C230.605 139.797 231.642 139.408 231.642 139.408L227.884 130.595L232.809 139.279L238.641 138.631L237.086 131.244L240.197 137.853L247.455 135.002C247.455 135.002 231.125 110.895 233.069 95.602H233.067Z" fill="#B22630"/>
</mask>
<g mask="url(#mask5_380_1447)">
<path d="M233.067 95.602C235.011 80.3082 234.406 64.8427 222.828 63.5896C222.828 63.5896 219.07 60.2197 212.46 60.3498C205.85 60.4799 202.739 63.0713 200.666 66.5703C198.593 70.0693 197.555 77.1974 197.555 77.1974L200.536 77.5866L217.385 81.8641L220.055 87.9972C220.055 87.9972 217.644 100.398 216.997 107.656C216.348 114.914 215.053 129.689 225.551 139.797C230.605 139.797 231.642 139.408 231.642 139.408L227.884 130.595L232.809 139.279L238.641 138.631L237.086 131.244L240.197 137.853L247.455 135.002C247.455 135.002 231.125 110.895 233.069 95.602H233.067Z" fill="#B22630"/>
<path d="M248.236 136.038C225.167 127.743 224.389 87.0481 224.389 83.6781C224.389 80.3082 220.241 75.3833 220.241 75.3833L217.908 79.0124L210.391 76.4199L211.427 69.9391L206.502 75.1231L196.134 72.5306L194.58 96.6375L204.688 151.331L257.567 155.478C257.567 155.478 271.305 144.332 248.235 136.037L248.236 136.038Z" fill="#8E1927"/>
</g>
<path d="M199.317 82.2424C199.317 82.2424 196.566 86.2663 198.635 86.8633C200.158 87.3028 200.353 86.4336 200.508 85.7053C200.662 84.9771 200.347 81.4902 199.317 82.2424Z" fill="#F78259"/>
<path d="M217.559 79.85L212.201 78.9271L211.682 75.0389L211.25 78.668L204.08 78.1497L204.165 74.174L202.61 77.8031L199.868 77.5647C199.3 78.9589 198.981 80.5017 198.981 82.1243C198.981 88.3274 203.585 93.3561 209.264 93.3561C210.194 93.3561 211.096 93.2183 211.955 92.9646L211.813 96.6845L214.389 96.5259L218.811 96.2515L220.055 87.9983C220.672 87.8922 221.292 87.6746 221.878 87.3345C224.234 85.9732 225.178 83.1981 223.983 81.1315C222.791 79.066 219.913 78.4931 217.56 79.8511L217.559 79.85Z" fill="#FFB38D"/>
<path d="M220.829 82.3758C220.646 82.2315 220.413 82.1703 220.202 82.1768C219.989 82.1812 219.794 82.2424 219.619 82.3288C219.269 82.5038 218.997 82.7771 218.79 83.0789C218.589 83.3851 218.442 83.7251 218.396 84.0805C218.373 84.2576 218.374 84.4381 218.419 84.6097C218.463 84.7803 218.552 84.941 218.69 85.0515C218.555 84.9388 218.467 84.777 218.434 84.6064C218.399 84.4359 218.415 84.2587 218.455 84.0914C218.54 83.7557 218.731 83.4583 218.96 83.2145C219.195 82.975 219.472 82.7793 219.768 82.6743C219.915 82.6219 220.066 82.5912 220.204 82.5978C220.342 82.6033 220.464 82.6437 220.558 82.717C220.651 82.7924 220.715 82.9029 220.751 83.0363C220.787 83.1697 220.791 83.3227 220.772 83.4769C220.735 83.7874 220.605 84.1013 220.422 84.3823C220.234 84.66 219.987 84.9115 219.678 85.0679C219.523 85.1444 219.354 85.198 219.18 85.2013C219.006 85.2067 218.829 85.1575 218.689 85.0493C218.827 85.1586 219.004 85.2111 219.18 85.2166C219.357 85.2231 219.534 85.1838 219.702 85.1225C220.038 85.0001 220.339 84.7825 220.594 84.519C220.843 84.25 221.05 83.9263 221.144 83.5458C221.189 83.3566 221.206 83.1511 221.164 82.9422C221.123 82.7345 221.012 82.5213 220.831 82.3747L220.829 82.3758Z" fill="#ED8E5F"/>
<path d="M207.08 77.3154C206.806 77.1503 206.501 77.0344 206.191 76.9885C205.883 76.9382 205.572 76.9393 205.273 76.9786C205.123 76.9994 204.975 77.0267 204.83 77.0661C204.682 77.1044 204.547 77.147 204.395 77.2104C204.29 77.2542 204.235 77.3723 204.271 77.4816C204.31 77.5964 204.433 77.6577 204.548 77.6194L204.561 77.615C204.671 77.5778 204.807 77.5428 204.934 77.5199C205.063 77.4947 205.193 77.4794 205.323 77.4707C205.583 77.4543 205.841 77.4729 206.084 77.5297C206.329 77.5822 206.553 77.6894 206.751 77.8271C206.956 77.9573 207.11 78.1519 207.258 78.3443L207.279 78.3706C207.279 78.3706 207.286 78.3793 207.29 78.3837C207.409 78.5226 207.619 78.539 207.759 78.4187C207.898 78.2995 207.915 78.0896 207.794 77.9496C207.588 77.709 207.363 77.474 207.08 77.3154Z" fill="#89132A"/>
<path d="M204.548 80.1518C203.929 80.0698 203.36 80.5061 203.279 81.125C203.197 81.7439 203.634 82.3124 204.253 82.3933C204.871 82.4754 205.44 82.0391 205.521 81.4202C205.603 80.8013 205.167 80.2327 204.548 80.1518Z" fill="#961E2D"/>
<path d="M210.224 81.7941C208.731 81.6279 207.387 82.7028 207.221 84.1942C207.055 85.6868 208.13 87.0306 209.621 87.1968C211.114 87.363 212.458 86.2881 212.624 84.7967C212.79 83.3042 211.715 81.9603 210.224 81.7941Z" fill="#EA6036"/>
<path d="M204.654 87.4253C204.538 87.3947 204.418 87.4636 204.386 87.5795C204.384 87.5871 204.183 88.3066 203.521 88.6139C202.995 88.8588 202.313 88.7877 201.493 88.4061C201.383 88.3547 201.253 88.4017 201.202 88.5122C201.151 88.6215 201.199 88.7516 201.308 88.803C201.868 89.0644 202.38 89.1945 202.839 89.1945C203.155 89.1945 203.447 89.1321 203.711 89.0086C204.558 88.6117 204.798 87.7304 204.808 87.6932C204.839 87.5762 204.77 87.4581 204.653 87.4264L204.654 87.4253Z" fill="#89132A"/>
<path d="M215.959 90.6772C215.31 91.3256 211.954 92.9635 211.954 92.9635L211.812 96.6834L214.388 96.5248C215.668 93.6896 216.321 90.3142 215.959 90.6772Z" fill="#F78259"/>
<g opacity="0.5">
<path d="M219.498 77.2663C219.399 76.7622 219.331 76.2494 219.266 75.7344L219.079 74.1828C219.013 73.6634 218.948 73.1429 218.853 72.6192C218.766 73.1451 218.74 73.6743 218.736 74.2036C218.736 74.7328 218.766 75.262 218.831 75.789C218.898 76.3161 218.998 76.842 219.165 77.3537C219.249 77.6096 219.353 77.8611 219.489 78.0984C219.562 78.2143 219.636 78.3302 219.732 78.4308C219.823 78.5335 219.94 78.6166 220.063 78.6669C219.867 78.4843 219.765 78.2503 219.684 78.0087C219.601 77.7681 219.549 77.5167 219.497 77.2652L219.498 77.2663Z" fill="black"/>
</g>
<g opacity="0.5">
<path d="M225.274 70.9845C225.271 70.9287 225.261 70.8729 225.253 70.8172C225.242 70.7046 225.213 70.5952 225.189 70.4837C225.129 70.2639 225.044 70.0485 224.932 69.8462C224.702 69.4438 224.351 69.1092 223.947 68.9026C223.542 68.6981 223.09 68.5964 222.655 68.6434C223.067 68.7779 223.444 68.9583 223.768 69.1956C224.094 69.4307 224.358 69.7237 224.552 70.0627C224.649 70.2333 224.725 70.4148 224.791 70.6018C224.852 70.7909 224.903 70.9867 224.939 71.1879C225.018 71.5902 225.042 72.0112 225.074 72.4453C225.224 72.0364 225.295 71.5979 225.282 71.1518L225.273 70.9845H225.274Z" fill="black"/>
</g>
<g opacity="0.5">
<path d="M223.769 117.73L223.634 117.172C223.546 116.799 223.445 116.431 223.377 116.054C223.303 115.677 223.223 115.305 223.151 114.928L222.962 113.796C222.737 112.281 222.562 110.759 222.452 109.232C222.343 107.704 222.278 106.172 222.253 104.64C222.206 101.575 222.302 98.5072 222.493 95.4445C222.591 93.9126 222.708 92.3829 222.851 90.8532C222.984 89.3235 223.155 87.7971 223.346 86.2717C222.792 89.2962 222.412 92.3534 222.154 95.4194C222.023 96.9524 221.932 98.4897 221.871 100.028C221.815 101.567 221.8 103.107 221.815 104.648C221.847 106.189 221.917 107.728 222.038 109.266C222.173 110.801 222.358 112.334 222.624 113.852C222.886 115.372 223.253 116.876 223.722 118.344C223.847 118.709 223.956 119.079 224.105 119.436L224.316 119.973C224.387 120.153 224.453 120.333 224.538 120.507C224.702 120.856 224.856 121.209 225.028 121.553L225.59 122.562C224.877 121.198 224.338 119.757 223.926 118.283L223.766 117.732L223.769 117.73Z" fill="black"/>
</g>
<g opacity="0.5">
<path d="M195.111 122.23L203.388 129.04L202.092 118.671L195.111 122.23Z" fill="black"/>
</g>
<path d="M87.6615 101.908L92.2419 118.836H177.348V30.0136H87.6615V101.908Z" fill="white"/>
<path d="M177.348 30.0136H87.6615V38.8266H177.348V30.0136Z" fill="#FCC56B"/>
<path d="M116.681 32.9835C116.501 32.791 116.283 32.6412 116.027 32.5352C115.773 32.4291 115.493 32.3799 115.188 32.3799C114.883 32.3799 114.603 32.4291 114.355 32.5352C114.105 32.6412 113.888 32.7899 113.707 32.9835C113.527 33.1759 113.384 33.4066 113.284 33.68C113.185 33.9534 113.135 34.2584 113.135 34.5941C113.135 34.9298 113.185 35.2349 113.284 35.5082C113.384 35.7816 113.527 36.0123 113.707 36.2047C113.888 36.3972 114.105 36.547 114.355 36.653C114.604 36.7591 114.884 36.8083 115.188 36.8083C115.492 36.8083 115.773 36.7591 116.027 36.653C116.282 36.547 116.5 36.3983 116.681 36.2047C116.862 36.0123 117.005 35.7816 117.105 35.5082C117.204 35.2349 117.254 34.9298 117.254 34.5941C117.254 34.2584 117.205 33.9534 117.105 33.68C117.005 33.4066 116.862 33.1759 116.681 32.9835ZM115.953 35.5159C115.761 35.74 115.505 35.8516 115.188 35.8516C114.871 35.8516 114.616 35.74 114.422 35.5159C114.23 35.2917 114.13 34.9812 114.13 34.5886C114.13 34.1961 114.23 33.8856 114.422 33.6614C114.615 33.4373 114.871 33.3257 115.188 33.3257C115.505 33.3257 115.761 33.4373 115.953 33.6614C116.146 33.8856 116.246 34.1961 116.246 34.5886C116.246 34.9812 116.147 35.2917 115.953 35.5159Z" fill="white"/>
<path d="M120.912 32.4552C120.775 32.4552 120.657 32.499 120.563 32.5853C120.469 32.6717 120.42 32.7909 120.42 32.9342L120.45 32.9156V34.9001L118.852 32.6608C118.796 32.5799 118.734 32.5241 118.665 32.4924C118.596 32.4618 118.522 32.4487 118.447 32.4487C118.36 32.4487 118.285 32.4607 118.223 32.4924C118.161 32.5241 118.11 32.5613 118.073 32.6105C118.036 32.6608 118.006 32.7166 117.986 32.7789C117.967 32.8412 117.961 32.909 117.961 32.9779V36.2691C117.961 36.4124 118.004 36.5305 118.097 36.6179C118.19 36.7054 118.303 36.748 118.44 36.748C118.576 36.748 118.689 36.7043 118.782 36.6179C118.875 36.5305 118.919 36.4189 118.919 36.2757V34.4529L120.505 36.5305C120.567 36.6114 120.63 36.6671 120.698 36.6988C120.765 36.7295 120.847 36.748 120.94 36.748C121.084 36.748 121.195 36.7043 121.276 36.6114C121.357 36.5184 121.401 36.4058 121.401 36.2757V32.9287C121.401 32.7854 121.351 32.6739 121.257 32.5864C121.163 32.499 121.045 32.4563 120.909 32.4563L120.912 32.4552Z" fill="white"/>
<path d="M124.756 35.8897H123.257V32.9407C123.257 32.7975 123.214 32.6794 123.127 32.5919C123.041 32.5044 122.922 32.4618 122.778 32.4618C122.635 32.4618 122.517 32.5055 122.43 32.5919C122.342 32.6783 122.299 32.7975 122.299 32.9407V36.2625C122.299 36.4058 122.343 36.5239 122.43 36.6114C122.517 36.6988 122.635 36.7415 122.79 36.7415L122.784 36.7349H124.762C124.905 36.7349 125.017 36.6977 125.104 36.6234C125.192 36.549 125.234 36.443 125.234 36.3118C125.234 36.1805 125.19 36.0756 125.104 36.0012C125.017 35.9269 124.899 35.8897 124.755 35.8897H124.756Z" fill="white"/>
<path d="M126.281 32.4487C126.137 32.4487 126.019 32.4924 125.932 32.5799C125.844 32.6674 125.801 32.7854 125.801 32.9287V36.2505C125.801 36.3938 125.844 36.5119 125.932 36.5993C126.019 36.6868 126.137 36.7295 126.281 36.7295C126.424 36.7295 126.542 36.6857 126.629 36.5993C126.717 36.5119 126.761 36.3938 126.761 36.2505V32.9287C126.761 32.7854 126.717 32.6674 126.629 32.5799C126.542 32.4924 126.424 32.4487 126.281 32.4487Z" fill="white"/>
<path d="M130.591 32.4552C130.454 32.4552 130.336 32.499 130.242 32.5853C130.148 32.6717 130.099 32.7909 130.099 32.9342L130.13 32.9156V34.9001L128.531 32.6608C128.475 32.5799 128.413 32.5241 128.344 32.4924C128.275 32.4618 128.201 32.4487 128.126 32.4487C128.039 32.4487 127.965 32.4607 127.902 32.4924C127.84 32.5241 127.79 32.5613 127.753 32.6105C127.715 32.6608 127.685 32.7166 127.665 32.7789C127.646 32.8412 127.64 32.909 127.64 32.9779V36.2691C127.64 36.4124 127.684 36.5305 127.777 36.6179C127.87 36.7054 127.982 36.748 128.119 36.748C128.255 36.748 128.368 36.7043 128.461 36.6179C128.554 36.5305 128.598 36.4189 128.598 36.2757V34.4529L130.184 36.5305C130.247 36.6114 130.309 36.6671 130.377 36.6988C130.445 36.7295 130.527 36.748 130.619 36.748C130.763 36.748 130.874 36.7043 130.955 36.6114C131.036 36.5184 131.08 36.4058 131.08 36.2757V32.9287C131.08 32.7854 131.031 32.6739 130.937 32.5864C130.843 32.499 130.724 32.4563 130.588 32.4563L130.591 32.4552Z" fill="white"/>
<path d="M134.66 33.3136C134.803 33.3136 134.914 33.2764 134.995 33.202C135.076 33.1277 135.113 33.0216 135.113 32.8904C135.113 32.7592 135.07 32.6542 134.989 32.5799C134.908 32.5055 134.796 32.4683 134.653 32.4683H132.451C132.296 32.4683 132.171 32.5121 132.083 32.5985C131.996 32.6848 131.953 32.804 131.953 32.9473V36.2691C131.953 36.4124 131.997 36.5304 132.078 36.6179C132.159 36.7054 132.277 36.748 132.432 36.748H134.648C134.791 36.748 134.902 36.7109 134.983 36.6365C135.064 36.5622 135.101 36.4561 135.101 36.326C135.101 36.1959 135.064 36.0898 134.983 36.0154C134.902 35.9411 134.791 35.9039 134.648 35.9039L134.673 35.8788H132.943V34.9953H133.982C134.125 34.9953 134.236 34.9581 134.324 34.8837C134.411 34.8094 134.454 34.7033 134.454 34.5732C134.454 34.4431 134.41 34.337 134.324 34.2616C134.236 34.1872 134.118 34.15 133.975 34.15H132.936V33.3168H134.66V33.3136Z" fill="white"/>
<path d="M139.6 32.4421H136.875C136.732 32.4421 136.614 32.4793 136.526 32.5536C136.439 32.628 136.396 32.7341 136.396 32.8653C136.396 32.9965 136.44 33.1014 136.526 33.1769C136.614 33.2512 136.725 33.2884 136.868 33.2884H137.758V36.2374C137.758 36.3806 137.802 36.4987 137.889 36.5862C137.976 36.6737 138.094 36.7174 138.237 36.7174C138.381 36.7174 138.499 36.6737 138.586 36.5862C138.674 36.4987 138.716 36.3806 138.716 36.2374V33.2884H139.606C139.75 33.2884 139.861 33.2512 139.949 33.1769C140.036 33.1025 140.079 32.9965 140.079 32.8653C140.079 32.7341 140.035 32.6291 139.949 32.5536C139.861 32.4793 139.743 32.4421 139.6 32.4421Z" fill="white"/>
<path d="M143.35 33.3136C143.493 33.3136 143.605 33.2764 143.686 33.202C143.767 33.1277 143.804 33.0216 143.804 32.8904C143.804 32.7592 143.76 32.6542 143.679 32.5799C143.598 32.5055 143.487 32.4683 143.344 32.4683H141.141C140.986 32.4683 140.862 32.5121 140.774 32.5985C140.687 32.6848 140.644 32.804 140.644 32.9473V36.2691C140.644 36.4124 140.688 36.5304 140.769 36.6179C140.85 36.7054 140.968 36.748 141.123 36.748H143.338C143.481 36.748 143.593 36.7109 143.674 36.6365C143.755 36.5622 143.792 36.4561 143.792 36.326C143.792 36.1959 143.755 36.0898 143.674 36.0154C143.593 35.9411 143.481 35.9039 143.338 35.9039L143.363 35.8788H141.633V34.9953H142.672C142.815 34.9953 142.927 34.9581 143.014 34.8837C143.102 34.8094 143.145 34.7033 143.145 34.5732C143.145 34.4431 143.101 34.337 143.014 34.2616C142.927 34.1872 142.809 34.15 142.666 34.15H141.627V33.3168H143.35V33.3136Z" fill="white"/>
<path d="M147.164 34.5448C147.039 34.4453 146.896 34.3643 146.741 34.3086C146.586 34.2528 146.424 34.2025 146.255 34.1588C146.069 34.1085 145.913 34.0658 145.795 34.0221C145.677 33.9784 145.578 33.9346 145.503 33.892C145.429 33.8483 145.379 33.8045 145.348 33.7608C145.317 33.717 145.304 33.6678 145.304 33.6121C145.304 33.5432 145.341 33.4754 145.422 33.4065C145.503 33.3387 145.646 33.307 145.852 33.307C146.032 33.307 146.169 33.3321 146.262 33.3759C146.355 33.4196 146.449 33.4688 146.542 33.5191C146.604 33.5508 146.667 33.5814 146.722 33.6066C146.778 33.6317 146.852 33.6438 146.94 33.6438C146.984 33.6438 147.033 33.6372 147.09 33.6186C147.146 33.6 147.196 33.5749 147.24 33.5377C147.283 33.5005 147.32 33.4502 147.352 33.3879C147.383 33.3256 147.396 33.2512 147.396 33.1638C147.396 33.0763 147.371 32.9833 147.322 32.8904C147.271 32.7975 147.185 32.7165 147.067 32.6477C146.898 32.5416 146.725 32.4672 146.544 32.4235C146.364 32.3798 146.153 32.3612 145.915 32.3612C145.698 32.3612 145.486 32.3863 145.287 32.4421C145.088 32.4979 144.914 32.5788 144.764 32.6848C144.614 32.7909 144.496 32.921 144.41 33.0763C144.323 33.2316 144.28 33.412 144.28 33.6175C144.28 33.81 144.31 33.9784 144.367 34.1216C144.423 34.2648 144.504 34.3829 144.616 34.4824C144.729 34.5819 144.859 34.6694 145.014 34.7372C145.17 34.8061 145.338 34.8673 145.525 34.9176C145.724 34.9734 145.886 35.0237 146.016 35.0674C146.146 35.1112 146.252 35.1549 146.333 35.1975C146.414 35.2413 146.47 35.285 146.5 35.3342C146.531 35.3845 146.544 35.4403 146.544 35.4961C146.544 35.5649 146.526 35.6207 146.488 35.6644C146.451 35.7082 146.401 35.7454 146.345 35.7705C146.289 35.7957 146.22 35.8142 146.146 35.8263C146.072 35.8383 145.991 35.8449 145.91 35.8449L145.941 35.8514C145.748 35.8514 145.58 35.8263 145.443 35.7771C145.306 35.7279 145.17 35.659 145.038 35.566C144.983 35.5289 144.926 35.4971 144.87 35.4731C144.814 35.4479 144.752 35.4359 144.683 35.4359C144.652 35.4359 144.609 35.4425 144.558 35.4545C144.508 35.4665 144.459 35.4917 144.409 35.5289C144.359 35.566 144.316 35.6163 144.279 35.6776C144.241 35.7399 144.223 35.8208 144.223 35.9137C144.223 36.0067 144.253 36.0942 144.316 36.1751C144.378 36.256 144.44 36.3249 144.503 36.3806C144.653 36.5053 144.838 36.6048 145.063 36.6726C145.287 36.7415 145.555 36.7786 145.872 36.7786C146.158 36.7786 146.406 36.7415 146.619 36.6726C146.831 36.6048 147.011 36.5108 147.153 36.3927C147.296 36.2746 147.402 36.1379 147.47 35.9761C147.538 35.8142 147.576 35.6458 147.576 35.4654C147.576 35.2478 147.539 35.0674 147.465 34.9176C147.39 34.7689 147.291 34.6443 147.166 34.5448H147.164Z" fill="white"/>
<path d="M151.021 32.4421H148.296C148.152 32.4421 148.034 32.4793 147.947 32.5536C147.859 32.628 147.817 32.7341 147.817 32.8653C147.817 32.9965 147.861 33.1014 147.947 33.1769C148.034 33.2512 148.146 33.2884 148.289 33.2884H149.179V36.2374C149.179 36.3806 149.223 36.4987 149.309 36.5862C149.397 36.6737 149.515 36.7174 149.658 36.7174C149.801 36.7174 149.919 36.6737 150.007 36.5862C150.094 36.4987 150.137 36.3806 150.137 36.2374V33.2884H151.027C151.17 33.2884 151.282 33.2512 151.369 33.1769C151.457 33.1025 151.499 32.9965 151.499 32.8653C151.499 32.7341 151.456 32.6291 151.369 32.5536C151.282 32.4793 151.164 32.4421 151.021 32.4421Z" fill="white"/>
<path d="M93.4448 42.5585C93.4076 42.5585 93.3573 42.5651 93.295 42.5837C93.2326 42.6023 93.1649 42.6394 93.096 42.6952L92.0506 43.5907C92.0069 43.6279 91.9632 43.6782 91.926 43.7405C91.8888 43.8029 91.8702 43.8707 91.8702 43.9516C91.8702 44.0817 91.914 44.1943 92.0004 44.2818C92.0867 44.3693 92.1928 44.413 92.3174 44.413C92.3732 44.413 92.429 44.401 92.4847 44.3758C92.5405 44.3507 92.5908 44.3255 92.628 44.2949L92.9582 44.0215V46.3921C92.9582 46.5354 93.0019 46.6469 93.0949 46.7278C93.1878 46.8087 93.3004 46.8524 93.4306 46.8524C93.5607 46.8524 93.6799 46.8087 93.7662 46.7223C93.8537 46.6348 93.8964 46.5299 93.8964 46.3987H93.915V43.0265C93.915 42.8898 93.8712 42.7772 93.7848 42.6908C93.6985 42.6045 93.5858 42.5607 93.4426 42.5607L93.4448 42.5585Z" fill="#FCC56B"/>
<path d="M95.4797 45.7874C95.3146 45.7885 95.1856 45.8377 95.0872 45.9361C94.9877 46.0356 94.9374 46.1669 94.9374 46.3342C94.9374 46.5015 94.9866 46.6392 95.0872 46.7256C95.1867 46.8131 95.3168 46.8557 95.4732 46.8557C95.6295 46.8557 95.7531 46.812 95.8591 46.7256C95.9652 46.6381 96.021 46.5015 96.021 46.3145C96.021 46.1461 95.9652 46.016 95.8591 45.923C95.7553 45.8312 95.6262 45.7874 95.4797 45.7863V45.7874Z" fill="#FCC56B"/>
<path d="M105.29 51.7707C105.239 51.6581 105.171 51.5673 105.092 51.505C105.013 51.4426 104.912 51.4088 104.787 51.4088C104.662 51.4088 104.561 51.4426 104.482 51.505C104.403 51.5673 104.341 51.6581 104.289 51.7707L103.033 54.6956C103.016 54.724 103.005 54.7579 102.999 54.7918C102.994 54.8257 102.988 54.8706 102.988 54.9219C102.988 55.0411 103.028 55.1374 103.107 55.2106C103.187 55.2839 103.294 55.3178 103.425 55.3178C103.521 55.3178 103.6 55.3014 103.668 55.2609C103.736 55.2216 103.788 55.1538 103.827 55.0521L104.025 54.5371L105.518 54.5261L105.722 55.0466C105.756 55.1319 105.806 55.1997 105.869 55.2445C105.932 55.2893 106.017 55.3123 106.124 55.3123C106.254 55.3123 106.362 55.2729 106.452 55.1931C106.543 55.1144 106.588 55.0061 106.588 54.876C106.588 54.8082 106.577 54.7459 106.549 54.6945L105.292 51.7696L105.29 51.7707ZM104.306 53.8132L104.764 52.6301L105.228 53.8132H104.306Z" fill="#FCC56B"/>
<path d="M106.092 60.3596C106.048 60.2809 105.985 60.2065 105.911 60.1387C105.838 60.0709 105.741 60.0086 105.622 59.9517C105.758 59.8785 105.86 59.7702 105.927 59.6292C105.995 59.4881 106.029 59.3405 106.029 59.182C106.029 58.8769 105.922 58.6331 105.701 58.4526C105.48 58.2711 105.147 58.1815 104.699 58.1815L104.728 58.1979H103.653C103.512 58.1979 103.404 58.2372 103.325 58.3171C103.246 58.3969 103.206 58.504 103.206 58.6341V61.6619C103.206 61.8204 103.24 61.933 103.313 62.0008C103.386 62.0686 103.493 62.1025 103.641 62.1025H104.819C105.26 62.1025 105.605 61.9954 105.849 61.78C106.092 61.5645 106.216 61.2704 106.216 60.8921C106.216 60.7959 106.205 60.7051 106.188 60.6144C106.17 60.5236 106.136 60.4394 106.091 60.3596H106.092ZM104.066 58.9622H104.683C104.819 58.9622 104.927 58.9906 105.006 59.0475C105.084 59.1043 105.125 59.1951 105.125 59.3186C105.125 59.4422 105.091 59.534 105.023 59.6073C104.955 59.6806 104.865 59.7145 104.752 59.7145H104.067V58.9622H104.066ZM105.175 61.1808C105.09 61.266 104.972 61.3054 104.813 61.3054H104.072V60.4394H104.796C105.129 60.4394 105.3 60.5805 105.3 60.8582C105.3 60.9883 105.26 61.0955 105.175 61.1808Z" fill="#FCC56B"/>
<path d="M104.888 65.8191C104.989 65.8191 105.075 65.83 105.148 65.8475C105.221 65.8639 105.289 65.8924 105.351 65.9328C105.414 65.9722 105.476 66.0181 105.533 66.0739C105.59 66.1307 105.652 66.1931 105.72 66.2663L105.765 66.2324C105.809 66.2772 105.855 66.3057 105.906 66.3232C105.957 66.3407 106.007 66.3461 106.059 66.3461C106.098 66.3461 106.144 66.3407 106.194 66.3232C106.246 66.3068 106.291 66.2838 106.33 66.2499C106.369 66.216 106.403 66.1712 106.432 66.1198C106.46 66.0695 106.471 66.0072 106.471 65.9328C106.471 65.8814 106.465 65.8311 106.455 65.7797C106.444 65.7294 106.421 65.678 106.392 65.6267C106.364 65.5873 106.314 65.5304 106.239 65.4517C106.166 65.373 106.07 65.2986 105.95 65.2254C105.831 65.1521 105.685 65.0843 105.515 65.0275C105.346 64.9706 105.148 64.9422 104.922 64.9422C104.645 64.9422 104.39 64.9936 104.164 65.0953C103.937 65.1969 103.74 65.3391 103.576 65.514C103.412 65.689 103.287 65.9044 103.196 66.1537C103.105 66.403 103.061 66.6742 103.061 66.9738C103.061 67.2734 103.105 67.5456 103.196 67.7884C103.287 68.0311 103.412 68.2411 103.576 68.416C103.74 68.591 103.932 68.7276 104.158 68.8239C104.385 68.9201 104.639 68.9649 104.916 68.9649C105.098 68.9649 105.262 68.9485 105.408 68.908C105.556 68.8687 105.685 68.8173 105.799 68.7604C105.911 68.7036 106.014 68.6358 106.098 68.5625C106.183 68.4893 106.257 68.4215 106.314 68.3537C106.365 68.2914 106.399 68.229 106.415 68.1667C106.432 68.1044 106.444 68.0475 106.444 67.9918C106.444 67.9524 106.432 67.9065 106.415 67.8616C106.398 67.8157 106.37 67.7763 106.336 67.737C106.303 67.6976 106.263 67.6637 106.217 67.6353C106.172 67.6069 106.121 67.5959 106.064 67.5959C106.013 67.5959 105.963 67.6014 105.917 67.6189C105.872 67.6353 105.826 67.6637 105.786 67.7042C105.724 67.7665 105.662 67.8234 105.605 67.8737C105.548 67.9251 105.486 67.9699 105.425 68.0038C105.362 68.0377 105.294 68.0661 105.221 68.0836C105.148 68.1 105.063 68.112 104.966 68.112C104.638 68.112 104.384 68.0158 104.208 67.8179C104.033 67.62 103.942 67.3488 103.942 66.9978C103.942 66.6468 104.027 66.3418 104.197 66.1318C104.366 65.9219 104.598 65.8202 104.887 65.8202L104.888 65.8191Z" fill="#FCC56B"/>
<path d="M106.053 72.2966C105.9 72.1271 105.713 71.997 105.493 71.9063C105.272 71.8155 105.03 71.7707 104.764 71.7707L104.753 71.7761H103.661C103.508 71.7761 103.395 71.8155 103.321 71.8953C103.247 71.9751 103.214 72.0823 103.214 72.2124V75.2336C103.214 75.3637 103.247 75.4708 103.315 75.5507C103.383 75.6305 103.496 75.6699 103.655 75.6699H104.753C105.008 75.6699 105.245 75.625 105.466 75.5288C105.687 75.4326 105.873 75.3025 106.031 75.133C106.19 74.9635 106.314 74.759 106.405 74.5163C106.496 74.2724 106.541 74.0067 106.541 73.7126C106.541 73.4185 106.496 73.1462 106.411 72.9089C106.325 72.6717 106.207 72.4672 106.054 72.2977L106.053 72.2966ZM105.408 74.5939C105.249 74.7973 105.012 74.899 104.701 74.899V74.8935H104.107V72.5514H104.673C104.996 72.5514 105.239 72.6531 105.403 72.851C105.567 73.0489 105.646 73.3376 105.646 73.717C105.646 74.0964 105.568 74.3905 105.409 74.5939H105.408Z" fill="#FCC56B"/>
<path d="M93.5214 84.8798H92.4018L93.1234 84.0773C93.2415 83.9406 93.3476 83.8159 93.4405 83.7044C93.5335 83.5929 93.6089 83.4802 93.6712 83.3742C93.7336 83.2681 93.7773 83.1631 93.8079 83.0505C93.8385 82.939 93.8516 82.8198 93.8516 82.6962C93.8516 82.4972 93.8145 82.3234 93.7456 82.167C93.6767 82.0118 93.5772 81.8805 93.4525 81.769C93.3279 81.6575 93.1792 81.5766 93.0042 81.5197C92.8304 81.464 92.6368 81.4322 92.4324 81.4322C92.2148 81.4322 92.0158 81.4628 91.8408 81.5252C91.6659 81.5875 91.5172 81.6684 91.3925 81.7614C91.2679 81.8543 91.1684 81.9604 91.1006 82.0785C91.0317 82.1965 90.9945 82.3146 90.9945 82.4327C90.9945 82.588 91.0382 82.7061 91.1246 82.7815C91.2121 82.8559 91.3171 82.8931 91.4362 82.8996C91.6101 82.9062 91.7599 82.8187 91.878 82.6317C91.9338 82.5508 92.0026 82.4885 92.0836 82.4393C92.1645 82.389 92.276 82.3649 92.4192 82.3649C92.5745 82.3649 92.6871 82.4021 92.7615 82.4765C92.8358 82.5508 92.8741 82.6449 92.8741 82.7498C92.8741 82.8056 92.861 82.8679 92.8435 82.9302C92.8249 82.9926 92.7932 83.0614 92.7506 83.1358C92.7068 83.2102 92.6511 83.2911 92.5822 83.3851C92.5144 83.478 92.4269 83.5841 92.3208 83.7022L92.3274 83.6399L91.164 84.9148C91.1202 84.9586 91.0831 85.0209 91.0514 85.0952C91.0208 85.1696 91.0022 85.2439 91.0022 85.3128C91.0022 85.4003 91.0207 85.4747 91.0579 85.5304C91.0951 85.5862 91.1388 85.6299 91.188 85.6671C91.2383 85.7043 91.2875 85.7294 91.3433 85.7415C91.3991 85.7535 91.4494 85.76 91.4931 85.76H93.5214C93.6581 85.76 93.7707 85.7163 93.8571 85.6354C93.9435 85.5545 93.9872 85.4484 93.9872 85.3183C93.9872 85.1882 93.9435 85.0821 93.8571 85.0012C93.7707 84.9203 93.6581 84.8765 93.5214 84.8765V84.8798Z" fill="#FCC56B"/>
<path d="M95.998 56.1543H100.583V51.5695H95.998V56.1543ZM96.4354 52.0069H100.145V55.7169H96.4354V52.0069Z" fill="#FCC56B"/>
<path d="M95.998 62.5475H100.583V57.9628H95.998V62.5475ZM96.4354 58.4002H100.145V62.1102H96.4354V58.4002Z" fill="#FCC56B"/>
<path d="M95.998 68.942H100.583V64.3572H95.998V68.942ZM96.4354 64.7946H100.145V68.5046H96.4354V64.7946Z" fill="#FCC56B"/>
<path d="M95.998 75.3353H100.583V70.7505H95.998V75.3353ZM96.4354 71.1879H100.145V74.8979H96.4354V71.1879Z" fill="#FCC56B"/>
<path d="M167.585 44.8755H97.9442V46.0848H167.585V44.8755Z" fill="#FCC56B"/>
<path d="M167.758 53.5158H109.868V54.8979H167.758V53.5158Z" fill="#FCC56B"/>
<path d="M167.758 60.083H109.868V61.4651H167.758V60.083Z" fill="#FCC56B"/>
<path d="M167.758 66.649H109.868V68.0311H167.758V66.649Z" fill="#FCC56B"/>
<path d="M167.758 73.2162H109.868V74.5983H167.758V73.2162Z" fill="#FCC56B"/>
<path d="M105.463 90.9976C105.411 90.8849 105.343 90.7942 105.265 90.7319C105.186 90.6695 105.083 90.6357 104.96 90.6357C104.836 90.6357 104.733 90.6695 104.655 90.7319C104.576 90.7942 104.514 90.8849 104.462 90.9976L103.206 93.9225C103.188 93.9509 103.177 93.9848 103.172 94.0187C103.166 94.0526 103.161 94.0975 103.161 94.1488C103.161 94.268 103.2 94.3643 103.28 94.4375C103.36 94.5108 103.467 94.5447 103.597 94.5447C103.694 94.5447 103.772 94.5283 103.841 94.4878C103.909 94.4484 103.96 94.3806 104 94.2779L104.198 93.7629L105.691 93.7519L105.895 94.2724C105.928 94.3577 105.979 94.4255 106.042 94.4703C106.105 94.5151 106.19 94.5381 106.297 94.5381C106.427 94.5381 106.534 94.4987 106.625 94.4189C106.716 94.3402 106.761 94.2319 106.761 94.1018C106.761 94.034 106.75 93.9717 106.721 93.9203L105.465 90.9954L105.463 90.9976ZM104.479 93.0401L104.937 91.857L105.4 93.0401H104.479Z" fill="#FCC56B"/>
<path d="M106.265 99.5865C106.22 99.5077 106.158 99.4334 106.084 99.3656C106.01 99.2978 105.914 99.2355 105.795 99.1786C105.931 99.1054 106.032 98.9971 106.1 98.8561C106.168 98.715 106.202 98.5674 106.202 98.4088C106.202 98.1038 106.095 97.8599 105.874 97.6784C105.653 97.4969 105.319 97.4073 104.872 97.4073L104.901 97.4237H103.826C103.685 97.4237 103.576 97.463 103.498 97.5428C103.419 97.6227 103.379 97.7298 103.379 97.8599V100.888C103.379 101.046 103.412 101.159 103.486 101.227C103.559 101.294 103.666 101.328 103.814 101.328H104.991C105.433 101.328 105.778 101.221 106.021 101.006C106.265 100.79 106.389 100.496 106.389 100.118C106.389 100.022 106.378 99.9309 106.36 99.8401C106.343 99.7494 106.309 99.6652 106.264 99.5854L106.265 99.5865ZM104.239 98.1891H104.856C104.991 98.1891 105.1 98.2175 105.178 98.2744C105.257 98.3312 105.298 98.422 105.298 98.5455C105.298 98.6691 105.264 98.7609 105.196 98.8342C105.128 98.9075 105.037 98.9413 104.925 98.9413H104.24V98.1891H104.239ZM105.348 100.408C105.263 100.493 105.144 100.532 104.986 100.532H104.245V99.6663H104.968C105.302 99.6663 105.472 99.8073 105.472 100.085C105.472 100.215 105.433 100.322 105.348 100.408Z" fill="#FCC56B"/>
<path d="M105.06 105.046C105.162 105.046 105.247 105.057 105.321 105.074C105.394 105.091 105.462 105.119 105.524 105.16C105.586 105.199 105.649 105.245 105.705 105.301C105.762 105.358 105.825 105.42 105.892 105.493L105.937 105.459C105.982 105.504 106.028 105.533 106.078 105.55C106.13 105.568 106.18 105.573 106.231 105.573C106.271 105.573 106.317 105.568 106.367 105.55C106.418 105.534 106.463 105.511 106.503 105.477C106.542 105.443 106.576 105.398 106.604 105.347C106.633 105.295 106.644 105.234 106.644 105.16C106.644 105.108 106.638 105.058 106.627 105.007C106.616 104.955 106.593 104.905 106.565 104.854C106.536 104.814 106.486 104.757 106.412 104.679C106.339 104.6 106.242 104.526 106.123 104.452C106.004 104.379 105.857 104.311 105.688 104.254C105.518 104.197 105.321 104.169 105.094 104.169C104.818 104.169 104.563 104.219 104.336 104.322C104.11 104.424 103.912 104.566 103.748 104.741C103.584 104.916 103.459 105.131 103.369 105.381C103.278 105.63 103.233 105.901 103.233 106.201C103.233 106.5 103.278 106.773 103.369 107.015C103.459 107.258 103.584 107.468 103.748 107.643C103.912 107.818 104.105 107.955 104.331 108.051C104.557 108.147 104.812 108.192 105.089 108.192C105.27 108.192 105.434 108.175 105.581 108.135C105.728 108.096 105.857 108.044 105.971 107.987C106.084 107.93 106.187 107.863 106.271 107.789C106.356 107.716 106.429 107.648 106.486 107.579C106.538 107.517 106.571 107.455 106.588 107.393C106.604 107.33 106.616 107.273 106.616 107.218C106.616 107.178 106.604 107.132 106.588 107.087C106.57 107.043 106.543 107.002 106.509 106.963C106.475 106.923 106.436 106.89 106.39 106.861C106.345 106.833 106.294 106.822 106.237 106.822C106.185 106.822 106.135 106.827 106.089 106.845C106.044 106.861 105.998 106.89 105.959 106.93C105.897 106.992 105.834 107.049 105.778 107.099C105.721 107.151 105.658 107.196 105.597 107.23C105.535 107.263 105.467 107.292 105.394 107.309C105.321 107.326 105.235 107.338 105.139 107.338C104.811 107.338 104.556 107.242 104.38 107.044C104.205 106.846 104.114 106.575 104.114 106.224C104.114 105.873 104.2 105.568 104.369 105.358C104.539 105.148 104.771 105.046 105.059 105.046H105.06Z" fill="#FCC56B"/>
<path d="M106.226 111.523C106.073 111.354 105.886 111.224 105.666 111.133C105.445 111.042 105.203 110.998 104.937 110.998L104.926 111.003H103.834C103.68 111.003 103.568 111.042 103.494 111.122C103.42 111.202 103.386 111.309 103.386 111.439V114.46C103.386 114.591 103.42 114.698 103.488 114.778C103.556 114.857 103.668 114.897 103.828 114.897H104.926C105.181 114.897 105.418 114.852 105.639 114.756C105.86 114.659 106.046 114.529 106.204 114.36C106.363 114.19 106.487 113.986 106.578 113.743C106.669 113.499 106.714 113.234 106.714 112.939C106.714 112.645 106.669 112.373 106.584 112.136C106.498 111.899 106.38 111.694 106.227 111.525L106.226 111.523ZM105.581 113.821C105.422 114.024 105.185 114.126 104.873 114.126V114.12H104.28V111.778H104.846C105.169 111.778 105.411 111.88 105.575 112.078C105.739 112.276 105.819 112.564 105.819 112.944C105.819 113.323 105.741 113.617 105.582 113.821H105.581Z" fill="#FCC56B"/>
<path d="M96.1707 95.3811H100.755V90.7964H96.1707V95.3811ZM96.608 91.2337H100.318V94.9438H96.608V91.2337Z" fill="#FCC56B"/>
<path d="M96.1707 101.774H100.755V97.1897H96.1707V101.774ZM96.608 97.627H100.318V101.337H96.608V97.627Z" fill="#FCC56B"/>
<path d="M96.1707 108.169H100.755V103.584H96.1707V108.169ZM96.608 104.021H100.318V107.731H96.608V104.021Z" fill="#FCC56B"/>
<path d="M96.1707 114.562H100.755V109.977H96.1707V114.562ZM96.608 110.415H100.318V114.125H96.608V110.415Z" fill="#FCC56B"/>
<path d="M167.931 92.7427H110.041V94.1248H167.931V92.7427Z" fill="#FCC56B"/>
<path d="M167.931 99.3098H110.041V100.692H167.931V99.3098Z" fill="#FCC56B"/>
<path d="M167.931 105.876H110.041V107.258H167.931V105.876Z" fill="#FCC56B"/>
<path d="M167.931 112.443H110.041V113.825H167.931V112.443Z" fill="#FCC56B"/>
<path d="M128.358 47.9863H97.9442V49.1957H128.358V47.9863Z" fill="#FCC56B"/>
<path d="M95.4797 84.6688C95.3146 84.6699 95.1856 84.7191 95.0872 84.8175C94.9877 84.917 94.9374 85.0482 94.9374 85.2155C94.9374 85.3828 94.9866 85.5205 95.0872 85.6069C95.1867 85.6944 95.3168 85.737 95.4732 85.737C95.6295 85.737 95.7531 85.6933 95.8591 85.6069C95.9652 85.5195 96.021 85.3828 96.021 85.1958C96.021 85.0274 95.9652 84.8973 95.8591 84.8043C95.7553 84.7125 95.6262 84.6688 95.4797 84.6677V84.6688Z" fill="#FCC56B"/>
<path d="M167.585 83.7569H97.9442V84.9662H167.585V83.7569Z" fill="#FCC56B"/>
<path d="M128.358 86.8677H97.9442V88.077H128.358V86.8677Z" fill="#FCC56B"/>
</svg>
