<svg width="136" height="129" viewBox="0 0 136 129" fill="none" xmlns="http://www.w3.org/2000/svg">
<g opacity="0.1">
<path d="M94.023 0.0832642C94.023 0.059756 95.1771 0.600458 95.2348 0.629843C96.3745 1.17935 97.4826 1.78762 98.5675 2.43409C100.276 3.44788 101.929 4.55278 103.53 5.72819C105.651 7.28742 107.687 8.96287 109.63 10.7472C112.013 12.9306 114.266 15.2571 116.376 17.7144C118.864 20.6196 121.168 23.6839 123.272 26.8885C125.708 30.603 127.898 34.4787 129.827 38.4898C132.046 43.1085 133.958 47.8737 135.549 52.7534C137.379 58.3704 138.848 64.1029 139.947 69.9144C141.213 76.6178 142.074 83.394 142.526 90.2049C143.05 98.0796 143.141 105.978 142.797 113.863C142.904 115.747 142.585 117.631 141.865 119.37C141.577 119.957 141.288 120.577 141 121.177C140.201 122.858 139.405 124.54 138.611 126.222L132.049 140.072C129.77 144.883 127.49 149.694 125.211 154.506C123.672 157.74 122.14 160.972 120.615 164.203L119.945 165.619C119.945 165.619 109.22 104.812 59.5312 70.5021C59.5341 70.505 94.023 0.0832642 94.023 0.0832642Z" fill="#89E3FE"/>
<path d="M76.341 27.0356L52.9349 74.9012C52.9349 74.9012 109.471 107.871 115.472 170.512C115.472 170.512 104.188 97.2722 0 119.646L1.83215 116.487L6.65075 108.18L13.4429 96.4729L21.1901 83.1144L28.8825 69.8499L35.5189 58.4278C37.0327 55.8164 38.5465 53.2051 40.0604 50.5937C42.2869 46.7082 44.8725 43.0478 47.7817 39.6624C51.4462 35.1961 55.9014 31.4702 60.9159 28.6782C63.2442 27.356 65.8117 26.5286 68.463 26.2463C71.1144 25.9639 73.7945 26.2324 76.341 27.0356Z" fill="#0191E6"/>
<path d="M11.7632 140.439C11.7632 140.439 74.6642 112.567 109.228 160.488C109.228 160.488 96.2641 115.993 24.4877 118.191L11.7632 140.439Z" fill="#005492"/>
</g>
</svg>
