<svg width="200" height="193" viewBox="0 0 200 193" fill="none" xmlns="http://www.w3.org/2000/svg">
<path d="M225 65.9849C225.004 79.4455 221.384 92.659 214.519 104.238C207.654 115.818 197.798 125.336 185.985 131.793C185.316 132.159 184.637 132.516 183.955 132.861C181.427 134.15 178.827 135.29 176.167 136.277C175.107 136.676 174.037 137.047 172.955 137.39C172.851 137.426 172.744 137.462 172.64 137.491C162.049 140.853 150.843 141.815 139.835 140.308C128.826 138.801 118.291 134.863 108.994 128.779C107.747 127.963 106.526 127.112 105.33 126.226C104.655 125.723 103.988 125.211 103.33 124.684C101.47 123.208 99.6846 121.644 97.9732 119.992C90.6978 113.005 84.9118 104.618 80.9637 95.3367C77.0156 86.0552 74.987 76.0709 75.0001 65.9849C75.0001 24.5706 108.577 -9 150 -9C191.423 -9 225 24.5706 225 65.9849Z" fill="#D6E4F1"/>
<path d="M58.2209 34.4799C58.9985 33.3111 58.5383 31.6381 57.1929 30.743C55.8476 29.8479 54.1266 30.0698 53.349 31.2386C52.5714 32.4074 53.0317 34.0805 54.377 34.9755C55.7223 35.8706 57.4433 35.6487 58.2209 34.4799Z" fill="#FD6584"/>
<path d="M86.4991 131.862C87.2766 130.693 86.8164 129.02 85.4711 128.125C84.1257 127.23 82.4047 127.452 81.6271 128.621C80.8495 129.79 81.3098 131.463 82.6551 132.358C84.0005 133.253 85.7215 133.031 86.4991 131.862Z" fill="#E6E6E6"/>
<path d="M7.28843 48.3466C8.06603 47.1778 7.60578 45.5048 6.26043 44.6097C4.91509 43.7146 3.1941 43.9365 2.41651 45.1053C1.63891 46.2741 2.09917 47.9472 3.44451 48.8422C4.78986 49.7373 6.51084 49.5154 7.28843 48.3466Z" fill="#E6E6E6"/>
<path d="M107.164 118H11.8365C8.69834 117.996 5.68976 116.743 3.47076 114.513C1.25176 112.284 0.00356375 109.262 0 106.109V64.9461C0.00354335 61.7936 1.25173 58.7713 3.47074 56.5421C5.68974 54.313 8.69833 53.0591 11.8365 53.0555C42.2547 44.5898 74.1576 45.3829 107.164 53.0555C110.302 53.0591 113.31 54.313 115.529 56.5421C117.748 58.7713 118.996 61.7936 119 64.9461V106.109C118.996 109.262 117.748 112.284 115.529 114.513C113.31 116.743 110.302 117.996 107.164 118Z" fill="#F2F2F2"/>
<path d="M109.5 107C109.566 107 109.631 106.993 109.691 106.978C109.752 106.964 109.807 106.943 109.854 106.916C109.9 106.889 109.937 106.857 109.962 106.822C109.987 106.788 110 106.75 110 106.712V63.2876C110 63.2113 109.947 63.1382 109.854 63.0842C109.76 63.0303 109.633 63 109.5 63C109.367 63 109.24 63.0303 109.146 63.0842C109.053 63.1382 109 63.2113 109 63.2876V106.712C109 106.75 109.013 106.788 109.038 106.822C109.063 106.857 109.1 106.889 109.146 106.916C109.193 106.943 109.248 106.964 109.309 106.978C109.369 106.993 109.434 107 109.5 107Z" fill="white"/>
<path d="M90.4 73H90.3986C90.2925 72.9997 90.191 72.9689 90.1162 72.9143C90.0414 72.8596 89.9996 72.7857 90 72.7087L90.2 28.2893C90.2004 28.2125 90.2427 28.1389 90.3177 28.0847C90.3926 28.0305 90.4942 28 90.6 28H90.6014C90.7075 28.0003 90.809 28.0311 90.8838 28.0857C90.9586 28.1404 91.0004 28.2143 91 28.2913L90.8 72.7107C90.7996 72.7875 90.7573 72.8611 90.6823 72.9153C90.6074 72.9695 90.5058 73 90.4 73Z" fill="#3F3D56"/>
<path d="M53.4 136H53.3986C53.2926 136 53.191 135.969 53.1163 135.914C53.0415 135.859 52.9997 135.785 53 135.708L53.2 92.2904C53.2004 92.2133 53.2427 92.1394 53.3176 92.085C53.3926 92.0306 53.4941 92 53.6 92H53.6014C53.7075 92.0003 53.809 92.0312 53.8838 92.0861C53.9586 92.1409 54.0004 92.2151 54 92.2924L53.8 135.709C53.7997 135.787 53.7574 135.86 53.6824 135.915C53.6074 135.969 53.5059 136 53.4 136Z" fill="#3F3D56"/>
<path d="M26.4 81H26.3986C26.2925 80.9997 26.191 80.9692 26.1162 80.9151C26.0414 80.861 25.9996 80.7877 26 80.7114L26.2 37.2866C26.2004 37.2105 26.2427 37.1376 26.3177 37.0839C26.3926 37.0302 26.4942 37 26.6 37H26.6014C26.7075 37.0003 26.809 37.0308 26.8838 37.0849C26.9586 37.139 27.0004 37.2123 27 37.2886L26.8 80.7134C26.7996 80.7895 26.7573 80.8624 26.6823 80.9161C26.6074 80.9698 26.5058 81 26.4 81Z" fill="#3F3D56"/>
<path d="M14.8322 92.2685C15.3807 89.2572 18.7474 87.8685 21.4753 88.1044C25.3738 88.4414 28.6274 91.0516 32.2557 92.2822C34.0091 92.8768 35.8955 93.2032 37.7329 92.861C39.1813 92.5576 40.5244 91.8681 41.6245 90.863C43.7341 89.0294 45.1603 86.5286 47.2716 84.6969C48.4006 83.6631 49.8287 83.029 51.3418 82.8896C53.2046 82.7638 55.0289 83.4058 56.6617 84.2663C59.9055 85.9758 62.5609 88.6959 66.0158 90.0152C67.6022 90.6372 69.3229 90.818 71.0008 90.539C72.6755 90.1996 74.2679 89.5275 75.6867 88.5612C78.6614 86.65 81.113 83.998 84.2408 82.3219C85.7788 81.4976 87.4875 80.8672 89.2445 80.8548C90.9425 80.857 92.5749 81.5216 93.8052 82.7117C96.174 84.9015 98.0417 88.3584 101.66 88.4191C102.414 88.4333 103.157 88.226 103.799 87.8221C104.265 87.5286 103.837 86.7766 103.367 87.0718C101.892 87.9993 100.116 87.414 98.7723 86.5146C97.3408 85.5567 96.3245 84.0925 95.1563 82.8451C93.9957 81.6059 92.6416 80.5622 90.9721 80.1755C89.304 79.8404 87.577 79.9871 85.9867 80.5992C82.5691 81.8101 79.982 84.3028 77.1456 86.4714C74.3502 88.6086 71.0864 90.4578 67.4798 89.5677C63.8885 88.6814 61.1642 85.9158 58.0582 84.0595C55.0558 82.265 51.3754 81.1191 48.1423 83.0072C45.6993 84.434 44.1547 86.9537 42.2784 89.0063C41.3525 90.0191 40.3201 90.9606 39.0694 91.5359C37.3316 92.3353 35.3677 92.2421 33.5576 91.7683C29.7817 90.7798 26.5969 88.1942 22.752 87.4208C19.8981 86.8467 16.5202 87.5701 14.7783 90.1358C14.3931 90.7077 14.1307 91.3557 14.0083 92.0376C13.9088 92.5842 14.7321 92.8185 14.8322 92.2686L14.8322 92.2685Z" fill="#3F3D56"/>
<path d="M26.5 94C28.433 94 30 92.433 30 90.5C30 88.567 28.433 87 26.5 87C24.567 87 23 88.567 23 90.5C23 92.433 24.567 94 26.5 94Z" fill="#0191E6"/>
<path d="M53.5 86C55.433 86 57 84.433 57 82.5C57 80.567 55.433 79 53.5 79C51.567 79 50 80.567 50 82.5C50 84.433 51.567 86 53.5 86Z" fill="#0191E6"/>
<path d="M90 84C92.2091 84 94 82.2091 94 80C94 77.7909 92.2091 76 90 76C87.7909 76 86 77.7909 86 80C86 82.2091 87.7909 84 90 84Z" fill="#0191E6"/>
<path d="M58.1792 146H50.1788C49.7387 146 49.3136 145.842 48.9814 145.556C48.6492 145.271 48.4323 144.876 48.3705 144.444C47.8765 140.844 47.8765 137.195 48.3705 133.595C48.4314 133.17 48.6431 132.779 48.9677 132.494C49.2924 132.209 49.7089 132.048 50.1427 132.039C52.7479 130.654 55.4629 130.653 58.2136 132.039C58.476 132.044 58.7344 132.105 58.9706 132.218C59.2068 132.331 59.4153 132.494 59.5814 132.696C59.7554 132.906 59.8799 133.152 59.9458 133.416C60.0118 133.68 60.0176 133.955 59.9628 134.221C59.3201 137.388 59.3201 140.651 59.9628 143.818C60.0176 144.084 60.0118 144.359 59.9458 144.623C59.8799 144.887 59.7554 145.133 59.5814 145.343C59.4116 145.549 59.1976 145.715 58.9551 145.828C58.7125 145.942 58.4475 146.001 58.1792 146Z" fill="#0191E6"/>
<path d="M96.0274 35H87.3603C86.8836 34.9996 86.423 34.8293 86.0632 34.5203C85.7033 34.2113 85.4683 33.7843 85.4014 33.3179C84.8662 29.4257 84.8662 25.48 85.4014 21.5879C85.4675 21.127 85.6977 20.7045 86.0507 20.3963C86.4036 20.088 86.8562 19.9142 87.3271 19.906C90.054 18.6979 92.9907 18.6981 96.0573 19.9059C96.3429 19.9096 96.6242 19.9751 96.8814 20.0977C97.1387 20.2203 97.3657 20.3971 97.5465 20.6157C97.735 20.843 97.8698 21.109 97.9413 21.3943C98.0128 21.6796 98.0191 21.9771 97.9597 22.2651C97.2634 25.6894 97.2634 29.2163 97.9597 32.6406C98.0191 32.9286 98.0128 33.2261 97.9413 33.5114C97.8698 33.7967 97.735 34.0627 97.5465 34.2901C97.3625 34.5125 97.1307 34.6916 96.868 34.8144C96.6052 34.9372 96.3181 35.0006 96.0274 35Z" fill="#0191E6"/>
<path d="M30.6398 42H21.9726C21.6819 42.0006 21.3948 41.9413 21.132 41.8265C20.8693 41.7118 20.6375 41.5444 20.4535 41.3365C20.265 41.1241 20.1302 40.8755 20.0587 40.6088C19.9872 40.3422 19.9809 40.0642 20.0403 39.7951C20.7366 36.5949 20.7366 33.2988 20.0403 30.0986C19.9809 29.8294 19.9872 29.5514 20.0587 29.2848C20.1301 29.0181 20.265 28.7695 20.4535 28.557C20.6336 28.3535 20.8596 28.1888 21.1158 28.0743C21.3719 27.9597 21.652 27.8982 21.9365 27.8939C24.5715 26.702 27.5096 26.702 30.6702 27.8939C31.1417 27.9009 31.5949 28.063 31.9484 28.3512C32.3019 28.6393 32.5325 29.0345 32.5986 29.4657C33.1338 33.103 33.1338 36.7905 32.5986 40.4278C32.5318 40.8638 32.2968 41.2628 31.937 41.5517C31.5771 41.8405 31.1165 41.9997 30.6398 42Z" fill="#CCCCCC"/>
<path d="M94.6111 25H88.3889C88.2857 25 88.1868 24.9473 88.1139 24.8536C88.041 24.7598 88 24.6326 88 24.5C88 24.3674 88.041 24.2402 88.1139 24.1464C88.1868 24.0527 88.2857 24 88.3889 24H94.6111C94.7143 24 94.8132 24.0527 94.8861 24.1464C94.959 24.2402 95 24.3674 95 24.5C95 24.6326 94.959 24.7598 94.8861 24.8536C94.8132 24.9473 94.7143 25 94.6111 25Z" fill="white"/>
<path d="M94.6111 28H88.3889C88.2857 28 88.1868 27.9473 88.1139 27.8536C88.041 27.7598 88 27.6326 88 27.5C88 27.3674 88.041 27.2402 88.1139 27.1464C88.1868 27.0527 88.2857 27 88.3889 27H94.6111C94.7143 27 94.8132 27.0527 94.8861 27.1464C94.959 27.2402 95 27.3674 95 27.5C95 27.6326 94.959 27.7598 94.8861 27.8536C94.8132 27.9473 94.7143 28 94.6111 28Z" fill="white"/>
<path d="M30.5556 35H23.4444C23.3266 35 23.2135 34.9473 23.1302 34.8536C23.0468 34.7598 23 34.6326 23 34.5C23 34.3674 23.0468 34.2402 23.1302 34.1464C23.2135 34.0527 23.3266 34 23.4444 34H30.5556C30.6734 34 30.7865 34.0527 30.8698 34.1464C30.9532 34.2402 31 34.3674 31 34.5C31 34.6326 30.9532 34.7598 30.8698 34.8536C30.7865 34.9473 30.6734 35 30.5556 35Z" fill="white"/>
<path d="M30.5556 38H23.4444C23.3266 38 23.2135 37.9473 23.1302 37.8536C23.0468 37.7598 23 37.6326 23 37.5C23 37.3674 23.0468 37.2402 23.1302 37.1464C23.2135 37.0527 23.3266 37 23.4444 37H30.5556C30.6734 37 30.7865 37.0527 30.8698 37.1464C30.9532 37.2402 31 37.3674 31 37.5C31 37.6326 30.9532 37.7598 30.8698 37.8536C30.7865 37.9473 30.6734 38 30.5556 38Z" fill="white"/>
<path d="M57.5556 136H50.4444C50.3266 136 50.2135 135.947 50.1302 135.854C50.0468 135.76 50 135.633 50 135.5C50 135.367 50.0468 135.24 50.1302 135.146C50.2135 135.053 50.3266 135 50.4444 135H57.5556C57.6734 135 57.7865 135.053 57.8698 135.146C57.9532 135.24 58 135.367 58 135.5C58 135.633 57.9532 135.76 57.8698 135.854C57.7865 135.947 57.6734 136 57.5556 136Z" fill="white"/>
<path d="M57.5556 139H50.4444C50.3266 139 50.2135 138.947 50.1302 138.854C50.0468 138.76 50 138.633 50 138.5C50 138.367 50.0468 138.24 50.1302 138.146C50.2135 138.053 50.3266 138 50.4444 138H57.5556C57.6734 138 57.7865 138.053 57.8698 138.146C57.9532 138.24 58 138.367 58 138.5C58 138.633 57.9532 138.76 57.8698 138.854C57.7865 138.947 57.6734 139 57.5556 139Z" fill="white"/>
<path d="M187.968 87.4991C193.188 87.4991 197.419 83.268 197.419 78.0488C197.419 72.8295 193.188 68.5985 187.968 68.5985C182.749 68.5985 178.518 72.8295 178.518 78.0488C178.518 83.268 182.749 87.4991 187.968 87.4991Z" fill="#A0616A"/>
<path d="M229.379 121.708C228.051 118.625 226.227 115.78 223.98 113.286C225.883 116.318 226.97 119.791 227.137 123.368C226.448 123.798 225.727 124.175 224.981 124.496C222.737 125.436 220.346 125.974 217.915 126.083C216.606 121.719 214.345 117.7 211.296 114.314C213.493 117.818 214.598 121.897 214.47 126.031C211.759 125.797 209.089 125.225 206.52 124.328C202.664 123.001 198.92 121.019 196.253 117.938C193.367 114.602 191.944 110.2 191.485 105.812C191.025 101.428 191.457 97.002 191.892 92.614C192.098 90.5229 190.357 88.1164 190.562 86.0252H190.699C191.615 84.7705 192.547 83.485 192.996 81.9972C193.442 80.5128 193.325 78.761 192.3 77.592C191.726 76.9812 191.001 76.532 190.199 76.2893C190.124 76.1933 190.041 76.1008 189.956 76.0082C188.403 74.3595 186.576 72.9931 184.556 71.9699C186.013 73.0703 186.987 74.3147 187.439 75.6003C186.178 75.3226 184.916 75.0461 183.655 74.7707C183.233 74.3234 182.789 73.8978 182.325 73.4954C181.787 73.0596 181.217 72.6643 180.621 72.3127C181.271 72.8849 181.775 73.6042 182.091 74.4107C180.47 74.0028 178.848 73.3891 178.005 71.9939C176.606 69.6868 178.269 66.5741 180.59 65.196C182.278 64.2423 184.223 63.8433 186.151 64.0556C188.078 64.2678 189.89 65.0805 191.33 66.3786C194.686 63.907 199.465 63.9481 203.198 65.7959C205.663 67.0703 207.786 68.9171 209.39 71.1814C208.459 71.0621 207.523 70.9968 206.585 70.986C207.905 71.1792 209.162 71.6768 210.257 72.4396C210.741 73.1914 211.185 73.9684 211.587 74.7673C211.851 75.2918 212.1 75.8231 212.334 76.3613C213.771 79.6318 214.707 83.1147 215.677 86.5566C216.808 90.5675 218.022 94.6058 220.14 98.195C223.388 103.653 228.513 107.741 234.555 109.696C235.059 114.232 232.845 118.668 229.379 121.708Z" fill="#2F2E41"/>
<path d="M190.489 117.119L187.354 126.684L186.318 134.438L169.665 129.297L171.205 111.994L174.669 108.568L190.489 117.119Z" fill="#A0616A"/>
<path d="M192.112 132.891L169.219 127.713L160.738 147.389L158.338 187.498L164.591 220.065H177.12L171.365 187.498L172.736 162.815L179.161 192.457L196.183 217.049L204.038 210.265L190.562 187.155C190.562 187.155 196.204 145.666 190.22 138.475L192.112 132.891Z" fill="#2F2E41"/>
<path d="M178.452 93.8187L180.286 93.13L182.599 89.3903L190.837 90.0634L192.84 94.0734L197.664 97.7572L195.554 108.868L192.276 122.363L170.337 119.621L170.36 109.461C170.36 109.461 166.395 101.435 172.799 98.4274L178.452 93.8187Z" fill="#E6E6E6"/>
<path d="M144.633 129.059C145.059 129.23 145.518 129.305 145.976 129.28C146.434 129.255 146.881 129.129 147.286 128.912C147.69 128.696 148.042 128.393 148.317 128.025C148.592 127.658 148.783 127.234 148.876 126.785L173.339 111.983L168.868 106.824L146.228 122.996C145.462 122.889 144.685 123.066 144.041 123.495C143.398 123.923 142.934 124.572 142.738 125.319C142.541 126.067 142.626 126.86 142.975 127.549C143.325 128.238 143.915 128.775 144.633 129.059V129.059Z" fill="#A0616A"/>
<path d="M181.491 104.963C181.491 104.963 182.66 106.14 179.726 108.074C177.378 109.622 166.903 117.274 163.19 118.484C163.236 119.03 163.1 119.575 162.802 120.035C162.505 120.494 162.063 120.841 161.546 121.022L158.184 113.634C158.911 111.945 160.076 112.336 160.688 112.719L164.749 109.665L174.72 99.7084L180.661 104.098L181.491 104.963Z" fill="#E6E6E6"/>
<path d="M144 130.257H134.225C133.897 130.257 133.573 130.185 133.277 130.045C132.98 129.905 132.719 129.7 132.512 129.446C132.299 129.187 132.147 128.883 132.066 128.558C131.986 128.232 131.979 127.893 132.046 127.564C132.831 123.656 132.831 119.632 132.046 115.724C131.979 115.395 131.986 115.056 132.066 114.73C132.147 114.404 132.299 114.101 132.512 113.841C132.715 113.593 132.97 113.392 133.258 113.252C133.547 113.112 133.863 113.037 134.184 113.032C137.156 111.576 140.47 111.576 144.034 113.032C144.566 113.04 145.077 113.238 145.476 113.59C145.875 113.942 146.135 114.425 146.209 114.951C146.813 119.393 146.813 123.895 146.209 128.337C146.134 128.869 145.869 129.356 145.463 129.709C145.057 130.062 144.538 130.256 144 130.257Z" fill="#0191E6"/>
<path d="M144.149 117.46H135.922C135.786 117.46 135.655 117.406 135.558 117.309C135.462 117.213 135.408 117.082 135.408 116.946C135.408 116.809 135.462 116.678 135.558 116.582C135.655 116.486 135.786 116.431 135.922 116.431H144.149C144.286 116.431 144.417 116.486 144.513 116.582C144.61 116.678 144.664 116.809 144.664 116.946C144.664 117.082 144.61 117.213 144.513 117.309C144.417 117.406 144.286 117.46 144.149 117.46Z" fill="white"/>
<path d="M144.149 121.574H135.922C135.786 121.574 135.655 121.519 135.558 121.423C135.462 121.327 135.408 121.196 135.408 121.059C135.408 120.923 135.462 120.792 135.558 120.696C135.655 120.599 135.786 120.545 135.922 120.545H144.149C144.286 120.545 144.417 120.599 144.513 120.696C144.61 120.792 144.664 120.923 144.664 121.059C144.664 121.196 144.61 121.327 144.513 121.423C144.417 121.519 144.286 121.574 144.149 121.574Z" fill="white"/>
<path d="M144.149 125.687H135.922C135.786 125.687 135.655 125.633 135.558 125.537C135.462 125.44 135.408 125.31 135.408 125.173C135.408 125.037 135.462 124.906 135.558 124.81C135.655 124.713 135.786 124.659 135.922 124.659H144.149C144.286 124.659 144.417 124.713 144.513 124.81C144.61 124.906 144.664 125.037 144.664 125.173C144.664 125.31 144.61 125.44 144.513 125.537C144.417 125.633 144.286 125.687 144.149 125.687Z" fill="white"/>
<path d="M191.308 159.738H181.533C181.205 159.739 180.881 159.667 180.585 159.526C180.288 159.386 180.027 159.182 179.819 158.928C179.607 158.669 179.455 158.365 179.374 158.04C179.294 157.714 179.286 157.374 179.353 157.046C180.139 153.138 180.139 149.113 179.353 145.206C179.286 144.877 179.294 144.537 179.374 144.212C179.455 143.886 179.607 143.583 179.819 143.323C180.023 143.075 180.278 142.873 180.566 142.734C180.855 142.594 181.171 142.519 181.492 142.513C184.464 141.058 187.777 141.058 191.342 142.513C191.874 142.522 192.385 142.72 192.784 143.072C193.182 143.424 193.443 143.906 193.517 144.433C194.121 148.874 194.121 153.377 193.517 157.818C193.442 158.351 193.177 158.838 192.771 159.191C192.365 159.543 191.846 159.738 191.308 159.738Z" fill="#CCCCCC"/>
<path d="M191.457 146.942H183.23C183.094 146.942 182.963 146.888 182.866 146.791C182.77 146.695 182.716 146.564 182.716 146.428C182.716 146.291 182.77 146.16 182.866 146.064C182.963 145.968 183.094 145.913 183.23 145.913H191.457C191.594 145.913 191.725 145.968 191.821 146.064C191.918 146.16 191.972 146.291 191.972 146.428C191.972 146.564 191.918 146.695 191.821 146.791C191.725 146.888 191.594 146.942 191.457 146.942Z" fill="white"/>
<path d="M191.457 151.056H183.23C183.094 151.056 182.963 151.001 182.866 150.905C182.77 150.808 182.716 150.678 182.716 150.541C182.716 150.405 182.77 150.274 182.866 150.178C182.963 150.081 183.094 150.027 183.23 150.027H191.457C191.594 150.027 191.725 150.081 191.821 150.178C191.918 150.274 191.972 150.405 191.972 150.541C191.972 150.678 191.918 150.808 191.821 150.905C191.725 151.001 191.594 151.056 191.457 151.056Z" fill="white"/>
<path d="M191.457 155.169H183.23C183.094 155.169 182.963 155.115 182.866 155.019C182.77 154.922 182.716 154.791 182.716 154.655C182.716 154.519 182.77 154.388 182.866 154.291C182.963 154.195 183.094 154.141 183.23 154.141H191.457C191.594 154.141 191.725 154.195 191.821 154.291C191.918 154.388 191.972 154.519 191.972 154.655C191.972 154.791 191.918 154.922 191.821 155.019C191.725 155.115 191.594 155.169 191.457 155.169Z" fill="white"/>
<path d="M186.968 145.018C187.396 144.852 187.782 144.594 188.099 144.262C188.417 143.931 188.657 143.534 188.804 143.099C188.951 142.664 189.001 142.202 188.951 141.746C188.9 141.29 188.75 140.851 188.511 140.459L196.25 112.933L189.46 112.224L183.988 139.503C183.356 139.948 182.91 140.61 182.733 141.362C182.556 142.114 182.661 142.905 183.029 143.585C183.396 144.264 184 144.786 184.726 145.05C185.452 145.314 186.25 145.303 186.968 145.018Z" fill="#A0616A"/>
<path d="M197.395 97.8233C197.395 97.8233 199.052 97.8829 198.233 101.3C197.577 104.035 195.169 121.195 193.286 124.617C193.692 124.983 193.966 125.474 194.062 126.013C194.159 126.552 194.074 127.107 193.82 127.592L186.316 124.497C185.693 122.767 186.175 121.196 186.884 121.057L187.761 116.053L189.053 99.2639L196.198 97.759L197.395 97.8233Z" fill="#E6E6E6"/>
</svg>
