<svg width="574" height="428" viewBox="0 0 574 428" fill="none" xmlns="http://www.w3.org/2000/svg">
<path d="M501.255 340.692C501.255 340.692 718.063 82.825 402.22 76.2301C382.315 75.8184 362.773 70.8212 345.114 61.627C216.399 -5.40912 53.54 -32.9744 39.8869 136.161C44.7719 226.724 118.037 238.935 66.7519 270.277C15.4668 301.619 -0.610794 349.647 78.7594 360.84C158.13 372.032 158.536 372.034 158.536 372.034C158.536 372.034 399.911 442.043 501.255 340.692Z" fill="#FFD1AC"/>
<path d="M142.765 428C221.612 428 285.53 378.842 285.53 318.204C285.53 257.565 221.612 208.407 142.765 208.407C63.918 208.407 0 257.565 0 318.204C0 378.842 63.918 428 142.765 428Z" fill="#FFEDDE"/>
<path d="M410.387 389.944C489.233 389.944 553.151 340.786 553.151 280.148C553.151 219.509 489.233 170.351 410.387 170.351C331.54 170.351 267.622 219.509 267.622 280.148C267.622 340.786 331.54 389.944 410.387 389.944Z" fill="#FFEDDE"/>
<path d="M459.738 387.545C495.706 387.545 524.864 375.416 524.864 360.455C524.864 345.494 495.706 333.366 459.738 333.366C423.771 333.366 394.613 345.494 394.613 360.455C394.613 375.416 423.771 387.545 459.738 387.545Z" fill="#5B141B"/>
<path d="M338.341 390.099C363.013 390.099 383.013 384.55 383.013 377.706C383.013 370.861 363.013 365.312 338.341 365.312C313.67 365.312 293.67 370.861 293.67 377.706C293.67 384.55 313.67 390.099 338.341 390.099Z" fill="#5B141B"/>
<path d="M187.843 400.322C223.811 400.322 252.968 392.427 252.968 382.688C252.968 372.949 223.811 365.054 187.843 365.054C151.875 365.054 122.718 372.949 122.718 382.688C122.718 392.427 151.875 400.322 187.843 400.322Z" fill="#5B141B"/>
<path d="M151.414 371.219C187.381 371.219 216.539 361.515 216.539 349.545C216.539 337.575 187.381 327.871 151.414 327.871C115.446 327.871 86.2886 337.575 86.2886 349.545C86.2886 361.515 115.446 371.219 151.414 371.219Z" fill="#5B141B"/>
<mask id="mask0_380_3040" style="mask-type:alpha" maskUnits="userSpaceOnUse" x="43" y="314" width="497" height="95">
<path d="M81.4524 408.259L501.617 408.259C522.773 408.259 539.924 391.109 539.924 369.952V352.543C539.924 331.386 522.773 314.236 501.617 314.236L81.4524 314.236C60.2959 314.236 43.1452 331.386 43.1452 352.543V369.952C43.1452 391.109 60.2959 408.259 81.4524 408.259Z" fill="#7C1D22"/>
</mask>
<g mask="url(#mask0_380_3040)">
<path d="M81.4631 408.383L501.627 408.383C522.784 408.383 539.935 391.233 539.935 370.076V352.667C539.935 331.51 522.784 314.36 501.627 314.36L81.4631 314.36C60.3066 314.36 43.1559 331.51 43.1559 352.667V370.076C43.1559 391.233 60.3066 408.383 81.4631 408.383Z" fill="#7C1D22"/>
<path d="M14.6523 311.794L118.444 432.885" stroke="#AA6A6D" stroke-width="20" stroke-miterlimit="10"/>
<path d="M94.6338 310.776L198.426 431.868" stroke="#AA6A6D" stroke-width="20" stroke-miterlimit="10"/>
<path d="M174.614 309.759L278.408 430.85" stroke="#AA6A6D" stroke-width="20" stroke-miterlimit="10"/>
<path d="M254.596 308.741L358.389 429.831" stroke="#AA6A6D" stroke-width="20" stroke-miterlimit="10"/>
<path d="M334.577 307.722L438.37 428.813" stroke="#AA6A6D" stroke-width="20" stroke-miterlimit="10"/>
<path d="M414.559 306.705L518.351 427.796" stroke="#AA6A6D" stroke-width="20" stroke-miterlimit="10"/>
<path d="M494.54 305.687L598.332 426.778" stroke="#AA6A6D" stroke-width="20" stroke-miterlimit="10"/>
</g>
<mask id="mask1_380_3040" style="mask-type:alpha" maskUnits="userSpaceOnUse" x="31" y="121" width="88" height="17">
<path d="M114.378 121.154H34.8964C32.8758 121.154 31.2378 122.792 31.2378 124.813V133.824C31.2378 135.845 32.8758 137.483 34.8964 137.483H114.378C116.399 137.483 118.037 135.845 118.037 133.824V124.813C118.037 122.792 116.399 121.154 114.378 121.154Z" fill="#C68734"/>
</mask>
<g mask="url(#mask1_380_3040)">
<path d="M114.378 121.154H34.8964C32.8758 121.154 31.2378 122.792 31.2378 124.813V133.824C31.2378 135.845 32.8758 137.483 34.8964 137.483H114.378C116.399 137.483 118.037 135.845 118.037 133.824V124.813C118.037 122.792 116.399 121.154 114.378 121.154Z" fill="#C68734"/>
<path d="M34.2462 115.855C34.2462 115.855 31.0948 134.189 35.1051 135.335C39.1155 136.481 125.341 135.908 125.341 135.908L114.169 146.793L24.2188 149.085L28.8022 117.001L34.2462 115.855Z" fill="#91642D"/>
</g>
<path d="M55.1587 125.022H36.2468C35.9431 125.021 35.652 124.9 35.4372 124.685C35.2224 124.47 35.1014 124.179 35.1006 123.876C35.1014 123.572 35.2225 123.281 35.4373 123.066C35.6522 122.852 35.9432 122.731 36.2468 122.731H55.1587C55.462 122.732 55.7527 122.853 55.9672 123.067C56.1817 123.282 56.3025 123.572 56.3033 123.876C56.3029 124.179 56.1823 124.47 55.9677 124.685C55.7532 124.9 55.4623 125.021 55.1587 125.022Z" fill="#A06825"/>
<path d="M107.295 125.022H75.2108C75.059 125.021 74.9134 124.961 74.806 124.853C74.6986 124.746 74.6381 124.6 74.6377 124.449C74.6381 124.297 74.6986 124.151 74.806 124.044C74.9134 123.936 75.059 123.876 75.2108 123.875H107.295C107.447 123.876 107.592 123.937 107.7 124.044C107.807 124.152 107.868 124.297 107.868 124.449C107.868 124.6 107.807 124.746 107.7 124.853C107.593 124.961 107.447 125.021 107.295 125.022Z" fill="#A06825"/>
<path d="M111.304 131.61H92.3987C91.7656 131.61 91.2524 132.123 91.2524 132.756C91.2524 133.388 91.7656 133.901 92.3987 133.901H111.304C111.937 133.901 112.451 133.388 112.451 132.756C112.451 132.123 111.937 131.61 111.304 131.61Z" fill="#A06825"/>
<path d="M83.2316 129.892H65.4707C65.2429 129.892 65.0247 129.801 64.8637 129.639C64.7028 129.478 64.6122 129.26 64.6118 129.032C64.6122 128.804 64.7029 128.586 64.8638 128.425C65.0248 128.264 65.2431 128.174 65.4707 128.173H83.2316C83.4592 128.174 83.6775 128.264 83.8384 128.425C83.9994 128.586 84.0901 128.804 84.0905 129.032C84.0901 129.26 83.9995 129.478 83.8385 129.639C83.6776 129.801 83.4594 129.892 83.2316 129.892Z" fill="#A06825"/>
<path d="M58.3087 133.042H44.8456C44.4661 133.042 44.1023 132.89 43.8339 132.622C43.5655 132.354 43.4144 131.99 43.4136 131.61C43.4144 131.231 43.5655 130.867 43.8339 130.599C44.1023 130.33 44.4661 130.179 44.8456 130.178H58.3087C58.6883 130.179 59.0521 130.33 59.3204 130.599C59.5888 130.867 59.74 131.231 59.7408 131.61C59.74 131.99 59.5888 132.354 59.3204 132.622C59.0521 132.89 58.6883 133.042 58.3087 133.042Z" fill="#A06825"/>
<mask id="mask2_380_3040" style="mask-type:alpha" maskUnits="userSpaceOnUse" x="45" y="63" width="16" height="59">
<path d="M57.0861 63.5756H48.9335C46.9129 63.5756 45.2749 65.2136 45.2749 67.2342V117.497C45.2749 119.518 46.9129 121.156 48.9335 121.156H57.0861C59.1068 121.156 60.7448 119.518 60.7448 117.497V67.2342C60.7448 65.2136 59.1068 63.5756 57.0861 63.5756Z" fill="#F53B51"/>
</mask>
<g mask="url(#mask2_380_3040)">
<path d="M57.0861 63.5756H48.9335C46.9129 63.5756 45.2749 65.2136 45.2749 67.2342V117.497C45.2749 119.518 46.9129 121.156 48.9335 121.156H57.0861C59.1068 121.156 60.7448 119.518 60.7448 117.497V67.2342C60.7448 65.2136 59.1068 63.5756 57.0861 63.5756Z" fill="#F53B51"/>
<path d="M47.7754 16.4515H32.1752C30.1546 16.4515 28.5166 18.0896 28.5166 20.1102V121.363C28.5166 123.384 30.1546 125.022 32.1752 125.022H47.7754C49.796 125.022 51.434 123.384 51.434 121.363V20.1102C51.434 18.0896 49.796 16.4515 47.7754 16.4515Z" fill="#7F2D3B"/>
</g>
<mask id="mask3_380_3040" style="mask-type:alpha" maskUnits="userSpaceOnUse" x="61" y="79" width="14" height="42">
<path d="M71.3493 79.6171H63.8876C62.3093 79.6171 61.0298 80.8966 61.0298 82.4749V118.011C61.0298 119.589 62.3093 120.869 63.8876 120.869H71.3493C72.9276 120.869 74.2071 119.589 74.2071 118.011V82.4749C74.2071 80.8966 72.9276 79.6171 71.3493 79.6171Z" fill="#FDB856"/>
</mask>
<g mask="url(#mask3_380_3040)">
<path d="M71.3493 79.6171H63.8876C62.3093 79.6171 61.0298 80.8966 61.0298 82.4749V118.011C61.0298 119.589 62.3093 120.869 63.8876 120.869H71.3493C72.9276 120.869 74.2071 119.589 74.2071 118.011V82.4749C74.2071 80.8966 72.9276 79.6171 71.3493 79.6171Z" fill="#FDB856"/>
<path d="M64.1025 68.0148H59.9619C57.9413 68.0148 56.3032 69.6528 56.3032 71.6734V126.232C56.3032 128.253 57.9413 129.891 59.9619 129.891H64.1025C66.1231 129.891 67.7612 128.253 67.7612 126.232V71.6734C67.7612 69.6528 66.1231 68.0148 64.1025 68.0148Z" fill="#C4873D"/>
</g>
<mask id="mask4_380_3040" style="mask-type:alpha" maskUnits="userSpaceOnUse" x="74" y="63" width="17" height="59">
<path d="M86.592 63.5756H78.4394C76.4188 63.5756 74.7808 65.2136 74.7808 67.2342V117.497C74.7808 119.518 76.4188 121.156 78.4394 121.156H86.592C88.6126 121.156 90.2506 119.518 90.2506 117.497V67.2342C90.2506 65.2136 88.6126 63.5756 86.592 63.5756Z" fill="#4D9FA0"/>
</mask>
<g mask="url(#mask4_380_3040)">
<path d="M86.592 63.5756H78.4394C76.4188 63.5756 74.7808 65.2136 74.7808 67.2342V117.497C74.7808 119.518 76.4188 121.156 78.4394 121.156H86.592C88.6126 121.156 90.2506 119.518 90.2506 117.497V67.2342C90.2506 65.2136 88.6126 63.5756 86.592 63.5756Z" fill="#4D9FA0"/>
<path d="M87.6725 49.395H87.6709C85.6937 49.395 84.0908 50.9978 84.0908 52.9751V126.311C84.0908 128.288 85.6937 129.891 87.6709 129.891H87.6725C89.6497 129.891 91.2526 128.288 91.2526 126.311V52.9751C91.2526 50.9978 89.6497 49.395 87.6725 49.395Z" fill="#216868"/>
</g>
<path d="M100.856 79.6171H93.3939C91.8156 79.6171 90.5361 80.8966 90.5361 82.4749V118.011C90.5361 119.589 91.8156 120.869 93.3939 120.869H100.856C102.434 120.869 103.713 119.589 103.713 118.011V82.4749C103.713 80.8966 102.434 79.6171 100.856 79.6171Z" fill="#FFD1AC"/>
<mask id="mask5_380_3040" style="mask-type:alpha" maskUnits="userSpaceOnUse" x="423" y="212" width="49" height="97">
<path d="M454.296 298.291C454.296 298.291 419.825 278.036 433.298 262.694C446.77 247.353 417.374 244.362 424.899 219.636C432.423 194.909 443.27 245.215 448.521 238.819C445.197 225.604 447.472 214.732 454.296 224.324C461.121 233.917 454.296 255.446 454.296 255.446C454.296 255.446 458.671 239.033 464.445 248.412C470.219 257.791 456.751 277.403 462.696 287.421C465.836 275.487 473.018 273.565 470.745 284.437C468.471 295.31 468.469 308.738 468.469 308.738L454.296 298.291Z" fill="#386E94"/>
</mask>
<g mask="url(#mask5_380_3040)">
<path d="M454.296 298.291C454.296 298.291 419.825 278.036 433.298 262.694C446.77 247.353 417.374 244.362 424.899 219.636C432.423 194.909 443.27 245.215 448.521 238.819C445.197 225.604 447.472 214.732 454.296 224.324C461.121 233.917 454.296 255.446 454.296 255.446C454.296 255.446 458.671 239.033 464.445 248.412C470.219 257.791 456.751 277.403 462.696 287.421C465.836 275.487 473.018 273.565 470.745 284.437C468.471 295.31 468.469 308.738 468.469 308.738L454.296 298.291Z" fill="#386E94"/>
<path d="M429.217 207.537C429.217 207.537 428.104 232.048 438.872 243.561C449.641 255.074 439.244 266.958 443.329 275.87C447.413 284.783 473.411 315.616 473.411 315.616L445.558 313.386L410.277 277.742L418.442 253.231L410.277 217.587L429.217 207.537Z" fill="#4D9FA0"/>
</g>
<mask id="mask6_380_3040" style="mask-type:alpha" maskUnits="userSpaceOnUse" x="459" y="137" width="72" height="175">
<path d="M492.758 290.775C492.758 290.775 548.03 248.379 521.446 224.731C494.862 201.084 545.054 189.627 526.753 148.484C508.452 107.341 500.46 196.643 490.01 186.71C492.93 163.156 486.671 144.838 476.923 162.883C467.176 180.928 483.589 216.692 483.589 216.692C483.589 216.692 472.513 189.249 464.536 206.702C456.559 224.155 484.051 255.178 475.909 273.774C467.909 253.809 455.094 252.026 461.353 270.337C467.612 288.647 470.487 311.865 470.487 311.865L492.758 290.775Z" fill="#4D9FA0"/>
</mask>
<g mask="url(#mask6_380_3040)">
<path d="M492.758 290.775C492.758 290.775 548.03 248.379 521.446 224.731C494.862 201.084 545.054 189.627 526.753 148.484C508.452 107.341 500.46 196.643 490.01 186.71C492.93 163.156 486.671 144.838 476.923 162.883C467.176 180.928 483.589 216.692 483.589 216.692C483.589 216.692 472.513 189.249 464.536 206.702C456.559 224.155 484.051 255.178 475.909 273.774C467.909 253.809 455.094 252.026 461.353 270.337C467.612 288.647 470.487 311.865 470.487 311.865L492.758 290.775Z" fill="#4D9FA0"/>
<path d="M525.03 135.863C525.03 135.863 536.915 158.888 516.49 160.744C494.237 162.768 498.663 193.798 489.38 193.055C480.097 192.312 496.064 159.631 485.297 151.461C474.53 143.291 499.781 148.118 499.781 148.118L495.325 170.029L503.861 139.576L506.09 129.544L525.03 135.863Z" fill="#386E94"/>
<path d="M482.694 154.06C482.694 154.06 473.781 158.516 478.237 188.969C482.694 219.422 486.402 222.763 486.402 222.763C486.402 222.763 474.519 198.624 464.491 199.739C454.464 200.854 462.263 157.029 462.263 157.029L482.694 154.06Z" fill="#386E94"/>
<path d="M520.946 197.882C520.946 197.882 498.293 210.88 513.89 234.649C524.567 250.915 488.265 284.783 476.382 301.867C464.437 319.036 473.039 324.521 473.039 324.521L520.204 294.81L552.513 231.306L520.946 197.882Z" fill="#386E94"/>
<path d="M463.383 218.233C463.383 218.233 490.122 270.299 478.614 277.356C467.106 284.412 470.449 253.589 459.674 253.217C448.899 252.844 468.216 247.275 468.216 247.275L463.383 218.233Z" fill="#386E94"/>
</g>
<mask id="mask7_380_3040" style="mask-type:alpha" maskUnits="userSpaceOnUse" x="430" y="315" width="76" height="51">
<path d="M505.905 315.793L498.478 365.927H436.088L430.517 315.793H505.905Z" fill="#C48437"/>
</mask>
<g mask="url(#mask7_380_3040)">
<path d="M505.905 315.793L498.478 365.927H436.088L430.517 315.793H505.905Z" fill="#C48437"/>
<path d="M487.894 308.922C487.894 308.922 506.09 352.001 456.699 356.83C407.307 361.658 435.901 370.199 435.901 370.199H500.52L520.203 332.318L513.889 308.922H487.894Z" fill="#9B652A"/>
</g>
<mask id="mask8_380_3040" style="mask-type:alpha" maskUnits="userSpaceOnUse" x="422" y="298" width="93" height="27">
<path d="M427.088 324.706H509.333C511.952 324.706 514.075 322.583 514.075 319.964V303.451C514.075 300.832 511.952 298.709 509.333 298.709H427.088C424.469 298.709 422.346 300.832 422.346 303.451V319.964C422.346 322.583 424.469 324.706 427.088 324.706Z" fill="#8E571B"/>
</mask>
<g mask="url(#mask8_380_3040)">
<path d="M427.088 324.706H509.333C511.952 324.706 514.075 322.583 514.075 319.964V303.451C514.075 300.832 511.952 298.709 509.333 298.709H427.088C424.469 298.709 422.346 300.832 422.346 303.451V319.964C422.346 322.583 424.469 324.706 427.088 324.706Z" fill="#8E571B"/>
<path d="M510.177 292.582C510.177 292.582 513.52 317.836 507.949 320.807C502.378 323.778 413.621 321.55 413.621 321.55L427.732 333.061L519.093 334.919L532.834 292.953L510.177 292.582Z" fill="#513214"/>
</g>
<path d="M109.74 208.375H104.149C103.108 208.375 102.264 209.22 102.264 210.261V231.786C102.264 232.828 103.108 233.672 104.149 233.672H109.74C110.781 233.672 111.625 232.828 111.625 231.786V210.261C111.625 209.22 110.781 208.375 109.74 208.375Z" fill="#FDB856"/>
<path d="M104.632 201.261H101.322C99.9885 201.261 98.9072 202.342 98.9072 203.676V236.79C98.9072 238.124 99.9885 239.205 101.322 239.205H104.632C105.966 239.205 107.047 238.124 107.047 236.79V203.676C107.047 202.342 105.966 201.261 104.632 201.261Z" fill="#C4873D"/>
<mask id="mask9_380_3040" style="mask-type:alpha" maskUnits="userSpaceOnUse" x="112" y="198" width="12" height="36">
<path d="M120.609 198.538H114.449C113.115 198.538 112.034 199.619 112.034 200.953V231.433C112.034 232.766 113.115 233.848 114.449 233.848H120.609C121.943 233.848 123.024 232.766 123.024 231.433V200.953C123.024 199.619 121.943 198.538 120.609 198.538Z" fill="#4D9FA0"/>
</mask>
<g mask="url(#mask9_380_3040)">
<path d="M120.609 198.538H114.449C113.115 198.538 112.034 199.619 112.034 200.953V231.433C112.034 232.766 113.115 233.848 114.449 233.848H120.609C121.943 233.848 123.024 232.766 123.024 231.433V200.953C123.024 199.619 121.943 198.538 120.609 198.538Z" fill="#4D9FA0"/>
<path d="M121.32 189.842H121.063C119.729 189.842 118.648 190.923 118.648 192.257V236.79C118.648 238.124 119.729 239.205 121.063 239.205H121.32C122.654 239.205 123.735 238.124 123.735 236.79V192.257C123.735 190.923 122.654 189.842 121.32 189.842Z" fill="#216868"/>
</g>
<path d="M130.702 208.375H125.112C124.07 208.375 123.226 209.22 123.226 210.261V231.786C123.226 232.828 124.07 233.672 125.112 233.672H130.702C131.743 233.672 132.588 232.828 132.588 231.786V210.261C132.588 209.22 131.743 208.375 130.702 208.375Z" fill="#FFD1AC"/>
<path d="M133.124 200.557H130.221C128.887 200.557 127.806 201.639 127.806 202.973V236.966C127.806 238.3 128.887 239.381 130.221 239.381H133.124C134.458 239.381 135.539 238.3 135.539 236.966V202.973C135.539 201.639 134.458 200.557 133.124 200.557Z" fill="#D19C78"/>
<path d="M334.186 261.977H331.795C329.828 261.977 328.233 263.571 328.233 265.538V384.144C328.233 386.11 329.828 387.705 331.795 387.705H334.186C336.153 387.705 337.747 386.11 337.747 384.144V265.538C337.747 263.571 336.153 261.977 334.186 261.977Z" fill="#EA903F"/>
<path d="M331.839 335.498H331.838C331.201 335.498 330.685 336.014 330.685 336.65V373.736C330.685 374.373 331.201 374.889 331.838 374.889H331.839C332.476 374.889 332.992 374.373 332.992 373.736V336.65C332.992 336.014 332.476 335.498 331.839 335.498Z" fill="#BC7235"/>
<path d="M334.722 320.444C334.722 319.966 334.335 319.579 333.857 319.579C333.379 319.579 332.992 319.966 332.992 320.444V330.315C332.992 330.792 333.379 331.18 333.857 331.18C334.335 331.18 334.722 330.792 334.722 330.315V320.444Z" fill="#BC7235"/>
<path d="M331.838 282.383C331.838 282.065 331.58 281.807 331.261 281.807C330.943 281.807 330.685 282.065 330.685 282.383V296.34C330.685 296.658 330.943 296.916 331.261 296.916C331.58 296.916 331.838 296.658 331.838 296.34V282.383Z" fill="#BC7235"/>
<path d="M334.289 271.285H334.287C334.049 271.285 333.855 271.478 333.855 271.717V283.805C333.855 284.043 334.049 284.236 334.287 284.236H334.289C334.527 284.236 334.721 284.043 334.721 283.805V271.717C334.721 271.478 334.527 271.285 334.289 271.285Z" fill="#BC7235"/>
<path d="M134.241 261.842H131.85C129.883 261.842 128.289 263.436 128.289 265.403V384.008C128.289 385.975 129.883 387.57 131.85 387.57H134.241C136.208 387.57 137.803 385.975 137.803 384.008V265.403C137.803 263.436 136.208 261.842 134.241 261.842Z" fill="#EA903F"/>
<path d="M317.176 250.915H314.785C312.818 250.915 311.224 252.509 311.224 254.476V373.081C311.224 375.048 312.818 376.643 314.785 376.643H317.176C319.143 376.643 320.738 375.048 320.738 373.081V254.476C320.738 252.509 319.143 250.915 317.176 250.915Z" fill="#875129"/>
<path d="M152.549 250.644H150.158C148.191 250.644 146.597 252.239 146.597 254.206V372.811C146.597 374.778 148.191 376.372 150.158 376.372H152.549C154.516 376.372 156.111 374.778 156.111 372.811V254.206C156.111 252.239 154.516 250.644 152.549 250.644Z" fill="#875129"/>
<path d="M386.371 233.917H87.3059C85.3391 233.917 83.7446 235.511 83.7446 237.478V253.559C83.7446 255.526 85.3391 257.12 87.3059 257.12H386.371C388.338 257.12 389.932 255.526 389.932 253.559V237.478C389.932 235.511 388.338 233.917 386.371 233.917Z" fill="#EA903F"/>
<path d="M360.717 257.12H107.193C106.025 257.12 105.079 258.066 105.079 259.234V264.72C105.079 265.887 106.025 266.834 107.193 266.834H360.717C361.884 266.834 362.83 265.887 362.83 264.72V259.234C362.83 258.066 361.884 257.12 360.717 257.12Z" fill="#A36231"/>
<path d="M116.867 237.83H94.157C93.2629 237.83 92.5381 238.555 92.5381 239.449C92.5381 240.343 93.2629 241.068 94.157 241.068H116.867C117.761 241.068 118.486 240.343 118.486 239.449C118.486 238.555 117.761 237.83 116.867 237.83Z" fill="#BC7235"/>
<path d="M218.39 241.068H153.513C152.321 241.068 151.354 242.034 151.354 243.226C151.354 244.418 152.321 245.384 153.513 245.384H218.39C219.582 245.384 220.549 244.418 220.549 243.226C220.549 242.034 219.582 241.068 218.39 241.068Z" fill="#BC7235"/>
<path d="M143.891 245.384H125.662C124.247 245.384 123.1 246.532 123.1 247.947V247.948C123.1 249.364 124.247 250.511 125.662 250.511H143.891C145.306 250.511 146.454 249.364 146.454 247.948V247.947C146.454 246.532 145.306 245.384 143.891 245.384Z" fill="#BC7235"/>
<path d="M367.122 237.83H274.64C273.746 237.83 273.021 238.555 273.021 239.449C273.021 240.343 273.746 241.068 274.64 241.068H367.122C368.016 241.068 368.741 240.343 368.741 239.449C368.741 238.555 368.016 237.83 367.122 237.83Z" fill="#BC7235"/>
<path d="M278.151 245.384H245.404C244.734 245.384 244.19 245.928 244.19 246.598C244.19 247.268 244.734 247.812 245.404 247.812H278.151C278.822 247.812 279.365 247.268 279.365 246.598C279.365 245.928 278.822 245.384 278.151 245.384Z" fill="#BC7235"/>
<path d="M373.294 245.384H352.368C351.698 245.384 351.154 245.928 351.154 246.598C351.154 247.268 351.698 247.812 352.368 247.812H373.294C373.965 247.812 374.508 247.268 374.508 246.598C374.508 245.928 373.965 245.384 373.294 245.384Z" fill="#BC7235"/>
<path d="M134.633 277.546C134.633 277.068 134.245 276.68 133.768 276.68C133.29 276.68 132.902 277.068 132.902 277.546V292.003C132.902 292.48 133.29 292.868 133.768 292.868C134.245 292.868 134.633 292.48 134.633 292.003V277.546Z" fill="#BC7235"/>
<path d="M134.633 316.398C134.633 315.92 134.245 315.532 133.768 315.532C133.29 315.532 132.902 315.92 132.902 316.398V348.122C132.902 348.6 133.29 348.988 133.768 348.988C134.245 348.988 134.633 348.6 134.633 348.122V316.398Z" fill="#BC7235"/>
<path d="M131.748 359.152C131.748 358.754 131.425 358.431 131.027 358.431C130.629 358.431 130.307 358.754 130.307 359.152V372.549C130.307 372.947 130.629 373.27 131.027 373.27C131.425 373.27 131.748 372.947 131.748 372.549V359.152Z" fill="#BC7235"/>
<path d="M131.748 295.748C131.748 295.35 131.425 295.027 131.027 295.027C130.629 295.027 130.307 295.35 130.307 295.748V302.401C130.307 302.799 130.629 303.121 131.027 303.121C131.425 303.121 131.748 302.799 131.748 302.401V295.748Z" fill="#BC7235"/>
<path d="M161.401 199.397L320.08 199.397C321.211 199.397 322.129 198.48 322.129 197.348V79.4914C322.129 78.3597 321.211 77.4423 320.08 77.4423L161.401 77.4423C160.269 77.4423 159.351 78.3597 159.351 79.4914L159.351 197.348C159.351 198.48 160.269 199.397 161.401 199.397Z" fill="#8C5D3C"/>
<path d="M237.528 218.879H240.896C242.004 218.879 242.901 217.981 242.901 216.874V178.656C242.901 177.549 242.004 176.651 240.896 176.651H237.528C236.421 176.651 235.523 177.549 235.523 178.656V216.874C235.523 217.981 236.421 218.879 237.528 218.879Z" fill="#8C5D3C"/>
<mask id="mask10_380_3040" style="mask-type:alpha" maskUnits="userSpaceOnUse" x="162" y="216" width="154" height="18">
<path d="M164.755 233.008L313.668 233.008C314.726 233.008 315.583 232.15 315.583 231.092V218.284C315.583 217.226 314.726 216.368 313.668 216.368L164.755 216.368C163.697 216.368 162.84 217.226 162.84 218.284V231.092C162.84 232.15 163.697 233.008 164.755 233.008Z" fill="#C99C6B"/>
</mask>
<g mask="url(#mask10_380_3040)">
<path d="M164.755 233.008L313.668 233.008C314.726 233.008 315.583 232.15 315.583 231.092V218.284C315.583 217.226 314.726 216.368 313.668 216.368L164.755 216.368C163.697 216.368 162.84 217.226 162.84 218.284V231.092C162.84 232.15 163.697 233.008 164.755 233.008Z" fill="#C99C6B"/>
<path d="M324.813 226.27C324.813 226.27 179.289 225.86 169.535 226.063C159.093 226.281 169.45 207.413 169.45 207.413L151.942 216.432V251.062L224.172 265.508L337.507 254.397L324.813 226.27Z" fill="#8C5D3C"/>
</g>
<path d="M165.898 195.413L322.009 195.413C323.117 195.413 324.015 194.516 324.015 193.408V78.7393C324.015 77.6318 323.117 76.7341 322.009 76.7341L165.898 76.7341C164.79 76.7341 163.892 77.6318 163.892 78.7393L163.892 193.408C163.892 194.516 164.79 195.413 165.898 195.413Z" fill="#C99C6B"/>
<path d="M176.296 187.104L310.995 187.104C312.119 187.104 313.031 186.192 313.031 185.067V89.9271C313.031 88.8023 312.119 87.8905 310.995 87.8905L176.296 87.8905C175.171 87.8905 174.259 88.8023 174.259 89.9271V185.067C174.259 186.192 175.171 187.104 176.296 187.104Z" fill="#F4E1C9"/>
<path d="M245.234 179.49C244.866 179.489 244.514 179.342 244.253 179.082C243.993 178.822 243.846 178.47 243.845 178.102V170.508C243.846 170.14 243.993 169.787 244.253 169.527C244.514 169.267 244.866 169.121 245.234 169.12C245.602 169.121 245.954 169.268 246.215 169.528C246.475 169.788 246.621 170.14 246.622 170.508V178.102C246.621 178.469 246.475 178.822 246.215 179.082C245.954 179.342 245.602 179.488 245.234 179.49Z" fill="#BA2A31"/>
<path d="M250.426 179.49C250.058 179.488 249.706 179.342 249.446 179.082C249.185 178.822 249.039 178.469 249.038 178.102V170.508C249.037 170.139 249.183 169.785 249.443 169.524C249.704 169.262 250.057 169.115 250.426 169.114C250.794 169.114 251.146 169.261 251.407 169.521C251.667 169.781 251.814 170.134 251.815 170.502V178.095C251.816 178.464 251.67 178.819 251.409 179.08C251.148 179.342 250.795 179.489 250.426 179.49Z" fill="#BA2A31"/>
<path d="M241.253 170.601V178.009L234.772 174.305L241.253 170.601Z" fill="#BA2A31"/>
<path d="M254.402 170.601V178.009L260.882 174.305L254.402 170.601Z" fill="#BA2A31"/>
<path d="M284.789 169.12H275.259C273.953 169.12 272.894 170.179 272.894 171.485V175.644C272.894 176.95 273.953 178.009 275.259 178.009H284.789C286.095 178.009 287.153 176.95 287.153 175.644V171.485C287.153 170.179 286.095 169.12 284.789 169.12Z" fill="#BA2A31"/>
<path d="M297.138 169.12H291.983C290.952 169.12 290.116 169.956 290.116 170.987V176.142C290.116 177.173 290.952 178.009 291.983 178.009H297.138C298.169 178.009 299.005 177.173 299.005 176.142V170.987C299.005 169.956 298.169 169.12 297.138 169.12Z" fill="#BA2A31"/>
<path d="M207.312 169.94H197.782C196.476 169.94 195.417 170.998 195.417 172.304V176.464C195.417 177.77 196.476 178.829 197.782 178.829H207.312C208.618 178.829 209.677 177.77 209.677 176.464V172.304C209.677 170.998 208.618 169.94 207.312 169.94Z" fill="#BA2A31"/>
<path d="M219.662 169.94H214.507C213.476 169.94 212.64 170.775 212.64 171.807V176.962C212.64 177.993 213.476 178.829 214.507 178.829H219.662C220.693 178.829 221.529 177.993 221.529 176.962V171.807C221.529 170.775 220.693 169.94 219.662 169.94Z" fill="#BA2A31"/>
<path d="M307.71 165.23H188.266C188.069 165.23 187.881 165.152 187.742 165.013C187.603 164.874 187.525 164.686 187.524 164.489C187.525 164.293 187.604 164.105 187.743 163.967C187.881 163.828 188.069 163.75 188.266 163.75H307.71C307.906 163.75 308.094 163.828 308.233 163.967C308.371 164.105 308.45 164.293 308.451 164.489C308.45 164.686 308.372 164.874 308.233 165.013C308.094 165.152 307.906 165.23 307.71 165.23Z" fill="#BA2A31"/>
<path d="M195.577 106.342L208.377 117.458H234.988L218.987 106.342H195.577Z" fill="#F53B51"/>
<path d="M207.198 143.227L208.377 117.458H234.988V142.721L207.198 143.227Z" fill="#F53B51"/>
<path d="M195.577 132.279L207.198 143.227L208.377 117.458L195.577 106.342V132.279Z" fill="#F53B51"/>
<path d="M281.978 132.279L265.304 96.0683L248.125 132.279" fill="#4D9FA0"/>
<path d="M265.221 139.689C274.57 139.689 282.148 136.56 282.148 132.7C282.148 128.84 274.57 125.711 265.221 125.711C255.872 125.711 248.294 128.84 248.294 132.7C248.294 136.56 255.872 139.689 265.221 139.689Z" fill="#4D9FA0"/>
<path d="M271.911 147.942H257.686C256.498 147.942 255.535 148.905 255.535 150.093V151.854C255.535 153.042 256.498 154.005 257.686 154.005H271.911C273.099 154.005 274.062 153.042 274.062 151.854V150.093C274.062 148.905 273.099 147.942 271.911 147.942Z" fill="#97B545"/>
<path d="M250.689 99.0989H236.465C235.277 99.0989 234.313 100.062 234.313 101.25V103.01C234.313 104.198 235.277 105.162 236.465 105.162H250.689C251.877 105.162 252.841 104.198 252.841 103.01V101.25C252.841 100.062 251.877 99.0989 250.689 99.0989Z" fill="#EA903F"/>
<path d="M292.797 144.912H278.572C277.384 144.912 276.421 145.875 276.421 147.063V148.823C276.421 150.011 277.384 150.974 278.572 150.974H292.797C293.985 150.974 294.948 150.011 294.948 148.823V147.063C294.948 145.875 293.985 144.912 292.797 144.912Z" fill="#4D9FA0"/>
<path d="M293.684 154.68H277.683C277.351 154.677 277.033 154.544 276.798 154.309C276.563 154.074 276.43 153.756 276.427 153.424C276.43 153.092 276.563 152.774 276.798 152.539C277.033 152.304 277.351 152.171 277.683 152.168H293.684C294.018 152.169 294.338 152.301 294.574 152.536C294.811 152.771 294.945 153.09 294.948 153.424C294.945 153.758 294.811 154.077 294.574 154.312C294.338 154.547 294.018 154.679 293.684 154.68Z" fill="#FDB856"/>
<path d="M296.378 107.522H280.378C280.045 107.519 279.728 107.385 279.493 107.15C279.258 106.915 279.124 106.598 279.122 106.265C279.124 105.933 279.258 105.615 279.493 105.38C279.728 105.145 280.045 105.012 280.378 105.009H296.378C296.711 105.012 297.028 105.145 297.263 105.38C297.498 105.615 297.632 105.933 297.635 106.265C297.632 106.598 297.498 106.915 297.263 107.15C297.028 107.385 296.711 107.519 296.378 107.522Z" fill="#D19C78"/>
<path d="M229.01 149.795H213.008C212.31 149.795 211.745 150.36 211.745 151.058V151.059C211.745 151.756 212.31 152.322 213.008 152.322H229.01C229.707 152.322 230.272 151.756 230.272 151.059V151.058C230.272 150.36 229.707 149.795 229.01 149.795Z" fill="#EA903F"/>
<path d="M195.372 106.138L208.173 117.254H234.785L218.784 106.138H195.372Z" stroke="#593515" stroke-width="3" stroke-miterlimit="10"/>
<path d="M206.993 143.024L208.172 117.254H234.785V142.519L206.993 143.024Z" stroke="#593515" stroke-width="3" stroke-miterlimit="10"/>
<path d="M195.372 132.077L206.993 143.024L208.173 117.254L195.372 106.138V132.077Z" stroke="#593515" stroke-width="3" stroke-miterlimit="10"/>
<path d="M281.775 132.077L265.101 95.8641L247.921 132.077" stroke="#593515" stroke-width="3" stroke-miterlimit="10"/>
<path d="M265.016 139.487C274.365 139.487 281.943 136.358 281.943 132.498C281.943 128.638 274.365 125.509 265.016 125.509C255.668 125.509 248.089 128.638 248.089 132.498C248.089 136.358 255.668 139.487 265.016 139.487Z" stroke="#593515" stroke-width="3" stroke-miterlimit="10"/>
<path d="M271.709 147.74H257.484C256.296 147.74 255.333 148.703 255.333 149.891V151.651C255.333 152.839 256.296 153.802 257.484 153.802H271.709C272.897 153.802 273.86 152.839 273.86 151.651V149.891C273.86 148.703 272.897 147.74 271.709 147.74Z" stroke="#593515" stroke-width="3" stroke-miterlimit="10"/>
<path d="M250.487 98.8962H236.263C235.074 98.8962 234.111 99.8594 234.111 101.047V102.808C234.111 103.996 235.074 104.959 236.263 104.959H250.487C251.675 104.959 252.638 103.996 252.638 102.808V101.047C252.638 99.8594 251.675 98.8962 250.487 98.8962Z" stroke="#593515" stroke-width="3" stroke-miterlimit="10"/>
<path d="M292.593 144.708H278.368C277.18 144.708 276.217 145.671 276.217 146.859V148.619C276.217 149.807 277.18 150.77 278.368 150.77H292.593C293.781 150.77 294.744 149.807 294.744 148.619V146.859C294.744 145.671 293.781 144.708 292.593 144.708Z" stroke="#593515" stroke-width="3" stroke-miterlimit="10"/>
<path d="M293.48 154.476H277.481C277.147 154.475 276.827 154.343 276.591 154.108C276.354 153.872 276.22 153.553 276.217 153.22V153.22C276.22 152.886 276.354 152.567 276.591 152.332C276.827 152.097 277.147 151.964 277.481 151.964H293.48C293.812 151.966 294.13 152.1 294.365 152.335C294.6 152.57 294.733 152.887 294.736 153.22V153.22C294.733 153.552 294.6 153.87 294.365 154.105C294.13 154.34 293.812 154.473 293.48 154.476Z" stroke="#593515" stroke-width="3" stroke-miterlimit="10"/>
<path d="M296.176 107.317H280.175C279.84 107.317 279.519 107.183 279.282 106.946C279.045 106.709 278.912 106.388 278.911 106.053V106.053C278.914 105.72 279.048 105.401 279.285 105.166C279.522 104.93 279.842 104.798 280.175 104.797H296.176C296.508 104.8 296.826 104.933 297.061 105.168C297.296 105.403 297.429 105.721 297.432 106.053C297.431 106.387 297.299 106.707 297.064 106.943C296.828 107.18 296.509 107.314 296.176 107.317V107.317Z" stroke="#593515" stroke-width="3" stroke-miterlimit="10"/>
<path d="M228.806 152.119H212.805C212.471 152.118 212.152 151.986 211.915 151.751C211.678 151.516 211.544 151.196 211.541 150.863C211.544 150.529 211.678 150.21 211.915 149.975C212.152 149.74 212.471 149.608 212.805 149.607H228.806C229.138 149.61 229.456 149.743 229.691 149.978C229.926 150.213 230.059 150.531 230.062 150.863V150.863C230.059 151.195 229.926 151.513 229.691 151.748C229.456 151.983 229.138 152.116 228.806 152.119Z" stroke="#593515" stroke-width="3" stroke-miterlimit="10"/>
<mask id="mask11_380_3040" style="mask-type:alpha" maskUnits="userSpaceOnUse" x="165" y="295" width="124" height="72">
<path d="M280.009 295.105H173.825C169.09 295.105 165.252 298.944 165.252 303.679V358.373C165.252 363.108 169.09 366.946 173.825 366.946H280.009C284.744 366.946 288.582 363.108 288.582 358.373V303.679C288.582 298.944 284.744 295.105 280.009 295.105Z" fill="#2E7575"/>
</mask>
<g mask="url(#mask11_380_3040)">
<path d="M280.009 295.105H173.825C169.09 295.105 165.252 298.944 165.252 303.679V358.373C165.252 363.108 169.09 366.946 173.825 366.946H280.009C284.744 366.946 288.582 363.108 288.582 358.373V303.679C288.582 298.944 284.744 295.105 280.009 295.105Z" fill="#2E7575"/>
<path d="M179.295 278.417C179.295 278.417 152.444 359.912 290.117 362.209C427.789 364.506 279.017 395.641 279.017 395.641L156.297 407.852L112.543 316.066L179.295 278.417Z" fill="#195E5C"/>
</g>
<path d="M276.234 300.397H177.602C175.278 300.397 173.394 302.281 173.394 304.605V316.134C173.394 318.458 175.278 320.342 177.602 320.342H276.234C278.558 320.342 280.442 318.458 280.442 316.134V304.605C280.442 302.281 278.558 300.397 276.234 300.397Z" fill="#FDB856"/>
<path d="M272.755 303.652H180.265C178.83 303.652 177.667 304.816 177.667 306.251V314.283C177.667 315.718 178.83 316.881 180.265 316.881H272.755C274.19 316.881 275.353 315.718 275.353 314.283V306.251C275.353 304.816 274.19 303.652 272.755 303.652Z" fill="#E0953D"/>
<path d="M174.412 306.705H279.017" stroke="white" stroke-width="3" stroke-miterlimit="10"/>
<path d="M174.614 309.453H279.221" stroke="white" stroke-width="3" stroke-miterlimit="10"/>
<path d="M174.614 312.303H279.221" stroke="white" stroke-width="3" stroke-miterlimit="10"/>
<path d="M210.536 325.836H200.359C198.954 325.836 197.815 326.975 197.815 328.38C197.815 329.785 198.954 330.924 200.359 330.924H210.536C211.941 330.924 213.08 329.785 213.08 328.38C213.08 326.975 211.941 325.836 210.536 325.836Z" fill="#CACC97"/>
<path d="M232.108 325.836H221.931C220.526 325.836 219.387 326.975 219.387 328.38C219.387 329.785 220.526 330.924 221.931 330.924H232.108C233.512 330.924 234.651 329.785 234.651 328.38C234.651 326.975 233.512 325.836 232.108 325.836Z" fill="#CACC97"/>
<path d="M253.681 325.836H243.504C242.099 325.836 240.96 326.975 240.96 328.38C240.96 329.785 242.099 330.924 243.504 330.924H253.681C255.086 330.924 256.225 329.785 256.225 328.38C256.225 326.975 255.086 325.836 253.681 325.836Z" fill="#CACC97"/>
<path d="M254.731 358.519H269.812L260.901 369.942L254.731 358.519Z" fill="#878168"/>
<path d="M235.539 342.523L229.964 356.462L238.966 350.749L235.539 342.523Z" fill="#878168"/>
<path d="M221.6 388.451C232.957 388.451 242.164 382.364 242.164 374.856C242.164 367.347 232.957 361.261 221.6 361.261C210.243 361.261 201.036 367.347 201.036 374.856C201.036 382.364 210.243 388.451 221.6 388.451Z" fill="#C1BCA3"/>
<path d="M223.261 358.602C223.261 358.602 208.815 380.378 242.187 385.872C275.559 391.367 248.292 361.247 248.292 361.247L223.261 358.602Z" fill="#A39E89"/>
<path d="M208.571 371.219C209.341 371.219 209.965 368.166 209.965 364.401C209.965 360.636 209.341 357.583 208.571 357.583C207.801 357.583 207.176 360.636 207.176 364.401C207.176 368.166 207.801 371.219 208.571 371.219Z" fill="#878168"/>
<path d="M213.219 371.219C213.989 371.219 214.613 368.166 214.613 364.401C214.613 360.636 213.989 357.583 213.219 357.583C212.449 357.583 211.825 360.636 211.825 364.401C211.825 368.166 212.449 371.219 213.219 371.219Z" fill="#878168"/>
<path d="M217.867 371.219C218.637 371.219 219.261 368.166 219.261 364.401C219.261 360.636 218.637 357.583 217.867 357.583C217.096 357.583 216.472 360.636 216.472 364.401C216.472 368.166 217.096 371.219 217.867 371.219Z" fill="#878168"/>
<path d="M206.674 387.459C207.829 383.875 208.172 380.778 207.439 380.542C206.706 380.306 205.175 383.02 204.019 386.603C202.864 390.187 202.521 393.284 203.254 393.52C203.987 393.756 205.518 391.043 206.674 387.459Z" fill="#878168"/>
<path d="M211.096 388.884C212.252 385.3 212.594 382.204 211.861 381.967C211.129 381.731 209.598 384.445 208.442 388.028C207.287 391.612 206.944 394.709 207.677 394.945C208.41 395.182 209.941 392.468 211.096 388.884Z" fill="#878168"/>
<path d="M215.651 392.166C216.818 388.589 217.171 385.496 216.44 385.257C215.708 385.018 214.169 387.725 213.002 391.302C211.834 394.879 211.481 397.972 212.213 398.211C212.944 398.45 214.484 395.743 215.651 392.166Z" fill="#878168"/>
<path d="M203.093 371.313C203.093 371.313 182.3 379.083 193.495 389.821C203.526 399.442 206.519 392.106 204.234 389.821C201.949 387.537 195.323 386.166 195.095 383.652C194.714 379.456 203.777 376.115 205.377 375.198C206.977 374.281 203.093 371.313 203.093 371.313Z" fill="#C1BCA3"/>
<path d="M190.822 391.516C191.242 391.949 192.661 391.255 193.993 389.966C195.324 388.677 196.064 387.281 195.645 386.848C195.225 386.414 193.806 387.108 192.474 388.397C191.143 389.687 190.403 391.083 190.822 391.516Z" fill="#878168"/>
<path d="M192.981 393.709C193.401 394.143 194.82 393.45 196.152 392.161C197.483 390.872 198.223 389.476 197.803 389.043C197.384 388.609 195.963 389.302 194.632 390.591C193.3 391.88 192.562 393.276 192.981 393.709Z" fill="#878168"/>
<path d="M194.95 395.79C195.369 396.223 196.789 395.531 198.12 394.242C199.452 392.953 200.192 391.557 199.772 391.123C199.353 390.69 197.934 391.382 196.602 392.671C195.271 393.961 194.526 395.357 194.95 395.79Z" fill="#878168"/>
<path d="M228.793 384.853C228.771 384.435 228.862 384.019 229.057 383.649C229.252 383.279 229.544 382.968 229.901 382.751C230.258 382.533 230.668 382.416 231.086 382.412C231.505 382.408 231.916 382.517 232.278 382.729C234.418 383.985 237.447 385.618 240.338 386.623C243.111 387.587 243.466 388.807 243.183 389.743C243.044 390.171 242.781 390.547 242.427 390.824C242.072 391.102 241.644 391.267 241.195 391.299C238.179 391.56 229.144 391.756 228.793 384.853Z" fill="#878168"/>
<path d="M244.22 387.08C247.122 387.08 249.475 385.596 249.475 383.767C249.475 381.937 247.122 380.453 244.22 380.453C241.317 380.453 238.964 381.937 238.964 383.767C238.964 385.596 241.317 387.08 244.22 387.08Z" fill="#878168"/>
<path d="M218.72 379.064C220.994 380.975 222.473 383.98 219.287 388.364C223.429 389.822 230.969 393.934 223.429 393.249C215.889 392.565 201.493 389.365 202.636 383.652C203.252 380.576 206.32 378.692 209.019 377.608C212.279 376.302 216.038 376.806 218.72 379.064Z" fill="#878168"/>
<path d="M242.165 383.652C253.27 383.652 262.272 376.235 262.272 367.086C262.272 357.937 253.27 350.52 242.165 350.52C231.06 350.52 222.058 357.937 222.058 367.086C222.058 376.235 231.06 383.652 242.165 383.652Z" fill="#C1BCA3"/>
<path d="M247.313 353.098C248.761 350.178 249.323 347.507 248.568 347.132C247.813 346.758 246.027 348.822 244.578 351.742C243.13 354.663 242.568 357.334 243.323 357.708C244.078 358.083 245.864 356.019 247.313 353.098Z" fill="#878168"/>
<path d="M250.773 354.802C249.325 357.723 247.538 359.786 246.783 359.411C246.028 359.036 246.59 356.366 248.039 353.444C249.488 350.522 251.274 348.46 252.029 348.835C252.784 349.211 252.221 351.888 250.773 354.802Z" fill="#878168"/>
<path d="M254.239 356.535C255.688 353.615 256.25 350.944 255.494 350.569C254.739 350.195 252.953 352.259 251.504 355.179C250.056 358.099 249.494 360.77 250.249 361.145C251.004 361.519 252.791 359.456 254.239 356.535Z" fill="#878168"/>
<path d="M248.519 382.078C249.033 381.897 248.884 380.138 248.185 378.148C247.487 376.158 246.503 374.691 245.989 374.872C245.475 375.052 245.624 376.812 246.322 378.802C247.021 380.792 248.004 382.258 248.519 382.078Z" fill="#878168"/>
<path d="M252.104 383.007C252.621 382.827 252.473 381.06 251.775 379.062C251.077 377.063 250.092 375.59 249.576 375.77C249.059 375.951 249.206 377.717 249.904 379.716C250.603 381.714 251.588 383.188 252.104 383.007Z" fill="#878168"/>
<path d="M254.478 382.179C254.994 381.998 254.847 380.232 254.149 378.233C253.45 376.235 252.466 374.761 251.949 374.942C251.432 375.122 251.58 376.889 252.278 378.887C252.976 380.885 253.961 382.359 254.478 382.179Z" fill="#878168"/>
<path d="M227.468 364.02C227.504 363.474 225.82 362.919 223.708 362.781C221.596 362.643 219.854 362.974 219.819 363.52C219.783 364.066 221.466 364.62 223.579 364.758C225.691 364.896 227.432 364.566 227.468 364.02Z" fill="#878168"/>
<path d="M223.86 360.254C221.748 360.116 220.006 360.447 219.972 360.994C219.937 361.54 221.619 362.093 223.731 362.233C225.843 362.372 227.584 362.04 227.62 361.493C227.656 360.947 225.972 360.392 223.86 360.254Z" fill="#878168"/>
<path d="M224.025 357.748C221.911 357.611 220.171 357.941 220.135 358.487C220.099 359.034 221.783 359.587 223.894 359.726C226.006 359.866 227.748 359.533 227.784 358.987C227.82 358.44 226.137 357.886 224.025 357.748Z" fill="#878168"/>
<path d="M231.47 359.403C230.847 360.31 230.607 361.425 230.803 362.508C230.998 363.59 231.614 364.552 232.515 365.183C233.415 365.814 234.529 366.064 235.613 365.878C236.698 365.692 237.664 365.086 238.304 364.191" stroke="#878168" stroke-width="4" stroke-miterlimit="10" stroke-linecap="round"/>
<path d="M244.156 367.001C243.915 367.495 243.773 368.032 243.74 368.581C243.706 369.13 243.782 369.68 243.962 370.2C244.142 370.72 244.423 371.199 244.788 371.609C245.154 372.02 245.597 372.354 246.093 372.593C246.588 372.832 247.126 372.97 247.675 373.001C248.224 373.031 248.774 372.952 249.292 372.769C249.811 372.586 250.288 372.302 250.697 371.934C251.105 371.566 251.437 371.121 251.673 370.624" stroke="#878168" stroke-width="4" stroke-miterlimit="10" stroke-linecap="round"/>
<path d="M233.378 372.942C233.191 373.208 233.117 373.538 233.173 373.859C233.229 374.181 233.41 374.466 233.677 374.654C233.943 374.841 234.274 374.915 234.595 374.859C234.916 374.803 235.201 374.622 235.389 374.355" stroke="#878168" stroke-width="4" stroke-miterlimit="10" stroke-linecap="round"/>
<path d="M235.493 374.278C235.364 374.569 235.354 374.9 235.464 375.199C235.574 375.498 235.796 375.743 236.083 375.881C236.37 376.02 236.7 376.041 237.003 375.941C237.305 375.841 237.557 375.627 237.705 375.344" stroke="#878168" stroke-width="4" stroke-miterlimit="10" stroke-linecap="round"/>
<path d="M237.541 372.95C237.289 373.388 236.61 373.47 236.026 373.132C235.441 372.794 235.173 372.166 235.426 371.728C235.679 371.29 236.357 371.208 236.941 371.546C237.526 371.883 237.794 372.512 237.541 372.95Z" fill="#878168"/>
<path d="M319.109 165.264L343.124 197.214L363.476 185.614L342.717 156.715L319.109 165.264Z" fill="#E2C686"/>
<path d="M320.535 162.618L344.549 194.569L364.9 182.968L344.142 154.069L320.535 162.618Z" fill="#FFE8B0"/>
<path d="M298.496 232.015H335.397L350.799 249.641C352.49 251.577 351.113 254.606 348.544 254.606H309.544L296.444 235.965C296.182 235.588 296.028 235.148 295.998 234.69C295.968 234.233 296.064 233.776 296.276 233.369C296.487 232.962 296.806 232.621 297.197 232.383C297.589 232.144 298.038 232.017 298.496 232.015Z" fill="#DFE7F4"/>
<path d="M299.784 232.015H334.792C334.911 232.016 335.028 232.041 335.137 232.09C335.245 232.139 335.342 232.211 335.42 232.3L351.437 250.357C351.544 250.479 351.614 250.628 351.639 250.789C351.663 250.949 351.641 251.113 351.575 251.261C351.509 251.409 351.401 251.535 351.265 251.623C351.129 251.712 350.971 251.759 350.809 251.759H312.668C312.534 251.759 312.401 251.727 312.282 251.666C312.163 251.604 312.06 251.515 311.982 251.406L299.098 233.349C299.008 233.222 298.954 233.074 298.943 232.92C298.932 232.765 298.964 232.61 299.034 232.473C299.105 232.335 299.213 232.219 299.345 232.139C299.477 232.058 299.629 232.015 299.784 232.015Z" fill="#4C6A9E"/>
<path d="M306.084 234.661L308.73 238.324H334.984L331.727 234.661H306.084Z" fill="#9FAABC"/>
<mask id="mask12_380_3040" style="mask-type:alpha" maskUnits="userSpaceOnUse" x="332" y="186" width="13" height="14">
<path d="M336.815 199.292C336.815 199.292 329.895 194.551 333.962 189.801C338.029 185.051 338.643 186.574 338.643 186.574C338.937 187.131 339.092 187.751 339.092 188.38C339.092 189.01 338.937 189.63 338.643 190.186C342.306 189.806 345.358 194.361 343.526 195.311C341.694 196.261 336.403 199.296 336.403 199.296" fill="#FF886E"/>
</mask>
<g mask="url(#mask12_380_3040)">
<path d="M336.815 199.292C336.815 199.292 329.895 194.551 333.962 189.801C338.029 185.051 338.643 186.574 338.643 186.574C338.937 187.131 339.092 187.751 339.092 188.38C339.092 189.01 338.937 189.63 338.643 190.186C342.306 189.806 345.358 194.361 343.526 195.311C341.694 196.261 336.403 199.296 336.403 199.296" fill="#FF886E"/>
<path d="M339.051 182.387C338.801 182.54 338.586 182.745 338.421 182.987C338.255 183.23 338.144 183.505 338.093 183.794C338.042 184.084 338.054 184.38 338.127 184.665C338.2 184.949 338.332 185.215 338.516 185.444C338.995 186.072 339.174 186.884 338.441 187.86C338.084 188.313 337.829 188.837 337.693 189.396C337.632 189.689 337.636 189.992 337.704 190.283C337.773 190.574 337.905 190.846 338.09 191.081C338.276 191.316 338.511 191.507 338.778 191.64C339.046 191.774 339.34 191.847 339.639 191.855C340.995 191.885 342.986 192.339 342.715 194.78C342.393 197.676 345.888 193.193 347.366 191.189C347.564 190.919 347.694 190.605 347.743 190.274C347.793 189.942 347.76 189.604 347.648 189.288L344.979 181.7C344.878 181.412 344.713 181.15 344.497 180.933C344.282 180.716 344.021 180.55 343.733 180.447C343.445 180.344 343.138 180.306 342.833 180.336C342.529 180.367 342.235 180.465 341.974 180.623L339.051 182.387Z" fill="#E55E48"/>
</g>
<mask id="mask13_380_3040" style="mask-type:alpha" maskUnits="userSpaceOnUse" x="329" y="244" width="22" height="14">
<path d="M342.513 248.831C342.513 248.831 337.426 243.516 332.745 245.219C328.064 246.923 330.703 249.965 330.703 249.965C330.703 249.965 333.349 252.433 335.587 252.622C330.703 252.622 329.279 256.418 338.437 257.175C347.594 257.932 350.444 253.38 350.444 253.38L342.513 248.831Z" fill="#FF886E"/>
</mask>
<g mask="url(#mask13_380_3040)">
<path d="M342.513 248.831C342.513 248.831 337.426 243.516 332.745 245.219C328.064 246.923 330.703 249.965 330.703 249.965C330.703 249.965 333.349 252.433 335.587 252.622C330.703 252.622 329.279 256.418 338.437 257.175C347.594 257.932 350.444 253.38 350.444 253.38L342.513 248.831Z" fill="#FF886E"/>
<path d="M332.745 240.766C332.745 240.766 326.436 247.279 332.745 249.925C339.054 252.571 332.134 255.215 340.274 255.215C348.414 255.215 352.486 251.145 352.486 251.145L351.264 260.915L326.842 267.834L313.615 239.342L332.745 240.766Z" fill="#E25A44"/>
</g>
<path d="M333.962 198.912C333.962 198.912 341.084 242.947 349.631 239.15C358.178 235.354 348.004 196.635 348.004 196.635C348.004 196.635 339.665 191.13 333.962 198.912Z" fill="#FFCF48"/>
<path d="M371.418 323.905C371.418 323.905 364.988 348.019 369.542 346.946C374.095 345.874 389.1 331.139 382.402 326.317C375.703 321.495 371.418 323.905 371.418 323.905Z" fill="#E5B438"/>
<path d="M361.441 219.601L340.479 248.071C340.479 248.071 343.531 257.178 350.858 254.905C358.184 252.631 375.686 222.638 375.686 222.638C375.686 222.638 381.383 197.583 361.441 219.601Z" fill="#C1932B"/>
<mask id="mask14_380_3040" style="mask-type:alpha" maskUnits="userSpaceOnUse" x="343" y="170" width="80" height="96">
<path d="M384.693 170.287C384.514 170.262 384.333 170.252 384.153 170.258C381.771 170.337 365.107 171.411 357.371 186.196C349.027 202.139 341.903 227.763 344.346 235.165C346.789 242.567 356.963 245.414 364.087 230.612C365.632 227.399 370.471 228.65 370.267 232.208L368.989 254.488C368.978 254.688 368.948 254.885 368.9 255.079C368.466 256.834 366.495 266.573 376.501 265.189C385.362 263.966 409.832 264.94 418.982 265.364C419.431 265.384 419.88 265.312 420.299 265.15C420.719 264.989 421.101 264.742 421.42 264.426C421.74 264.11 421.99 263.731 422.156 263.312C422.322 262.894 422.399 262.447 422.383 261.997C421.796 245.409 418.614 176.032 406.621 173.86C394.354 171.639 386.205 170.494 384.693 170.287Z" fill="#FFCF48"/>
</mask>
<g mask="url(#mask14_380_3040)">
<path d="M384.693 170.287C384.514 170.262 384.333 170.252 384.153 170.258C381.771 170.337 365.107 171.411 357.371 186.196C349.027 202.139 341.903 227.763 344.346 235.165C346.789 242.567 356.963 245.414 364.087 230.612C365.632 227.399 370.471 228.65 370.267 232.208L368.989 254.488C368.978 254.688 368.948 254.885 368.9 255.079C368.466 256.834 366.495 266.573 376.501 265.189C385.362 263.966 409.832 264.94 418.982 265.364C419.431 265.384 419.88 265.312 420.299 265.15C420.719 264.989 421.101 264.742 421.42 264.426C421.74 264.11 421.99 263.731 422.156 263.312C422.322 262.894 422.399 262.447 422.383 261.997C421.796 245.409 418.614 176.032 406.621 173.86C394.354 171.639 386.205 170.494 384.693 170.287Z" fill="#FFCF48"/>
<path d="M344.142 239.342C344.142 239.342 349.433 243.209 358.388 234.661C367.343 226.113 366.732 220.823 372.431 225.095C378.129 229.368 383.827 262.542 376.501 265.392C369.174 268.242 354.725 263.351 354.725 263.351L344.142 239.342Z" fill="#E5B438"/>
<path d="M334.445 185.758C334.445 185.758 334.24 201.631 332.205 213.237C330.17 224.842 323.455 235.22 334.445 240.914C345.435 246.607 350.522 240.914 350.522 240.914L352.76 197.566L334.445 185.758Z" fill="#E5B438"/>
</g>
<path d="M348.99 134.22C348.99 134.22 335.486 147.714 349.106 145.601C350.984 139.969 348.99 134.22 348.99 134.22Z" fill="#DD624E"/>
<path d="M354.323 138.087C355.991 138.087 357.343 136.827 357.343 135.272C357.343 133.717 355.991 132.457 354.323 132.457C352.656 132.457 351.304 133.717 351.304 135.272C351.304 136.827 352.656 138.087 354.323 138.087Z" stroke="black" stroke-width="4" stroke-miterlimit="10"/>
<path d="M347.297 144.546C350.163 144.546 352.486 139.277 352.486 132.778C352.486 126.28 350.163 121.011 347.297 121.011C344.43 121.011 342.107 126.28 342.107 132.778C342.107 139.277 344.43 144.546 347.297 144.546Z" stroke="black" stroke-width="4" stroke-miterlimit="10"/>
<mask id="mask15_380_3040" style="mask-type:alpha" maskUnits="userSpaceOnUse" x="347" y="109" width="33" height="58">
<path d="M360.373 109.688C360.373 109.688 343.708 132.223 348.168 154.052C352.627 175.881 377.507 163.44 377.507 163.44C377.507 163.44 389.245 103.117 360.373 109.688Z" fill="#FF886E"/>
</mask>
<g mask="url(#mask15_380_3040)">
<path d="M360.373 109.688C360.373 109.688 343.708 132.223 348.168 154.052C352.627 175.881 377.507 163.44 377.507 163.44C377.507 163.44 389.245 103.117 360.373 109.688Z" fill="#FF886E"/>
<path d="M356.831 115.412C356.831 115.412 383.353 139.353 359.882 168.459C335.911 198.183 391.099 165.172 391.099 165.172L388.282 104.615L358.943 106.963L356.831 115.412Z" fill="#CC5542"/>
</g>
<mask id="mask16_380_3040" style="mask-type:alpha" maskUnits="userSpaceOnUse" x="354" y="329" width="17" height="24">
<path d="M358.129 329.854C358.129 329.854 351.691 353.967 356.244 352.894C360.798 351.822 375.803 337.087 369.105 332.265C362.406 327.443 358.129 329.854 358.129 329.854Z" fill="#FFCF48"/>
</mask>
<g mask="url(#mask16_380_3040)">
<path d="M358.129 329.854C358.129 329.854 351.691 353.967 356.244 352.894C360.798 351.822 375.803 337.087 369.105 332.265C362.406 327.443 358.129 329.854 358.129 329.854Z" fill="#FFCF48"/>
<path d="M372.433 330.72C372.433 330.72 360.628 336.012 356.558 347.002C352.488 357.992 360.425 362.266 360.425 362.266C360.425 362.266 383.013 334.79 372.433 330.72Z" fill="#FFE7AB"/>
</g>
<path d="M354.532 125.915C354.532 125.915 356.944 124.576 359.356 125.915C361.768 127.255 359.356 129.398 359.356 129.398C359.356 129.398 353.734 127.79 354.532 125.915Z" fill="#620C0D"/>
<path d="M356.146 137.034C357.7 137.034 358.96 135.774 358.96 134.22C358.96 132.666 357.7 131.406 356.146 131.406C354.592 131.406 353.332 132.666 353.332 134.22C353.332 135.774 354.592 137.034 356.146 137.034Z" fill="#620C0D"/>
<path d="M356.548 282.512L371.016 325.915H381.196L376.642 280.904L356.548 282.512Z" fill="#3F0F1F"/>
<path d="M374.706 260.008C374.706 260.008 257.295 253.578 357.764 333.417L367.402 330.201C367.402 330.201 339.657 288.407 359.517 286.799C379.377 285.191 446.261 304.214 422.896 260.812C401.867 257.327 374.706 260.008 374.706 260.008Z" fill="#C92D47"/>
<path d="M439.373 280.914C439.373 280.914 405.852 289.599 359.028 280.914C320.477 273.764 360.05 331.379 367.471 330.205C374.892 329.03 362.098 299.223 362.098 299.223L407.9 296.17L436.558 290.302L439.373 280.914Z" fill="#63182C"/>
<path d="M366.905 145.629C367.574 142.79 365.817 139.946 362.978 139.276C360.14 138.606 357.296 140.364 356.626 143.203C355.956 146.041 357.714 148.885 360.552 149.555C363.391 150.225 366.235 148.467 366.905 145.629Z" fill="#E54833"/>
<path d="M369.988 132.779L342.14 131.455" stroke="black" stroke-width="4" stroke-miterlimit="10"/>
<path d="M348.879 154.667C348.879 154.667 351.674 157.729 354.726 154.677" stroke="#620C0D" stroke-width="4" stroke-miterlimit="10" stroke-linecap="round"/>
<path d="M357.611 114.192C357.611 114.192 356.149 131.091 372.023 136.974C377.314 146.082 363.883 162.503 374.262 172.182C384.641 181.861 375.686 190.097 384.437 190.857C393.188 191.617 394.003 183.455 394.003 183.455C394.003 183.455 397.87 192.628 407.841 191.109C417.812 189.591 417.611 185.351 417.611 185.351C417.611 185.351 431.043 189.074 437.553 183.376C443.587 178.097 439.792 165.896 431.244 160.583C422.695 155.269 424.121 147.961 426.156 137.332C428.191 126.704 421.679 87.4133 393.594 91.7785C388.303 86.2827 356.148 88.9317 347.803 104.306C339.656 119.317 354.519 120.818 354.519 120.818L357.611 114.192Z" fill="#620C0D"/>
<path d="M387.036 366.411C386.278 366.409 385.551 366.107 385.015 365.571C384.478 365.035 384.176 364.308 384.173 363.55V293.004C384.176 292.246 384.478 291.52 385.015 290.984C385.551 290.448 386.278 290.146 387.036 290.143C387.794 290.146 388.521 290.448 389.057 290.984C389.593 291.52 389.896 292.246 389.898 293.004V363.552C389.895 364.31 389.593 365.036 389.057 365.571C388.52 366.107 387.794 366.409 387.036 366.411Z" fill="#AFA0A1"/>
<path d="M393.048 282.272C393.048 280.612 391.703 279.267 390.044 279.267C388.384 279.267 387.039 280.612 387.039 282.272V366.125C387.039 367.785 388.384 369.131 390.044 369.131C391.703 369.131 393.048 367.785 393.048 366.125V282.272Z" fill="#776F70"/>
<mask id="mask17_380_3040" style="mask-type:alpha" maskUnits="userSpaceOnUse" x="363" y="363" width="25" height="13">
<path d="M386.577 364.122C386.577 364.122 368.262 359.829 363.682 373.281C363.682 376.715 366.258 375.57 366.258 375.57C366.258 375.57 373.412 366.698 386.577 369.559C388.581 366.411 386.577 364.122 386.577 364.122Z" fill="#877B7C"/>
</mask>
<g mask="url(#mask17_380_3040)">
<path d="M386.577 364.122C386.577 364.122 368.262 359.829 363.682 373.281C363.682 376.715 366.258 375.57 366.258 375.57C366.258 375.57 373.412 366.698 386.577 369.559C388.581 366.411 386.577 364.122 386.577 364.122Z" fill="#877B7C"/>
<path d="M362.999 376.572C362.999 376.572 368.15 364.837 384.606 366.411C402.207 364.841 410.793 373.136 410.22 375.713C409.647 378.29 388.757 388.589 388.757 388.589L362.999 376.572Z" fill="#605859"/>
<path d="M387.467 364.121C387.467 364.121 405.784 359.828 410.363 373.281C410.363 376.715 407.788 375.57 407.788 375.57C407.788 375.57 400.632 366.698 387.467 369.559C385.465 366.411 387.467 364.121 387.467 364.121Z" fill="#877B7C"/>
</g>
<mask id="mask18_380_3040" style="mask-type:alpha" maskUnits="userSpaceOnUse" x="386" y="363" width="25" height="13">
<path d="M387.468 364.122C387.468 364.122 405.785 359.829 410.363 373.281C410.363 376.715 407.788 375.57 407.788 375.57C407.788 375.57 400.633 366.698 387.468 369.559C385.466 366.411 387.468 364.122 387.468 364.122Z" fill="#877B7C"/>
</mask>
<g mask="url(#mask18_380_3040)">
<path d="M387.468 364.122C387.468 364.122 405.785 359.829 410.363 373.281C410.363 376.715 407.788 375.57 407.788 375.57C407.788 375.57 400.633 366.698 387.468 369.559C385.466 366.411 387.468 364.122 387.468 364.122Z" fill="#877B7C"/>
<path d="M385.329 366.353C385.329 366.353 404.78 363.979 409.647 373.424C414.515 382.868 403.637 378.291 403.637 378.291L384.177 371.987L385.329 366.353Z" fill="#605859"/>
</g>
<path d="M430.035 280.124H345.761C343.743 280.124 342.107 281.76 342.107 283.778V291.638C342.107 293.656 343.743 295.292 345.761 295.292H430.035C432.053 295.292 433.689 293.656 433.689 291.638V283.778C433.689 281.76 432.053 280.124 430.035 280.124Z" fill="#350C0E"/>
<path d="M387.035 376.715C386.391 376.713 385.773 376.456 385.317 376C384.861 375.544 384.605 374.926 384.603 374.281V363.979C384.605 363.334 384.861 362.716 385.317 362.261C385.773 361.805 386.391 361.548 387.035 361.546C387.68 361.548 388.298 361.805 388.753 362.261C389.209 362.716 389.466 363.334 389.468 363.979V374.281C389.466 374.926 389.209 375.544 388.753 376C388.298 376.456 387.68 376.713 387.035 376.715Z" fill="#877B7C"/>
<path d="M347.399 48.0382C347.399 48.0382 390.95 76.1232 462.182 63.5049C533.414 50.8866 504.921 3.46886 470.322 0.212212C435.724 -3.04444 414.151 32.3673 379.96 23.8206C345.77 15.2738 303.439 25.4489 347.399 48.0382Z" fill="#FFD1AC"/>
<path d="M473.323 115.3C495.83 115.3 514.076 97.0544 514.076 74.5467C514.076 52.0391 495.83 33.7931 473.323 33.7931C450.815 33.7931 432.569 52.0391 432.569 74.5467C432.569 97.0544 450.815 115.3 473.323 115.3Z" fill="#C99C6B"/>
<path d="M473.323 106.455C490.945 106.455 505.231 92.1695 505.231 74.5469C505.231 56.9243 490.945 42.6383 473.323 42.6383C455.7 42.6383 441.414 56.9243 441.414 74.5469C441.414 92.1695 455.7 106.455 473.323 106.455Z" fill="white"/>
<path d="M498.301 96.9985C510.7 84.5993 510.7 64.4964 498.301 52.0972C485.901 39.6981 465.799 39.6981 453.399 52.0972C441 64.4963 441 84.5993 453.399 96.9985C465.798 109.398 485.901 109.398 498.301 96.9985Z" fill="#EDDEA2"/>
<path d="M473.323 56.5394V74.5468L462.265 89.0792" stroke="black" stroke-width="3" stroke-miterlimit="10"/>
</svg>
