<svg width="20" height="20" viewBox="0 0 20 20" fill="none" xmlns="http://www.w3.org/2000/svg">
<path d="M18.9998 8.05691L16.8567 10.2395C15.9432 11.1448 14.7165 11.6473 13.442 11.6384C12.1674 11.6296 10.9476 11.11 10.0464 10.192C9.14522 9.27414 8.63515 8.03177 8.62657 6.73376C8.618 5.43575 9.11161 4.1865 10.0006 3.25634L12.1429 1.07373" stroke="#343637" stroke-linecap="round" stroke-linejoin="round"/>
<path d="M7.85686 19.4053L10.0008 17.2227C10.9101 16.2966 11.4208 15.0405 11.4208 13.7308C11.4207 12.4211 10.9098 11.1651 10.0004 10.2391C9.5501 9.78059 9.01555 9.41688 8.42725 9.16875C7.83895 8.92062 7.20843 8.79293 6.57167 8.79297C5.28568 8.79305 4.0524 9.31339 3.14312 10.2395L1 12.4221" stroke="#343637" stroke-linecap="round" stroke-linejoin="round"/>
<path d="M18.5717 8.49377L11.7148 1.50977" stroke="#343637" stroke-linecap="round" stroke-linejoin="round"/>
<path d="M16.8569 10.2393L10 3.2561" stroke="#343637" stroke-linecap="round" stroke-linejoin="round"/>
<path d="M12.143 8.93021L8.74487 5.46948" stroke="#343637" stroke-linecap="round" stroke-linejoin="round"/>
<path d="M1 12.4221L3.14312 10.2395C4.0524 9.31339 5.28568 8.79305 6.57167 8.79297C7.85766 8.79289 9.091 9.31309 10.0004 10.2391C10.9098 11.1651 11.4207 12.4211 11.4208 13.7308C11.4208 15.0405 10.9101 16.2966 10.0008 17.2227L7.85686 19.4053" stroke="#343637" stroke-linecap="round" stroke-linejoin="round"/>
<path d="M1.42896 11.9851L8.28581 18.9691" stroke="#343637" stroke-linecap="round" stroke-linejoin="round"/>
<path d="M3.14282 10.2395L9.99968 17.2227" stroke="#343637" stroke-linecap="round" stroke-linejoin="round"/>
<path d="M7.85669 11.5491L11.2556 15.0098" stroke="#343637" stroke-linecap="round" stroke-linejoin="round"/>
</svg>
