<svg width="662" height="375" viewBox="0 0 662 375" fill="none" xmlns="http://www.w3.org/2000/svg">
<path d="M617.76 248.884C617.326 250.643 616.871 252.386 616.396 254.115C606.556 290.182 589.618 319.62 581.115 332.99C577.929 338 575.928 340.753 575.928 340.753L571.605 347.668L571.595 347.687L568.072 353.321L473.284 357.225L255.063 366.214L235.673 367.012L227.496 367.35L226.338 367.396L199.736 368.493L166.978 369.841L157.488 370.232C143.33 370.815 128.759 372.348 114.295 372.816C103.763 373.154 93.2896 372.925 83.0856 371.346C72.2247 369.668 61.6755 366.464 51.6817 360.788C35.1679 351.413 22.2399 336.698 13.4425 319.321C12.1007 316.672 10.8569 313.964 9.71125 311.198C9.70516 311.189 9.70044 311.178 9.69723 311.168C8.06022 307.22 6.62771 303.191 5.40541 299.097C3.05215 291.205 1.45782 283.106 0.644124 274.912C0.607337 274.549 0.574054 274.188 0.540771 273.827C0.356252 271.833 0.220195 269.834 0.132607 267.831C0.0275011 265.564 -0.0151217 263.295 0.00473163 261.024C0.0152422 259.506 0.0543619 257.987 0.122097 256.469C0.726455 242.581 3.61512 228.816 8.97726 216.072C9.19798 215.546 9.42221 215.021 9.65519 214.495C10.6303 212.268 11.6855 210.077 12.8206 207.921C22.5324 189.436 37.9462 173.725 59.689 163.86C64.3262 161.761 69.0994 159.976 73.9764 158.518C75.1992 158.15 76.4488 157.826 77.7252 157.545C97.408 153.166 123.148 157.896 138.75 148.277C141.88 146.378 144.568 143.832 146.633 140.809C148.717 137.757 150.324 134.03 151.341 129.465C151.798 127.391 152.122 125.29 152.314 123.176C152.331 123.023 152.343 122.873 152.352 122.724C153.648 105.648 136.553 93.711 138.941 76.6524C139.007 76.1864 139.084 75.7169 139.181 75.2422C139.545 73.4314 140.028 71.6465 140.628 69.8993C141.111 68.4795 141.668 67.0856 142.295 65.7231C143.355 63.4265 144.588 61.214 145.984 59.105C146.654 58.0854 147.362 57.084 148.109 56.1007C148.439 55.6639 148.776 55.2307 149.12 54.8009C162.318 38.308 185.129 27.088 202.939 20.1388C251.91 1.03053 304.522 -3.49252 356.527 2.44596L357.473 2.55632C420.65 9.91372 482.899 32.6866 536.65 63.4704C575.289 85.5969 598.396 111.985 611.035 139.551C614.424 146.941 617.153 154.615 619.192 162.485C620.101 165.982 620.872 169.485 621.504 172.996C621.537 173.171 621.571 173.36 621.602 173.542C622.321 177.604 622.871 181.66 623.25 185.71C623.275 185.971 623.298 186.236 623.322 186.491C623.399 187.355 623.469 188.222 623.531 189.084C623.775 192.414 623.914 195.732 623.948 199.039C624.146 216.284 621.676 233.151 617.76 248.884Z" fill="#FEEAD2"/>
<path d="M619.192 162.478C498.32 164.743 377.611 152.94 256.752 148.923C217.512 147.62 178.08 147.171 138.741 148.271C141.871 146.373 144.559 143.827 146.624 140.804C299.439 133.86 452.419 129.456 604.995 139.145C607.004 139.273 609.016 139.406 611.032 139.544C614.422 146.934 617.152 154.608 619.192 162.478Z" fill="#F1D5B8"/>
<g opacity="0.72">
<path d="M617.76 248.884C617.326 250.643 616.871 252.386 616.396 254.115C413.814 281.305 209.785 296.326 5.40546 299.096C3.0522 291.205 1.45786 283.106 0.644165 274.912C206.357 266.366 412.063 257.691 617.76 248.884Z" fill="#F1D5B8"/>
</g>
<g opacity="0.72">
<path d="M623.953 199.024C586.264 204.671 547.641 204.608 509.629 204.053C496.27 203.858 481.754 201.982 468.503 203.771C458.681 205.095 449.984 208.702 439.837 209.49C410.291 211.783 380.753 214.22 351.224 216.8C237.265 226.908 123.59 239.717 10.2 255.227C6.85934 255.684 3.49595 256.143 0.132568 256.467C0.736927 242.579 3.62559 228.814 8.98773 216.07C9.20846 215.544 9.43268 215.019 9.66567 214.493C214.352 217.23 418.823 197.07 623.536 189.07C623.777 192.4 623.916 195.717 623.953 199.024Z" fill="#F1D5B8"/>
</g>
<path d="M115.779 119.76C115.647 120.038 115.513 120.312 115.371 120.581C114.992 121.314 114.575 122.027 114.127 122.719C112.447 125.268 110.383 127.542 108.006 129.459C95.658 139.572 74.7227 142.343 61.2534 137.298C55.5812 135.175 51.9218 132.469 49.867 129.459C48.4834 127.483 47.7393 125.131 47.7351 122.719C47.6965 111.609 62.4779 99.3675 75.9875 96.9308C91.0229 94.2173 127.999 93.8249 115.779 119.76Z" fill="#FEEAD2"/>
<path d="M30.8673 162.951C20.6423 165.102 16.5326 151.5 23.7009 145.357C26.057 143.337 29.4291 142.485 32.4054 143.367C42.1522 146.253 40.1131 161.005 30.8673 162.951Z" fill="#FEEAD2"/>
<path d="M602.203 89.5857C605.016 87.2821 605.808 81.6922 605.766 78.3411C605.672 70.7052 600.898 63.4511 592.67 63.4704C574.728 63.5072 589.734 99.7144 602.187 89.5979L602.203 89.5857Z" fill="#FEEAD2"/>
<path d="M620.8 300.536C619.454 302.791 618.095 305.039 616.755 307.297C614.005 311.926 608.32 321.146 615.704 324.518C622.947 327.824 628.411 321.498 632.633 316.635C637.554 310.953 641.951 304.838 645.771 298.364C656.755 279.764 665.465 255.993 660.157 234.271C659.782 232.738 659.298 231.16 658.205 230.019C652.17 223.729 645.547 238.857 644.331 242.665C640.348 255.138 636.389 268.094 631.368 280.374C628.474 287.421 624.696 294.016 620.8 300.536Z" fill="#FEEAD2"/>
<path d="M235.671 124.519V367.014C232.945 367.125 230.221 367.237 227.497 367.35C227.112 367.364 226.725 367.38 226.339 367.398L199.735 368.493L166.977 369.841L157.488 370.232C143.332 370.815 128.759 372.35 114.295 372.816C103.762 373.154 93.2896 372.925 83.0856 371.346C72.2246 369.668 61.6773 366.464 51.6817 360.788C35.1678 351.413 22.2398 336.698 13.4425 319.321C12.1006 316.672 10.8563 313.964 9.70947 311.198C9.70464 311.188 9.70054 311.178 9.6972 311.168C4.78668 299.249 1.70102 286.658 0.544244 273.819C0.359725 271.824 0.223088 269.825 0.134332 267.822C0.0327295 265.555 -0.00989867 263.286 0.00645112 261.015C0.129075 245.599 3.03525 230.203 8.97898 216.07C10.1468 213.301 11.4285 210.583 12.8241 207.917C22.5324 189.436 37.9444 173.725 59.689 163.86C64.3266 161.76 69.1005 159.975 73.9781 158.518C75.1974 158.15 76.4464 157.826 77.7252 157.545C104.99 151.477 143.872 162.878 151.336 129.465C151.793 127.391 152.118 125.29 152.31 123.176C152.324 123.025 152.336 122.873 152.347 122.724H233.872C234.108 122.724 234.342 122.77 234.56 122.86C234.778 122.95 234.976 123.082 235.143 123.249C235.311 123.416 235.443 123.614 235.534 123.832C235.624 124.05 235.671 124.283 235.671 124.519Z" fill="#CEAA91"/>
<path d="M227.497 131.26V367.35C227.112 367.364 226.725 367.38 226.339 367.398L199.735 368.493L166.977 369.841L157.488 370.232C143.332 370.815 128.759 372.35 114.295 372.816C103.762 373.154 93.2896 372.925 83.0856 371.346C72.2246 369.668 61.6773 366.464 51.6817 360.788C35.1678 351.413 22.2398 336.698 13.4425 319.321C12.1006 316.672 10.8563 313.964 9.70947 311.198C9.70464 311.188 9.70054 311.178 9.6972 311.168C4.78668 299.249 1.70102 286.658 0.544244 273.819C0.359725 271.824 0.223088 269.825 0.134332 267.822C0.0327295 265.555 -0.00989867 263.286 0.00645112 261.015C0.129075 245.599 3.03525 230.203 8.97898 216.07C10.1468 213.301 11.4285 210.583 12.8241 207.917C22.5324 189.436 37.9444 173.725 59.689 163.86C64.3266 161.76 69.1005 159.975 73.9781 158.518C75.1974 158.15 76.4464 157.826 77.7252 157.545C104.99 151.477 143.872 162.878 151.336 129.465H225.697C226.173 129.465 226.631 129.654 226.968 129.99C227.306 130.327 227.496 130.783 227.497 131.26Z" fill="#F1D5B8"/>
<path d="M57.4554 300.584L53.6541 306.937L51.1053 311.199H38.4418L49.6723 292.429L53.0427 286.794L57.4554 300.584Z" fill="#6D4744"/>
<path d="M98.34 311.2H57.6255L55.0785 300.584L51.7694 286.794L47.856 270.483H88.5704L98.34 311.2Z" fill="#9B7962"/>
<path d="M91.494 305.678H61.8209L54.7 276.005H84.3748L91.494 305.678Z" fill="#CEAA91"/>
<path d="M227.497 207.917V216.063H8.98083C10.1487 213.294 11.4304 210.576 12.826 207.91L227.497 207.917Z" fill="#CEAA91"/>
<path d="M227.497 311.168V319.321H13.4442C12.1024 316.672 10.8581 313.964 9.71123 311.198C9.7064 311.188 9.70231 311.178 9.69897 311.168H227.497Z" fill="#CEAA91"/>
<path d="M210.514 207.916H226.448C227.029 207.916 227.499 207.445 227.499 206.864V156.163C227.499 155.583 227.029 155.112 226.448 155.112H210.514C209.934 155.112 209.463 155.583 209.463 156.163V206.864C209.463 207.445 209.934 207.916 210.514 207.916Z" fill="#FFAE41"/>
<g opacity="0.57">
<path d="M210.514 310.977H226.448C227.028 310.977 227.499 310.506 227.499 309.926V259.225C227.499 258.644 227.028 258.174 226.448 258.174H210.514C209.933 258.174 209.463 258.644 209.463 259.225V309.926C209.463 310.506 209.933 310.977 210.514 310.977Z" fill="#7A7A7A"/>
</g>
<path d="M192.478 207.916H208.412C208.992 207.916 209.463 207.445 209.463 206.864V156.163C209.463 155.583 208.992 155.112 208.412 155.112H192.478C191.897 155.112 191.427 155.583 191.427 156.163V206.864C191.427 207.445 191.897 207.916 192.478 207.916Z" fill="white"/>
<path d="M114.043 310.977H129.977C130.557 310.977 131.028 310.506 131.028 309.926V259.225C131.028 258.644 130.557 258.174 129.977 258.174H114.043C113.462 258.174 112.992 258.644 112.992 259.225V309.926C112.992 310.506 113.462 310.977 114.043 310.977Z" fill="#EBEBEB"/>
<path d="M77.7252 157.54V206.836C77.7247 207.123 77.6107 207.398 77.4081 207.6C77.2055 207.803 76.9308 207.917 76.6443 207.917H60.7611C60.4747 207.917 60.2003 207.803 59.998 207.6C59.7956 207.397 59.682 207.123 59.682 206.836V163.86C62.1415 162.74 64.6833 161.699 67.3074 160.737C69.4703 159.942 71.6892 159.202 73.9641 158.518C75.195 158.146 76.4487 157.82 77.7252 157.54Z" fill="#FFAE41"/>
<path d="M143.29 191.407V207.283C143.288 207.567 143.174 207.838 142.974 208.039C142.773 208.239 142.502 208.353 142.218 208.355H91.5659C91.2797 208.355 91.0052 208.241 90.8029 208.039C90.6005 207.837 90.4868 207.562 90.4868 207.276V191.4C90.4866 191.258 90.5143 191.118 90.5685 190.986C90.6226 190.855 90.702 190.736 90.8023 190.636C90.9025 190.535 91.0215 190.456 91.1525 190.401C91.2836 190.347 91.424 190.319 91.5659 190.319H142.218C142.504 190.321 142.778 190.437 142.979 190.641C143.18 190.845 143.292 191.121 143.29 191.407Z" fill="white"/>
<path d="M131.026 176.706V186.323C131.026 187.438 130.583 188.508 129.795 189.296C129.006 190.085 127.937 190.527 126.822 190.527H82.4338C81.3188 190.527 80.2495 190.085 79.461 189.296C78.6726 188.508 78.2296 187.438 78.2296 186.323V176.706C78.2303 176.447 78.2543 176.188 78.3014 175.934C78.4808 174.967 78.9928 174.095 79.7487 173.467C80.5046 172.839 81.4565 172.496 82.4391 172.497H126.824C127.806 172.496 128.757 172.839 129.513 173.467C130.268 174.095 130.78 174.968 130.959 175.934C131.006 176.188 131.028 176.447 131.026 176.706Z" fill="#006C60"/>
<path d="M130.954 175.934C130.775 176.899 130.263 177.772 129.508 178.4C128.752 179.028 127.801 179.371 126.818 179.371H82.434C81.9261 179.471 81.4023 179.458 80.9002 179.331C80.3981 179.205 79.9302 178.969 79.5301 178.641C79.1301 178.312 78.8079 177.899 78.5867 177.431C78.3655 176.963 78.2507 176.451 78.2507 175.934C78.2507 175.416 78.3655 174.905 78.5867 174.436C78.8079 173.968 79.1301 173.555 79.5301 173.227C79.9302 172.898 80.3981 172.662 80.9002 172.536C81.4023 172.41 81.9261 172.396 82.434 172.497H126.818C127.801 172.496 128.752 172.84 129.508 173.467C130.263 174.095 130.775 174.968 130.954 175.934Z" fill="#FFAE41"/>
<path d="M190.863 171.948L155.051 207.758C154.951 207.858 154.832 207.938 154.701 207.992C154.57 208.047 154.43 208.075 154.288 208.075C154.146 208.075 154.005 208.047 153.874 207.992C153.743 207.938 153.624 207.858 153.524 207.758L142.299 196.533C142.198 196.432 142.118 196.313 142.064 196.182C142.01 196.051 141.982 195.911 141.982 195.769C141.982 195.627 142.01 195.486 142.064 195.355C142.118 195.224 142.198 195.105 142.299 195.005L178.108 159.195C178.208 159.095 178.327 159.015 178.458 158.961C178.59 158.907 178.73 158.879 178.872 158.879C179.014 158.879 179.154 158.907 179.285 158.961C179.416 159.015 179.535 159.095 179.636 159.195L187.473 167.035L190.863 170.423C191.065 170.625 191.178 170.899 191.178 171.185C191.178 171.471 191.065 171.746 190.863 171.948Z" fill="#FFAE41"/>
<path d="M209.684 273.682L198.417 262.415C198.007 262.005 197.341 262.005 196.931 262.415L161.08 298.266C160.669 298.677 160.669 299.342 161.08 299.753L172.347 311.02C172.757 311.43 173.423 311.43 173.833 311.02L209.684 275.169C210.095 274.758 210.095 274.093 209.684 273.682Z" fill="#EBEBEB"/>
<path d="M181.692 271.448L174.892 264.648C174.501 264.256 174.037 263.945 173.526 263.733C173.015 263.521 172.467 263.411 171.914 263.411C171.361 263.411 170.813 263.521 170.302 263.733C169.791 263.945 169.327 264.256 168.936 264.648L137.553 296.033C137.161 296.423 136.85 296.887 136.638 297.398C136.426 297.909 136.317 298.457 136.317 299.011C136.317 299.564 136.426 300.112 136.638 300.623C136.85 301.134 137.161 301.598 137.553 301.989L144.354 308.789C144.744 309.181 145.208 309.492 145.719 309.704C146.23 309.916 146.778 310.026 147.332 310.026C147.885 310.026 148.433 309.916 148.944 309.704C149.455 309.492 149.919 309.181 150.31 308.789L181.694 277.406C182.086 277.015 182.397 276.551 182.61 276.04C182.822 275.529 182.931 274.98 182.931 274.427C182.931 273.873 182.821 273.325 182.609 272.814C182.396 272.303 182.085 271.839 181.692 271.448Z" fill="white"/>
<path d="M67.3144 160.732V207.917H60.7611C60.4747 207.917 60.2003 207.803 59.998 207.6C59.7956 207.397 59.682 207.123 59.682 206.836V163.86C62.1462 162.737 64.6903 161.694 67.3144 160.732Z" fill="#EF772C"/>
<path d="M143.29 191.407V195.879H90.4868V191.407C90.4866 191.265 90.5143 191.125 90.5685 190.993C90.6226 190.862 90.702 190.743 90.8023 190.643C90.9025 190.542 91.0215 190.463 91.1525 190.408C91.2836 190.354 91.424 190.326 91.5659 190.326H142.218C142.503 190.328 142.776 190.443 142.977 190.646C143.178 190.848 143.29 191.122 143.29 191.407Z" fill="#CEAA91"/>
<path d="M190.863 171.948L155.051 207.758C154.951 207.858 154.832 207.938 154.701 207.992C154.57 208.047 154.43 208.075 154.288 208.075C154.146 208.075 154.005 208.047 153.874 207.992C153.743 207.938 153.624 207.858 153.524 207.758L142.299 196.533C142.198 196.432 142.118 196.313 142.064 196.182C142.01 196.051 141.982 195.911 141.982 195.769C141.982 195.627 142.01 195.486 142.064 195.355C142.118 195.224 142.198 195.105 142.299 195.005L142.861 194.443C148.281 195.86 157.33 198.624 157.33 198.624L187.473 167.035L190.863 170.423C191.065 170.625 191.178 170.899 191.178 171.185C191.178 171.471 191.065 171.746 190.863 171.948Z" fill="#EF772C"/>
<path d="M581.623 347.69H579.679L478.602 347.503L422.134 347.398L372.332 347.307L371.923 343.088L371.41 337.798L370.585 329.29H370.573C368.054 333.118 365.547 337.499 362.8 340.752C362.665 340.913 362.529 341.07 362.392 341.225C360.115 343.81 357.662 345.573 354.886 345.573H226.569C226.569 345.573 223.416 312.44 224.467 312.046C225.518 311.651 235.235 313.622 235.235 313.622C235.235 313.622 255.308 307.719 264.281 307.456C266.481 307.391 270.516 307.54 275.356 307.806C282.713 308.202 291.924 308.857 299.367 309.423C307.007 310.001 312.78 310.474 312.78 310.474C313.534 309.608 314.354 308.802 315.233 308.064C316.809 306.722 319.039 305.215 321.473 304.657C323.604 298.916 325.943 292.815 328.406 286.698C331.992 277.786 335.844 268.842 339.703 260.947C346.264 247.512 352.841 237.077 358.198 234.912C367.731 231.046 377.356 231.627 384.138 232.955C389.79 234.062 393.468 235.688 393.468 235.688C393.468 235.688 393.593 235.5 393.819 235.194C394.589 234.167 396.546 231.79 398.972 230.583C399.552 230.289 401.775 229.862 405.032 229.357C405.852 229.231 406.738 229.1 407.68 228.965C412.697 228.245 419.33 227.413 426.191 226.607C426.4 226.582 426.61 226.559 426.818 226.533C441.092 224.867 456.164 223.331 459.613 223.165H459.624C464.772 222.914 469.419 225.277 471.304 226.391C471.875 226.731 472.194 226.955 472.194 226.955C472.194 226.955 504.922 227.314 520.828 239.463C521.715 240.137 522.56 240.865 523.36 241.64C525.539 243.798 527.593 246.079 529.51 248.472L529.95 249.021C533.667 253.67 537.433 259.146 541.145 265.091C541.445 265.573 541.748 266.06 542.046 266.549C542.221 266.831 542.396 267.115 542.571 267.398C545.42 272.067 548.231 276.987 550.959 281.999C554.228 288.008 557.379 294.146 560.336 300.142C562.184 303.889 563.955 307.579 565.632 311.145C568.457 317.162 571.015 322.829 573.215 327.82C578.36 339.496 581.539 347.501 581.623 347.697V347.69Z" fill="#FFAE41"/>
<path d="M340.316 333.606C347.283 337.148 354.759 339.501 362.401 341.226C360.123 343.812 357.671 345.574 354.894 345.574H322.795C313.852 334.295 306.005 322.188 299.362 309.418C307.001 309.996 312.775 310.469 312.775 310.469C313.528 309.603 314.348 308.797 315.227 308.059C315.371 308.409 315.52 308.759 315.672 309.11C320.421 319.93 329.788 328.251 340.316 333.606Z" fill="#CE101D"/>
<path d="M471.315 226.381C471.056 227.415 470.692 228.421 470.23 229.382C470.23 229.382 459.208 253.395 445.825 257.725C432.441 262.056 409.712 245.128 409.712 245.128L402.243 240.449L393.834 235.182C394.605 234.155 396.562 231.778 398.988 230.571C399.568 230.277 401.791 229.849 405.047 229.345C405.867 229.219 406.754 229.087 407.696 228.952C412.713 228.232 419.345 227.4 426.207 226.595C426.415 226.57 426.626 226.547 426.834 226.521C441.107 224.855 456.18 223.319 459.629 223.152H459.639C464.782 222.904 469.43 225.267 471.315 226.381Z" fill="#EF772C"/>
<path d="M542.577 267.39C538.926 271.454 534.413 274.747 529.789 277.713C519.663 284.189 508.743 289.33 497.301 293.007C497.268 292.849 497.245 292.69 497.231 292.529C497.087 291.021 497.432 288.535 497.756 287.295C499.814 279.431 500.872 273.901 500.426 265.785C502.549 264.806 504.663 263.806 506.769 262.784C510.024 261.204 513.254 259.575 516.46 257.897C521.209 255.408 526.075 252.642 529.962 249.01C533.679 253.659 537.446 259.135 541.158 265.081C541.457 265.563 541.76 266.05 542.058 266.538C542.23 266.82 542.405 267.104 542.577 267.39Z" fill="#CE101D"/>
<path d="M560.341 300.132C553.032 303.357 545.495 306.041 537.792 308.162C531.85 309.8 525.682 311.152 520.513 314.51C513.373 319.151 509.048 327 502.969 332.965C497.162 338.664 489.878 342.502 482.487 345.734C481.217 346.289 479.923 346.909 478.611 347.5L422.143 347.394L372.34 347.303L371.932 343.085C372.69 343.212 373.449 343.337 374.209 343.458C393.566 346.548 413.775 347.573 432.436 341.573C444.621 337.655 455.656 330.907 467.035 325.051C486.933 314.812 508.135 307.195 527.637 296.22C535.552 291.767 543.205 286.761 550.967 281.989C554.233 287.997 557.386 294.136 560.341 300.132Z" fill="#CE101D"/>
<path d="M506.816 262.535C505.942 266.929 505.295 271.365 504.879 275.826C504.528 279.64 504.297 283.485 504.178 287.353C504.178 287.612 504.162 287.878 504.155 288.134C504.125 289.171 501.834 287.095 501.82 288.134C499.45 288.682 499.324 292.245 496.915 292.599C496.255 292.697 495.601 292.823 494.95 292.974C490.407 294.015 486.061 296.192 481.61 297.688C470.015 301.585 458.227 304.88 446.293 307.561C423.143 312.76 398.995 315.619 375.716 311.042C358.084 307.572 340.931 299.359 328.418 286.692C332.004 277.781 335.856 268.837 339.715 260.941C340.978 262.028 342.139 263.226 343.186 264.522C347.362 269.672 350.222 275.858 354.894 280.561C362.343 288.062 373.351 290.77 383.883 291.664C404.658 293.426 425.44 289.33 445.054 282.67C464.527 276.056 484.444 271.301 503.686 263.784L504.09 263.625C504.998 263.263 505.906 262.9 506.816 262.535Z" fill="#CE101D"/>
<g opacity="0.29">
<path d="M504.08 291.247C504.019 294.936 504.043 298.643 504.131 302.353C504.281 308.917 504.625 315.491 505.035 322.031C504.056 322.906 503.029 323.725 501.957 324.483C501.157 325.047 500.333 325.573 499.487 326.06C493.844 329.325 487.345 331.003 480.985 332.618L439.401 343.18C433.691 344.63 427.931 346.084 422.143 347.405L372.34 347.314L371.419 337.805L412.272 318.571C413.379 318.045 414.663 317.52 415.775 318.028C416.432 318.324 416.888 318.927 417.352 319.47C421.607 324.36 428.892 325.588 435.264 324.388C441.635 323.189 447.41 319.971 453.258 317.173C462.334 312.83 471.826 309.416 480.837 304.932C485.452 302.633 489.969 300.016 494.105 296.94C494.361 295.62 494.636 294.302 494.929 292.985C497.23 282.549 500.534 272.314 503.668 263.788C508.223 251.384 512.416 242.62 512.621 242.196C508.547 253.011 505.939 264.323 504.866 275.83C504.516 279.643 504.285 283.488 504.166 287.356C504.166 287.616 504.15 287.882 504.143 288.138C504.117 289.172 504.096 290.209 504.08 291.247Z" fill="#270A04"/>
</g>
<path d="M504.63 286.768C504.455 287.218 504.295 287.673 504.148 288.134C504.148 287.873 504.162 287.608 504.171 287.353C504.327 287.158 504.483 286.964 504.63 286.768Z" fill="black"/>
<g opacity="0.29">
<path d="M370.587 329.283C368.068 333.111 365.561 337.492 362.814 340.745C355.882 315.833 358.207 241.618 358.207 241.618C358.21 290.289 370.587 329.283 370.587 329.283Z" fill="#270A04"/>
</g>
<path d="M463.936 226.945C463.936 226.945 456.134 245.123 444.085 249.854C437.444 252.452 426.28 247.884 417.578 243.273C414.17 241.449 411.14 239.624 408.913 238.217C406.51 236.702 405.042 235.676 405.042 235.676V203.801L440.762 198.491H440.78L441.713 198.351L447.4 197.505C448.035 199.537 448.626 202.289 449.577 205.417C449.668 205.722 449.764 206.029 449.864 206.341C450.353 207.87 450.931 209.475 451.641 211.125C453.532 215.6 456.243 219.683 459.634 223.163C460.976 224.524 462.414 225.788 463.936 226.945Z" fill="#FFA897"/>
<path d="M451.641 211.116C446.617 210.878 441.843 208.954 438.692 205.037C438.925 202.543 440.123 200.32 441.713 198.342L447.4 197.496C448.036 199.528 448.626 202.28 449.577 205.409C449.668 205.714 449.765 206.02 449.864 206.332C450.353 207.861 450.931 209.466 451.641 211.116Z" fill="#FF7D65"/>
<path d="M506.059 337.239L499.495 326.049C500.34 325.563 501.163 325.038 501.965 324.473C503.037 323.715 504.065 322.896 505.043 322.02C505.358 327.135 505.709 332.214 506.059 337.239Z" fill="black"/>
<path d="M558.906 310.926C546.595 302.992 537.936 311.681 530.456 313.242C522.976 314.803 506.445 306.368 494.046 313.242C481.647 320.116 481.645 317.755 481.645 317.755C481.645 317.755 468.656 327.659 475.349 347.493L581.63 347.687C581.63 347.687 588.714 332.534 565.412 310.926H558.906Z" fill="#FFAE41"/>
<path d="M454.78 280.186L426.731 331.481L425.855 337.239L430.283 333.261L459.215 282.327C459.215 282.327 457.886 279.669 454.78 280.186Z" fill="#B4B4B4"/>
<path d="M425.848 337.327C425.833 337.327 425.819 337.323 425.806 337.316C425.79 337.308 425.777 337.294 425.769 337.278C425.762 337.262 425.759 337.243 425.762 337.225L426.638 331.469C426.64 331.459 426.643 331.449 426.648 331.439L454.698 280.144C454.704 280.132 454.713 280.122 454.724 280.115C454.735 280.107 454.747 280.102 454.761 280.1C457.888 279.575 459.268 282.26 459.282 282.288C459.288 282.301 459.292 282.315 459.292 282.329C459.292 282.344 459.288 282.358 459.282 282.371L430.35 333.305L430.331 333.326L425.902 337.304C425.887 337.318 425.868 337.326 425.848 337.327ZM426.815 331.511L425.972 337.01L430.208 333.205L459.112 282.325C458.937 281.999 457.6 279.829 454.839 280.265L426.815 331.511Z" fill="#292929"/>
<path d="M481.359 320.412C481.359 320.412 477.227 319.23 474.864 319.23C472.501 319.23 457.903 308.433 452.951 307.633C447.999 306.832 439.082 314.211 434.537 315.391C429.991 316.572 430.285 322.477 427.628 324.839C424.97 327.2 428.808 329.857 432.056 327.202C432.056 327.202 431.171 330.19 433.237 332.534C433.237 332.534 432.361 335.763 433.237 337.239H485.844C485.844 337.239 486.665 327.202 481.359 320.412Z" fill="#FFA897"/>
<path d="M432.047 327.561C431.976 327.561 431.906 327.54 431.847 327.5C431.788 327.46 431.742 327.404 431.715 327.338C431.688 327.272 431.681 327.2 431.695 327.13C431.71 327.06 431.744 326.996 431.795 326.946L436.525 322.272C436.565 322.232 436.614 322.202 436.668 322.185L448.773 318.298C448.864 318.269 448.963 318.277 449.047 318.32C449.132 318.364 449.196 318.44 449.225 318.531C449.254 318.621 449.246 318.72 449.202 318.805C449.158 318.89 449.083 318.953 448.992 318.983L436.97 322.836L432.31 327.458C432.275 327.491 432.234 327.518 432.189 327.536C432.144 327.553 432.096 327.562 432.047 327.561Z" fill="#FF7D65"/>
<path d="M433.228 332.893C433.146 332.892 433.067 332.864 433.004 332.812C432.94 332.76 432.896 332.688 432.879 332.608C432.862 332.528 432.873 332.444 432.909 332.371C432.946 332.298 433.007 332.239 433.081 332.205L440.314 328.954C440.34 328.943 440.367 328.935 440.394 328.929L450.285 327.069C450.334 327.051 450.386 327.045 450.438 327.049C450.49 327.054 450.54 327.07 450.585 327.096C450.63 327.122 450.669 327.157 450.7 327.199C450.73 327.242 450.751 327.29 450.76 327.341C450.77 327.392 450.769 327.445 450.756 327.496C450.743 327.546 450.72 327.593 450.688 327.634C450.655 327.675 450.614 327.708 450.568 327.731C450.521 327.755 450.47 327.768 450.418 327.769L440.57 329.621L433.377 332.855C433.331 332.878 433.28 332.891 433.228 332.893Z" fill="#FF7D65"/>
<path d="M433.228 337.599C433.139 337.599 433.054 337.567 432.988 337.508C432.922 337.449 432.879 337.368 432.869 337.28C432.859 337.192 432.882 337.103 432.934 337.031C432.985 336.959 433.061 336.908 433.147 336.889L440.38 335.216L440.445 335.207L450.336 334.764C450.384 334.759 450.434 334.765 450.48 334.779C450.527 334.794 450.57 334.819 450.607 334.851C450.645 334.883 450.675 334.922 450.696 334.966C450.717 335.01 450.729 335.059 450.732 335.108C450.734 335.157 450.726 335.205 450.708 335.251C450.691 335.297 450.664 335.339 450.63 335.374C450.596 335.409 450.555 335.437 450.51 335.456C450.465 335.475 450.416 335.485 450.367 335.484L440.51 335.926L433.31 337.59C433.283 337.596 433.256 337.599 433.228 337.599Z" fill="#FF7D65"/>
<path d="M457.732 327.561C457.673 327.563 457.614 327.55 457.562 327.524C457.509 327.498 457.464 327.459 457.431 327.41C457.397 327.362 457.376 327.306 457.37 327.248C457.364 327.189 457.373 327.13 457.395 327.076C458.707 323.572 457.688 322.379 456.145 320.566C455.721 320.067 455.239 319.501 454.78 318.846C453.839 317.501 454.111 315.994 454.4 314.398C454.785 312.27 455.185 310.066 452.706 307.903C452.67 307.872 452.641 307.834 452.62 307.792C452.599 307.749 452.587 307.703 452.584 307.656C452.581 307.609 452.587 307.562 452.602 307.517C452.617 307.472 452.641 307.431 452.672 307.395C452.703 307.36 452.74 307.331 452.783 307.31C452.825 307.289 452.871 307.277 452.918 307.273C452.965 307.27 453.013 307.276 453.057 307.291C453.102 307.307 453.143 307.33 453.179 307.361C455.966 309.793 455.51 312.308 455.106 314.528C454.832 316.033 454.598 317.331 455.367 318.432C455.806 319.061 456.255 319.589 456.689 320.098C458.266 321.961 459.527 323.427 458.066 327.328C458.04 327.396 457.995 327.455 457.935 327.496C457.875 327.538 457.804 327.56 457.732 327.561Z" fill="#FF7D65"/>
<path d="M389.042 339.737H149.961C149.961 341.848 150.8 343.872 152.292 345.364C153.785 346.856 155.809 347.694 157.919 347.694H369.9C370.729 347.694 371.553 347.564 372.342 347.31L389.374 341.817C390.531 341.437 390.268 339.737 389.042 339.737Z" fill="#B4B4B4"/>
<path d="M369.9 347.774H157.919C155.788 347.771 153.744 346.924 152.237 345.417C150.729 343.911 149.879 341.869 149.873 339.737C149.873 339.714 149.883 339.692 149.899 339.676C149.915 339.659 149.938 339.65 149.961 339.65H389.042C389.317 339.65 389.583 339.748 389.792 339.927C390.001 340.106 390.139 340.353 390.181 340.625C390.223 340.897 390.167 341.175 390.022 341.409C389.878 341.643 389.654 341.817 389.392 341.901L372.359 347.393C371.564 347.647 370.735 347.776 369.9 347.774ZM150.054 339.818C150.08 341.889 150.921 343.866 152.393 345.322C153.866 346.778 155.852 347.596 157.923 347.599H369.904C370.724 347.599 371.539 347.471 372.319 347.219L389.352 341.726C389.573 341.654 389.762 341.506 389.884 341.307C390.006 341.109 390.053 340.873 390.017 340.643C389.98 340.413 389.863 340.203 389.686 340.052C389.509 339.901 389.283 339.818 389.05 339.818H150.054Z" fill="#292929"/>
<path d="M149.966 339.737C149.969 341.847 150.806 343.869 152.294 345.364C152.37 345.438 152.459 345.513 152.534 345.573C153.998 346.935 155.923 347.692 157.923 347.692H369.886C370.719 347.691 371.546 347.56 372.338 347.303L389.367 341.812C390.532 341.438 390.264 339.737 389.04 339.737H149.966Z" fill="#006C60"/>
<path d="M149.966 339.737C149.969 341.847 150.806 343.869 152.294 345.364C152.37 345.438 152.459 345.513 152.534 345.573H289.324C290.873 345.573 292.36 344.959 293.457 343.865C294.554 342.771 295.172 341.287 295.175 339.737H149.966Z" fill="#00433B"/>
<path d="M289.328 345.66H266.621C266.598 345.66 266.576 345.651 266.559 345.634C266.543 345.618 266.534 345.596 266.534 345.573C266.534 345.549 266.543 345.527 266.559 345.511C266.576 345.494 266.598 345.485 266.621 345.485H289.328C290.853 345.483 292.316 344.876 293.395 343.797C294.474 342.719 295.08 341.256 295.082 339.73C295.082 339.707 295.092 339.685 295.108 339.668C295.124 339.652 295.147 339.643 295.17 339.643C295.193 339.643 295.215 339.652 295.232 339.668C295.248 339.685 295.257 339.707 295.257 339.73C295.256 341.303 294.63 342.81 293.519 343.921C292.407 345.033 290.9 345.658 289.328 345.66Z" fill="#292929"/>
<path d="M107.183 241.6C107.197 241.66 107.213 241.735 107.227 241.795L135.004 338.585C135.705 341.018 138.333 342.989 140.869 342.989H285.794C288.333 342.989 289.823 341.018 289.138 338.585L261.338 241.795C260.637 239.361 258.025 237.391 255.473 237.391H110.548C108.087 237.391 106.594 239.256 107.183 241.6Z" fill="#006C60"/>
<path d="M107.183 241.6C107.197 241.66 107.213 241.735 107.227 241.795L135.004 338.585C135.705 341.018 138.333 342.989 140.869 342.989H284.84C284.824 342.929 284.81 342.854 284.794 342.794L257.011 246.004C256.31 243.571 253.683 241.6 251.146 241.6H107.183Z" fill="#00433B"/>
<path d="M190.146 291.583C190.74 295.285 192.863 298.601 196.54 299.894C203.421 302.315 211.469 298.357 209.125 290.196C207.298 283.826 196.439 275.057 191.304 282.698C189.628 285.193 189.691 288.714 190.146 291.583Z" fill="#006C60"/>
<g opacity="0.15">
<path d="M275.256 333.976L250.805 248.803C250.439 247.528 249.053 246.493 247.725 246.493H121.073L275.256 333.976Z" fill="white"/>
</g>
<path d="M351.416 347.69H551.355L548.937 342.645C548.937 342.645 530.102 344.376 515.128 339.736C508.515 337.676 498.338 336.719 488.128 336.87C481.694 336.959 466.039 337.019 456.322 336.973H456.309C452.846 336.959 450.129 336.929 448.877 336.884C448.383 336.854 447.89 336.854 447.414 336.854C444.643 336.82 441.876 337.08 439.16 337.63C436.539 337.334 433.902 337.205 431.264 337.243C426.652 337.302 406.817 337.168 401.413 337.243C394.293 337.332 386.069 338.706 378.263 339.809C378.189 339.779 378.114 339.765 378.055 339.736L378.011 339.839C368.578 341.153 359.742 342.048 354.175 339.736L351.416 347.69Z" fill="white"/>
<path d="M551.355 347.778H351.415C351.401 347.778 351.387 347.775 351.375 347.769C351.362 347.762 351.352 347.753 351.343 347.741C351.335 347.73 351.33 347.717 351.327 347.703C351.325 347.688 351.327 347.674 351.331 347.661L354.094 339.706C354.098 339.695 354.104 339.685 354.111 339.676C354.119 339.667 354.129 339.66 354.139 339.655C354.15 339.65 354.162 339.648 354.174 339.648C354.186 339.648 354.198 339.65 354.209 339.655C359.873 342.01 369.04 341 377.951 339.762L377.976 339.702C377.98 339.691 377.987 339.681 377.996 339.673C378.005 339.665 378.015 339.659 378.026 339.655C378.037 339.65 378.049 339.648 378.061 339.648C378.073 339.648 378.085 339.65 378.096 339.655C378.129 339.669 378.162 339.682 378.196 339.692L378.275 339.718C379.487 339.543 380.71 339.368 381.936 339.193C388.556 338.229 395.4 337.232 401.414 337.157C404.259 337.117 411.049 337.136 417.625 337.157C423.516 337.173 429.081 337.189 431.264 337.157C433.901 337.118 436.537 337.247 439.158 337.544C441.875 336.996 444.643 336.736 447.415 336.768C447.894 336.768 448.388 336.768 448.883 336.798C450.078 336.842 452.646 336.872 456.311 336.887C466.44 336.935 481.995 336.868 488.13 336.784C498.944 336.626 508.801 337.67 515.158 339.653C529.939 344.236 548.741 342.577 548.928 342.56C548.946 342.558 548.964 342.561 548.98 342.57C548.996 342.579 549.008 342.592 549.016 342.609L551.433 347.654C551.441 347.666 551.445 347.681 551.445 347.696C551.445 347.71 551.441 347.725 551.433 347.738C551.425 347.751 551.413 347.761 551.399 347.768C551.385 347.775 551.37 347.779 551.355 347.778ZM351.538 347.603H551.216L548.885 342.738C547.688 342.84 529.5 344.282 515.105 339.818C508.76 337.842 498.929 336.8 488.128 336.957C481.997 337.041 466.436 337.108 456.321 337.061C452.643 337.045 450.069 337.015 448.871 336.971C448.379 336.942 447.887 336.942 447.412 336.942C444.648 336.91 441.888 337.17 439.179 337.716H439.151C436.534 337.419 433.901 337.289 431.268 337.329C429.085 337.357 423.518 337.341 417.627 337.329C411.056 337.311 404.262 337.292 401.418 337.329C395.416 337.404 388.577 338.399 381.963 339.363C380.729 339.544 379.503 339.719 378.284 339.888C378.269 339.892 378.254 339.892 378.24 339.888C378.21 339.876 378.179 339.865 378.151 339.857L378.11 339.844L378.1 339.871C378.094 339.885 378.084 339.897 378.072 339.906C378.059 339.915 378.045 339.921 378.03 339.923C369.126 341.163 359.955 342.176 354.236 339.848L351.538 347.603Z" fill="#292929"/>
<path d="M351.416 347.69H506.447L503.293 342.272C503.293 342.272 494.831 347.212 486.562 343.705C478.294 340.198 469.966 338.481 456.323 336.973H456.309C453.354 336.659 450.376 336.619 447.414 336.854C437.637 337.586 430.085 340.794 430.085 340.794C430.085 340.794 421.95 337.243 401.413 337.243C394.293 337.332 386.069 338.706 378.263 339.809C378.189 339.779 378.114 339.765 378.055 339.736L378.011 339.839C368.578 341.153 359.742 342.048 354.175 339.736L351.416 347.69Z" fill="white"/>
<path d="M503.295 342.272L548.937 342.645L551.355 347.69H506.445L503.295 342.272Z" fill="#CEAA91"/>
<path d="M505.156 345.559C505.14 345.559 505.125 345.555 505.111 345.547C505.098 345.539 505.086 345.528 505.079 345.515L503.257 342.384C502.542 342.703 496.74 345.203 490.497 345.012C488.144 344.942 485.338 343.887 481.784 342.56C475.179 340.077 466.133 336.677 452.941 336.94C452.929 336.94 452.918 336.938 452.907 336.934C452.896 336.93 452.886 336.924 452.878 336.916C452.87 336.908 452.863 336.898 452.858 336.888C452.854 336.877 452.852 336.866 452.852 336.854C452.851 336.842 452.853 336.831 452.857 336.82C452.861 336.809 452.867 336.799 452.875 336.791C452.883 336.783 452.893 336.776 452.904 336.772C452.914 336.767 452.926 336.765 452.937 336.765C466.163 336.502 475.227 339.909 481.841 342.395C485.38 343.724 488.174 344.775 490.499 344.847C497.091 345.045 503.19 342.22 503.251 342.197C503.271 342.188 503.294 342.186 503.314 342.193C503.335 342.199 503.353 342.213 503.364 342.232L505.224 345.431C505.23 345.441 505.234 345.451 505.235 345.463C505.237 345.474 505.236 345.486 505.233 345.497C505.23 345.508 505.225 345.518 505.218 345.527C505.211 345.537 505.202 345.544 505.192 345.55C505.181 345.556 505.168 345.559 505.156 345.559Z" fill="#292929"/>
<path d="M430.087 340.881C430.072 340.882 430.057 340.878 430.043 340.871C429.973 340.831 422.989 336.921 408.038 337.327C408.015 337.327 407.992 337.318 407.976 337.302C407.959 337.286 407.949 337.264 407.948 337.241C407.948 337.23 407.95 337.218 407.954 337.208C407.959 337.197 407.965 337.187 407.973 337.179C407.981 337.17 407.99 337.164 408.001 337.159C408.011 337.155 408.023 337.152 408.034 337.152C422.493 336.761 429.541 340.4 430.094 340.699C430.572 340.538 435.586 338.849 439.132 337.546C439.153 337.539 439.177 337.54 439.197 337.55C439.218 337.56 439.234 337.578 439.241 337.599C439.249 337.621 439.248 337.644 439.239 337.665C439.229 337.686 439.212 337.702 439.191 337.711C435.481 339.072 430.168 340.864 430.115 340.876C430.106 340.879 430.097 340.881 430.087 340.881Z" fill="#292929"/>
<path d="M536.365 342.98C527.025 342.785 503.539 342.363 503.302 342.36C503.279 342.36 503.257 342.351 503.24 342.334C503.224 342.318 503.215 342.295 503.215 342.272C503.215 342.249 503.224 342.227 503.24 342.21C503.257 342.194 503.279 342.185 503.302 342.185C503.539 342.185 527.025 342.61 536.365 342.805C536.388 342.805 536.41 342.814 536.427 342.83C536.443 342.847 536.453 342.869 536.453 342.892C536.453 342.916 536.443 342.938 536.427 342.954C536.41 342.971 536.388 342.98 536.365 342.98Z" fill="#292929"/>
<path d="M433.228 347.774C433.207 347.774 433.187 347.766 433.171 347.752C433.155 347.738 433.145 347.718 433.142 347.697C433.142 347.662 432.715 344.325 429.476 343.794C426.237 343.264 424.077 347.298 424.056 347.333C424.045 347.354 424.027 347.369 424.005 347.377C423.983 347.384 423.959 347.382 423.939 347.372C423.918 347.361 423.902 347.342 423.895 347.32C423.888 347.298 423.89 347.273 423.9 347.252C423.923 347.21 426.135 343.069 429.506 343.623C432.876 344.176 433.314 347.641 433.318 347.676C433.319 347.688 433.318 347.7 433.315 347.711C433.312 347.722 433.307 347.732 433.3 347.742C433.292 347.751 433.283 347.758 433.273 347.764C433.263 347.77 433.252 347.773 433.24 347.774H433.228Z" fill="#292929"/>
<path d="M429.49 343.796H429.472C429.461 343.794 429.45 343.789 429.441 343.783C429.431 343.777 429.423 343.768 429.417 343.759C429.41 343.749 429.406 343.738 429.404 343.727C429.402 343.716 429.402 343.704 429.404 343.693L430.001 340.778C430.004 340.767 430.008 340.756 430.015 340.747C430.021 340.737 430.029 340.729 430.039 340.723C430.049 340.717 430.059 340.712 430.071 340.711C430.082 340.709 430.094 340.709 430.105 340.711C430.116 340.714 430.127 340.718 430.136 340.725C430.146 340.731 430.154 340.739 430.16 340.749C430.167 340.759 430.171 340.769 430.173 340.781C430.175 340.792 430.175 340.803 430.173 340.815L429.576 343.728C429.571 343.747 429.56 343.765 429.545 343.777C429.529 343.79 429.51 343.796 429.49 343.796Z" fill="#292929"/>
<path d="M426.731 343.796C426.718 343.796 426.706 343.793 426.694 343.787C426.587 343.74 415.972 338.96 405.878 339.818C405.855 339.819 405.832 339.812 405.814 339.797C405.797 339.782 405.785 339.76 405.783 339.737C405.782 339.726 405.784 339.714 405.787 339.703C405.791 339.692 405.796 339.682 405.804 339.673C405.811 339.665 405.82 339.657 405.831 339.652C405.841 339.647 405.852 339.644 405.864 339.643C416.005 338.779 426.661 343.581 426.766 343.628C426.777 343.633 426.786 343.64 426.794 343.648C426.802 343.657 426.808 343.667 426.812 343.678C426.817 343.688 426.818 343.7 426.818 343.712C426.817 343.723 426.815 343.735 426.81 343.745C426.803 343.761 426.792 343.774 426.778 343.783C426.764 343.792 426.747 343.796 426.731 343.796Z" fill="#292929"/>
<path d="M431.096 344.381C431.083 344.381 431.07 344.378 431.058 344.372C431.046 344.366 431.036 344.357 431.028 344.346C431.014 344.328 431.008 344.305 431.01 344.282C431.013 344.259 431.025 344.238 431.044 344.224C432.14 343.371 448.146 338.571 464.345 342.186C464.368 342.191 464.388 342.206 464.401 342.226C464.414 342.246 464.418 342.27 464.413 342.293C464.408 342.316 464.394 342.337 464.374 342.35C464.354 342.362 464.329 342.367 464.306 342.362C455.71 340.443 447.407 340.96 441.954 341.731C435.621 342.624 431.571 344.04 431.151 344.367C431.134 344.378 431.115 344.383 431.096 344.381Z" fill="#292929"/>
<path d="M433.228 346.394C433.208 346.394 433.188 346.387 433.173 346.374C433.157 346.362 433.146 346.344 433.142 346.324C433.138 346.301 433.143 346.277 433.156 346.258C433.169 346.239 433.189 346.225 433.212 346.221C433.347 346.196 446.81 343.681 458.369 345.434C458.381 345.436 458.392 345.44 458.401 345.446C458.411 345.452 458.42 345.46 458.426 345.469C458.433 345.478 458.438 345.489 458.44 345.5C458.443 345.511 458.443 345.523 458.441 345.534C458.438 345.557 458.426 345.577 458.407 345.591C458.389 345.605 458.366 345.611 458.343 345.608C446.813 343.856 433.379 346.368 433.246 346.394H433.228Z" fill="#292929"/>
<path d="M425.23 345.65H425.203C425.074 345.609 412.149 341.621 397.892 343.798C383.604 345.981 370.713 345.616 370.585 345.613C370.562 345.613 370.54 345.604 370.523 345.587C370.507 345.571 370.498 345.548 370.498 345.525C370.498 345.502 370.507 345.48 370.523 345.463C370.54 345.447 370.562 345.438 370.585 345.438C370.713 345.438 383.589 345.806 397.86 343.626C412.16 341.44 425.121 345.441 425.251 345.481C425.273 345.489 425.291 345.504 425.302 345.525C425.312 345.546 425.314 345.57 425.307 345.592C425.301 345.608 425.291 345.622 425.277 345.633C425.263 345.643 425.247 345.649 425.23 345.65Z" fill="#292929"/>
<path d="M405.042 230.377V235.683C409.084 238.435 413.269 240.97 417.579 243.278C427.146 234.488 428.503 217.787 428.503 217.787L405.042 230.377Z" fill="#FF7D65"/>
<path d="M443.819 186.476C442.88 190.238 442.11 194.026 440.995 197.747C440.922 197.994 440.845 198.241 440.762 198.484C439.605 201.988 437.643 205.262 434.167 206.756C434.07 206.787 433.982 206.844 433.915 206.921C433.865 207.003 433.839 207.097 433.838 207.194C433.629 209.17 433.762 211.133 433.335 213.087C433.007 214.583 432.154 215.902 431.653 217.368C428.239 227.4 418.673 234.295 408.914 238.214C407.234 238.888 405.547 239.475 403.886 239.966C401.059 240.815 398.105 241.511 395.136 241.602C390.497 241.742 388.248 238.57 385.773 235.211C378.71 225.649 373.985 215.201 370.373 203.843C366.589 191.952 364.116 179.449 363.716 166.947C363.702 166.57 363.691 166.193 363.683 165.815C364.706 165.846 365.73 165.78 366.74 165.617C375.966 164.255 377.559 159.527 377.613 159.357C377.585 159.553 376.597 165.975 383.45 165.826C390.413 165.675 390.133 161.021 390.133 161.021C390.133 161.021 400.36 159.019 401.357 156.235C401.049 157.657 401.091 159.133 401.477 160.536C401.561 160.819 401.662 161.097 401.78 161.368C402.237 162.4 402.951 163.298 403.855 163.976C406.144 165.714 407.778 167.634 408.442 170.342C408.91 172.248 408.9 174.546 408.302 177.445C407.922 179.295 408.358 180.073 409.203 180.29C411.568 180.891 417.103 177.088 416.781 179.989C416.516 182.357 415.691 184.528 415.922 186.938C416.075 188.536 416.69 190.238 418.238 192.172C419.081 193.223 419.726 193.661 420.23 193.733C422.055 193.992 422.061 189.501 423.001 192.172C424.201 195.581 426.011 182.331 426.011 182.331C426.011 182.331 426.605 183.163 427.577 184.519C429.84 181.059 433.058 176.697 435.164 176.23C436.45 175.944 438.142 176.382 439.718 177.358C442.47 179.087 444.821 182.462 443.819 186.476Z" fill="#FFA897"/>
<path d="M401.468 160.548L394.626 161.455C392.832 166.397 386.244 168.886 381.632 166.36C380.624 165.81 379.671 165.053 378.529 164.936C376.953 164.773 375.57 165.852 374.183 166.611C371.004 168.348 367.001 168.427 363.707 166.961C363.693 166.584 363.682 166.207 363.674 165.829C364.697 165.86 365.721 165.794 366.731 165.631C375.958 164.269 377.55 159.541 377.604 159.371C377.576 159.567 376.588 165.989 383.441 165.84C390.404 165.689 390.124 161.035 390.124 161.035C390.124 161.035 400.351 159.033 401.348 156.249C401.041 157.671 401.082 159.146 401.468 160.548Z" fill="#FF7D65"/>
<path d="M408.434 170.354C407.773 169.978 407.006 169.738 406.309 169.412C403.331 168.026 401.469 164.628 401.772 161.38C402.228 162.413 402.943 163.311 403.846 163.988C406.135 165.726 407.77 167.646 408.434 170.354Z" fill="#FF7D65"/>
<path d="M416.774 180.001C416.509 182.37 415.684 184.54 415.915 186.95C413.314 184.812 409.994 183.182 409.196 180.294C411.56 180.903 417.096 177.1 416.774 180.001Z" fill="#FF7D65"/>
<path d="M439.708 177.37C439.123 177.789 438.564 178.225 438.035 178.666C434.342 181.755 429.877 185.164 427.72 189.48C426.578 191.757 424.093 198.064 420.286 193.817C420.263 193.795 420.244 193.77 420.223 193.745C422.048 194.005 422.054 189.513 422.994 192.185C424.194 195.594 426.004 182.343 426.004 182.343C426.004 182.343 426.598 183.175 427.57 184.531C429.833 181.071 433.051 176.71 435.157 176.242C436.442 175.956 438.14 176.394 439.708 177.37Z" fill="#FF7D65"/>
<path d="M399.102 192.658C399.515 194.681 400.887 196.109 402.164 195.848C403.441 195.587 404.143 193.735 403.728 191.712C403.313 189.688 401.943 188.259 400.666 188.52C399.389 188.781 398.687 190.634 399.102 192.658Z" fill="#3D2027"/>
<path d="M373.789 192.658C374.202 194.681 375.574 196.109 376.853 195.848C378.132 195.587 378.831 193.735 378.417 191.712C378.004 189.688 376.632 188.259 375.355 188.52C374.078 188.781 373.376 190.634 373.789 192.658Z" fill="#3D2027"/>
<path d="M390.126 215.802C387.566 217.967 379.694 218.163 377.923 214.621C376.152 211.079 382.45 199.859 382.055 194.348L390.126 215.802Z" fill="#FF7D65"/>
<path d="M465.751 178.651C465.024 185.743 458.891 184.661 459.97 188.488C461.049 192.316 465.208 191.973 465.208 191.973C468.731 199.463 453.822 199.39 451.991 203.093C451.831 203.417 451.632 203.721 451.401 203.999C449.094 206.765 443.919 206.577 443.343 206.167C443.245 206.097 442.758 205.467 442.008 204.472C441.43 203.699 440.691 202.699 439.855 201.557C440.275 200.231 440.636 198.929 440.988 197.747C442.102 194.026 442.873 190.238 443.812 186.476C445.389 180.169 438.694 175.454 435.15 176.242C434.116 176.47 432.818 177.643 431.496 179.173C430.073 180.874 428.759 182.664 427.563 184.531C426.591 183.175 425.997 182.343 425.997 182.343C425.997 182.343 424.187 195.594 422.987 192.185C421.787 188.776 422.111 197.039 418.224 192.185C414.337 187.331 416.327 183.939 416.767 180.001C417.206 176.063 406.839 184.482 408.286 177.458C409.733 170.433 407.742 166.947 403.839 163.988C403.32 163.597 402.861 163.134 402.476 162.611C400.68 160.159 401.139 157.165 401.341 156.247C400.913 157.438 398.795 158.488 396.511 159.297C394.419 160.011 392.283 160.591 390.117 161.033C390.117 161.033 390.397 165.688 383.434 165.838C381.682 165.877 380.437 165.488 379.561 164.873C377.023 163.104 377.576 159.514 377.597 159.369C377.571 159.455 377.158 160.677 375.606 162.049C374.053 163.421 371.342 164.946 366.724 165.63C365.714 165.792 364.69 165.858 363.667 165.828C360.146 165.679 359.51 163.901 359.547 162.559C359.563 162.037 359.668 161.521 359.855 161.033C356.453 161.312 353.581 159.893 351.316 157.806C345.1 152.082 343.475 141.34 348.108 146.9C354.435 154.497 360.397 142.918 360.397 142.918C349.553 141.11 355.338 130.269 355.518 132.84C355.698 135.412 361.124 141.382 364.373 132.84C367.623 124.299 369.252 132.798 375.357 123.629C381.462 114.461 392.021 131.262 397.254 119.6C402.486 107.939 410.777 113.457 410.777 113.457C415.241 110.964 419.934 111.957 423.74 115.126C426.436 117.374 431.324 122.265 430.733 126.047C431.34 125.498 431.797 124.804 432.063 124.031C432.329 123.258 432.396 122.429 432.256 121.624C434.472 122.398 435.68 125.253 434.694 127.385C434.314 128.21 435.045 127.385 434.948 128.289C435.668 128.147 436.481 128.275 437.197 128.103C452.827 124.316 447.044 131.978 451.988 132.833C456.931 133.688 457.343 140.832 457.795 145.378C458.247 149.923 463.668 147.427 467.013 153.204C470.357 158.982 462.584 166.313 460.869 168.855C459.154 171.396 466.48 171.568 465.751 178.651Z" fill="#3D2027"/>
<path d="M601.031 347.687H89.8527C86.1173 347.687 83.0891 350.715 83.0891 354.45V367.468C83.0891 371.203 86.1173 374.231 89.8527 374.231H601.031C604.766 374.231 607.795 371.203 607.795 367.468V354.45C607.795 350.715 604.766 347.687 601.031 347.687Z" fill="#CEAA91"/>
<path d="M607.795 354.452V357.698H83.0891V354.452C83.0896 352.659 83.8024 350.939 85.0707 349.671C86.3391 348.403 88.0592 347.69 89.8527 347.69H601.031C601.919 347.69 602.799 347.865 603.619 348.205C604.44 348.544 605.185 349.042 605.814 349.67C606.442 350.298 606.94 351.044 607.28 351.864C607.62 352.685 607.795 353.564 607.795 354.452Z" fill="#9B7962"/>
<path d="M311.712 374.317H284.964C284.941 374.317 284.919 374.308 284.902 374.292C284.886 374.275 284.876 374.253 284.876 374.23C284.876 374.206 284.886 374.184 284.902 374.168C284.919 374.151 284.941 374.142 284.964 374.142H311.712C311.735 374.142 311.757 374.152 311.773 374.168C311.789 374.185 311.799 374.207 311.799 374.23C311.799 374.253 311.79 374.275 311.774 374.292C311.757 374.308 311.735 374.317 311.712 374.317Z" fill="#292929"/>
<path d="M369.48 183.76C369.885 183.533 370.298 183.325 370.72 183.139L370.454 183.256C371.9 182.62 373.442 182.229 375.017 182.098L374.726 182.123C375.968 182.024 377.218 182.083 378.445 182.298C379.02 182.398 379.547 181.742 379.496 181.057C379.445 180.29 378.971 179.738 378.359 179.632C375.719 179.163 373.001 179.411 370.489 180.35C369.728 180.637 368.99 180.98 368.281 181.378C367.782 181.658 367.626 182.567 367.957 183.172C368.318 183.832 368.942 184.062 369.476 183.76H369.48Z" fill="#3D2027"/>
<path d="M394.064 181.571C395.939 181.094 397.866 180.846 399.801 180.831H399.489C401.924 180.819 404.346 181.18 406.671 181.902L406.373 181.809C407.721 182.232 409.028 182.773 410.28 183.428C410.825 183.711 411.594 183.377 411.832 182.704C412.07 182.031 411.86 181.248 411.275 180.942C407.092 178.767 402.375 177.834 397.679 178.251C396.383 178.363 395.098 178.581 393.838 178.903C393.524 178.97 393.246 179.153 393.06 179.414C392.858 179.711 392.763 180.067 392.79 180.425C392.874 181.098 393.423 181.732 394.066 181.569L394.064 181.571Z" fill="#3D2027"/>
<path d="M393.367 223.401C395.964 223.86 398.606 223.212 400.843 221.854C403.08 220.497 404.841 218.466 406.202 216.249C406.945 215.011 407.603 213.723 408.171 212.395C408.346 212.008 408.297 211.507 407.88 211.286C407.53 211.1 406.951 211.162 406.771 211.577C406.282 212.717 405.728 213.828 405.112 214.905C404.81 215.429 404.486 215.942 404.142 216.441C403.966 216.688 403.791 216.934 403.616 217.172L403.558 217.247L403.416 217.422C403.322 217.539 403.225 217.656 403.127 217.773C402.719 218.25 402.281 218.701 401.817 219.125C401.617 219.3 401.411 219.475 401.199 219.651C401.188 219.661 400.995 219.81 401.13 219.707L400.955 219.84C400.817 219.941 400.677 220.039 400.533 220.136C400.043 220.465 399.53 220.758 398.997 221.012C398.864 221.077 398.729 221.136 398.594 221.187C398.755 221.117 398.533 221.211 398.515 221.218L398.31 221.299C398.037 221.402 397.759 221.495 397.476 221.578C397.149 221.671 396.818 221.748 396.483 221.809L396.267 221.846L396.124 221.867C395.98 221.881 395.837 221.896 395.691 221.907C395.354 221.93 395.015 221.934 394.677 221.919C394.502 221.919 394.337 221.898 394.169 221.879C394.146 221.879 393.906 221.844 394.095 221.879L393.806 221.832C393.391 221.758 392.913 221.944 392.809 222.397C392.72 222.791 392.929 223.315 393.375 223.394L393.367 223.401Z" fill="#3D2027"/>
<path d="M413.985 135.904C415.241 136.552 417.059 136.365 417.72 135.116C418.354 133.919 417.69 132.313 418.401 131.16C419.727 129.007 421.971 130.792 423.084 131.861C423.735 132.492 423.105 133.446 424.378 133.697C424.641 133.743 424.912 133.726 425.167 133.646C425.423 133.565 425.654 133.425 425.844 133.235C426.033 133.046 426.173 132.814 426.254 132.559C426.334 132.304 426.352 132.033 426.305 131.77C426.559 132.916 426.776 134.24 426.048 135.16C424.636 136.945 423.145 135.324 421.656 135.478C419.414 135.713 419.379 136.99 418.573 138.875C418.203 139.699 417.604 140.399 416.848 140.892C416.091 141.384 415.208 141.649 414.305 141.653C411.042 141.62 410.823 139.14 409.495 136.959C408.283 134.965 404.941 133 403.714 136.144C403.313 137.172 403.427 138.318 403.539 139.416C401.891 136.47 404.249 128.918 408.29 130.367C410.876 131.302 411.597 134.673 413.985 135.904Z" fill="#270A04"/>
<path d="M433.92 135.965C433.953 136.655 433.552 137.44 433.195 138.332C431.858 141.66 429.316 144.463 428.54 148.024C428.443 148.375 428.424 148.743 428.484 149.102C428.588 149.493 428.813 149.843 429.125 150.1C430.397 151.218 432.639 150.913 433.564 149.494C432.256 148.475 430.835 146.926 431.462 145.388C431.737 144.703 432.363 144.235 432.936 143.771C434.382 142.594 435.689 141.165 436.357 139.423C437.261 137.064 435.88 130.726 432.214 132.903C431.091 133.57 430.103 134.442 429.301 135.473C430.022 134.545 431.951 133.967 433.02 134.63C433.65 135.03 433.895 135.482 433.92 135.965Z" fill="#270A04"/>
<path d="M410.947 149.482C407.342 151.348 404.622 154.566 403.381 158.432C402.956 159.786 402.717 161.201 402.483 162.611C400.687 160.159 401.146 157.165 401.348 156.247C400.92 157.438 398.802 158.488 396.518 159.297C398.283 158.17 399.821 156.721 401.052 155.026C402.388 153.182 402.665 152.183 404.919 151.09C406.775 150.197 409.253 150.347 410.947 149.482Z" fill="#270A04"/>
<path d="M451.404 203.999C449.097 206.765 443.922 206.577 443.346 206.167C443.248 206.097 442.761 205.467 442.011 204.472C441.433 203.699 440.694 202.699 439.858 201.557C440.279 200.23 440.64 198.929 440.992 197.746C442.106 194.026 442.877 190.238 443.816 186.476C445.392 180.169 438.697 175.454 435.153 176.242C434.12 176.47 432.821 177.643 431.499 179.173C432.525 177.433 434.118 176.099 436.01 175.392C436.286 175.275 436.585 175.219 436.886 175.229C437.297 175.27 437.655 175.524 437.989 175.769C438.779 176.353 439.569 176.933 440.361 177.51C441.093 178.05 441.89 178.61 442.799 178.633C444.155 178.665 445.252 177.5 446.573 177.2C447.894 176.901 449.376 177.568 450.208 178.668C451.04 179.768 451.327 181.213 451.222 182.59C451.026 185.192 448.754 189.501 446.9 191.283C443.047 194.984 449.076 200.29 451.402 197.354C450.625 199.234 450.753 202.1 451.404 203.999Z" fill="#270A04"/>
<path d="M451.881 196.489C451.767 196.8 451.605 197.092 451.403 197.354C451.526 197.047 451.686 196.756 451.881 196.489Z" fill="#270A04"/>
<path d="M369.141 154.63C366.882 158.193 363.453 160.956 359.554 162.559C359.57 162.037 359.675 161.521 359.862 161.033C356.46 161.312 353.588 159.893 351.323 157.806C352.193 157.975 353.076 158.078 353.962 158.113C359.244 158.352 364.492 157.148 369.141 154.63Z" fill="#270A04"/>
<path d="M379.568 164.873C377.029 163.104 377.583 159.514 377.604 159.369C377.578 159.455 377.164 160.677 375.612 162.049C376.388 160.683 376.879 159.159 377.706 157.817C378.615 156.375 379.881 155.191 381.381 154.381C382.88 153.57 384.564 153.16 386.268 153.189C381.311 154.236 377.993 160.077 379.568 164.873Z" fill="#270A04"/>
<path d="M356.527 2.43894V54.4768C356.527 54.6896 356.486 54.9004 356.405 55.097C356.324 55.2937 356.204 55.4725 356.054 55.623C355.904 55.7735 355.725 55.8929 355.528 55.9743C355.332 56.0556 355.121 56.0974 354.908 56.0972H148.109C148.439 55.6604 148.776 55.2271 149.12 54.7974C162.318 38.3045 185.129 27.0845 202.939 20.1352C251.91 1.02701 304.522 -3.49604 356.527 2.43894Z" fill="#F1D5B8"/>
<path d="M356.529 54.7992C355.596 56.2945 354.575 57.7324 353.47 59.105C351.597 61.4723 349.54 63.6876 347.318 65.7302C345.682 67.2366 343.947 68.6324 342.126 69.9081C336.715 73.6709 329.9 76.6595 321.914 76.6595H138.935C139.001 76.1923 139.081 75.7222 139.175 75.2493C139.54 73.4392 140.023 71.655 140.62 69.9081C141.106 68.4878 141.664 67.0934 142.292 65.7302C143.351 63.4299 144.586 61.215 145.986 59.105C146.954 57.6312 148 56.1971 149.122 54.8027L356.529 54.7992Z" fill="#CEAA91"/>
<path d="M347.318 65.7266C345.682 67.233 343.947 68.6288 342.126 69.9046H140.62C141.106 68.4843 141.664 67.0898 142.292 65.7266H347.318Z" fill="#9B7962"/>
<path d="M316.107 65.7266H304.205C304.205 65.7266 301.402 86.21 316.068 98.5617L326.362 96.7609C326.362 96.7609 309.581 81.785 316.107 65.7266Z" fill="#F1D5B8"/>
<path d="M274.827 90.2635L265.122 93.93C256.363 83.1216 256.603 67.8147 256.603 67.8147H268.505C268.505 67.8147 267.206 76.6558 274.827 90.2635Z" fill="#F1D5B8"/>
<path d="M167.801 305.286H105.801V314.195H167.801V305.286Z" fill="#EF772C"/>
<path d="M168.64 340.165C162.386 347.687 144.355 347.815 138.594 347.652C137.46 347.622 136.805 347.578 136.805 347.578C136.805 347.578 112.456 349.169 104.962 340.165C100.714 335.051 103.096 327.377 105.95 321.701C106.628 320.351 107.335 319.114 107.987 318.047C109.42 315.7 110.583 314.193 110.583 314.193H163.022C164.779 316.557 166.329 319.068 167.656 321.698C170.507 327.379 172.89 335.051 168.64 340.165Z" fill="#EF772C"/>
<g opacity="0.3">
<path d="M116.747 333.284C114.12 341.589 123.93 347.885 136.802 347.578C136.802 347.578 112.452 349.169 104.958 340.165C100.71 335.051 103.092 327.377 105.946 321.701C106.013 321.566 106.083 321.43 106.151 321.3C106.219 321.17 106.288 321.032 106.358 320.902C106.908 319.862 107.463 318.9 107.983 318.047C109.416 315.7 110.579 314.193 110.579 314.193H163.018C164.775 316.557 166.325 319.068 167.652 321.698H144.191C138.311 321.672 132.482 322.782 127.023 324.965C122.423 326.829 117.928 329.547 116.747 333.284Z" fill="#3D2027"/>
</g>
<path d="M158.653 297.298C157.931 298.373 157.218 299.375 156.551 300.275C154.409 303.183 152.697 305.119 152.564 305.277H121.045C121.042 305.278 121.039 305.278 121.036 305.277C120.901 305.119 119.191 303.175 117.049 300.275C116.38 299.368 115.668 298.366 114.947 297.298C111.082 291.532 106.999 283.748 108.115 277.82C108.465 275.998 108.991 274.735 109.658 273.887C109.966 273.488 110.346 273.15 110.777 272.89C114.178 270.905 119.393 275.542 121.041 275.393C123.266 275.194 119.64 264.086 114.484 256.206C109.658 248.837 106.515 238.988 112.426 235.439C112.642 235.311 112.865 235.194 113.093 235.089C113.309 234.986 113.531 234.893 113.771 234.805C121.442 231.978 124.07 242.28 127.304 240.864C130.481 239.463 120.749 206.574 136.062 206.507C136.299 206.507 136.551 206.507 136.805 206.525C137.059 206.542 137.308 206.504 137.548 206.507C152.851 206.574 143.117 239.47 146.294 240.864C149.53 242.28 152.156 231.978 159.827 234.805C160.058 234.888 160.284 234.983 160.505 235.089C160.734 235.194 160.957 235.311 161.174 235.439C167.084 238.988 163.94 248.837 159.119 256.206C153.957 264.089 150.338 275.194 152.559 275.393C154.211 275.542 159.42 270.905 162.822 272.89C163.253 273.151 163.632 273.489 163.94 273.887C164.606 274.735 165.143 275.989 165.483 277.82C166.599 283.748 162.518 291.532 158.653 297.298Z" fill="#006C60"/>
<path d="M137.546 206.502V305.287H136.057V206.502C136.295 206.502 136.549 206.502 136.802 206.521C137.056 206.507 137.313 206.497 137.546 206.502Z" fill="#00433B"/>
<path d="M137.362 263.103L136.802 263.588L136.236 264.075L136.061 263.867L111.804 235.858L112.428 235.434C112.645 235.306 112.869 235.189 113.099 235.084L136.057 261.591L136.802 262.45L137.362 263.103Z" fill="#00433B"/>
<path d="M137.362 303.59L136.802 304.075L136.236 304.562L136.061 304.354L109.667 273.883C109.974 273.486 110.353 273.149 110.784 272.892L136.057 302.074L136.802 302.933L137.362 303.59Z" fill="#00433B"/>
<path d="M161.796 235.858L137.546 263.858L137.371 264.072L136.81 263.585L136.245 263.099L136.81 262.448L137.555 261.584L160.503 235.082C160.732 235.187 160.955 235.304 161.172 235.432L161.796 235.858Z" fill="#00433B"/>
<path d="M163.94 273.883L137.546 304.352L137.371 304.566L136.81 304.079L136.245 303.593L136.81 302.943L137.555 302.08L162.828 272.895C163.257 273.152 163.634 273.487 163.94 273.883Z" fill="#00433B"/>
<path d="M511.643 101.57L503.433 102.828L512.915 164.719L521.124 163.461L511.643 101.57Z" fill="#006C60"/>
<path d="M511.644 101.564L503.433 102.822L505.241 96.5525L505.534 95.5417C505.59 95.3443 505.702 95.1672 505.856 95.0315C506.01 94.8958 506.2 94.8072 506.403 94.7762C506.606 94.7452 506.813 94.7731 507.001 94.8567C507.188 94.9402 507.348 95.0758 507.461 95.2474L508.044 96.1233L511.644 101.564Z" fill="#F1D5B8"/>
<path d="M520.436 158.964L512.226 160.222L512.915 164.719L521.125 163.461L520.436 158.964Z" fill="#1E1E1E"/>
<path d="M512.922 164.687L521.131 163.43L521.649 166.806C521.657 166.861 521.643 166.917 521.61 166.962C521.577 167.007 521.528 167.037 521.473 167.046L513.681 168.239C513.626 168.248 513.569 168.234 513.525 168.201C513.48 168.168 513.45 168.119 513.441 168.064L512.924 164.687L512.922 164.687Z" fill="#828282"/>
<path d="M508.042 96.1233L505.24 96.5525L505.534 95.5417C505.59 95.3443 505.702 95.1672 505.856 95.0315C506.01 94.8958 506.2 94.8072 506.403 94.7762C506.606 94.7452 506.813 94.7731 507.001 94.8567C507.188 94.9402 507.348 95.0758 507.461 95.2474L508.042 96.1233Z" fill="#1E1E1E"/>
<path d="M519.945 155.719L511.735 156.977L512.229 160.201L520.439 158.943L519.945 155.719Z" fill="#1E1E1E"/>
<path d="M526.497 101.816L518.192 101.844L518.4 164.457L526.705 164.429L526.497 101.816Z" fill="#00433B"/>
<path d="M526.487 101.848L518.182 101.876L520.897 95.9428L521.338 94.9793C521.424 94.7935 521.561 94.6362 521.734 94.526C521.906 94.4157 522.107 94.3571 522.311 94.3571C522.516 94.3571 522.717 94.4157 522.889 94.526C523.061 94.6362 523.199 94.7935 523.285 94.9793L523.733 95.9393L526.487 101.848Z" fill="#F1D5B8"/>
<path d="M526.69 159.882L518.385 159.909L518.4 164.458L526.705 164.431L526.69 159.882Z" fill="#1E1E1E"/>
<path d="M518.403 164.446L526.708 164.418L526.719 167.833C526.72 167.888 526.698 167.942 526.658 167.981C526.619 168.021 526.566 168.043 526.51 168.043L518.627 168.07C518.571 168.07 518.518 168.048 518.478 168.009C518.439 167.969 518.416 167.916 518.416 167.86L518.405 164.444L518.403 164.446Z" fill="#828282"/>
<path d="M523.733 95.9357H520.897L521.338 94.9723C521.424 94.7865 521.561 94.6292 521.734 94.5189C521.906 94.4087 522.107 94.3501 522.311 94.3501C522.516 94.3501 522.716 94.4087 522.889 94.5189C523.061 94.6292 523.199 94.7865 523.284 94.9723L523.733 95.9357Z" fill="#1E1E1E"/>
<path d="M526.677 156.62L518.372 156.647L518.383 159.909L526.688 159.882L526.677 156.62Z" fill="#2E2E2E"/>
<path d="M540.797 102.772L532.575 101.603L523.763 163.593L531.986 164.762L540.797 102.772Z" fill="#006C60"/>
<path d="M540.816 102.733L532.593 101.564L536.134 96.0829L536.715 95.1913C536.826 95.0187 536.984 94.8816 537.17 94.7962C537.356 94.7108 537.563 94.6807 537.766 94.7095C537.969 94.7382 538.16 94.8247 538.315 94.9586C538.47 95.0924 538.584 95.268 538.642 95.4645L538.947 96.4788L540.816 102.733Z" fill="#F1D5B8"/>
<path d="M532.627 160.257L524.404 159.088L523.764 163.592L531.987 164.761L532.627 160.257Z" fill="#1E1E1E"/>
<path d="M523.77 163.582L531.992 164.751L531.511 168.136C531.503 168.191 531.474 168.241 531.429 168.275C531.385 168.308 531.329 168.323 531.274 168.315L523.469 167.205C523.414 167.198 523.364 167.168 523.331 167.124C523.297 167.079 523.283 167.023 523.291 166.968L523.771 163.586L523.77 163.582Z" fill="#828282"/>
<path d="M538.94 96.4823L536.137 96.0829L536.715 95.1913C536.826 95.0187 536.984 94.8816 537.17 94.7962C537.356 94.7108 537.563 94.6807 537.766 94.7095C537.969 94.7382 538.16 94.8247 538.315 94.9586C538.47 95.0924 538.584 95.268 538.642 95.4645L538.94 96.4823Z" fill="#1E1E1E"/>
<path d="M524.935 155.848L524.476 159.078L532.698 160.246L533.157 157.017L524.935 155.848Z" fill="#4A4A4A"/>
<path d="M543.512 126.616L543.079 129.976L542.685 133.024L542.086 137.658L541.699 140.672L541.096 145.344L540.709 148.321L540.103 153.029L539.724 155.964L539.11 160.711L538.738 163.612L538.12 168.398L537.749 171.26L537.43 173.735H504.791L504.472 171.26L504.101 168.398L503.482 163.612L503.111 160.711L502.498 155.964L502.118 153.029L501.512 148.321L501.124 145.344L500.522 140.672L500.135 137.658L499.536 133.024L499.141 129.976L498.709 126.616H543.512Z" fill="#EF772C"/>
<path d="M542.086 137.658L541.699 140.672H500.522L500.135 137.658H542.086Z" fill="#FFAE41"/>
<path d="M540.103 153.029L539.725 155.963H502.498L502.118 153.029H540.103Z" fill="#FFAE41"/>
<path d="M539.11 160.711L538.738 163.612H503.482L503.111 160.711H539.11Z" fill="#FFAE41"/>
<path d="M623.252 185.694H485.942V172.98H621.501C621.534 173.155 621.567 173.344 621.599 173.527C622.322 177.593 622.873 181.649 623.252 185.694Z" fill="#CEAA91"/>
<path d="M502.207 185.694L507.277 196.489H529.19L533.816 185.694H502.207Z" fill="#9B7962"/>
</svg>
