<svg width="241" height="128" viewBox="0 0 241 128" fill="none" xmlns="http://www.w3.org/2000/svg">
<path d="M316 86.2105C316.005 101.686 311.852 116.878 303.976 130.191C296.1 143.503 284.793 154.446 271.241 161.871C270.472 162.291 269.694 162.702 268.912 163.099C266.012 164.58 263.028 165.891 259.976 167.026C258.761 167.484 257.533 167.911 256.292 168.306C256.173 168.347 256.05 168.388 255.93 168.422C243.781 172.287 230.925 173.393 218.295 171.66C205.665 169.928 193.579 165.4 182.914 158.405C181.483 157.468 180.082 156.489 178.71 155.47C177.935 154.892 177.17 154.303 176.416 153.698C174.282 152.001 172.233 150.202 170.27 148.303C161.923 140.27 155.285 130.628 150.756 119.957C146.226 109.286 143.899 97.8065 143.914 86.2105C143.914 38.5963 182.435 0 229.957 0C277.479 0 316 38.5963 316 86.2105Z" fill="#D6E4F1"/>
<path d="M250.505 126.442L248.566 133.791L255.93 168.422C236.133 174.67 214.753 173.568 195.7 165.319L201.45 141.163L201.641 128.06L202.266 84.8558L202.423 84.7737C202.433 84.7678 202.443 84.7632 202.454 84.7601L217.102 77.2235L242.375 76.5906L261.233 85.7932L261.09 86.3303L250.505 126.442Z" fill="#3F3D56"/>
<path d="M248.58 52.9681C248.58 56.4399 247.553 59.8338 245.628 62.7205C243.703 65.6072 240.966 67.8571 237.765 69.1857C234.564 70.5143 231.041 70.8619 227.643 70.1846C224.244 69.5073 221.123 67.8355 218.672 65.3805C216.222 62.9256 214.554 59.7978 213.878 56.3927C213.202 52.9876 213.549 49.4581 214.875 46.2506C216.201 43.0431 218.446 40.3015 221.327 38.3727C224.208 36.4439 227.596 35.4144 231.061 35.4144H231.061C233.356 35.4086 235.629 35.8558 237.752 36.7305C239.874 37.6052 241.804 38.8901 243.431 40.512C245.058 42.1339 246.35 44.061 247.233 46.1832C248.117 48.3054 248.575 50.5812 248.58 52.8807C248.58 52.9098 248.58 52.939 248.58 52.9681Z" fill="#9E616A"/>
<path d="M213.599 29.3902C215.652 24.9684 219.623 25.8426 223.097 27.3415C227.495 26.3639 231.679 23.4372 236.418 25.168C241.087 31.9712 256.76 29.9696 253.426 41.0452C253.421 43.6991 258.41 42.1544 257.539 46.5009C260.182 54.8658 248 70.7077 241.007 67.3717C242.737 64.1958 246.688 56.9824 240.695 56.267C227.805 68.2842 239.366 33.3834 223.169 43.5331C217.807 48.4504 210.465 34.3087 213.599 29.3902Z" fill="#2F2E41"/>
<path d="M206.168 85.7901L203.816 84.1981C203.816 84.1981 189.817 85.5041 186.936 98.5263C186.936 98.5263 184.83 106.35 183.863 110.842C183.365 113.152 176.732 135.474 176.732 135.474L199.227 160.105L205.373 150.868L199.227 135.474L206.168 85.7901Z" fill="#3F3D56"/>
<path d="M11.609 43.2828H0V53.546H11.609V43.2828Z" fill="#0191E6"/>
<path d="M36.5341 84.3354H24.9252V94.5986H36.5341V84.3354Z" fill="#0191E6"/>
<path d="M43.1057 19.7219C42.7616 19.7219 42.4316 19.8589 42.1883 20.1027C41.9449 20.3465 41.8082 20.6772 41.8082 21.022C41.8082 21.3668 41.9449 21.6974 42.1883 21.9412C42.4316 22.185 42.7616 22.322 43.1057 22.322H137.839C138.183 22.3212 138.512 22.1839 138.755 21.9402C138.997 21.6965 139.134 21.3662 139.134 21.022C139.134 20.6777 138.997 20.3475 138.755 20.1037C138.512 19.86 138.183 19.7227 137.839 19.7219H43.1057Z" fill="#E4E4E4"/>
<path d="M43.1058 27.5222C42.9353 27.5217 42.7663 27.5549 42.6086 27.6198C42.4509 27.6847 42.3076 27.7802 42.1867 27.9006C42.0658 28.0211 41.9699 28.1643 41.9043 28.322C41.8386 28.4796 41.8047 28.6487 41.8043 28.8195C41.804 28.9903 41.8372 29.1596 41.9022 29.3175C41.9671 29.4755 42.0625 29.619 42.1828 29.74C42.3032 29.861 42.4462 29.957 42.6036 30.0226C42.761 30.0882 42.9298 30.1221 43.1003 30.1223H102.992C103.336 30.1223 103.666 29.9853 103.909 29.7415C104.153 29.4977 104.289 29.1671 104.289 28.8223C104.289 28.4775 104.153 28.1468 103.909 27.903C103.666 27.6592 103.336 27.5222 102.992 27.5222H43.1058Z" fill="#E4E4E4"/>
<path d="M30.8139 113.117C30.4697 113.117 30.1397 113.254 29.8964 113.497C29.6531 113.741 29.5164 114.072 29.5164 114.417C29.5164 114.762 29.6531 115.092 29.8964 115.336C30.1397 115.58 30.4697 115.717 30.8139 115.717H125.547C125.891 115.716 126.22 115.579 126.463 115.335C126.706 115.091 126.842 114.761 126.842 114.417C126.842 114.072 126.706 113.742 126.463 113.499C126.22 113.255 125.891 113.117 125.547 113.117H30.8139Z" fill="#E4E4E4"/>
<path d="M30.8139 120.917C30.6434 120.916 30.4745 120.95 30.3168 121.015C30.1591 121.08 30.0157 121.175 29.8948 121.295C29.774 121.416 29.678 121.559 29.6124 121.717C29.5468 121.874 29.5128 122.043 29.5125 122.214C29.5121 122.385 29.5453 122.554 29.6103 122.712C29.6752 122.87 29.7706 123.014 29.891 123.135C30.0113 123.256 30.1543 123.352 30.3117 123.417C30.4691 123.483 30.6379 123.517 30.8084 123.517H90.6999C91.044 123.517 91.374 123.38 91.6174 123.136C91.8607 122.892 91.9974 122.562 91.9974 122.217C91.9974 121.872 91.8607 121.542 91.6174 121.298C91.374 121.054 91.044 120.917 90.6999 120.917H30.8139Z" fill="#E4E4E4"/>
<path d="M5.45899 48.4609C8.2401 47.8489 10.871 46.686 13.1971 45.0405C15.5231 43.395 17.4973 41.3001 19.0035 38.879C19.8586 37.5025 20.5478 36.0293 21.0566 34.4901C21.0951 34.3627 21.0827 34.2253 21.022 34.1068C20.9613 33.9884 20.857 33.8982 20.7313 33.8553C20.6055 33.8124 20.468 33.8201 20.3478 33.8767C20.2275 33.9334 20.134 34.0347 20.0868 34.1591C19.2137 36.7316 17.8356 39.1031 16.0338 41.1337C14.2319 43.1644 12.0427 44.8133 9.59508 45.9832C8.21591 46.6435 6.76312 47.1368 5.26746 47.4526C4.62229 47.589 4.81246 48.5975 5.45899 48.4609Z" fill="#3F3D56"/>
<path d="M15.4391 36.4555C17.2855 35.4136 19.1319 34.3717 20.9784 33.3298C21.0639 33.2818 21.3034 33.1001 21.3928 33.1218C21.3211 33.1044 21.3862 33.1576 21.3883 33.2226C21.3912 33.3101 21.4022 33.3989 21.4055 33.487C21.4255 34.0273 21.4354 34.5682 21.4503 35.1086L21.5361 38.2166C21.5542 38.8708 22.5765 38.9486 22.5582 38.2867L22.4575 34.6382C22.4344 33.802 22.6431 31.9473 21.291 32.1077C20.803 32.1655 20.3519 32.508 19.9357 32.7429L18.2499 33.6941L14.9985 35.5288C14.426 35.8518 14.8641 36.78 15.4391 36.4555V36.4555Z" fill="#3F3D56"/>
<path d="M30.8347 89.4309C28.0818 90.1549 25.5011 91.4228 23.2443 93.1603C20.9874 94.8977 19.1 97.0696 17.6928 99.5484C16.894 100.957 16.2649 102.456 15.8187 104.014C15.7878 104.143 15.8084 104.28 15.876 104.394C15.9436 104.509 16.053 104.593 16.1811 104.628C16.3091 104.663 16.446 104.648 16.5626 104.584C16.6793 104.52 16.7667 104.414 16.8064 104.287C17.5795 101.68 18.8654 99.2551 20.5884 97.1544C22.3114 95.0537 24.4367 93.3199 26.839 92.055C28.1918 91.3422 29.6245 90.7935 31.107 90.4206C31.7457 90.259 31.4751 89.269 30.8347 89.4309L30.8347 89.4309Z" fill="#3F3D56"/>
<path d="M21.3369 101.829L15.9842 105.135C15.8924 105.192 15.8022 105.254 15.7068 105.304C15.612 105.354 15.5145 105.352 15.5758 105.413C15.4932 105.331 15.5142 105.03 15.5081 104.938L15.4038 103.387L15.1953 100.285C15.1512 99.6291 14.1266 99.6242 14.171 100.285L14.4157 103.926C14.4715 104.756 14.3173 106.472 15.5843 106.402C16.1484 106.371 16.6859 105.907 17.1482 105.622L18.6775 104.677L21.8539 102.715C22.414 102.369 21.9001 101.481 21.3369 101.829V101.829Z" fill="#3F3D56"/>
<path d="M23.2179 29.2566C25.8579 29.2566 27.9981 27.1122 27.9981 24.4671C27.9981 21.8219 25.8579 19.6776 23.2179 19.6776C20.5779 19.6776 18.4377 21.8219 18.4377 24.4671C18.4377 27.1122 20.5779 29.2566 23.2179 29.2566Z" fill="#0191E6"/>
<path d="M15.0233 123.106C17.6633 123.106 19.8035 120.962 19.8035 118.317C19.8035 115.672 17.6633 113.527 15.0233 113.527C12.3833 113.527 10.2432 115.672 10.2432 118.317C10.2432 120.962 12.3833 123.106 15.0233 123.106Z" fill="#0191E6"/>
</svg>
