<svg width="337" height="312" viewBox="0 0 337 312" fill="none" xmlns="http://www.w3.org/2000/svg">
<mask id="mask0_380_3776" style="mask-type:alpha" maskUnits="userSpaceOnUse" x="4" y="0" width="333" height="272">
<path d="M221.709 30.5687C229.934 39.9533 235.429 51.3675 238.028 63.5722C239.809 71.934 246.572 83.5954 269.076 90.3369C306.977 101.69 353.403 126.049 330.19 183.871C306.977 241.693 270.058 294.658 117.321 260.56C-35.4158 226.459 -6.93857 90.0911 52.815 44.3862C106.229 3.53101 173.695 -24.2135 221.707 30.5687H221.709Z" fill="#FCEFDE"/>
</mask>
<g mask="url(#mask0_380_3776)">
<path d="M221.259 30.535C229.494 39.9092 234.995 51.3109 237.597 63.5021C239.38 71.8547 246.15 83.5032 268.68 90.2374C306.625 101.578 353.105 125.91 329.865 183.668C306.625 241.427 269.663 294.334 116.751 260.272C-36.1613 226.21 -7.65136 89.9918 52.1709 44.3373C105.646 3.52712 173.19 -24.1868 221.258 30.535H221.259Z" fill="#FCEFDE"/>
<path d="M166.78 306.383C262.149 306.383 339.46 262.313 339.46 207.95C339.46 153.587 262.149 109.517 166.78 109.517C71.4117 109.517 -5.89983 153.587 -5.89983 207.95C-5.89983 262.313 71.4117 306.383 166.78 306.383Z" fill="#FFDCB3"/>
</g>
<path d="M245.253 77.0124L240.755 78.2208L95.4244 72.6298L121.223 65.3215L241.876 72.7454L245.253 77.0124Z" fill="#EACCA7"/>
<path d="M109.564 165.912L76.1069 220.983L238.95 234.526L276.841 175.032L275.243 170.293L109.564 165.912Z" fill="#993E22"/>
<path d="M275.243 170.293L237.352 229.787L74.5087 216.246L107.966 161.173L161.466 164.088L206.368 166.539L275.243 170.293Z" fill="#C58369"/>
<path d="M127.11 180.752L113.119 201.976L193.771 207.339L203.656 184.103L127.11 180.752Z" fill="#AD664D"/>
<path d="M96.7287 66.6946L242.06 72.2843L258.829 67.7702V70.5645L242.275 75.2937L96.7287 69.4901V66.6946Z" fill="#993E22"/>
<path d="M196.698 170.319H159.935V177.198H196.698V170.319Z" fill="#051023"/>
<path d="M189.662 172.683H166.972L166.815 165.588C166.815 163.46 168.557 161.719 170.685 161.719H185.634C187.762 161.719 189.504 163.46 189.504 165.588L189.662 172.683Z" fill="#051023"/>
<path d="M228.379 160.15L224.11 163.977L141.7 160.15L137.042 102.06L141.7 98.2329H228.379V160.15Z" fill="#051023"/>
<path d="M223.72 102.06H137.042V163.975H223.72V102.06Z" fill="#656C77"/>
<path d="M223.72 156.436H137.042V163.958H223.72V156.436Z" fill="#051023"/>
<path d="M219.918 105.447H139.781V153.496H219.918V105.447Z" fill="white"/>
<path d="M194.119 114.154H148.649V141.854H194.119V114.154Z" fill="#FDE37F"/>
<path d="M153.163 137.533H189.504" stroke="#FE2D5E" stroke-width="4" stroke-miterlimit="10" stroke-linecap="round"/>
<path d="M170.059 133.594C173.78 133.594 176.797 130.578 176.797 126.856C176.797 123.135 173.78 120.118 170.059 120.118C166.338 120.118 163.321 123.135 163.321 126.856C163.321 130.578 166.338 133.594 170.059 133.594Z" fill="white"/>
<path d="M167.997 124.78V129.003C167.997 129.367 168.38 129.603 168.705 129.44L172.928 127.33C173.288 127.149 173.288 126.635 172.928 126.454L168.705 124.344C168.381 124.181 167.997 124.417 167.997 124.781V124.78Z" fill="#FE2D5E"/>
<path d="M214.748 114.154H200.092C199.464 114.154 198.955 114.663 198.955 115.291V118.983C198.955 119.611 199.464 120.12 200.092 120.12H214.748C215.376 120.12 215.885 119.611 215.885 118.983V115.291C215.885 114.663 215.376 114.154 214.748 114.154Z" fill="#FE2D5E"/>
<path d="M213.869 123.344H203.713C203.223 123.344 202.825 123.742 202.825 124.232V127.116C202.825 127.606 203.223 128.003 203.713 128.003H213.869C214.36 128.003 214.757 127.606 214.757 127.116V124.232C214.757 123.742 214.36 123.344 213.869 123.344Z" fill="#FDE37F"/>
<path d="M209.652 131.191H200.03C199.436 131.191 198.955 131.672 198.955 132.265V135.754C198.955 136.348 199.436 136.829 200.03 136.829H209.652C210.245 136.829 210.726 136.348 210.726 135.754V132.265C210.726 131.672 210.245 131.191 209.652 131.191Z" fill="#FE2D5E"/>
<path d="M194.301 145.112H149.596C149.073 145.112 148.649 145.536 148.649 146.058V149.133C148.649 149.656 149.073 150.079 149.596 150.079H194.301C194.824 150.079 195.248 149.656 195.248 149.133V146.058C195.248 145.536 194.824 145.112 194.301 145.112Z" fill="#729CC8"/>
<path d="M123.066 186.012L109.601 206.436L187.212 211.596L196.725 189.237L123.066 186.012Z" fill="#051023"/>
<path d="M121.588 184.293L108.123 204.717L185.734 209.876L195.248 187.517L121.588 184.293Z" fill="#656C77"/>
<path d="M128.762 191.377L123.112 201.232L174.877 204.971L179.849 194.046L128.762 191.377Z" stroke="#3E444C" stroke-width="4" stroke-miterlimit="10" stroke-linecap="round"/>
<path d="M129.615 201.017L133.807 192.041" stroke="#3E444C" stroke-width="4" stroke-miterlimit="10" stroke-linecap="round"/>
<path d="M135.682 201.572L139.874 192.597" stroke="#3E444C" stroke-width="4" stroke-miterlimit="10" stroke-linecap="round"/>
<path d="M141.749 202.129L146.276 192.597" stroke="#3E444C" stroke-width="4" stroke-miterlimit="10" stroke-linecap="round"/>
<path d="M147.816 202.685L152.35 193.153" stroke="#3E444C" stroke-width="4" stroke-miterlimit="10" stroke-linecap="round"/>
<path d="M154.113 203.24L158.305 193.433" stroke="#3E444C" stroke-width="4" stroke-miterlimit="10" stroke-linecap="round"/>
<path d="M160.41 203.24L165.142 193.709" stroke="#3E444C" stroke-width="4" stroke-miterlimit="10" stroke-linecap="round"/>
<path d="M167.868 203.797L172.344 194.046" stroke="#3E444C" stroke-width="4" stroke-miterlimit="10" stroke-linecap="round"/>
<path d="M127.099 194.518L178.408 197.597" stroke="#3E444C" stroke-width="4" stroke-miterlimit="10" stroke-linecap="round"/>
<path d="M125.164 198.26L176.473 201.337" stroke="#3E444C" stroke-width="4" stroke-miterlimit="10" stroke-linecap="round"/>
<path d="M129.951 188.593L128.762 190.313L181.649 192.463V190.528L129.951 188.593Z" fill="#051023"/>
<path d="M89.2908 300.047C122.003 297.271 147.714 285.502 146.718 273.76C145.721 262.018 118.395 254.75 85.6827 257.525C52.9704 260.301 27.2595 272.07 28.2559 283.812C29.2522 295.554 56.5785 302.823 89.2908 300.047Z" fill="#EDB730"/>
<path d="M86.4604 289.454C119.173 286.678 144.884 274.909 143.887 263.167C142.891 251.425 115.565 244.156 82.8524 246.932C50.1401 249.707 24.4292 261.476 25.4255 273.218C26.4218 284.96 53.7481 292.229 86.4604 289.454Z" fill="#DDA21D"/>
<path d="M130.368 66.6959C136.334 66.6959 141.171 65.3981 141.171 63.7972C141.171 62.1962 136.334 60.8984 130.368 60.8984C124.401 60.8984 119.565 62.1962 119.565 63.7972C119.565 65.3981 124.401 66.6959 130.368 66.6959Z" fill="#AD664D"/>
<path d="M167.728 68.5128C173.695 68.5128 178.531 67.215 178.531 65.6141C178.531 64.0131 173.695 62.7153 167.728 62.7153C161.762 62.7153 156.925 64.0131 156.925 65.6141C156.925 67.215 161.762 68.5128 167.728 68.5128Z" fill="#AD664D"/>
<path d="M211.89 70.4674C217.857 70.4674 222.693 69.1696 222.693 67.5687C222.693 65.9677 217.857 64.6699 211.89 64.6699C205.924 64.6699 201.087 65.9677 201.087 67.5687C201.087 69.1696 205.924 70.4674 211.89 70.4674Z" fill="#AD664D"/>
<path d="M121.204 169.467C126.102 169.467 130.073 168.055 130.073 166.314C130.073 164.572 126.102 163.161 121.204 163.161C116.307 163.161 112.336 164.572 112.336 166.314C112.336 168.055 116.307 169.467 121.204 169.467Z" fill="#AD664D"/>
<path d="M121.287 166.176C121.287 166.176 128.448 165.654 126.913 157.929C120.537 157.269 114.16 157.929 114.16 157.929C114.16 157.929 113.001 166.554 121.287 166.176Z" fill="#FAB656"/>
<path d="M120.537 159.436C124.059 159.436 126.913 158.761 126.913 157.929C126.913 157.096 124.059 156.422 120.537 156.422C117.015 156.422 114.16 157.096 114.16 157.929C114.16 158.761 117.015 159.436 120.537 159.436Z" fill="#E5861F"/>
<path d="M120.617 160.943C124.138 160.943 126.993 160.268 126.993 159.436C126.993 158.603 124.138 157.929 120.617 157.929C117.095 157.929 114.24 158.603 114.24 159.436C114.24 160.268 117.095 160.943 120.617 160.943Z" fill="#B76413"/>
<path d="M120.537 159.436C120.537 159.436 117.196 159.566 119.549 152.863C121.901 146.158 118.709 139.203 118.709 139.203" stroke="#AECE29" stroke-width="4" stroke-miterlimit="10" stroke-linecap="round"/>
<path d="M118.116 137.667C118.116 137.667 118.832 133.984 116.684 134.189C114.537 134.393 118.116 137.667 118.116 137.667Z" fill="#AECE29"/>
<path d="M118.805 146.072C118.805 146.072 117.707 141.964 115.763 142.475C113.82 142.986 118.805 146.072 118.805 146.072Z" fill="#AECE29"/>
<path d="M118.709 150.356C118.709 150.356 116.684 145.954 115.252 147.488C113.82 149.022 118.709 150.356 118.709 150.356Z" fill="#AECE29"/>
<path d="M117.877 153.377C117.877 153.377 117.181 150.167 114.988 151.896C112.796 153.625 117.877 153.377 117.877 153.377Z" fill="#AECE29"/>
<path d="M122.31 146.481C122.31 146.481 124.487 142.452 124.83 144.561C125.173 146.671 122.31 146.481 122.31 146.481Z" fill="#AECE29"/>
<path d="M121.389 140.839C121.389 140.839 122.914 137.667 123.584 139.203C124.253 140.737 121.389 140.839 121.389 140.839Z" fill="#AECE29"/>
<path d="M121.389 150.997C121.389 150.997 124.691 149.288 124.83 150.997C124.969 152.706 121.389 150.997 121.389 150.997Z" fill="#AECE29"/>
<path d="M122.527 59.3853L96.7287 66.6948L242.06 72.2845L258.829 67.7704L122.527 59.3853Z" fill="#C58369"/>
<path d="M166.736 67.2252C166.736 67.2252 155.584 66.3978 157.973 54.1853C167.904 53.1421 177.835 54.1853 177.835 54.1853C177.835 54.1853 179.64 67.822 166.736 67.2252Z" fill="#FAB656"/>
<mask id="mask1_380_3776" style="mask-type:alpha" maskUnits="userSpaceOnUse" x="157" y="51" width="21" height="6">
<path d="M167.728 56.5589C173.279 56.5589 177.779 55.4951 177.779 54.1827C177.779 52.8703 173.279 51.8064 167.728 51.8064C162.177 51.8064 157.677 52.8703 157.677 54.1827C157.677 55.4951 162.177 56.5589 167.728 56.5589Z" fill="#E5861F"/>
</mask>
<g mask="url(#mask1_380_3776)">
<path d="M167.841 56.6723C173.341 56.6723 177.799 55.599 177.799 54.2751C177.799 52.9512 173.341 51.8779 167.841 51.8779C162.342 51.8779 157.884 52.9512 157.884 54.2751C157.884 55.599 162.342 56.6723 167.841 56.6723Z" fill="#E5861F"/>
<path d="M167.603 58.9354C173.154 58.9354 177.654 57.8715 177.654 56.5591C177.654 55.2468 173.154 54.1829 167.603 54.1829C162.052 54.1829 157.552 55.2468 157.552 56.5591C157.552 57.8715 162.052 58.9354 167.603 58.9354Z" fill="#B76413"/>
</g>
<path d="M167.728 56.559C167.728 56.559 172.996 56.7655 169.287 46.1971C165.578 35.6286 170.61 24.6643 170.61 24.6643" stroke="#AECE29" stroke-width="4" stroke-miterlimit="10" stroke-linecap="round"/>
<path d="M171.545 22.2462C171.545 22.2462 170.417 16.4413 173.802 16.7634C177.188 17.0855 171.545 22.2462 171.545 22.2462Z" fill="#AECE29"/>
<path d="M170.46 35.4933C170.46 35.4933 172.191 29.0185 175.254 29.8237C178.317 30.6302 170.46 35.4933 170.46 35.4933Z" fill="#AECE29"/>
<path d="M170.61 42.2461C170.61 42.2461 173.802 35.3066 176.059 37.7259C178.316 40.144 170.61 42.2461 170.61 42.2461Z" fill="#AECE29"/>
<path d="M171.921 47.0083C171.921 47.0083 173.018 41.9497 176.473 44.6751C179.929 47.4005 171.921 47.0083 171.921 47.0083Z" fill="#AECE29"/>
<path d="M164.934 36.1388C164.934 36.1388 161.503 29.787 160.961 33.111C160.419 36.4351 164.934 36.1388 164.934 36.1388Z" fill="#AECE29"/>
<path d="M166.384 27.2446C166.384 27.2446 163.979 22.2462 162.924 24.6643C161.869 27.0823 166.384 27.2446 166.384 27.2446Z" fill="#AECE29"/>
<path d="M166.384 43.2566C166.384 43.2566 161.179 40.5644 160.961 43.2566C160.741 45.9488 166.384 43.2566 166.384 43.2566Z" fill="#AECE29"/>
<mask id="mask2_380_3776" style="mask-type:alpha" maskUnits="userSpaceOnUse" x="199" y="51" width="26" height="17">
<path d="M199.447 51.5815L201.808 62.584C202.482 65.7236 205.257 67.9659 208.468 67.9659H215.817C219.105 67.9659 221.924 65.6167 222.516 62.3823L224.496 51.5815H199.447Z" fill="#FAB656"/>
</mask>
<g mask="url(#mask2_380_3776)">
<path d="M199.435 51.5088L201.796 62.5112C202.47 65.6509 205.244 67.8932 208.455 67.8932H215.804C219.093 67.8932 221.912 65.5439 222.504 62.3096L224.483 51.5088H199.435Z" fill="#FAB656"/>
<path d="M215.83 47.4756C215.83 47.4756 220.808 65.9633 202.016 63.3338C183.224 60.7055 219.171 71.9046 219.171 71.9046L230.024 60.4301L230.572 46.0151L215.831 47.4743L215.83 47.4756Z" fill="#E28C24"/>
</g>
<mask id="mask3_380_3776" style="mask-type:alpha" maskUnits="userSpaceOnUse" x="197" y="45" width="30" height="10">
<path d="M224.83 45.8123H198.95C198.136 45.8123 197.475 46.4727 197.475 47.2874V53.2582C197.475 54.073 198.136 54.7334 198.95 54.7334H224.83C225.645 54.7334 226.305 54.073 226.305 53.2582V47.2874C226.305 46.4727 225.645 45.8123 224.83 45.8123Z" fill="#E28C24"/>
</mask>
<g mask="url(#mask3_380_3776)">
<path d="M224.83 47.9021H198.95C198.136 47.9021 197.475 48.5626 197.475 49.3773V55.3481C197.475 56.1628 198.136 56.8233 198.95 56.8233H224.83C225.645 56.8233 226.305 56.1628 226.305 55.3481V49.3773C226.305 48.5626 225.645 47.9021 224.83 47.9021Z" fill="#E28C24"/>
<path d="M224.83 43.7188H198.95C198.136 43.7188 197.475 44.3792 197.475 45.1939V51.1647C197.475 51.9795 198.136 52.6399 198.95 52.6399H224.83C225.645 52.6399 226.305 51.9795 226.305 51.1647V45.1939C226.305 44.3792 225.645 43.7188 224.83 43.7188Z" fill="#FAB656"/>
</g>
<path d="M209.401 44.8499C209.401 44.8499 196.413 47.2298 200.646 61.7124C204.878 76.1938 193.173 74.6449 193.173 74.6449" stroke="#99B141" stroke-width="4" stroke-miterlimit="10" stroke-linecap="round"/>
<path d="M206.62 43.5259C206.62 43.5259 200.808 38.9712 200.691 42.1441C200.574 45.317 206.62 43.5259 206.62 43.5259Z" fill="#99B141"/>
<path d="M207.576 47.3982C207.576 47.3982 203.598 53.1612 207.248 52.5343C210.898 51.9073 207.576 47.3982 207.576 47.3982Z" fill="#99B141"/>
<path d="M200.303 48.2232C197.243 47.6836 193.877 51.9395 196.001 52.3329C198.125 52.7262 200.303 48.2232 200.303 48.2232Z" fill="#99B141"/>
<path d="M202.384 53.3335C202.384 53.3335 203.016 60.4881 205.321 57.5943C207.626 54.7005 202.384 53.3335 202.384 53.3335Z" fill="#99B141"/>
<path d="M197.372 56.8899C197.372 56.8899 193.03 61.1679 196.015 61.5306C198.999 61.8932 197.372 56.8899 197.372 56.8899Z" fill="#99B141"/>
<path d="M202.435 61.9448C202.435 61.9448 209.482 63.3352 206.439 65.205C203.398 67.0735 202.435 61.9448 202.435 61.9448Z" fill="#99B141"/>
<path d="M199.216 65.2368C199.216 65.2368 191.137 67.9229 194.816 69.5333C198.495 71.1437 199.216 65.2368 199.216 65.2368Z" fill="#99B141"/>
<path d="M202.39 70.748C202.39 70.748 202.102 76.961 204.661 75.7501C207.219 74.538 202.39 70.748 202.39 70.748Z" fill="#99B141"/>
<path d="M197.36 75.4819C197.36 75.4819 191.31 78.6794 194.498 79.9149C197.685 81.1503 197.36 75.4819 197.36 75.4819Z" fill="#99B141"/>
<path d="M191.97 73.7366C191.97 73.7366 188.56 70.5969 187.176 73.4305C185.792 76.2653 191.97 73.7366 191.97 73.7366Z" fill="#99B141"/>
<path d="M196.719 72.3596C196.699 72.6645 196.436 72.8956 196.131 72.8772C195.827 72.8575 195.596 72.5944 195.614 72.2896C195.634 71.9847 195.897 71.7536 196.202 71.772C196.506 71.7917 196.738 72.0548 196.719 72.3596Z" fill="#8CC63F"/>
<path d="M205.042 68.2524C205.02 68.6064 204.713 68.8757 204.358 68.8535C204.004 68.8314 203.735 68.5253 203.757 68.17C203.779 67.816 204.085 67.5468 204.44 67.5689C204.795 67.591 205.064 67.8971 205.042 68.2524Z" fill="#8CC63F"/>
<path d="M200.31 45.8875C200.293 46.1629 200.055 46.3719 199.78 46.3547C199.505 46.3375 199.296 46.1002 199.313 45.8236C199.33 45.5482 199.567 45.3392 199.843 45.3565C200.118 45.3737 200.327 45.6109 200.31 45.8863V45.8875Z" fill="#8CC63F"/>
<path d="M192.278 76.3132C192.257 76.6328 191.983 76.875 191.663 76.8541C191.343 76.8332 191.101 76.559 191.122 76.2394C191.143 75.9198 191.417 75.6776 191.737 75.6985C192.056 75.7194 192.298 75.9936 192.278 76.3132Z" fill="#8CC63F"/>
<path d="M211.89 45.087C211.89 45.087 224.872 42.6739 226.088 57.7121C227.303 72.7516 237.685 67.125 237.685 67.125" stroke="#99B141" stroke-width="4" stroke-miterlimit="10" stroke-linecap="round"/>
<path d="M214.014 42.8569C214.014 42.8569 217.818 36.5283 219.06 39.4504C220.301 42.3725 214.014 42.8569 214.014 42.8569Z" fill="#99B141"/>
<path d="M214.504 46.8154C214.504 46.8154 220.277 50.7788 216.644 51.4967C213.01 52.2146 214.504 46.8154 214.504 46.8154Z" fill="#99B141"/>
<path d="M221.593 44.99C224.258 43.3943 228.921 46.1677 227.078 47.2925C225.234 48.4185 221.593 44.99 221.593 44.99Z" fill="#99B141"/>
<path d="M221.473 50.5071C221.473 50.5071 223.436 57.4159 220.249 55.535C217.063 53.6541 221.473 50.5071 221.473 50.5071Z" fill="#99B141"/>
<path d="M227.424 52.0388C227.424 52.0388 233.007 54.4852 230.348 55.8903C227.689 57.2942 227.424 52.0388 227.424 52.0388Z" fill="#99B141"/>
<path d="M224.499 58.5688C224.499 58.5688 218.414 62.3834 221.923 63.0436C225.431 63.7037 224.499 58.5688 224.499 58.5688Z" fill="#99B141"/>
<path d="M228.681 60.4952C228.681 60.4952 237.187 60.1215 234.325 62.9379C231.463 65.7555 228.681 60.4952 228.681 60.4952Z" fill="#99B141"/>
<path d="M227.684 66.7759C227.684 66.7759 230.171 72.4775 227.349 72.2586C224.526 72.0398 227.684 66.7759 227.684 66.7759Z" fill="#99B141"/>
<path d="M234.072 69.4028C234.072 69.4028 240.864 70.2302 238.328 72.5216C235.791 74.8131 234.072 69.4028 234.072 69.4028Z" fill="#99B141"/>
<path d="M238.484 65.8479C238.484 65.8479 240.548 61.6977 242.853 63.8502C245.158 66.004 238.484 65.8479 238.484 65.8479Z" fill="#99B141"/>
<path d="M233.556 66.2572C233.682 66.535 234.01 66.6579 234.29 66.5301C234.567 66.4035 234.69 66.0752 234.562 65.7962C234.436 65.5183 234.108 65.3954 233.829 65.5233C233.551 65.6499 233.428 65.9781 233.556 66.2572Z" fill="#8CC63F"/>
<path d="M224.316 65.3916C224.464 65.7149 224.846 65.8575 225.169 65.7088C225.493 65.5612 225.635 65.1789 225.486 64.8556C225.339 64.5323 224.957 64.3897 224.633 64.5384C224.31 64.686 224.167 65.0683 224.316 65.3916Z" fill="#8CC63F"/>
<path d="M220.751 42.8117C220.865 43.0625 221.162 43.1731 221.414 43.0588C221.664 42.9445 221.775 42.6482 221.661 42.3962C221.546 42.1454 221.25 42.0348 220.998 42.1491C220.747 42.2634 220.637 42.5597 220.751 42.8117Z" fill="#8CC63F"/>
<path d="M239.116 68.3655C239.249 68.6568 239.593 68.7847 239.883 68.6519C240.174 68.5191 240.302 68.1749 240.169 67.8848C240.037 67.5934 239.692 67.4656 239.402 67.5984C239.111 67.7311 238.983 68.0753 239.116 68.3655Z" fill="#00933B"/>
<path d="M135.049 39.5785C135.049 39.5785 134.668 30.5701 137.269 31.331C139.87 32.092 135.049 39.5785 135.049 39.5785Z" stroke="#FAB656" stroke-width="4" stroke-miterlimit="10" stroke-linecap="round"/>
<path d="M142.093 52.7959C142.093 52.7959 153.449 48.7994 153.957 51.9711C154.465 55.1427 142.093 52.7959 142.093 52.7959Z" stroke="#FAB656" stroke-width="4" stroke-miterlimit="10" stroke-linecap="round"/>
<path d="M120.439 52.9989C120.439 52.9989 111.621 51.9098 113.269 56.9205C114.919 61.9324 118.091 52.9461 120.439 52.9989Z" stroke="#FAB656" stroke-width="4" stroke-miterlimit="10" stroke-linecap="round"/>
<path d="M130.819 56.2049C130.819 56.2049 133.01 37.491 145.313 38.4068C146.439 38.4904 147.468 39.1161 148.004 40.1094C151.181 46.0065 136.184 55.9554 130.819 56.2049Z" fill="#FAB656" stroke="white" stroke-width="4" stroke-miterlimit="10" stroke-linecap="round"/>
<path d="M128.794 59.079C128.794 59.079 142.716 38.9427 149.282 38.3735" stroke="white" stroke-width="4" stroke-miterlimit="10" stroke-linecap="round"/>
<path d="M148.249 42.8878L143.89 41.5639L143.541 38.686" stroke="white" stroke-width="4" stroke-miterlimit="10" stroke-linecap="round"/>
<path d="M146.801 45.7669L141.45 43.8307L140.452 39.1814" stroke="white" stroke-width="4" stroke-miterlimit="10" stroke-linecap="round"/>
<path d="M144.826 48.2181L138.914 46.5056L137.688 41.1753" stroke="white" stroke-width="4" stroke-miterlimit="10" stroke-linecap="round"/>
<path d="M142.297 50.4356L136.584 49.1854L135.332 44.0161" stroke="white" stroke-width="4" stroke-miterlimit="10" stroke-linecap="round"/>
<path d="M138.872 52.7702L134.12 51.949L133.117 47.73" stroke="white" stroke-width="4" stroke-miterlimit="10" stroke-linecap="round"/>
<path d="M129.303 56.961C129.303 56.961 137.572 35.5315 123.781 29.5287C122.519 28.9792 121.053 29.0689 119.911 29.8373C113.133 34.3931 123.659 53.6443 129.303 56.961Z" fill="#FAB656" stroke="white" stroke-width="4" stroke-miterlimit="10" stroke-linecap="round"/>
<path d="M129.854 61.212C129.854 61.212 126.275 31.5817 119.517 27.2385" stroke="white" stroke-width="4" stroke-miterlimit="10" stroke-linecap="round"/>
<path d="M118.066 32.6954L123.519 33.744L125.532 30.8367" stroke="white" stroke-width="4" stroke-miterlimit="10" stroke-linecap="round"/>
<path d="M117.993 36.6244L124.865 37.5746L128.583 33.127" stroke="white" stroke-width="4" stroke-miterlimit="10" stroke-linecap="round"/>
<path d="M118.731 40.3898L126.081 41.9007L130.43 36.8481" stroke="white" stroke-width="4" stroke-miterlimit="10" stroke-linecap="round"/>
<path d="M120.2 44.2191L127.071 46.1147L131.36 41.2502" stroke="white" stroke-width="4" stroke-miterlimit="10" stroke-linecap="round"/>
<path d="M122.566 48.6827L128.16 50.4959L131.639 46.5154" stroke="white" stroke-width="4" stroke-miterlimit="10" stroke-linecap="round"/>
<mask id="mask4_380_3776" style="mask-type:alpha" maskUnits="userSpaceOnUse" x="121" y="55" width="19" height="11">
<path d="M122.088 55.208C122.088 55.208 119.297 63.5194 123.929 64.7242C128.559 65.9301 139.027 65.9928 139.535 62.1229C140.043 58.253 138.901 55.6518 138.901 55.6518C138.901 55.6518 133.964 56.4705 129.319 56.5172C126.316 56.5467 123.434 56.2542 122.088 55.208Z" fill="#99B141"/>
</mask>
<g mask="url(#mask4_380_3776)">
<path d="M122.084 55.1968C122.084 55.1968 119.292 63.5082 123.924 64.7129C128.555 65.9189 139.023 65.9816 139.53 62.1117C140.038 58.2418 138.896 55.6406 138.896 55.6406C138.896 55.6406 133.959 56.4593 129.315 56.506C126.312 56.5355 123.43 56.2429 122.084 55.1968Z" fill="#99B141"/>
<path d="M122.295 53.6318C122.295 53.6318 128.178 58.1262 138.582 54.7013C139.375 54.1666 139.692 54.4887 139.811 54.9447C139.961 55.5201 139.655 56.1175 139.119 56.3744C137.071 57.3579 130.914 59.6973 123.037 56.9239C122.179 56.6215 121.599 55.7868 121.683 54.8808C121.758 54.0695 122.295 53.6331 122.295 53.6331V53.6318Z" fill="#99B141"/>
<path d="M122.295 53.6318C122.295 53.6318 128.178 58.1262 138.582 54.7013C139.375 54.1666 139.692 54.4887 139.811 54.9447C139.961 55.5201 139.655 56.1175 139.119 56.3744C137.071 57.3579 130.914 59.6973 123.037 56.9239C122.179 56.6215 121.599 55.7868 121.683 54.8808C121.758 54.0695 122.295 53.6331 122.295 53.6331V53.6318Z" fill="#718423"/>
<path d="M121.413 54.6597C121.413 54.6597 127.963 59.1541 139.547 55.7292C140.43 55.1944 140.783 55.5165 140.915 55.9726C141.083 56.5479 140.742 57.1454 140.145 57.4023C137.865 58.3857 131.009 60.7251 122.24 57.9518C121.284 57.6494 120.638 56.8147 120.731 55.9087C120.814 55.0973 121.413 54.6609 121.413 54.6609V54.6597Z" fill="#718423"/>
<path d="M121.255 55.2081C121.255 55.2081 129.794 57.3139 134.298 58.4412C138.802 59.5685 132.973 65.8601 122.407 63.8563C111.839 61.8525 128.589 71.4326 130.111 71.6859C131.633 71.9391 143.814 66.4207 143.814 66.4207L141.721 53.6309L121.255 55.2081Z" fill="#718423"/>
</g>
<path d="M217.12 154.013C217.12 154.593 216.037 155.062 214.702 155.062C213.641 155.062 212.741 154.768 212.415 154.356C212.328 154.249 212.282 154.134 212.282 154.014C212.282 153.998 212.282 153.979 212.288 153.963C212.285 153.957 212.285 153.95 212.292 153.943H217.11C217.116 153.965 217.12 153.989 217.12 154.014V154.013Z" fill="#FCEFDE"/>
<path d="M97.4184 257.494C97.4184 257.494 135.632 251.528 144.44 259.767C153.248 268.006 104.096 284.769 91.7364 283.633C79.3769 282.497 65.5974 275.678 65.5974 275.678L97.4184 257.495V257.494Z" fill="#051023"/>
<path d="M64.2341 278.81C77.3841 281.505 91.1427 278.44 103.462 273.11C115.781 267.78 127.003 260.262 138.599 253.503C141.298 251.931 144.402 250.344 147.406 251.195C150.387 252.039 152.293 255.206 152.419 258.303C152.547 261.399 151.212 264.385 149.496 266.964C144.136 275.02 135.23 279.908 126.482 284.045C117.696 288.2 108.515 291.965 98.8284 292.765C88.0251 293.659 76.9416 290.679 68.0425 284.487C66.2723 283.255 64.416 281.549 64.5365 279.395" fill="black"/>
<path d="M147.565 212.036L157.354 204.081C157.354 204.081 159.498 197.262 164.612 192.858C169.726 188.455 169.299 191.367 169.299 191.367C169.299 191.367 166.813 194.421 166.813 196.41C166.813 198.399 177.681 187.532 179.812 192.574C181.943 197.617 174.911 205.147 172.993 206.922C171.075 208.697 155.804 222.619 155.804 222.619L147.565 212.036Z" fill="#FFBF9F"/>
<path d="M147.816 214.453C147.816 214.453 157.08 208.004 158.772 204.456C160.465 200.908 162.274 194.939 165.787 193.152C169.3 191.366 170.61 188.475 170.61 188.475L159.579 194.046L150.819 205.711L145.712 210.745L147.816 214.454V214.453Z" fill="#F49369"/>
<path d="M167.316 194.518L166.753 197.01C166.718 197.169 166.864 197.308 167.019 197.26C168.442 196.825 173.987 195.004 178.408 191.799C183.524 188.09 167.316 194.518 167.316 194.518Z" fill="#F49369"/>
<mask id="mask5_380_3776" style="mask-type:alpha" maskUnits="userSpaceOnUse" x="65" y="114" width="43" height="47">
<path d="M101.964 116.004C101.964 116.004 104.379 125.38 103.669 133.193C104.085 135.769 105.52 138.004 106.641 139.416C107.414 140.391 107.355 141.784 106.51 142.697L102.818 146.69C102.818 146.69 101.396 157.486 95.288 156.634C89.1795 155.782 85.9119 154.504 85.9119 154.504L84.3495 160.612L65.5974 159.334L67.7278 151.236C67.7278 151.236 68.1544 105.493 101.963 116.006L101.964 116.004Z" fill="#FFBF9F"/>
</mask>
<g mask="url(#mask5_380_3776)">
<path d="M102.467 114.567C102.467 114.567 104.881 123.943 104.172 131.757C104.588 134.332 106.022 136.567 107.143 137.979C107.917 138.954 107.858 140.347 107.013 141.261L103.32 145.253C103.32 145.253 101.899 156.049 95.7907 155.197C89.6822 154.345 86.4147 153.067 86.4147 153.067L84.8522 159.175L66.1002 157.897L68.2306 149.799C68.2306 149.799 68.6571 104.056 102.466 114.57L102.467 114.567Z" fill="#FFBF9F"/>
<path d="M81.2208 144.437C81.2208 144.437 79.3818 153.96 74.6944 154.67C70.007 155.379 68.3019 153.675 68.3019 153.675L67.3074 154.527C67.3074 154.527 41.7375 126.528 62.62 117.727C64.0411 109.637 74.553 99.2667 88.475 104.381C102.397 109.495 104.811 117.024 104.811 117.024C104.811 117.024 109.641 119.439 105.522 120.86C101.403 122.281 93.8078 125.264 88.6176 122.422C83.4262 119.58 87.7657 126.491 83.5036 127.44C79.2416 128.389 78.5765 140.6 81.2233 144.436L81.2208 144.437Z" fill="#F49369"/>
<path d="M90.5649 156.436L80.7992 152.387L89.681 159.436L90.5649 156.436Z" fill="#F49369"/>
</g>
<path d="M91.7365 145.268C91.7365 145.268 92.0204 148.109 97.4184 147.398" stroke="#E26356" stroke-width="4" stroke-miterlimit="10" stroke-linecap="round"/>
<path d="M95.9985 134.331C96.7833 134.331 97.4196 133.122 97.4196 131.631C97.4196 130.14 96.7833 128.932 95.9985 128.932C95.2136 128.932 94.5774 130.14 94.5774 131.631C94.5774 133.122 95.2136 134.331 95.9985 134.331Z" fill="black"/>
<path d="M97.4184 124.528C97.4184 124.528 94.1508 123.25 91.7365 125.38" stroke="black" stroke-width="4" stroke-miterlimit="10" stroke-linecap="round"/>
<mask id="mask6_380_3776" style="mask-type:alpha" maskUnits="userSpaceOnUse" x="54" y="99" width="54" height="53">
<path d="M79.4297 143.705C79.4297 143.705 79.8034 150.666 75.1148 151.376C70.4274 152.087 68.7223 150.382 68.7223 150.382L67.7278 151.234C67.7278 151.234 42.158 123.235 63.0404 114.434C64.4615 106.344 74.9734 95.9735 88.8955 101.087C102.818 106.201 105.232 113.731 105.232 113.731C105.232 113.731 110.062 116.145 105.942 117.566C101.823 118.988 94.2283 121.971 89.0381 119.129C83.8467 116.287 88.1862 123.198 83.9241 124.147C79.6621 125.096 76.7842 139.87 79.4309 143.705H79.4297Z" fill="#3C3148"/>
</mask>
<g mask="url(#mask6_380_3776)">
<path d="M79.8012 143.978C79.8012 143.978 80.1765 151.096 75.4674 151.823C70.7596 152.55 69.0471 150.806 69.0471 150.806L68.0482 151.677C68.0482 151.677 42.3667 123.042 63.3403 114.042C64.7676 105.768 75.3255 95.1617 89.3083 100.392C103.291 105.622 105.716 113.322 105.716 113.322C105.716 113.322 110.567 115.792 106.43 117.245C102.292 118.698 94.6643 121.75 89.4515 118.843C84.2374 115.936 88.5959 123.004 84.3152 123.975C80.0345 124.946 77.1441 140.055 79.8024 143.978H79.8012Z" fill="#3C3148"/>
<path d="M62.8782 148.57C66.3006 150.704 71.0163 150.526 74.2691 148.141C75.5057 147.234 76.6011 145.836 76.4068 144.314C76.2987 143.467 75.8082 142.726 75.4689 141.941C74.2223 139.049 75.089 135.71 76.188 132.757C77.4505 129.363 79.0032 126.076 80.8226 122.945C81.2663 122.18 81.7863 121.374 82.6149 121.066C83.0304 120.913 83.5074 120.891 83.8577 120.62C84.4527 120.159 84.3778 119.267 84.4515 118.517C84.6814 116.163 87.2531 114.332 89.5532 114.887C90.9792 115.231 92.1262 116.299 93.5116 116.781C96.076 117.675 98.8505 116.428 101.248 115.152C103.645 113.875 106.3 112.492 108.942 113.12C110.035 113.379 111.028 113.976 111.876 114.713C112.694 115.424 113.425 116.351 113.497 117.432C113.602 119.027 112.285 120.331 110.997 121.28C104.639 125.968 96.698 127.793 89.2791 130.505C88.2317 130.889 87.0601 131.426 86.754 132.499C86.5315 133.281 86.8499 134.102 87.1413 134.862C89.2053 140.241 90.1199 146.245 88.5611 151.793C88.314 152.673 87.9907 153.563 87.3736 154.24C86.7516 154.921 85.8874 155.324 85.0293 155.658C80.4906 157.428 75.3988 157.749 70.6745 156.561C68.6326 156.047 66.6129 155.229 65.0676 153.801C63.5211 152.372 62.5106 150.25 62.802 148.165" fill="#081230"/>
<path d="M53.0325 126.582C53.3263 121.76 57.5749 117.496 62.3963 117.185C63.6145 117.107 64.8463 117.25 66.0547 117.075C67.2631 116.899 68.5097 116.319 69.0481 115.223C69.3198 114.669 69.3849 114.038 69.4329 113.424C69.6111 111.142 69.6161 108.846 69.4476 106.563C69.3825 105.681 69.2743 104.753 68.7445 104.046C67.5545 102.458 64.9594 102.902 63.4326 104.17C60.2634 106.805 59.8897 111.449 58.0961 115.159C56.6713 118.107 54.2188 120.732 54.0406 124.001" fill="#081230"/>
</g>
<path d="M58.353 163.168L62.1885 157.627C62.1885 157.627 86.4799 156.917 89.0368 161.322C91.5938 165.725 90.4579 169.987 90.4579 169.987L58.353 163.168Z" fill="#CC1142"/>
<path d="M31.8292 190.528C31.8292 190.528 47.8399 159.759 67.1599 162.032C86.4799 164.305 99.8327 173.681 99.8327 173.681C99.8327 173.681 109.493 182.489 113.186 190.16C116.88 197.831 126.254 223.402 126.254 223.402L147.848 208.628C147.848 208.628 158.643 215.163 157.223 223.402C133.074 243.574 135.347 248.972 122.562 245.279C109.777 241.585 100.181 228.232 100.181 228.232L105.799 268.292C105.799 268.292 106.367 277.384 91.7352 279.657C77.1038 281.93 63.7497 279.657 63.7497 279.657L31.828 190.529L31.8292 190.528Z" fill="#FE2D5E"/>
<path d="M111.61 247.4C103.25 240.431 97.4675 230.854 95.2289 220.204C92.5318 207.365 89.7916 190.976 91.9983 185.572C95.8079 176.239 98.2297 177.198 98.2297 177.198C98.2297 177.198 93.9086 184.695 94.9437 194.046C96.0231 203.797 98.8849 226.117 109.601 233.211C120.317 240.305 125.185 244.821 132.211 239.875C139.236 234.931 158.388 216.657 158.388 216.657L162.776 225.041L137.042 251.241L111.61 247.4Z" fill="#D81E50"/>
<path d="M78.5655 136.448C79.072 136.464 79.4494 136.925 79.426 137.431C79.367 138.686 79.415 141.5 80.7807 143.575C81.6855 144.95 81.1741 145.208 80.4378 145.123C79.4334 145.007 78.6208 144.245 78.375 143.264C77.791 140.935 76.8703 136.396 78.5655 136.448Z" fill="#E56B41"/>
<path d="M87.1019 142.855C89.0144 142.855 90.5649 141.305 90.5649 139.392C90.5649 137.479 89.0144 135.929 87.1019 135.929C85.1893 135.929 83.6389 137.479 83.6389 139.392C83.6389 141.305 85.1893 142.855 87.1019 142.855Z" fill="#EA7B75"/>
<path d="M81.3966 288.235C86.5217 287.63 90.4063 284.276 90.7026 280.195C92.1396 260.489 94.9707 204.762 81.9535 195.347C66.0879 183.87 8.52746 179.599 1.75637 187.265C-5.01595 194.931 8.5287 286.081 29.8107 289.514C44.8108 291.933 68.6375 289.74 81.3954 288.235H81.3966Z" fill="#FFD67C"/>
<path d="M47.7108 176.253C50.8677 177.82 52.6318 181.195 54.1906 184.357C57.9166 191.918 61.6857 199.606 63.1646 207.905C64.3988 214.828 64.0042 222.019 65.858 228.803C66.7653 232.122 68.2282 235.332 70.4557 237.955C72.9291 240.867 76.2273 242.939 79.083 245.478C81.9375 248.018 84.4773 251.347 84.583 255.167C84.7219 260.175 80.734 264.343 79.667 269.24C78.4917 274.635 80.9787 280.087 83.4656 285.018C86.0017 290.045 89.7572 295.76 95.3851 295.628C99.7246 295.526 103.116 291.808 105.145 287.97C108.803 281.049 109.806 273.056 110.32 265.243C111.283 250.63 110.736 235.801 107.113 221.612C103.489 207.424 96.6599 193.859 86.2549 183.555C84.0642 181.387 81.6904 179.345 78.9208 177.992C75.6901 176.416 72.0735 175.848 68.5121 175.354C63.4314 174.649 58.0777 174.082 53.3227 176.005C51.3201 176.814 49.3077 178.075 47.1761 177.724" fill="#FFC34A"/>
<path d="M100.725 258.078L99.1382 279.668C98.9968 281.595 100.521 283.234 102.452 283.234C104.165 283.234 105.597 281.933 105.76 280.228L108.075 256.052L100.725 258.076V258.078Z" fill="#C16500"/>
<path d="M104.53 253.084L101.143 285.009H96.4681V254.972L104.53 253.084Z" fill="#93500C"/>
<path d="M133.806 246.471L132.219 268.062C132.078 269.988 133.602 271.628 135.533 271.628C137.246 271.628 138.678 270.326 138.842 268.621L141.156 244.446L133.806 246.47V246.471Z" fill="#C16500"/>
<path d="M137.275 243.731L134.198 274.149L128.716 270.39L130.651 243.731H137.275Z" fill="#93500C"/>
<path d="M148.569 247.657L97.1061 263.659C96.2997 263.91 95.433 263.455 95.1822 262.648L93.0899 255.919C92.8391 255.113 93.294 254.246 94.1004 253.995L145.563 237.993C146.37 237.742 147.237 238.197 147.487 239.004L149.58 245.733C149.83 246.539 149.376 247.406 148.569 247.657Z" fill="#E8941D"/>
<path d="M99.3348 267.229C101.91 264.485 101.75 259.641 98.9992 257.073C101.23 256.942 103.308 255.963 105.39 255.153C112.607 252.348 120.399 251.447 127.898 249.519C134.393 247.85 140.658 245.409 146.907 242.975C148.079 242.519 149.278 242.046 150.216 241.209C151.154 240.372 151.792 239.08 151.507 237.855C151.098 236.096 149.117 235.264 147.382 234.761C128.941 229.417 107.863 231.325 92.2908 242.556C89.4781 244.585 86.6802 247.224 86.2807 250.668C86.0606 252.567 86.6175 254.485 87.4817 256.189C89.6687 260.496 93.9406 263.682 98.6919 264.551C99.4147 264.683 100.253 264.836 100.6 265.484C100.945 266.132 99.9987 267.101 99.5512 266.518" fill="#CC7B1B"/>
<path d="M279.615 290.32C278.824 299.629 263.037 310.327 218.578 306.552C185.865 303.775 160.155 292.004 161.152 280.263C161.352 277.924 162.594 275.763 164.717 273.821C173.251 266.024 195.993 261.806 222.188 264.031C251.361 266.508 274.966 276.138 279.026 286.52C279.517 287.779 279.723 289.05 279.615 290.32Z" fill="#EDB730"/>
<path d="M279.026 286.52C272.306 293.373 255.081 298.817 221.409 295.958C192.566 293.509 169.168 284.069 164.717 273.821C173.251 266.024 195.993 261.806 222.188 264.031C251.361 266.508 274.967 276.138 279.026 286.52Z" fill="#DDA21D"/>
<path d="M182.936 218.763C182.936 218.763 178.099 208.444 179.227 202.961C180.356 197.478 188.095 188.772 190.352 194.577C192.609 200.382 190.03 203.768 190.352 206.831C190.675 209.895 189.063 218.28 182.936 218.763Z" fill="#FFBF9F"/>
<path d="M182.148 210.192C182.148 210.192 170.356 186.328 157.135 183.426C171.163 175.042 184.546 167.624 184.546 167.624C184.546 167.624 204.883 187.135 205.045 199.55C193.436 207.942 182.149 210.192 182.149 210.192H182.148Z" fill="#CCD4ED"/>
<path d="M183.401 205.727C183.401 205.727 171.609 181.864 158.388 178.961C172.415 170.577 185.799 163.159 185.799 163.159C185.799 163.159 206.136 182.67 206.298 195.085C194.688 203.477 183.402 205.727 183.402 205.727H183.401Z" fill="white"/>
<path d="M169.051 178.317L185.436 168.503" stroke="#E1E7FF" stroke-width="4" stroke-miterlimit="10" stroke-linecap="round"/>
<path d="M175.339 181.057L188.883 173.409" stroke="#E1E7FF" stroke-width="4" stroke-miterlimit="10" stroke-linecap="round"/>
<path d="M177.243 186.379L188.077 180.252" stroke="#E1E7FF" stroke-width="4" stroke-miterlimit="10" stroke-linecap="round"/>
<path d="M188.077 191.377L198.396 185.573" stroke="#E1E7FF" stroke-width="4" stroke-miterlimit="10" stroke-linecap="round"/>
<path d="M185.799 197.665L201.137 190.426" stroke="#E1E7FF" stroke-width="4" stroke-miterlimit="10" stroke-linecap="round"/>
<path d="M213.251 263.578C213.251 263.578 175.038 257.612 166.229 265.851C157.421 274.089 206.573 290.852 218.933 289.717C231.292 288.581 245.072 281.762 245.072 281.762L213.251 263.579V263.578Z" fill="#24418F"/>
<path d="M208.706 122.088C208.706 122.088 206.292 131.464 207.001 139.277C206.586 141.853 205.151 144.088 204.03 145.5C203.257 146.475 203.316 147.868 204.16 148.781L207.853 152.774C207.853 152.774 209.274 163.57 215.383 162.718C221.491 161.866 224.759 160.588 224.759 160.588L227.645 171.87L240.016 170.738L242.943 157.321C242.943 157.321 242.516 111.578 208.707 122.092L208.706 122.088Z" fill="#FFBF9F"/>
<mask id="mask7_380_3776" style="mask-type:alpha" maskUnits="userSpaceOnUse" x="203" y="120" width="40" height="52">
<path d="M208.706 122.088C208.706 122.088 206.292 131.464 207.001 139.277C206.586 141.853 205.151 144.088 204.03 145.5C203.257 146.475 203.316 147.868 204.16 148.781L207.853 152.774C207.853 152.774 209.274 163.57 215.383 162.718C221.491 161.866 224.759 160.588 224.759 160.588L227.645 171.87L240.016 170.738L242.943 157.321C242.943 157.321 242.516 111.578 208.707 122.092L208.706 122.088Z" fill="#FFBF9F"/>
</mask>
<g mask="url(#mask7_380_3776)">
<path d="M241.501 170.71C241.501 170.71 252.035 171.963 251.604 166.802C251.174 161.642 244.844 158.423 249.024 151.328C253.204 144.234 257.623 137.714 251.604 126.319C245.585 114.925 236.555 117.505 236.555 117.505C236.555 117.505 232.388 104.391 221.679 106.756C213.63 108.533 207.501 114.807 204.954 117.811C204.152 118.758 204.07 120.122 204.754 121.16C207.95 126.017 219.217 140.999 226.628 137.714C228.488 140.938 228.641 142.638 228.641 142.638C228.641 142.638 225.979 164.652 218.496 166.802C221.667 170.436 228.094 168.142 230.902 166.883C231.107 166.791 231.276 167.064 231.106 167.209L228.641 169.316C228.641 169.316 240.436 173.186 242.473 168.026" fill="#F49369"/>
</g>
<path d="M214.672 140.413C215.457 140.413 216.093 139.205 216.093 137.714C216.093 136.223 215.457 135.014 214.672 135.014C213.887 135.014 213.251 136.223 213.251 137.714C213.251 139.205 213.887 140.413 214.672 140.413Z" fill="black"/>
<path d="M213.251 130.611C213.251 130.611 216.519 129.332 218.933 131.463L213.251 130.611Z" fill="white"/>
<path d="M213.251 130.611C213.251 130.611 216.519 129.332 218.933 131.463" stroke="black" stroke-width="4" stroke-miterlimit="10" stroke-linecap="round"/>
<path d="M217.825 155.233C216.367 156.81 213.92 159.029 213.252 156.955C212.781 155.495 212.539 154.742 212.414 154.356C212.33 154.092 212.298 153.998 212.288 153.963L212.282 153.943H217.255C217.926 153.943 218.28 154.743 217.825 155.233Z" fill="#E26356"/>
<path d="M245.073 273.908L213.252 263.578L212.282 236.941C212.282 236.941 200.673 260.148 191.858 256.278C183.043 252.408 180.464 216.936 180.464 216.936L187.122 213.41L191.428 211.131L195.298 226.18C195.298 226.18 196.447 217.17 199.549 206.552C203.571 192.79 210.875 176.327 223.215 173.293C223.215 173.293 233.622 168.1 241.118 170.481C248.615 172.864 256.355 171.358 261.944 192.642C267.533 213.925 245.073 273.908 245.073 273.908Z" fill="#FFA63B"/>
<path d="M182.111 212.151L183.488 200.676C183.569 200.002 184.133 199.455 184.811 199.476C185.238 199.489 185.648 199.735 185.799 200.542C186.16 202.477 185.799 203.175 185.799 203.175C185.799 203.175 189.278 206.991 187.719 209.463" fill="#FFBF9F"/>
<path d="M243.685 170.71C243.685 170.71 254.219 171.963 253.789 166.802C253.359 161.642 247.029 158.423 251.209 151.328C255.388 144.234 259.808 137.714 253.789 126.319C247.769 114.925 238.74 117.505 238.74 117.505C238.74 117.505 234.572 104.391 223.864 106.756C215.814 108.533 209.686 114.807 207.139 117.811C206.336 118.758 206.255 120.122 206.938 121.16C210.135 126.017 219.72 139.279 227.131 135.994C228.991 139.218 230.825 142.64 230.825 142.64C230.825 142.64 228.164 164.653 220.681 166.803C223.851 170.437 230.278 168.143 233.086 166.884C233.291 166.792 233.461 167.065 233.29 167.21L230.825 169.317C230.825 169.317 242.621 173.187 244.658 168.028" fill="#F05B1A"/>
<path d="M253.79 166.802C253.952 168.753 252.547 169.788 250.737 170.319C247.759 171.194 243.685 170.71 243.685 170.71L244.658 168.026C244.324 168.871 243.731 169.472 242.97 169.89H242.969C239.076 172.024 230.825 169.317 230.825 169.317L233.291 167.21C233.461 167.065 233.291 166.792 233.086 166.884C230.279 168.142 223.853 170.437 220.682 166.802C228.165 164.653 230.825 142.638 230.825 142.638C230.825 142.638 228.991 139.218 227.131 135.994C219.72 139.279 210.135 126.017 206.938 121.16C206.256 120.122 206.336 118.758 207.14 117.811C207.737 117.105 208.533 116.22 209.504 115.255C212.671 112.108 217.705 108.117 223.865 106.756C226.078 106.267 228.013 106.44 229.687 107.021C236.118 109.253 238.741 117.505 238.741 117.505C238.741 117.505 246.749 115.217 252.708 124.465H252.71C253.078 125.039 253.44 125.655 253.79 126.319C259.809 137.714 255.39 144.234 251.21 151.328C248.491 155.945 250.22 158.92 251.879 161.856C252.77 163.434 253.64 165 253.79 166.802Z" fill="#351524"/>
<path d="M250.737 170.319C250.438 170.662 250.092 170.976 249.732 171.25C249.694 171.253 249.655 171.257 249.617 171.261C247.143 171.484 244.607 171.582 242.219 170.901L242.969 169.89C239.077 172.024 230.825 169.317 230.825 169.317L233.291 167.21C233.461 167.065 233.291 166.792 233.086 166.884C230.28 168.142 223.853 170.437 220.682 166.802C228.165 164.653 230.825 142.638 230.825 142.638C230.825 142.638 228.991 139.218 227.131 135.994C219.72 139.279 210.135 126.017 206.938 121.16C206.256 120.122 206.336 118.758 207.14 117.811C207.737 117.105 208.533 116.22 209.504 115.255C210.088 117.907 210.827 120.527 212.209 122.848C214.336 126.423 217.889 129.032 221.805 130.436C225.72 131.841 229.982 132.101 234.119 131.657C234.811 131.583 235.625 131.533 236.082 132.059C236.349 132.366 236.415 132.797 236.441 133.202C236.74 138.013 232.807 142.427 233.445 147.204C233.645 148.705 234.281 150.077 235.085 151.372C235.993 152.833 235.696 154.74 234.358 155.823C231.948 157.775 229.894 160.166 228.338 162.85C228.133 163.205 228.061 163.635 228.181 164.029C228.421 164.813 229.098 164.845 229.694 164.812C231.493 164.71 233.267 164.229 234.873 163.418C235.44 163.132 236.04 163.743 235.756 164.31L235.72 164.38C235.548 164.724 235.45 165.109 235.481 165.494C235.55 166.32 236.134 166.525 236.689 166.595C237.835 166.742 238.236 166.485 238.923 165.779C239.717 164.962 240.989 164.786 241.956 165.392C241.991 165.414 242.027 165.435 242.064 165.453C242.734 165.809 243.536 165.791 244.29 165.696C245.319 165.565 246.33 165.303 247.293 164.921C248.43 164.471 249.502 163.855 250.46 163.093C249.93 164.629 251.555 166.071 251.729 167.686C251.833 168.661 251.394 169.564 250.737 170.319Z" fill="#230816"/>
<path d="M226.62 104.912L225.978 105.116C226.14 104.929 226.373 104.881 226.62 104.912Z" fill="#230816"/>
<path d="M252.708 124.466C252.601 124.402 252.499 124.322 252.405 124.241C250.872 122.925 249.777 120.929 247.835 120.376C245.28 119.647 242.913 121.767 240.59 123.056C240.044 123.358 239.448 123.626 238.824 123.603C237.24 123.542 236.362 121.777 235.874 120.269C234.968 117.457 234.215 114.582 232.968 111.904C232.138 110.122 231.061 108.412 229.687 107.021C236.118 109.253 238.741 117.505 238.741 117.505C238.741 117.505 246.749 115.217 252.708 124.466Z" fill="#230816"/>
<path d="M250.737 170.319C250.438 170.662 250.092 170.976 249.732 171.25C249.694 171.253 249.655 171.257 249.617 171.261C247.143 171.484 244.607 171.582 242.219 170.901L242.969 169.89H242.97L246.366 165.316C246.675 165.2 246.985 165.067 247.293 164.921C248.901 164.165 250.504 163.035 251.879 161.856C252.77 163.434 253.64 165 253.79 166.802C253.952 168.753 252.547 169.788 250.737 170.319Z" fill="#230816"/>
<path d="M230.814 142.53C230.308 142.546 229.93 143.007 229.954 143.514C230.013 144.769 229.965 147.583 228.599 149.658C227.694 151.032 228.206 151.29 228.942 151.206C229.946 151.09 230.759 150.328 231.005 149.347C231.589 147.017 232.509 142.479 230.814 142.53Z" fill="#E56B41"/>
<path d="M220.383 181.057C220.383 181.057 229.061 188.722 227.139 201.053C223.699 223.117 212.282 236.941 212.282 236.941C212.282 236.941 235.91 197.085 220.383 181.057Z" fill="#E88315"/>
<path d="M199.549 206.552C197.837 217.649 198.795 229.706 195.248 232.352C191.662 235.024 188.399 220.173 187.122 213.41L191.428 211.131L195.298 226.181C195.298 226.181 196.447 217.17 199.549 206.552Z" fill="#E88315"/>
<path d="M164.023 260.068C164.708 263.343 167.127 266.048 169.974 267.806C172.821 269.564 176.087 270.501 179.319 271.365C188.452 273.808 197.897 275.855 207.299 274.869C213.353 274.235 219.217 272.356 225.258 271.604C231.299 270.851 237.866 271.38 242.731 275.036C244.418 276.303 245.892 278.004 246.359 280.061C247.083 283.252 245.174 286.577 242.516 288.484C239.858 290.39 236.578 291.172 233.386 291.881C222.511 294.296 211.444 296.351 200.31 295.982C189.176 295.614 177.864 292.655 169.009 285.895C165.311 283.071 161.961 279.383 160.989 274.833C159.884 269.664 162.004 264.41 164.081 259.548" fill="#1B3777"/>
<path d="M226.49 294.752C221.364 294.147 217.48 290.792 217.184 286.712C215.746 267.006 212.915 211.279 225.933 201.863C241.798 190.386 299.359 186.116 306.13 193.782C312.902 201.448 299.357 292.598 278.075 296.03C263.075 298.45 239.249 296.257 226.491 294.752H226.49Z" fill="#FFD67C"/>
<path d="M225.931 201.863C231.289 197.987 241.401 194.934 252.707 192.883C249.32 199.799 246.07 206.857 244.722 214.422C243.487 221.345 243.882 228.536 242.028 235.319C241.12 238.638 239.658 241.848 237.429 244.471C234.956 247.384 231.658 249.455 228.803 251.995C225.947 254.535 223.409 257.864 223.302 261.683C223.163 266.691 227.152 270.86 228.218 275.756C229.393 281.152 226.906 286.604 224.419 291.533C224.025 292.317 223.599 293.117 223.143 293.909C219.752 292.546 217.411 289.843 217.182 286.712C215.747 267.006 212.914 211.279 225.931 201.863Z" fill="#FFC34A"/>
<path d="M207.16 264.594L208.747 286.185C208.888 288.111 207.364 289.751 205.432 289.751C203.72 289.751 202.288 288.449 202.124 286.744L199.81 262.568L207.16 264.593V264.594Z" fill="#C16500"/>
<path d="M203.356 259.601L206.742 291.526H211.418V261.489L203.356 259.601Z" fill="#93500C"/>
<path d="M174.079 252.988L175.666 274.579C175.807 276.505 174.283 278.145 172.351 278.145C170.639 278.145 169.207 276.843 169.043 275.138L166.729 250.962L174.079 252.987V252.988Z" fill="#C16500"/>
<path d="M170.61 250.248L173.688 280.665L179.169 276.907L177.236 250.248H170.61Z" fill="#93500C"/>
<path d="M214.796 262.436L212.704 269.166C212.452 269.973 211.586 270.427 210.78 270.177L206.717 268.913L159.317 254.175C158.509 253.924 158.055 253.057 158.305 252.251L159.372 248.82L160.399 245.52C160.65 244.714 161.515 244.259 162.322 244.51L213.784 260.513C214.592 260.764 215.047 261.629 214.796 262.436Z" fill="#E8941D"/>
<path d="M214.796 262.436L212.704 269.166C212.452 269.973 211.586 270.427 210.78 270.177L206.717 268.913C206.705 266.934 207.435 264.946 208.887 263.591C206.656 263.458 204.578 262.481 202.494 261.671C195.28 258.866 187.486 257.965 179.988 256.037C173.494 254.368 167.226 251.927 160.979 249.493C160.439 249.283 159.895 249.07 159.372 248.82L160.399 245.52C160.65 244.714 161.515 244.259 162.322 244.51L213.784 260.513C214.592 260.764 215.047 261.629 214.796 262.436Z" fill="#CC7B1B"/>
<path d="M220.583 148.731C222.495 148.731 224.046 147.18 224.046 145.268C224.046 143.355 222.495 141.805 220.583 141.805C218.67 141.805 217.12 143.355 217.12 145.268C217.12 147.18 218.67 148.731 220.583 148.731Z" fill="#EA7B75"/>
</svg>
