<svg width="547" height="508" viewBox="0 0 547 508" fill="none" xmlns="http://www.w3.org/2000/svg">
<path d="M135.814 203.38C185.788 164.449 216.333 120.095 204.039 104.314C191.745 88.533 141.267 107.3 91.2928 146.232C41.319 185.163 10.7735 229.517 23.0676 245.298C35.3618 261.079 85.8399 242.312 135.814 203.38Z" fill="#FAD8AC"/>
<path d="M255.546 114.163C246.275 116.171 237.304 119.377 228.861 123.702C216.78 129.927 201.142 140.321 191.633 155.678C186.936 163.26 181.817 170.565 175.951 177.281C161.159 194.218 134.454 220.833 105.203 231.056C96.5753 234.073 88.2966 238.04 80.6754 243.078C57.0529 258.67 19.0596 292.888 28.5443 347.784C30.4596 358.741 30.7129 369.924 29.2957 380.957C25.9463 406.646 26.7898 453.934 74.4988 467.645C74.4988 467.645 410.506 565.04 482.267 434.873C486.587 426.985 491.852 419.652 497.946 413.038C512.962 396.83 539.671 361.666 542.264 314.416C542.418 311.598 542.698 308.789 543.073 305.992C546.66 279.381 561.16 143.054 485.057 123.311C483.911 123.014 482.767 122.706 481.632 122.372C467.262 118.132 365.229 90.1568 255.546 114.163Z" fill="#FAD8AC"/>
<path d="M264.506 507.741C374.869 507.741 464.337 492.814 464.337 474.401C464.337 455.987 374.869 441.06 264.506 441.06C154.143 441.06 64.6758 455.987 64.6758 474.401C64.6758 492.814 154.143 507.741 264.506 507.741Z" fill="#FAC29C"/>
<path d="M158.809 491.691C208.686 491.691 249.12 483.976 249.12 474.459C249.12 464.942 208.686 457.227 158.809 457.227C108.932 457.227 68.499 464.942 68.499 474.459C68.499 483.976 108.932 491.691 158.809 491.691Z" fill="#FAA27B"/>
<path d="M299.003 468.983C321.499 468.983 339.735 462.514 339.735 454.533C339.735 446.553 321.499 440.084 299.003 440.084C276.507 440.084 258.271 446.553 258.271 454.533C258.271 462.514 276.507 468.983 299.003 468.983Z" fill="#FAA27B"/>
<path d="M40.1665 461.899C51.4865 461.899 60.6632 458.643 60.6632 454.627C60.6632 450.611 51.4865 447.355 40.1665 447.355C28.8466 447.355 19.6699 450.611 19.6699 454.627C19.6699 458.643 28.8466 461.899 40.1665 461.899Z" fill="#FAA27B"/>
<path d="M473.417 438.746C495.913 438.746 514.149 432.277 514.149 424.296C514.149 416.316 495.913 409.847 473.417 409.847C450.921 409.847 432.685 416.316 432.685 424.296C432.685 432.277 450.921 438.746 473.417 438.746Z" fill="#FAA27B"/>
<path d="M134.935 173.96C161.84 173.96 183.651 152.149 183.651 125.244C183.651 98.339 161.84 76.5281 134.935 76.5281C108.03 76.5281 86.2188 98.339 86.2188 125.244C86.2188 152.149 108.03 173.96 134.935 173.96Z" fill="#FAFCFB"/>
<path d="M135.165 163.949C156.552 163.949 173.889 146.612 173.889 125.225C173.889 103.839 156.552 86.5012 135.165 86.5012C113.779 86.5012 96.4414 103.839 96.4414 125.225C96.4414 146.612 113.779 163.949 135.165 163.949Z" fill="#FBD6AD"/>
<path d="M137.151 130.017C139.797 128.921 141.054 125.887 139.958 123.24C138.861 120.594 135.827 119.337 133.181 120.433C130.535 121.529 129.278 124.563 130.374 127.21C131.47 129.856 134.504 131.113 137.151 130.017Z" fill="#F9FEFE"/>
<path d="M162.945 125.244H169.685" stroke="#F9FBFD" stroke-miterlimit="10"/>
<path d="M107.309 125.244H101.044" stroke="#F9FBFD" stroke-miterlimit="10"/>
<path d="M135.166 153.121V160.151" stroke="#F9FBFD" stroke-miterlimit="10"/>
<path d="M135.166 96.7805V90.3898" stroke="#F9FBFD" stroke-miterlimit="10"/>
<path d="M135.757 102.985H134.551V129.583H135.757V102.985Z" fill="#F9FBFD" stroke="#F9FBFD" stroke-miterlimit="10"/>
<path d="M135.165 100.99L133.589 103.722H136.743L135.165 100.99Z" fill="#F9FBFD" stroke="#F9FBFD" stroke-miterlimit="10"/>
<path d="M150.165 125.72L150.167 124.754L137.381 124.741L137.38 125.706L150.165 125.72Z" fill="#F9FBFD" stroke="#F9FBFD" stroke-miterlimit="10"/>
<path d="M152.328 125.227L150.143 123.961L150.139 126.488L152.328 125.227Z" fill="#F9FBFD" stroke="#F9FBFD" stroke-miterlimit="10"/>
<path d="M91.2905 146.205C91.2905 146.205 98.9925 179.919 138.881 178.728C138.881 178.728 184.935 173.372 183.65 125.244C183.65 125.244 184.554 172.942 133.589 170.231C133.589 170.231 100.448 171.565 91.2905 146.205Z" fill="#D49B8C"/>
<path d="M113.553 154.134C113.553 154.134 95.5814 139.498 104.704 112.851C104.704 112.851 111.59 94.515 131.003 86.7247C131.003 86.7247 104.405 89.3547 97.0467 118.416C97.0467 118.416 92.726 139.371 110.76 155.289L113.553 154.134Z" fill="#D49B8C" stroke="#D49B8C" stroke-miterlimit="10"/>
<path d="M67.9267 179.388C70.9249 176.389 70.9249 171.528 67.9267 168.53C64.9284 165.532 60.0672 165.532 57.069 168.53C54.0707 171.528 54.0707 176.389 57.069 179.388C60.0672 182.386 64.9284 182.386 67.9267 179.388Z" fill="white"/>
<path d="M97.196 203.851C98.6947 202.352 98.6947 199.922 97.196 198.423C95.6972 196.925 93.2672 196.925 91.7684 198.423C90.2697 199.922 90.2697 202.352 91.7685 203.851C93.2672 205.35 95.6972 205.35 97.196 203.851Z" fill="white"/>
<path d="M187.56 158.137C189.059 156.639 189.059 154.209 187.56 152.71C186.061 151.211 183.631 151.211 182.132 152.71C180.633 154.209 180.633 156.639 182.132 158.137C183.631 159.636 186.061 159.636 187.56 158.137Z" fill="white"/>
<path d="M229.779 86.0655H502.561C505.295 86.0655 507.917 87.1517 509.85 89.085C511.784 91.0184 512.87 93.6406 512.87 96.3749V284.925C512.87 286.279 512.603 287.62 512.085 288.871C511.567 290.122 510.807 291.258 509.85 292.216C508.892 293.173 507.756 293.933 506.505 294.451C505.254 294.969 503.913 295.236 502.559 295.236H229.779C228.425 295.236 227.085 294.969 225.834 294.451C224.583 293.933 223.446 293.173 222.488 292.216C221.531 291.258 220.771 290.122 220.253 288.871C219.735 287.62 219.468 286.279 219.468 284.925V96.3767C219.468 93.642 220.555 91.0193 222.488 89.0856C224.422 87.1519 227.045 86.0655 229.779 86.0655Z" fill="#D49B8C" stroke="#D49B8C" stroke-miterlimit="10"/>
<path d="M508.021 80.8958H235.238C229.544 80.8958 224.929 85.5114 224.929 91.2051V279.757C224.929 285.451 229.544 290.066 235.238 290.066H508.021C513.715 290.066 518.331 285.451 518.331 279.757V91.2051C518.331 85.5114 513.715 80.8958 508.021 80.8958Z" fill="#023A68"/>
<path d="M496.396 89.8093H246.863C241.654 89.8093 237.431 94.0322 237.431 99.2414V271.72C237.431 276.93 241.654 281.152 246.863 281.152H496.396C501.605 281.152 505.828 276.93 505.828 271.72V99.2414C505.828 94.0322 501.605 89.8093 496.396 89.8093Z" fill="#EDF6FC"/>
<path d="M256.346 100.506H356.503C357.005 100.51 357.501 100.614 357.963 100.81C358.425 101.006 358.843 101.292 359.195 101.65C359.546 102.008 359.824 102.432 360.011 102.897C360.199 103.363 360.293 103.861 360.289 104.362V174.871C360.293 175.373 360.199 175.871 360.011 176.336C359.824 176.801 359.546 177.225 359.195 177.583C358.843 177.941 358.425 178.227 357.963 178.423C357.501 178.619 357.005 178.723 356.503 178.728H256.346C255.332 178.718 254.364 178.307 253.654 177.583C252.944 176.86 252.55 175.885 252.559 174.871V104.362C252.55 103.349 252.944 102.373 253.654 101.65C254.364 100.927 255.332 100.515 256.346 100.506Z" fill="#9595C4"/>
<path d="M261.478 106.558H350.304C350.744 106.557 351.179 106.642 351.586 106.809C351.992 106.976 352.362 107.221 352.674 107.531C352.986 107.841 353.233 108.209 353.403 108.614C353.572 109.02 353.66 109.455 353.661 109.895V170.907C353.66 171.347 353.572 171.782 353.403 172.187C353.233 172.593 352.986 172.961 352.674 173.271C352.362 173.581 351.992 173.826 351.586 173.993C351.179 174.16 350.744 174.245 350.304 174.243H261.478C261.038 174.245 260.603 174.16 260.196 173.993C259.79 173.826 259.42 173.581 259.108 173.271C258.797 172.961 258.549 172.593 258.38 172.187C258.21 171.782 258.122 171.347 258.121 170.907V109.895C258.122 109.455 258.21 109.02 258.38 108.614C258.549 108.209 258.797 107.841 259.108 107.531C259.42 107.221 259.79 106.976 260.196 106.809C260.603 106.642 261.038 106.557 261.478 106.558Z" fill="#EDEDEF"/>
<path d="M286.835 113.969C283.476 112.735 279.829 112.514 276.346 113.335C272.862 114.155 269.697 115.98 267.242 118.584C264.787 121.187 263.151 124.455 262.536 127.98C261.922 131.505 262.356 135.133 263.786 138.414C265.215 141.695 267.577 144.483 270.577 146.433C273.577 148.384 277.084 149.41 280.662 149.385C284.241 149.36 287.733 148.284 290.705 146.292C293.678 144.3 296 141.478 297.383 138.178L280.531 131.118L286.835 113.969Z" fill="#C5C1E5"/>
<path d="M288.262 113.402L281.959 130.551L298.81 137.61C299.762 135.334 300.244 132.889 300.226 130.421C300.208 127.954 299.691 125.516 298.705 123.254C297.719 120.992 296.286 118.953 294.491 117.259C292.696 115.566 290.577 114.254 288.262 113.402Z" fill="#C5C1E5"/>
<path d="M327.861 129.788L340.147 117.354C337.347 114.587 333.695 112.846 329.782 112.413C325.87 111.98 321.926 112.88 318.588 114.967C315.251 117.055 312.716 120.207 311.393 123.915C310.071 127.623 310.038 131.668 311.301 135.397C312.564 139.125 315.048 142.318 318.352 144.459C321.655 146.6 325.585 147.563 329.504 147.192C333.423 146.822 337.102 145.139 339.946 142.417C342.79 139.696 344.632 136.094 345.174 132.195L327.861 129.788Z" fill="#C5C1E5"/>
<path d="M347.915 131.421C348.027 130.62 348.084 129.813 348.086 129.005C348.088 126.691 347.63 124.4 346.738 122.265C345.845 120.13 344.536 118.194 342.888 116.571L330.604 129.005L347.915 131.421Z" fill="#C5C1E5"/>
<path d="M270.162 155.21C270.764 152.658 269.184 150.101 266.632 149.499C264.08 148.897 261.524 150.477 260.921 153.029C260.319 155.58 261.9 158.137 264.451 158.739C267.003 159.342 269.559 157.761 270.162 155.21Z" fill="#EFEBC7"/>
<path d="M265.558 172.057C268.18 172.057 270.305 169.932 270.305 167.31C270.305 164.688 268.18 162.563 265.558 162.563C262.936 162.563 260.811 164.688 260.811 167.31C260.811 169.932 262.936 172.057 265.558 172.057Z" fill="#EFEBC7"/>
<path d="M308.321 152.366H272.135V155.424H308.321V152.366Z" fill="#B9B6DD"/>
<path d="M308.321 165.781H272.135V168.839H308.321V165.781Z" fill="#B9B6DD"/>
<path d="M252.559 186.542V190.596C252.559 191.182 253.964 191.658 255.698 191.658H399.443C401.177 191.658 402.582 191.182 402.582 190.596V186.542C402.582 185.956 401.177 185.481 399.443 185.481H255.698C253.964 185.481 252.559 185.956 252.559 186.542Z" fill="#CAD0E0"/>
<path d="M252.559 200.124V204.18C252.559 204.766 253.964 205.241 255.698 205.241H399.443C401.177 205.241 402.582 204.766 402.582 204.18V200.124C402.582 199.538 401.177 199.063 399.443 199.063H255.698C253.964 199.063 252.559 199.538 252.559 200.124Z" fill="#CAD0E0"/>
<path d="M252.559 213.495V217.551C252.559 218.137 253.964 218.613 255.698 218.613H399.443C401.177 218.613 402.582 218.137 402.582 217.551V213.495C402.582 212.909 401.177 212.434 399.443 212.434H255.698C253.964 212.434 252.559 212.909 252.559 213.495Z" fill="#CAD0E0"/>
<path d="M252.559 228.219V232.275C252.559 232.861 253.964 233.336 255.698 233.336H399.443C401.177 233.336 402.582 232.861 402.582 232.275V228.219C402.582 227.633 401.177 227.16 399.443 227.16H255.698C253.964 227.16 252.559 227.633 252.559 228.219Z" fill="#CAD0E0"/>
<path d="M252.559 242.998V247.053C252.559 247.64 253.964 248.115 255.698 248.115H399.443C401.177 248.115 402.582 247.64 402.582 247.053V242.998C402.582 242.412 401.177 241.936 399.443 241.936H255.698C253.964 241.936 252.559 242.412 252.559 242.998Z" fill="#CAD0E0"/>
<path d="M252.559 257.241V261.296C252.559 261.883 253.964 262.356 255.698 262.356H399.443C401.177 262.356 402.582 261.883 402.582 261.296V257.241C402.582 256.655 401.177 256.179 399.443 256.179H255.698C253.964 256.179 252.559 256.655 252.559 257.241Z" fill="#CAD0E0"/>
<path d="M372.741 104.022V108.078C372.741 108.664 373.893 109.139 375.313 109.139H493.142C494.564 109.139 495.715 108.664 495.715 108.078V104.022C495.715 103.436 494.564 102.961 493.142 102.961H375.313C373.893 102.961 372.741 103.436 372.741 104.022Z" fill="#CAD0E0"/>
<path d="M372.741 131.327V135.383C372.741 135.969 373.893 136.444 375.313 136.444H493.142C494.564 136.444 495.715 135.969 495.715 135.383V131.327C495.715 130.741 494.564 130.265 493.142 130.265H375.313C373.893 130.264 372.741 130.739 372.741 131.327Z" fill="#CAD0E0"/>
<path d="M427.159 115.942L422.804 114.953C421.239 114.598 420.148 113.375 420.146 111.976V109.387C420.146 107.541 418.41 106.047 416.276 106.051L370.628 106.121C368.492 106.121 366.764 107.623 366.768 109.468L366.788 123.704C366.788 125.55 368.524 127.044 370.66 127.042L415.865 126.972C417.999 126.972 419.727 125.469 419.725 123.623V121.369C419.725 120.044 420.698 118.866 422.147 118.442L427.2 116.962C427.775 116.787 427.747 116.075 427.159 115.942Z" fill="white"/>
<path d="M377.09 120.692C379.302 120.692 381.095 118.899 381.095 116.687C381.095 114.475 379.302 112.682 377.09 112.682C374.879 112.682 373.085 114.475 373.085 116.687C373.085 118.899 374.879 120.692 377.09 120.692Z" fill="#E5DEFF"/>
<path d="M392.145 120.551C394.357 120.551 396.15 118.758 396.15 116.546C396.15 114.334 394.357 112.541 392.145 112.541C389.933 112.541 388.14 114.334 388.14 116.546C388.14 118.758 389.933 120.551 392.145 120.551Z" fill="#E5DEFF"/>
<path d="M408.21 120.551C410.422 120.551 412.215 118.758 412.215 116.546C412.215 114.334 410.422 112.541 408.21 112.541C405.998 112.541 404.205 114.334 404.205 116.546C404.205 118.758 405.998 120.551 408.21 120.551Z" fill="#E5DEFF"/>
<path d="M68.2129 266.333V315.751C68.2134 317.509 68.9118 319.194 70.1546 320.437C71.3974 321.68 73.0828 322.378 74.8403 322.379H117.438V259.705H74.8403C73.0828 259.706 71.3974 260.404 70.1546 261.647C68.9118 262.89 68.2134 264.575 68.2129 266.333Z" fill="#FF0019"/>
<path d="M117.438 322.379H105.772V364.204H117.438V322.379Z" fill="#350205"/>
<path d="M76.2797 364.204H156.145V385.638H76.2797C74.6091 385.638 73.007 384.975 71.8258 383.793C70.6446 382.612 69.981 381.01 69.981 379.339V370.51C69.98 369.683 70.1422 368.863 70.4583 368.098C70.7744 367.333 71.2382 366.637 71.8231 366.052C72.4081 365.466 73.1028 365.001 73.8675 364.684C74.6322 364.367 75.4519 364.204 76.2797 364.204Z" fill="#FF0019"/>
<path d="M78.8174 385.638V390.71C78.8174 391.472 79.12 392.203 79.6587 392.741C80.1973 393.28 80.9279 393.582 81.6897 393.582H156.145V385.629L78.8174 385.638Z" fill="#290205"/>
<path d="M105.772 393.592V449.839C105.772 452.086 105.184 454.294 104.066 456.243C102.948 458.193 101.34 459.815 99.4003 460.95L89.7804 466.586C89.1332 466.965 88.5965 467.506 88.2237 468.157C87.851 468.807 87.6552 469.544 87.6558 470.294C87.6555 470.858 87.7664 471.417 87.9821 471.938C88.1979 472.459 88.5142 472.932 88.913 473.331C89.3118 473.73 89.7853 474.046 90.3064 474.262C90.8275 474.478 91.3861 474.589 91.9501 474.588H143.012C143.576 474.589 144.135 474.478 144.656 474.262C145.177 474.046 145.651 473.73 146.049 473.331C146.448 472.932 146.764 472.459 146.98 471.938C147.196 471.417 147.307 470.858 147.307 470.294V468.71C147.307 467.913 147.084 467.13 146.665 466.452C146.246 465.773 145.646 465.224 144.932 464.867L135.866 460.334C133.728 459.265 131.929 457.621 130.672 455.587C129.415 453.553 128.749 451.21 128.749 448.819V393.59L105.772 393.592Z" fill="#471600"/>
<path d="M96.853 486.957C100.269 486.957 103.039 484.187 103.039 480.771C103.039 477.354 100.269 474.585 96.853 474.585C93.4365 474.585 90.667 477.354 90.667 480.771C90.667 484.187 93.4365 486.957 96.853 486.957Z" fill="#FF4200"/>
<path d="M141.121 486.957C144.537 486.957 147.307 484.187 147.307 480.771C147.307 477.354 144.537 474.585 141.121 474.585C137.705 474.585 134.935 477.354 134.935 480.771C134.935 484.187 137.705 486.957 141.121 486.957Z" fill="#FF4200"/>
<path d="M270.589 396.575V413.698H342.946C343.222 413.698 343.495 413.643 343.749 413.538C344.004 413.432 344.236 413.277 344.43 413.082C344.625 412.887 344.78 412.656 344.885 412.401C344.991 412.146 345.045 411.873 345.044 411.597C345.044 411.041 344.823 410.507 344.43 410.114C344.036 409.72 343.503 409.499 342.946 409.499H315.991C315.435 409.499 314.901 409.278 314.507 408.885C314.114 408.491 313.893 407.957 313.893 407.401V400.11C313.893 399.554 314.114 399.02 314.507 398.626C314.901 398.232 315.434 398.011 315.991 398.01H342.835C343.125 398.01 343.413 397.953 343.681 397.842C343.949 397.731 344.192 397.568 344.397 397.363C344.602 397.158 344.765 396.914 344.876 396.646C344.987 396.378 345.044 396.091 345.044 395.801C345.044 395.215 344.811 394.654 344.397 394.239C343.983 393.825 343.421 393.592 342.835 393.592H273.572C272.781 393.592 272.022 393.906 271.463 394.466C270.903 395.025 270.589 395.784 270.589 396.575Z" fill="#B506A5"/>
<path d="M313.893 400.663V406.849C313.893 407.552 314.172 408.226 314.669 408.723C315.167 409.22 315.841 409.499 316.544 409.499H343.499V398.01H316.544C315.841 398.011 315.166 398.29 314.669 398.788C314.172 399.285 313.893 399.959 313.893 400.663Z" fill="white"/>
<path d="M266.833 415.467V423.419C266.833 423.709 266.891 423.997 267.002 424.265C267.113 424.533 267.275 424.776 267.481 424.981C267.686 425.186 267.929 425.349 268.197 425.46C268.465 425.571 268.753 425.628 269.043 425.628H342.839C344.056 425.628 345.044 425.065 345.044 424.383C345.044 423.695 344.056 423.137 342.839 423.137H314.526C313.308 423.137 312.32 422.574 312.32 421.892V417.571C312.32 416.882 313.308 416.326 314.526 416.326H342.722C344.005 416.326 345.044 415.738 345.044 415.011C345.044 414.286 344.005 413.696 342.722 413.696H269.967C268.235 413.698 266.833 414.49 266.833 415.467Z" fill="#E59405"/>
<path d="M312.32 417.893V421.559C312.32 422.429 313.568 423.134 315.106 423.134H343.419V416.316H315.106C313.568 416.32 312.32 417.025 312.32 417.893Z" fill="white"/>
<path d="M271.915 427.856V437.869C271.915 439.405 272.74 440.651 273.756 440.651H335.253C336.268 440.651 337.091 439.948 337.091 439.082C337.091 438.216 336.268 437.514 335.253 437.514H311.659C310.643 437.514 309.822 436.813 309.822 435.947V430.499C309.822 429.633 310.643 428.931 311.659 428.931H335.156C336.225 428.931 337.091 428.192 337.091 427.281C337.091 426.368 336.225 425.63 335.156 425.63H274.526C273.085 425.628 271.915 426.631 271.915 427.856Z" fill="#078BA0"/>
<path d="M309.822 430.911V435.534C309.822 436.627 310.861 437.514 312.142 437.514H335.736V428.929H312.142C310.861 428.929 309.822 429.825 309.822 430.911Z" fill="white"/>
<path d="M267.807 443.305V455.234C267.807 457.064 268.632 458.548 269.648 458.548H331.145C331.39 458.545 331.631 458.495 331.855 458.399C332.08 458.304 332.283 458.164 332.454 457.99C332.625 457.815 332.759 457.609 332.85 457.382C332.941 457.156 332.986 456.913 332.983 456.669C332.985 456.426 332.939 456.185 332.847 455.959C332.756 455.734 332.621 455.528 332.451 455.355C332.28 455.182 332.077 455.043 331.853 454.949C331.629 454.854 331.389 454.804 331.145 454.802H307.551C307.307 454.8 307.065 454.75 306.84 454.654C306.616 454.558 306.412 454.419 306.241 454.245C306.07 454.07 305.935 453.864 305.845 453.637C305.754 453.41 305.709 453.168 305.712 452.923V446.433C305.71 446.19 305.756 445.948 305.847 445.723C305.939 445.497 306.074 445.292 306.245 445.118C306.415 444.945 306.619 444.807 306.843 444.712C307.067 444.617 307.308 444.567 307.551 444.566H331.048C331.565 444.561 332.059 444.352 332.422 443.983C332.785 443.614 332.987 443.116 332.983 442.599C332.987 442.082 332.785 441.584 332.422 441.215C332.059 440.846 331.565 440.637 331.048 440.632H270.418C270.071 440.635 269.727 440.706 269.407 440.842C269.088 440.978 268.798 441.176 268.555 441.424C268.312 441.673 268.121 441.967 267.993 442.29C267.864 442.613 267.801 442.958 267.807 443.305Z" fill="#E20560"/>
<path d="M305.712 446.944V452.45C305.707 453.069 305.948 453.665 306.382 454.107C306.815 454.549 307.407 454.802 308.026 454.809H331.62V444.583H308.026C307.406 444.59 306.814 444.842 306.38 445.285C305.947 445.727 305.706 446.324 305.712 446.944Z" fill="white"/>
<path d="M325.996 272.318V280.268C325.996 280.558 326.053 280.845 326.164 281.114C326.275 281.382 326.437 281.626 326.642 281.831C326.848 282.036 327.091 282.199 327.359 282.31C327.628 282.422 327.915 282.479 328.205 282.479H402.001C403.219 282.479 404.207 281.915 404.207 281.233C404.207 280.544 403.219 279.988 402.001 279.988H373.688C372.471 279.988 371.483 279.424 371.483 278.742V274.422C371.483 273.734 372.471 273.176 373.688 273.176H401.885C403.168 273.176 404.207 272.59 404.207 271.861C404.207 271.136 403.168 270.546 401.885 270.546H329.128C327.398 270.548 325.996 271.339 325.996 272.318Z" fill="#E59405"/>
<path d="M371.483 274.743V278.416C371.483 279.285 372.73 279.99 374.269 279.99H402.582V273.171H374.269C372.73 273.169 371.483 273.873 371.483 274.743Z" fill="white"/>
<path d="M331.077 284.707V294.719C331.077 296.256 331.9 297.501 332.918 297.501H394.415C395.43 297.501 396.253 296.799 396.253 295.933C396.253 295.067 395.43 294.364 394.415 294.364H370.819C369.805 294.364 368.982 293.662 368.982 292.796V287.348C368.982 286.482 369.805 285.779 370.819 285.779H394.318C395.387 285.779 396.253 285.041 396.253 284.128C396.253 283.217 395.387 282.479 394.318 282.479H333.686C332.246 282.479 331.077 283.476 331.077 284.707Z" fill="#E20560"/>
<path d="M368.982 287.761V292.384C368.982 293.478 370.021 294.364 371.304 294.364H394.899V285.779H371.304C370.018 285.779 368.982 286.666 368.982 287.761Z" fill="white"/>
<path d="M326.968 300.156V312.082C326.968 313.914 327.793 315.398 328.811 315.398H390.306C390.798 315.394 391.267 315.194 391.612 314.844C391.956 314.493 392.147 314.02 392.143 313.529C392.146 313.038 391.955 312.567 391.61 312.217C391.266 311.868 390.797 311.669 390.306 311.665H366.712C366.468 311.663 366.227 311.613 366.002 311.517C365.777 311.421 365.574 311.282 365.403 311.108C365.232 310.933 365.098 310.727 365.007 310.5C364.917 310.273 364.872 310.031 364.875 309.787V303.297C364.873 303.053 364.919 302.812 365.01 302.587C365.101 302.361 365.236 302.156 365.407 301.982C365.577 301.809 365.78 301.671 366.004 301.576C366.228 301.481 366.469 301.431 366.712 301.429H390.21C390.728 301.425 391.222 301.215 391.585 300.846C391.948 300.478 392.149 299.98 392.145 299.462C392.149 298.945 391.948 298.447 391.585 298.079C391.222 297.71 390.728 297.5 390.21 297.496H329.579C329.233 297.498 328.89 297.569 328.571 297.704C328.253 297.839 327.964 298.036 327.721 298.283C327.478 298.53 327.287 298.823 327.158 299.144C327.028 299.466 326.964 299.809 326.968 300.156Z" fill="#078BA0"/>
<path d="M364.874 303.794V309.3C364.871 309.608 364.929 309.914 365.044 310.2C365.16 310.486 365.33 310.746 365.546 310.965C365.762 311.185 366.02 311.36 366.303 311.48C366.587 311.6 366.892 311.663 367.2 311.665H390.794V301.439H367.2C366.892 301.441 366.588 301.503 366.305 301.623C366.022 301.742 365.765 301.916 365.549 302.135C365.333 302.354 365.162 302.613 365.047 302.898C364.931 303.182 364.872 303.487 364.874 303.794Z" fill="white"/>
<path d="M114.459 235.948L108.135 234.424C105.861 233.876 104.273 231.982 104.269 229.833V225.843C104.269 222.997 101.747 220.694 98.6338 220.698L32.3105 220.799C29.209 220.799 26.6974 223.115 26.7012 225.961L26.735 247.906C26.735 250.752 29.2579 253.055 32.3593 253.05L98.0496 252.95C101.153 252.95 103.664 250.634 103.659 247.788V244.303C103.659 242.263 105.073 240.448 107.179 239.795L114.521 237.512C114.7 237.469 114.859 237.365 114.971 237.218C115.082 237.07 115.139 236.889 115.132 236.705C115.124 236.52 115.053 236.344 114.93 236.206C114.808 236.068 114.641 235.976 114.459 235.948Z" fill="#D49B8C" stroke="#D49B8C" stroke-miterlimit="10"/>
<path d="M117.141 235.114L110.818 233.678C108.543 233.162 106.956 231.385 106.952 229.358V225.601C106.952 222.918 104.429 220.747 101.328 220.752L35.0024 220.854C31.9009 220.854 29.3893 223.036 29.3931 225.719L29.425 246.405C29.425 249.088 31.9479 251.26 35.0493 251.254L100.74 251.154C103.841 251.154 106.353 248.971 106.349 246.287V243.003C106.349 241.08 107.762 239.368 109.869 238.75L117.209 236.599C118.037 236.336 117.996 235.307 117.141 235.114Z" fill="white"/>
<path d="M43.8038 240.452C46.0158 240.452 47.8089 238.659 47.8089 236.447C47.8089 234.235 46.0158 232.442 43.8038 232.442C41.5919 232.442 39.7988 234.235 39.7988 236.447C39.7988 238.659 41.5919 240.452 43.8038 240.452Z" fill="#E5DEFF"/>
<path d="M58.858 240.311C61.07 240.311 62.8631 238.518 62.8631 236.306C62.8631 234.094 61.07 232.301 58.858 232.301C56.6461 232.301 54.853 234.094 54.853 236.306C54.853 238.518 56.6461 240.311 58.858 240.311Z" fill="#E5DEFF"/>
<path d="M74.9254 240.311C77.1373 240.311 78.9304 238.518 78.9304 236.306C78.9304 234.094 77.1373 232.301 74.9254 232.301C72.7135 232.301 70.9204 234.094 70.9204 236.306C70.9204 238.518 72.7135 240.311 74.9254 240.311Z" fill="#E5DEFF"/>
<path d="M91.8961 240.452C94.108 240.452 95.9012 238.659 95.9012 236.447C95.9012 234.235 94.108 232.442 91.8961 232.442C89.6842 232.442 87.8911 234.235 87.8911 236.447C87.8911 238.659 89.6842 240.452 91.8961 240.452Z" fill="#E5DEFF"/>
<path d="M425.702 315.381H172.426C171.948 315.381 171.56 315.769 171.56 316.247V329.54C171.56 330.018 171.948 330.406 172.426 330.406H425.702C426.181 330.406 426.568 330.018 426.568 329.54V316.247C426.568 315.769 426.181 315.381 425.702 315.381Z" fill="#5E1010"/>
<path d="M420.289 330.406H180.162C180.11 330.406 180.068 330.448 180.068 330.5V334.73C180.068 334.782 180.11 334.824 180.162 334.824H420.289C420.341 334.824 420.383 334.782 420.383 334.73V330.5C420.383 330.448 420.341 330.406 420.289 330.406Z" fill="#3A0303"/>
<path d="M180.404 334.824H189.284V492.079C189.284 492.21 189.232 492.335 189.14 492.427C189.048 492.52 188.922 492.572 188.792 492.572H180.902C180.772 492.572 180.646 492.52 180.554 492.427C180.462 492.335 180.41 492.21 180.41 492.079V334.824H180.404Z" fill="#600000"/>
<path d="M411.503 334.824H420.383V492.079C420.383 492.21 420.331 492.335 420.239 492.427C420.146 492.52 420.021 492.572 419.891 492.572H412.001C411.87 492.572 411.745 492.52 411.653 492.427C411.56 492.335 411.509 492.21 411.509 492.079V334.824H411.503Z" fill="#600000"/>
<path d="M404.917 334.824H411.503V467.824H405.409C405.279 467.824 405.153 467.772 405.061 467.68C404.969 467.587 404.917 467.462 404.917 467.332V334.82V334.824Z" fill="#7C472A" stroke="#7C472A" stroke-miterlimit="10"/>
<path d="M195.878 334.824H189.284V338.064C189.284 338.064 191.967 339.567 195.87 342.178L195.878 334.824Z" fill="#7C472A" stroke="#7C472A" stroke-miterlimit="10"/>
<path d="M307.347 259.506L277.191 285.223C277.108 285.295 277.01 285.35 276.905 285.384C276.8 285.418 276.689 285.431 276.579 285.422C276.469 285.414 276.362 285.383 276.264 285.333C276.165 285.283 276.078 285.213 276.006 285.129L240.744 243.781C240.672 243.697 240.618 243.6 240.584 243.494C240.549 243.389 240.536 243.278 240.545 243.168C240.554 243.058 240.584 242.95 240.634 242.852C240.685 242.753 240.754 242.666 240.838 242.594L270.994 216.877C271.078 216.805 271.176 216.751 271.281 216.717C271.386 216.683 271.497 216.67 271.607 216.679C271.717 216.688 271.824 216.718 271.922 216.769C272.021 216.819 272.108 216.888 272.18 216.973L307.441 258.315C307.514 258.399 307.569 258.497 307.604 258.603C307.639 258.708 307.652 258.82 307.643 258.93C307.635 259.041 307.604 259.149 307.553 259.248C307.502 259.347 307.432 259.435 307.347 259.506Z" fill="#616CD6"/>
<path d="M272.563 223.075L246.73 245.107C246.377 245.409 246.334 245.94 246.636 246.294L276.902 281.78C277.203 282.134 277.734 282.176 278.088 281.875L303.921 259.842C304.275 259.541 304.317 259.009 304.015 258.656L273.75 223.169C273.448 222.816 272.917 222.773 272.563 223.075Z" fill="#E0DCFF"/>
<path d="M264.093 225.308L249.947 236.329C249.666 236.547 249.616 236.952 249.834 237.233L254.646 243.409C254.865 243.69 255.27 243.74 255.551 243.522L269.697 232.501C269.978 232.282 270.028 231.878 269.809 231.597L264.997 225.42C264.779 225.14 264.374 225.089 264.093 225.308Z" fill="#6752FF"/>
<path d="M274.518 233.358L255.957 247.818C255.751 247.978 255.715 248.274 255.875 248.479L257.38 250.412C257.54 250.617 257.836 250.654 258.042 250.494L276.603 236.034C276.808 235.874 276.845 235.578 276.685 235.372L275.18 233.44C275.02 233.235 274.723 233.198 274.518 233.358Z" fill="#C5C1F4"/>
<path d="M279.373 239.589L260.812 254.049C260.607 254.209 260.57 254.505 260.73 254.71L262.236 256.643C262.396 256.848 262.692 256.885 262.897 256.725L281.458 242.265C281.664 242.105 281.701 241.809 281.541 241.604L280.035 239.671C279.875 239.466 279.579 239.429 279.373 239.589Z" fill="#C5C1F4"/>
<path d="M283.713 248.059L265.125 262.412C264.919 262.57 264.881 262.866 265.04 263.072L266.534 265.007C266.693 265.213 266.989 265.251 267.194 265.092L285.782 250.739C285.988 250.58 286.026 250.285 285.867 250.079L284.373 248.144C284.214 247.938 283.918 247.9 283.713 248.059Z" fill="#C5C1F4"/>
<path d="M291.382 254.419L272.823 268.884C272.724 268.96 272.599 268.995 272.475 268.979C272.351 268.964 272.238 268.9 272.161 268.801L270.658 266.868C270.582 266.77 270.547 266.645 270.562 266.521C270.577 266.397 270.641 266.284 270.739 266.207L289.299 251.742C289.398 251.665 289.523 251.631 289.648 251.647C289.772 251.662 289.885 251.726 289.962 251.825L291.465 253.756C291.542 253.855 291.576 253.98 291.561 254.105C291.545 254.229 291.481 254.342 291.382 254.419Z" fill="#C5C1F4"/>
<path d="M293.855 257.63L275.294 272.09C275.088 272.25 275.052 272.546 275.212 272.752L276.717 274.684C276.877 274.889 277.173 274.926 277.379 274.766L295.94 260.306C296.145 260.146 296.182 259.85 296.022 259.645L294.517 257.712C294.357 257.507 294.06 257.47 293.855 257.63Z" fill="#C5C1F4"/>
<path d="M161.448 177.518C161.448 177.518 161.226 171.995 155.923 175.972C155.923 175.972 149.386 180.388 146.108 188.906C145.571 190.357 145.164 191.853 144.892 193.376C144.265 196.658 141.968 205.162 134.936 205.634C133.467 205.733 132.006 205.345 130.779 204.531C128.839 203.239 124.642 201.465 121.676 207.565C121.676 207.565 118.36 215.519 126.094 217.728C126.094 217.728 129.475 218.464 130.807 216.991C130.807 216.991 132.722 223.472 139.497 226.572C139.497 226.572 144.8 228.486 144.211 235.998C144.211 235.998 144.652 238.944 139.497 241.889C139.497 241.889 154.079 256.166 169.986 241.889C169.986 241.889 161.591 238.649 163.358 230.4C163.358 230.4 163.653 229.074 165.568 228.486C165.568 228.486 176.613 226.718 177.645 214.493C177.645 214.493 179.266 192.253 173.226 184.299C173.23 184.301 164.099 171.627 161.448 177.518Z" fill="#FF8C6F"/>
<path d="M161.448 177.518C161.448 177.518 159.6 174.7 155.587 178.728C151.575 182.755 146.895 187.84 142.52 200.201C142.52 200.201 146.168 186.539 149.41 182.731C149.41 182.729 159.855 168.843 161.448 177.518Z" fill="#EE3E1A"/>
<path d="M144.115 164.577C143.425 164.834 142.695 164.969 141.958 164.975C138.416 164.962 127.082 165.405 122.268 171.33C122.268 171.33 111.958 180.315 110.779 195.779C110.779 195.779 109.548 215.237 126.245 222.439C126.245 222.439 134.347 225.975 139.501 226.572C139.501 226.572 133.757 224.436 130.811 216.991C130.811 216.991 127.708 219.621 123.201 216.302C123.201 216.302 118.881 213.509 122.262 206.487C122.262 206.487 125.303 200.909 130.781 204.531C130.781 204.531 134.895 207.482 139.407 203.953C139.407 203.953 143.581 200.913 144.891 193.376C144.891 193.376 145.471 188.457 149.409 182.729C149.409 182.729 160.047 168.533 161.446 177.518C161.446 177.518 163.066 171.11 173.228 184.294C173.228 184.294 177.705 188.849 177.823 205.709C179.147 201.366 179.897 196.869 180.055 192.332C180.168 188.035 179.363 183.764 177.696 179.802C175.304 174.105 170.343 166.044 160.93 163.737C160.937 163.746 152.411 161.582 144.115 164.577Z" fill="#5E1215"/>
<path d="M116.009 150.416C116.009 150.416 109.267 150.067 106.053 158.049C104.813 161.135 104.424 164.496 104.925 167.783C105.604 172.249 108.066 178.286 116.366 178.728C116.366 178.728 122.753 169.063 127.596 167.513C127.596 167.513 133.695 164.808 141.722 164.977C141.722 164.977 143.214 153.959 134.599 148.587C132.561 147.347 130.255 146.617 127.875 146.458C124.571 146.205 119.591 146.607 116.009 150.416Z" fill="#601113"/>
<path d="M141.589 194.763C141.589 194.763 145.778 188 153.424 192.073C153.424 192.073 147.078 190.057 141.589 194.763Z" fill="#5E1215"/>
<path d="M142.528 201.197C142.528 201.197 146.717 194.434 154.363 198.507C154.363 198.507 148.009 196.491 142.528 201.197Z" fill="#5E1215"/>
<path d="M167.137 191.464C167.137 191.464 171.645 185.417 175.988 189.276C175.986 189.276 172.209 187.784 167.137 191.464Z" fill="#5E1215"/>
<path d="M168.365 198.253C168.365 198.253 172.874 192.206 177.217 196.065C177.217 196.065 173.437 194.573 168.365 198.253Z" fill="#5E1215"/>
<path d="M149.36 206.092C151.539 206.092 153.305 204.164 153.305 201.785C153.305 199.406 151.539 197.477 149.36 197.477C147.181 197.477 145.415 199.406 145.415 201.785C145.415 204.164 147.181 206.092 149.36 206.092Z" fill="#5E1215"/>
<path d="M173.272 203.808C175.452 203.808 177.219 201.879 177.219 199.5C177.219 197.121 175.452 195.193 173.272 195.193C171.092 195.193 169.325 197.121 169.325 199.5C169.325 201.879 171.092 203.808 173.272 203.808Z" fill="#5E1215"/>
<path d="M158.871 214.561C158.871 214.561 167.415 215.592 170.728 213.899C170.728 213.899 170.796 218.498 166.395 219.4C165.801 219.513 165.193 219.534 164.593 219.46C162.912 219.268 159.953 218.376 158.871 214.561Z" fill="white"/>
<path d="M163.067 204.473C163.067 204.473 167.781 206.314 164.798 209.921" stroke="black" stroke-width="3" stroke-miterlimit="10"/>
<path d="M142.079 213.494C144.439 213.494 146.351 212.092 146.351 210.364C146.351 208.635 144.439 207.234 142.079 207.234C139.72 207.234 137.808 208.635 137.808 210.364C137.808 212.092 139.72 213.494 142.079 213.494Z" fill="#F2B6E0"/>
<path d="M178.365 211.752C180.724 211.752 182.636 210.351 182.636 208.623C182.636 206.894 180.724 205.493 178.365 205.493C176.005 205.493 174.093 206.894 174.093 208.623C174.093 210.351 176.005 211.752 178.365 211.752Z" fill="#F2B6E0"/>
<path d="M139.501 241.884C139.501 241.884 114.167 244.683 105.624 265.596C105.624 265.596 96.7947 282.094 98.5549 300.652C98.5549 300.652 101.059 315.823 110.927 319.799L110.485 331.142C110.485 331.142 129.485 337.475 145.834 338.064C145.834 338.064 172.114 340.131 180.399 330.406H174.895C174.009 330.406 173.159 330.054 172.533 329.427C171.906 328.801 171.554 327.951 171.554 327.066V318.5C171.554 317.672 171.883 316.879 172.468 316.295C173.053 315.71 173.846 315.381 174.673 315.381H188.101V300.947C188.101 300.947 196.338 315.381 210.188 315.381C210.188 315.381 240.245 307.427 255.853 280.326C255.853 280.326 245.249 276.791 243.776 264.713C243.776 264.713 219.904 270.899 210.188 280.621C210.188 280.621 200.18 247.628 169.988 241.884C169.99 241.884 156.881 256.17 139.501 241.884Z" fill="#FFBA55"/>
<path d="M163.363 427.616C163.363 427.616 165.718 440.873 161.595 450.594C161.595 450.594 152.523 466.501 177.091 480.051L180.405 481.819V427.616H163.363Z" fill="white" stroke="white" stroke-miterlimit="10"/>
<path d="M206.664 427.616C206.664 427.616 205.486 442.05 211.672 446.764C211.672 446.764 222.568 453.244 224.929 457.659C224.929 457.659 231.705 465.908 221.689 472.094C221.689 472.094 210.19 477.692 202.978 472.094C202.978 472.094 203.241 466.682 196.216 462.667C196.216 462.667 194.281 461.944 191.566 456.432C191.566 456.432 189.292 451.437 189.292 443.224V427.612L206.664 427.616Z" fill="white" stroke="white" stroke-miterlimit="10"/>
<path d="M122.052 322.749C115.212 322.749 110.956 320.241 110.745 320.119L111.121 319.488C111.181 319.525 117.264 323.096 126.391 321.678C134.82 320.363 147.645 314.418 160.913 293.513C160.639 292.198 158.157 281.748 148.043 276.327C146.366 277.178 132.784 284.153 130.09 288.193L128.912 289.963L129.427 287.896C129.453 287.791 132.018 277.279 129.138 268.063L129.84 267.843C132.143 275.211 131.044 283.365 130.443 286.628C134.8 282.156 147.307 275.874 147.884 275.585L148.053 275.5L148.22 275.588C159.444 281.496 161.646 293.406 161.666 293.526L161.691 293.667L161.616 293.787C155.678 303.165 149.319 310.39 142.716 315.257C137.415 319.166 131.942 321.575 126.451 322.418C124.996 322.64 123.525 322.751 122.052 322.749Z" fill="#E9912E" stroke="#E9912E" stroke-width="3" stroke-miterlimit="10"/>
<path d="M163.576 255.457L160.232 257.387L178.83 289.599L182.173 287.669L163.576 255.457Z" fill="#330911" stroke="#330911" stroke-miterlimit="10"/>
<path d="M148.496 275.763C148.496 275.763 167.093 261.772 172.013 263.759C172.013 263.759 176.602 265.305 172.013 271.713C172.013 271.713 175.12 276.148 172.278 281.722C171.565 283.081 170.534 284.248 169.272 285.122C166.83 286.856 162.064 290.222 161.057 290.898C161.057 290.898 159.395 281.581 148.496 275.763Z" fill="#FF8C6F" stroke="#FF8C6F" stroke-miterlimit="10"/>
<path d="M243.781 264.714L252.557 257.241L264.567 271.717C264.567 271.717 261.456 276.866 255.858 280.326C255.86 280.326 245.697 276.791 243.781 264.714Z" fill="#FF8C6F" stroke="#FF8C6F" stroke-miterlimit="10"/>
<path d="M251.368 263.71C251.368 263.71 266.278 255.877 259.821 267.954L251.368 263.71Z" fill="#FF8C6F"/>
<path d="M178.831 289.598L182.172 287.667V291.041L178.831 289.598Z" fill="white"/>
<path d="M180.654 290.466L182.326 289.501V291.188L180.654 290.466Z" fill="black"/>
<path d="M189.284 338.064C189.284 338.064 223.304 358.685 225.519 375.475L231.066 421.443C231.149 422.125 231.092 422.818 230.899 423.478C230.706 424.138 230.381 424.752 229.944 425.282C229.507 425.813 228.967 426.25 228.356 426.565C227.745 426.881 227.077 427.07 226.391 427.12L189.284 427.616V338.064Z" fill="#C67A57"/>
<path d="M110.497 330.806C110.497 330.806 95.078 371.249 140.315 382.259C142.119 382.695 143.729 383.715 144.895 385.159C148.141 389.19 152.548 399.03 147.713 420.832C147.536 421.65 147.544 422.498 147.738 423.312C147.932 424.126 148.306 424.887 148.832 425.538C149.359 426.188 150.024 426.713 150.78 427.073C151.536 427.432 152.363 427.618 153.2 427.616H180.403V330.406C180.403 330.406 177.382 338.344 146.011 337.753C146.012 337.753 124.554 336.866 110.497 330.806Z" fill="#C67A57"/>
<path d="M131.315 207.693V213.494C131.315 213.494 123.447 217.856 123.256 210.758C123.064 203.661 131.315 207.693 131.315 207.693Z" fill="#EE3E1A"/>
<path d="M165.572 228.48C165.572 228.48 158.809 231.928 151.806 228.48C151.806 228.48 153.782 234.743 164.798 237.819C164.798 237.819 160.708 230.389 165.572 228.48Z" fill="#EE3E1A"/>
<path d="M129.836 267.843C129.836 267.843 133.428 274.673 134.803 283.129C134.803 283.129 131.456 285.344 130.439 286.621C130.439 286.621 133.077 278.742 129.836 267.843Z" fill="#E9912E"/>
<path d="M110.738 320.119C110.738 320.119 128.208 330.667 148.043 310.76C148.043 310.76 133.703 329.185 110.497 331.146L110.738 320.119Z" fill="#E9912E"/>
<path d="M158.076 285.097C158.076 285.097 168.474 285.642 173.292 278.829C173.292 278.829 174.419 282.962 161.296 290.637C161.292 290.637 159.583 286.168 158.076 285.097Z" fill="#EE3E1A"/>
<path d="M182.326 270.548C182.326 270.548 186.97 282.794 188.106 300.947L192.577 306.449C192.577 306.449 191.369 280.711 182.326 270.548Z" fill="#E9912E"/>
<path d="M139.242 381.988C139.242 381.988 148.708 383.444 152.884 382.839C152.884 382.839 153.461 392.38 149.856 403.644C149.854 403.644 151.15 383.707 139.242 381.988Z" fill="#5F1505"/>
<path d="M153.32 427.648L153.083 427.584C157.712 410.69 159.923 397.152 159.658 387.349C159.575 384.483 158.46 381.743 156.516 379.634C154.573 377.526 151.934 376.19 149.084 375.874C136.475 374.529 127.219 369.879 121.578 362.053C112.55 349.533 116.025 333.019 116.061 332.853L116.301 332.906C116.266 333.071 112.815 349.48 121.779 361.91C127.379 369.676 136.574 374.292 149.11 375.624C152.019 375.946 154.713 377.309 156.697 379.462C158.68 381.614 159.819 384.411 159.904 387.336C160.169 397.17 157.954 410.732 153.32 427.648Z" fill="#EEA884"/>
<path d="M152.896 382.963L152.875 382.717C152.901 382.717 155.526 382.484 156.632 381.881L156.75 382.097C155.597 382.725 153.005 382.954 152.896 382.963Z" fill="#EEA884"/>
<path d="M155.311 384.197C154.417 383.978 153.572 383.592 152.82 383.059L152.971 382.871C153.697 383.38 154.511 383.751 155.371 383.964L155.311 384.197Z" fill="#EEA884"/>
<path d="M189.284 438.863C189.284 438.863 190.27 457.98 198.887 462.37C199.98 462.901 200.938 463.672 201.692 464.625C202.937 466.261 204.243 469.321 203.035 472.514C203.035 472.514 204.033 467.929 196.208 462.667C196.208 462.667 190.103 459.248 189.367 445.982L189.284 438.863Z" fill="#F4C89D" stroke="#F9D7B1" stroke-miterlimit="10"/>
<path d="M189.284 483.586C189.284 483.586 194.796 484.811 199.086 481.411C203.507 477.91 204.346 471.352 200.965 466.841C199.909 465.432 198.389 463.997 196.218 462.671C196.218 462.671 189.294 458.843 189.294 443.228L189.284 483.586Z" fill="white" stroke="white" stroke-miterlimit="10"/>
<path d="M447.631 385.933C447.631 385.933 449.105 378.862 460.446 382.103C460.446 382.103 470.026 375.363 476.941 383.594C476.941 383.594 484.012 384.314 484.012 392.119C484.012 392.119 492.407 393.887 490.788 402.872C490.788 402.872 499.773 413.33 484.748 418.043C484.748 418.043 468.546 423.344 453.67 421.871C453.67 421.871 430.987 419.074 432.461 409.058C432.461 409.058 432.903 404.786 437.026 402.872C437.026 402.872 433.645 394.918 443.361 393.15C443.361 393.15 442.181 387.259 447.631 385.933Z" fill="#F7F7F7"/>
<path d="M476.154 382.741C476.154 382.741 481.209 375.721 489.899 382.741C489.899 382.741 490.636 379.377 494.466 381.182C494.466 381.182 501.242 376.36 503.295 384.902C503.295 384.902 509.63 383.575 509.481 391.678C509.481 391.678 516.111 394.197 512.28 400.817C512.28 400.817 515.079 405.964 510.513 409.353C510.513 409.353 512.429 412.593 507.272 412.593C507.272 412.593 511.692 420.107 502.117 422.756C502.117 422.756 503.323 430.71 493.441 428.501C493.441 428.501 485.175 433.214 482.97 424.817C482.97 424.817 487.341 421.777 487.88 416.818C487.88 416.818 498.436 412.298 490.777 402.872C490.777 402.872 492.986 394.623 484.001 392.119C484.001 392.119 484.591 384.936 476.93 383.594L476.154 382.741Z" fill="#F7F7F7"/>
<path d="M484.013 392.119C484.013 392.119 494.764 393.013 499.604 407.457C499.604 407.457 496.922 405.179 493.311 407.457C493.311 407.457 492.289 404.837 490.789 402.872C490.789 402.872 492.66 394.715 484.013 392.119Z" fill="#EDEDED"/>
<path d="M436.29 422.123C436.29 422.123 434.573 417.913 439.658 418.516C440.928 418.665 442.211 418.383 443.301 417.716C444.578 416.946 446.622 416.589 448.985 419.469C450.094 420.821 450.407 422.733 449.568 424.264C448.803 425.66 447.189 426.872 443.802 426.143C443.802 426.143 438.499 426.513 436.29 422.123Z" fill="#F7F7F7"/>
<path d="M472.991 420.838C472.598 421.964 472.383 423.144 472.354 424.336C472.354 426.663 474.629 428.331 476.887 427.76C478.39 427.385 480.467 426.564 482.981 424.817C482.981 424.817 487.796 421.336 487.891 416.818C487.891 416.818 481.827 419.735 472.991 420.838Z" fill="#F7F7F7"/>
<path d="M453.381 432.93L462.608 449.395C463.405 450.817 464.891 451.623 466.41 451.462L486 449.307C488.955 448.982 490.452 445.362 488.722 442.71L477.98 426.312C477.598 425.7 477.051 425.207 476.404 424.889C475.756 424.57 475.032 424.439 474.313 424.511L456.242 426.594C453.424 426.921 451.899 430.287 453.381 432.93Z" fill="#54005C"/>
<path d="M456.618 432.9L464.036 446.138C464.326 446.685 464.771 447.134 465.315 447.429C465.859 447.724 466.478 447.851 467.094 447.795L482.844 446.063C485.22 445.802 486.425 442.883 485.033 440.758L476.391 427.573C476.083 427.081 475.644 426.685 475.124 426.429C474.603 426.173 474.021 426.068 473.444 426.124L458.91 427.804C456.642 428.067 455.421 430.774 456.618 432.9Z" fill="#E2D7F2"/>
<path d="M473.31 430.201C472.147 429.773 470.884 429.697 469.678 429.981C468.471 430.265 467.375 430.898 466.525 431.799C465.675 432.701 465.108 433.833 464.896 435.054C464.683 436.275 464.834 437.531 465.329 438.667C465.824 439.803 466.642 440.769 467.681 441.444C468.72 442.12 469.934 442.475 471.174 442.466C472.413 442.457 473.622 442.085 474.652 441.395C475.681 440.705 476.485 439.727 476.964 438.584L471.127 436.142L473.31 430.201Z" fill="#EFEBC7"/>
<path d="M473.806 430.013L471.621 435.953L477.46 438.395C477.788 437.606 477.954 436.76 477.947 435.906C477.94 435.052 477.761 434.208 477.419 433.425C477.078 432.642 476.582 431.936 475.961 431.35C475.34 430.763 474.607 430.309 473.806 430.013Z" fill="#EFEBC7"/>
<path d="M452.804 412.837C455.4 412.837 457.504 411.343 457.504 409.499C457.504 407.656 455.4 406.161 452.804 406.161C450.208 406.161 448.104 407.656 448.104 409.499C448.104 411.343 450.208 412.837 452.804 412.837Z" fill="black"/>
<path d="M452.804 396.93C454.102 396.93 455.154 396.183 455.154 395.262C455.154 394.341 454.102 393.594 452.804 393.594C451.506 393.594 450.454 394.341 450.454 395.262C450.454 396.183 451.506 396.93 452.804 396.93Z" fill="#F2D2F7"/>
<path d="M473.479 396.93C474.777 396.93 475.829 396.183 475.829 395.262C475.829 394.341 474.777 393.594 473.479 393.594C472.182 393.594 471.129 394.341 471.129 395.262C471.129 396.183 472.182 396.93 473.479 396.93Z" fill="#F2D2F7"/>
<path d="M472.354 412.837C474.95 412.837 477.054 411.343 477.054 409.499C477.054 407.656 474.95 406.161 472.354 406.161C469.759 406.161 467.654 407.656 467.654 409.499C467.654 411.343 469.759 412.837 472.354 412.837Z" fill="black"/>
<path d="M444.312 415.021C446.669 412.665 446.669 408.845 444.312 406.488C441.956 404.132 438.136 404.132 435.779 406.488C433.423 408.845 433.423 412.665 435.779 415.021C438.136 417.378 441.956 417.378 444.312 415.021Z" fill="#F8CFF9"/>
<path d="M486.157 415.533C489.49 415.533 492.191 412.832 492.191 409.499C492.191 406.167 489.49 403.465 486.157 403.465C482.825 403.465 480.124 406.167 480.124 409.499C480.124 412.832 482.825 415.533 486.157 415.533Z" fill="#F8CFF9"/>
<path d="M463.463 414.194C463.463 414.194 465.407 415.973 469.068 415.321" stroke="black" stroke-width="3" stroke-miterlimit="10"/>
<path d="M494.487 420.701C491.59 414.408 485.077 412.413 485.011 412.394L485.222 411.686C485.502 411.77 492.12 413.799 495.155 420.393L494.487 420.701Z" fill="white"/>
<path d="M496.129 418.939C493.233 412.646 486.722 410.651 486.656 410.632L486.866 409.926C487.146 410.008 493.764 412.037 496.8 418.631L496.129 418.939Z" fill="white"/>
<path d="M497.261 417.239C494.365 410.946 487.852 408.951 487.786 408.932L487.997 408.226C488.276 408.308 494.896 410.337 497.93 416.931L497.261 417.239Z" fill="white"/>
<path d="M426.349 417.695L425.868 417.132C431.366 412.394 438.23 413.296 438.52 413.337L438.416 414.068C438.349 414.064 431.588 413.181 426.349 417.695Z" fill="white"/>
<path d="M425.586 415.411L425.105 414.847C430.604 410.11 437.466 411.011 437.757 411.053L437.654 411.782C437.586 411.778 430.826 410.897 425.586 415.411Z" fill="white"/>
<path d="M425.259 413.399L424.778 412.836C430.277 408.098 437.141 409 437.43 409.041L437.327 409.772C437.269 409.768 430.506 408.885 425.259 413.399Z" fill="white"/>
<path d="M462.58 413.649C462.58 413.649 460.592 415.383 456.944 414.65" stroke="black" stroke-width="3" stroke-miterlimit="10"/>
<path d="M463.756 413.698C463.756 414.158 463.23 414.532 462.582 414.532C461.934 414.532 461.406 414.156 461.406 413.698C461.406 413.239 461.932 412.864 462.582 412.864C463.232 412.864 463.756 413.236 463.756 413.698Z" fill="black"/>
<path d="M472.991 420.838C472.991 420.838 484.92 418.772 487.891 416.818C487.891 416.818 481.828 422.36 472.487 422.78C472.495 422.78 472.377 421.976 472.991 420.838Z" fill="#EDEDED"/>
<path d="M440.398 418.432C440.398 418.432 446.105 420.579 449.889 421.225C449.889 421.225 450.21 422.709 449.889 423.491C449.889 423.491 444.082 422.123 440.398 418.432Z" fill="#EDEDED"/>
<path d="M20.7856 424.377L26.6767 454.719C26.6767 454.719 37.8709 458.549 52.8953 454.719L58.4915 424.377C58.4915 424.377 40.5233 427.616 20.7856 424.377Z" fill="#8B0023" stroke="#8B0023" stroke-miterlimit="10"/>
<path d="M15.041 410.384L18.5764 423.492C18.5764 423.492 23.1412 425.78 39.6385 425.814C39.6385 425.814 57.9015 425.251 61.8784 423.051L65.4138 410.384C65.4138 410.384 40.6698 415.685 15.041 410.384Z" fill="#8B0023" stroke="#8B0023" stroke-miterlimit="10"/>
<path d="M15.712 410.617C15.6113 410.59 15.5188 410.539 15.4423 410.468C15.3659 410.397 15.3078 410.309 15.2732 410.211C15.2386 410.113 15.2285 410.007 15.2437 409.904C15.259 409.801 15.2991 409.703 15.3607 409.619C16.4427 408.218 21.171 405.376 41.7014 405.376C41.7014 405.376 61.086 405.738 65.3521 409.214C65.4712 409.305 65.5601 409.43 65.6076 409.572C65.655 409.715 65.6588 409.868 65.6184 410.012C65.578 410.157 65.4952 410.286 65.3808 410.383C65.2664 410.48 65.1256 410.541 64.9764 410.557C60.947 411.143 47.4516 412.999 39.6332 412.74C39.6388 412.74 20.2355 411.829 15.712 410.617Z" fill="#402529" stroke="#402529" stroke-miterlimit="10"/>
<path d="M0 363.781C0 363.781 2.78586 367.189 3.76833 369.652C3.76833 369.652 8.02132 383.893 16.3883 385.788C16.3883 385.788 29.5943 386.662 31.0164 388.86C31.0164 388.86 33.8342 381.534 32.0928 374.418C31.0201 370.016 27.8849 366.404 23.8066 364.431C18.9919 362.106 10.0257 359.303 0 363.781Z" fill="#1B6A6D"/>
<path d="M80.7649 332.41C80.7649 332.41 78.135 335.949 77.2784 338.461C77.2784 338.461 73.8181 352.925 65.3797 355.191C65.3797 355.191 51.9276 356.656 50.6126 358.922C50.6126 358.922 47.2783 351.714 48.6083 344.5C49.4292 340.043 52.4123 336.284 56.4605 334.127C61.2376 331.578 70.232 328.373 80.7649 332.41Z" fill="#8AC9C2"/>
<path d="M17.8403 328.858C17.8403 328.858 19.1553 333.056 19.1553 335.707C19.1553 335.707 17.8403 350.51 24.8998 355.371C24.8998 355.371 36.8435 361.074 37.3489 363.637C37.3489 363.637 42.6726 357.879 43.7002 350.622C44.3351 346.136 42.7609 341.619 39.7008 338.277C36.1034 334.337 28.8128 328.412 17.8403 328.858Z" fill="#8AC9C2"/>
<path d="M35.8128 412.542L34.9298 412.499C36.5228 380.091 10.509 364.749 10.2554 364.597L10.695 363.83C10.9636 363.975 37.4339 379.571 35.8128 412.542Z" fill="#1B4D4F"/>
<path d="M80.9586 364.14C80.9586 364.14 78.2836 367.636 77.3894 370.131C77.3894 370.131 73.6023 384.502 65.3011 386.662C65.3011 386.662 52.1307 387.966 50.7819 390.209C50.7819 390.209 47.7312 382.984 49.234 375.81C50.1733 371.374 53.1789 367.662 57.1933 365.559C61.9197 363.083 70.7901 359.991 80.9586 364.14Z" fill="#1B6A6D"/>
<path d="M47.2133 412.73C45.1056 379.794 71.3392 363.808 71.606 363.65L72.0568 364.401C71.7957 364.557 46.0223 380.284 48.0943 412.666L47.2133 412.73Z" fill="#1B4D4F"/>
<path d="M40.0784 412.777L39.1992 412.7C44.9982 346.283 20.8028 330.932 20.5586 330.783L21.0132 330.032C21.2706 330.186 27.3814 333.962 32.8254 346.099C37.8185 357.227 43.131 377.835 40.0784 412.777Z" fill="#1B4D4F"/>
<path d="M44.3498 412.802L43.4688 412.725L46.3466 379.14C49.8689 337.26 73.2096 332.444 73.4407 332.401L73.6022 333.269C73.373 333.312 50.6842 338.055 47.2277 379.215L44.3498 412.802Z" fill="#1B4D4F"/>
<path d="M20.7856 424.377C20.7856 424.377 36.8602 433.169 57.2855 430.918L58.4915 424.377C58.4915 424.377 36.5784 427.537 20.7856 424.377Z" fill="#6D0023" stroke="#6D0023" stroke-miterlimit="10"/>
<path d="M442.243 433.584C443.833 432.183 443.986 429.758 442.585 428.168C441.184 426.577 438.758 426.424 437.168 427.826C435.578 429.227 435.425 431.652 436.827 433.243C438.228 434.833 440.653 434.986 442.243 433.584Z" fill="#F4947A"/>
<path d="M245.623 473.07C246.114 471.008 244.841 468.939 242.779 468.448C240.717 467.956 238.648 469.23 238.156 471.292C237.665 473.353 238.939 475.423 241 475.914C243.062 476.405 245.132 475.132 245.623 473.07Z" fill="#F4947A"/>
<path d="M22.61 445.534C23.1012 443.472 21.8279 441.402 19.7661 440.911C17.7042 440.42 15.6345 441.693 15.1433 443.755C14.6521 445.817 15.9254 447.886 17.9872 448.378C20.0491 448.869 22.1188 447.595 22.61 445.534Z" fill="#F4947A"/>
<path d="M253.059 451.864C253.964 451.312 254.251 450.13 253.699 449.225C253.147 448.32 251.965 448.033 251.06 448.585C250.155 449.137 249.868 450.319 250.42 451.224C250.972 452.129 252.154 452.416 253.059 451.864Z" fill="#F4947A"/>
<path d="M345.047 441.134C345.214 440.087 344.499 439.104 343.452 438.937C342.405 438.771 341.421 439.485 341.255 440.532C341.089 441.58 341.803 442.563 342.85 442.73C343.897 442.896 344.881 442.182 345.047 441.134Z" fill="#F4947A"/>
<path d="M58.4735 458.974C58.7182 457.943 58.0801 456.908 57.0484 456.663C56.0167 456.419 54.982 457.057 54.7374 458.089C54.4928 459.12 55.1308 460.155 56.1625 460.4C57.1942 460.644 58.2289 460.006 58.4735 458.974Z" fill="#F4947A"/>
<path d="M193.436 185.887C193.436 185.887 193.148 189.871 190.122 190.583C190.122 190.583 194.302 191.323 194.443 194.766C194.443 194.766 194.617 190.279 197.916 189.848C197.914 189.845 194.153 189.416 193.436 185.887Z" fill="white"/>
<path d="M201.683 195.616C201.683 195.616 201.495 198.17 199.558 198.621C199.558 198.621 202.237 199.097 202.331 201.304C202.331 201.304 202.442 198.426 204.557 198.15C204.557 198.153 202.145 197.879 201.683 195.616Z" fill="white"/>
<path d="M194.122 202.647C194.122 202.647 194.011 204.163 192.859 204.433C192.859 204.433 194.45 204.715 194.505 206.026C194.505 206.026 194.571 204.317 195.82 204.148C195.827 204.153 194.396 203.992 194.122 202.647Z" fill="white"/>
<path d="M451.669 87.1287V97.0229L465.259 107.59L481.564 95.83V83.1988C481.564 83.1988 473.083 89.8469 451.669 87.1287Z" fill="#F8986D" stroke="#F8986D" stroke-miterlimit="10"/>
<path d="M444.089 24.1134C444.089 24.1134 439.895 36.3971 441.899 50.0108C442.17 51.7765 442.336 53.5567 442.397 55.3421C442.603 62.5556 444.416 82.438 458.066 84.108C458.066 84.108 478.69 89.0523 482.098 72.3484C482.098 72.3484 482.78 62.1217 484.485 58.8831C484.485 58.8831 482.78 51.0421 484.485 42.352C484.485 42.352 486.589 33.8198 478.987 29.6288C476.323 28.1598 473.216 27.7221 470.214 28.2236C464.695 29.1347 451.936 30.3896 444.089 24.1134Z" fill="#F98C5D" stroke="#F98C5D" stroke-miterlimit="10"/>
<path d="M444.09 24.1134C444.09 24.1134 436.128 14.5085 443.819 6.28995C446.342 3.59614 449.759 1.93176 453.4 1.35505C457.951 0.637452 465.131 0.584855 471.187 5.36383C471.187 5.36383 481.686 12.6563 490.41 15.3689C493.136 16.2161 495.68 17.5855 497.753 19.5448C500.998 22.6106 504.242 27.739 502.547 35.3621C502.547 35.3621 498.287 47.8054 495.901 51.2131C495.901 51.2131 486.565 48.7954 484.482 58.8831C484.482 58.8831 483.118 49.3383 484.482 42.3521C484.482 42.3521 486.835 31.3364 476.318 28.6388C474.228 28.1229 472.058 28.0234 469.931 28.3458C464.979 29.0464 451.023 30.3539 444.09 24.1134Z" fill="#611113" stroke="#611113" stroke-miterlimit="10"/>
<path d="M441.357 19.1467C441.357 19.1467 429.832 22.7779 430.225 33.1398C430.306 34.8676 430.71 36.565 431.416 38.1442L437.269 51.555C437.269 51.555 439.095 49.5093 442.103 51.555C442.103 51.555 439.661 36.9025 444.086 24.1135C444.09 24.1135 442.189 22.7478 441.357 19.1467Z" fill="#611113" stroke="#611113" stroke-miterlimit="10"/>
<path d="M451.696 83.9239L451.669 97.0229C451.669 97.0229 477.691 94.4718 484.485 83.1988L468.33 87.758L451.696 83.9239Z" fill="#EB3829" stroke="#EB3829" stroke-miterlimit="10"/>
<path d="M441.357 64.3364C441.357 64.3364 438.043 77.8017 440.47 81.2112C440.47 81.2112 443.579 88.8813 461.816 89.9032C461.816 89.9032 482.78 90.0741 487.723 82.2332C487.723 82.2332 489.428 80.8694 487.723 76.4379C485.958 70.7338 484.871 64.8415 484.486 58.8831C484.486 58.8831 482.339 65.4579 482.11 70.8963C482.01 73.7352 481.082 76.483 479.44 78.8011C476.716 82.5863 471.263 86.3152 460.445 84.5156C460.445 84.5156 446.324 85.0397 443.333 64.6314L441.357 64.3364Z" fill="#5E1111" stroke="#5E1111" stroke-miterlimit="10"/>
<path d="M484.485 58.8831C484.485 58.8831 485.947 51.3013 492.873 50.9444C493.833 50.8982 494.79 51.0705 495.674 51.4483C496.557 51.8261 497.344 52.3995 497.973 53.1254C499.745 55.1467 501.73 58.6314 499.833 62.8937C498.172 66.6189 494.303 68.8186 490.226 68.6646C488.334 68.5932 486.445 68.101 485.398 66.632L484.485 58.8831Z" fill="#EF8E63" stroke="#EF8E63" stroke-miterlimit="10"/>
<path d="M442.106 51.5549C442.106 51.5549 439.829 49.6764 437.273 51.5549C437.273 51.5549 433.17 59.394 441.357 64.3289L443.333 64.6239C443.333 64.6239 442.677 57.4253 442.106 51.5549Z" fill="#EF8E63" stroke="#EF8E63" stroke-miterlimit="10"/>
<path d="M448.777 55.0716C450.236 55.0716 451.418 53.4972 451.418 51.555C451.418 49.6128 450.236 48.0384 448.777 48.0384C447.318 48.0384 446.136 49.6128 446.136 51.555C446.136 53.4972 447.318 55.0716 448.777 55.0716Z" fill="black" stroke="#611113" stroke-miterlimit="10"/>
<path d="M468.332 55.0716C469.791 55.0716 470.973 53.4972 470.973 51.555C470.973 49.6128 469.791 48.0384 468.332 48.0384C466.873 48.0384 465.691 49.6128 465.691 51.555C465.691 53.4972 466.873 55.0716 468.332 55.0716Z" fill="black" stroke="#611113" stroke-miterlimit="10"/>
<path d="M445.21 42.9607C447.634 42.2931 450.191 42.2653 452.63 42.8799C452.922 42.9544 453.194 43.0927 453.426 43.2851C453.658 43.4774 453.845 43.7188 453.973 43.992C454.085 44.2184 454.131 44.4718 454.107 44.7232C454.082 44.9747 453.986 45.2141 453.832 45.414C453.628 45.6841 453.355 45.8941 453.041 46.0217C452.728 46.1493 452.386 46.1899 452.051 46.1391C450.548 45.9344 447.167 45.5455 445.369 45.9513C445.118 46.0138 444.856 46.0135 444.605 45.9502C444.354 45.887 444.123 45.7628 443.932 45.5887C443.539 45.213 443.277 44.6326 443.857 43.8605C444.197 43.4206 444.672 43.1045 445.21 42.9607Z" fill="#611113" stroke="#611113" stroke-miterlimit="10"/>
<path d="M473.684 43.6464C471.321 42.7849 468.775 42.5506 466.294 42.9663C465.997 43.0166 465.714 43.1325 465.467 43.3057C465.22 43.479 465.015 43.705 464.866 43.9676C464.736 44.184 464.67 44.4327 464.675 44.6852C464.679 44.9377 464.755 45.1838 464.893 45.3953C465.074 45.6806 465.329 45.9117 465.631 46.0641C465.933 46.2165 466.271 46.2847 466.608 46.2613C468.111 46.1767 471.53 46.064 473.284 46.6107C473.529 46.6941 473.79 46.7154 474.045 46.6724C474.3 46.6294 474.54 46.5236 474.744 46.3646C475.168 46.0189 475.476 45.4648 474.96 44.6495C474.656 44.1845 474.208 43.8321 473.684 43.6464Z" fill="#611113" stroke="#611113" stroke-miterlimit="10"/>
<path d="M451.419 68.6721C451.419 68.6721 456.612 71.6665 465.696 69.6114C465.696 69.6114 464.87 73.8343 460.974 75.1061C459.717 75.5076 458.372 75.5376 457.099 75.1923C455.826 74.847 454.681 74.1413 453.8 73.1599C452.902 72.153 452.015 70.7235 451.419 68.6721Z" fill="white" stroke="white" stroke-width="3" stroke-miterlimit="10"/>
<path d="M458.222 61.9884C458.222 61.9884 452.902 61.3966 449.058 66.5325C449.058 66.5325 446.686 70.5751 443.133 71.0899C443.133 71.0899 448.513 76.2877 458.513 67.9452C458.513 67.9452 465.026 75.4762 475.514 73.5958C473.203 71.7624 472.696 71.7436 470.674 68.4731C469.56 66.6112 468.013 65.0449 466.166 63.9063C463.902 62.5557 460.951 61.3534 458.222 61.9884Z" fill="#611113" stroke="#611113" stroke-miterlimit="10"/>
<path d="M452.671 53.9069H442.315C441.785 53.9069 441.356 54.3359 441.356 54.865V58.8456C441.356 59.3747 441.785 59.8036 442.315 59.8036H452.671C453.2 59.8036 453.629 59.3747 453.629 58.8456V54.865C453.629 54.3359 453.2 53.9069 452.671 53.9069Z" stroke="white" stroke-width="3" stroke-miterlimit="10"/>
<path d="M473.13 53.9069H462.773C462.244 53.9069 461.815 54.3359 461.815 54.865V58.8456C461.815 59.3747 462.244 59.8036 462.773 59.8036H473.13C473.659 59.8036 474.088 59.3747 474.088 58.8456V54.865C474.088 54.3359 473.659 53.9069 473.13 53.9069Z" stroke="white" stroke-width="3" stroke-miterlimit="10"/>
<path d="M453.629 56.8542H461.816" stroke="white" stroke-width="3" stroke-miterlimit="10"/>
<path d="M474.088 56.8543L490.341 51.4536" stroke="white" stroke-width="3" stroke-miterlimit="10"/>
<path d="M456.873 52.5769L456.191 61.8456L458.526 61.9508" stroke="black" stroke-width="3" stroke-miterlimit="10"/>
<path d="M495.53 55.9245C494.868 55.592 494.136 55.4236 493.395 55.4338C492.655 55.4439 491.927 55.6322 491.275 55.9827C489.847 56.7529 488.889 58.3966 488.752 59.9934C488.662 60.7903 488.868 61.5924 489.331 62.2476C489.742 62.7878 490.334 63.1613 490.999 63.2996C491.321 63.3712 491.655 63.3666 491.975 63.286C492.295 63.2054 492.592 63.0512 492.842 62.8356C493.099 62.5958 493.296 62.2982 493.416 61.9673C493.536 61.6364 493.575 61.2818 493.531 60.9327C493.469 60.5247 493.296 60.1417 493.031 59.8254C492.766 59.509 492.419 59.2715 492.028 59.1387C491.102 58.7986 490.15 59.1837 489.368 59.6797C489.062 59.8675 489.346 60.3616 489.654 60.1662C490.24 59.7905 490.942 59.4392 491.656 59.6139C491.94 59.6797 492.204 59.8156 492.422 60.0092C492.64 60.2028 492.806 60.4479 492.905 60.7223C492.991 60.9967 493.003 61.2887 492.941 61.5693C492.879 61.8499 492.745 62.1096 492.552 62.3228C492.374 62.5091 492.151 62.6468 491.904 62.7228C491.658 62.7987 491.396 62.8104 491.143 62.7567C490.605 62.653 490.122 62.3581 489.783 61.9264C489.406 61.3884 489.235 60.7317 489.304 60.0779C489.394 58.746 490.182 57.3278 491.318 56.6139C491.902 56.2508 492.568 56.043 493.255 56.0101C493.941 55.9772 494.625 56.1204 495.24 56.4261C495.562 56.5914 495.847 56.1048 495.524 55.9395L495.53 55.9245Z" fill="#EB3829"/>
<path d="M504.798 217.38C504.798 217.38 508.268 267.065 497.697 281.359H479.042C479.042 281.359 478.209 240.704 460.256 232.75C460.256 232.75 447.858 230.932 443.769 281.359H420.997C420.997 281.359 408.895 246.466 420.486 213.247C420.486 213.247 432.394 219.486 448.589 215.025V207.92C448.589 207.92 458.104 212.804 478.833 209.145C478.833 209.145 478.602 214.923 479.56 215.252C479.564 215.252 494.564 220.416 504.798 217.38Z" fill="#376F90" stroke="#376F90" stroke-miterlimit="10"/>
<path d="M492.751 205.818C492.751 205.818 507.12 241.722 492.751 281.74" stroke="#92BEBE" stroke-width="3" stroke-miterlimit="10"/>
<path d="M492.751 238.281L541.799 223.57L540.377 258.877L492.751 275.104V238.281Z" fill="#DA933F" stroke="#DA933F" stroke-miterlimit="10"/>
<path d="M492.98 234.569L540.023 219.798L538.659 255.249L492.98 271.542V234.569Z" fill="#FCBF65" stroke="#FCBF65" stroke-miterlimit="10"/>
<path d="M510.933 213.247C510.933 213.247 499.268 229.138 501.342 231.943L507.81 229.912C507.81 229.912 507.828 229.021 510.753 227.415C511.051 227.255 511.382 227.164 511.72 227.149C512.059 227.134 512.396 227.195 512.707 227.328C513.019 227.462 513.296 227.663 513.519 227.918C513.741 228.173 513.904 228.475 513.994 228.802C514.542 230.753 514.783 234.458 512.979 241.159C512.979 241.159 511.717 244.568 514.394 244.341C514.394 244.341 517.071 244.097 518.66 242.4C518.66 242.4 518.632 243.516 521.019 243.005C521.019 243.005 523.234 242.494 524.256 241.046C524.256 241.046 526.135 242.41 529.796 238.063C529.796 238.063 534.455 231.047 531.387 214.57C531.383 214.57 526.388 211.128 510.933 213.247Z" fill="#F98C5D" stroke="#F98C5D" stroke-miterlimit="10"/>
<path d="M518.66 242.4C518.66 242.4 521.615 236.201 520.705 228.454" stroke="#EB3829" stroke-miterlimit="10"/>
<path d="M524.256 241.046C524.256 241.046 526.615 236.842 526.161 231.614" stroke="#EB3829" stroke-miterlimit="10"/>
<path d="M353.9 122.804C353.9 122.804 350.038 116.552 348.334 114.48C348.334 114.48 346.97 112.776 346.515 111.91C346.515 111.91 342.879 106.275 340.948 107.749C340.948 107.749 339.926 109.124 340.948 112.526C340.948 112.526 333.676 104.952 330.721 106.408C330.721 106.408 329.244 107.182 330.266 109.34C330.266 109.34 326.393 106.006 324.24 108.241C324.24 108.241 323.113 109.709 325.04 111.91C325.04 111.91 322.767 111.386 322.198 112.75C322.198 112.75 321.634 114.681 323.676 116.727C323.676 116.727 320.609 115.951 320.494 117.247C320.494 117.247 319.812 118.771 322.313 121.271C322.313 121.271 326.744 126.384 327.426 127.294C327.426 127.294 335.947 137.178 342.078 138.315C342.084 138.315 347.197 136.724 353.9 122.804Z" fill="#F98C5D" stroke="#F98C5D" stroke-miterlimit="10"/>
<path d="M323.676 116.727C325.943 118.399 328.071 120.252 330.039 122.268" stroke="#EB3829" stroke-width="3" stroke-miterlimit="10"/>
<path d="M325.04 111.91C325.04 111.91 330.487 116.133 332.766 119.498" stroke="#EB3829" stroke-width="3" stroke-miterlimit="10"/>
<path d="M330.266 109.348C330.266 109.348 335.407 113.325 337.154 115.71" stroke="#EB3829" stroke-width="3" stroke-miterlimit="10"/>
<path d="M340.948 112.526C340.948 112.526 341.288 114.814 341.511 117.247C341.511 117.247 340.948 121.84 342.875 123.884" stroke="#EB3829" stroke-width="3" stroke-miterlimit="10"/>
<path d="M429.379 207.92C429.379 207.92 410.955 256.093 429.379 281.746" stroke="#92BEBE" stroke-width="3" stroke-miterlimit="10"/>
<path d="M470.307 110.394L467.983 114.608L476.846 143.597L484.724 137.338C484.724 137.338 492.051 105.645 493.871 100.949L477.755 114.534L470.307 110.394Z" fill="white" stroke="white" stroke-width="3" stroke-miterlimit="10"/>
<path d="M440.211 98.2157L445.388 129.133L454.802 141.304L463.182 114.606L461.108 110.875L456.4 114.606L440.211 98.2157Z" fill="white" stroke="white" stroke-width="3" stroke-miterlimit="10"/>
<path d="M456.4 114.606L465.255 107.59L451.67 97.0229L440.211 98.2157L456.4 114.606Z" fill="white" stroke="#F9D7B1" stroke-width="3" stroke-miterlimit="10"/>
<path d="M481.561 95.83L493.872 100.943L477.756 114.529L465.256 107.59L481.561 95.83Z" fill="white" stroke="#F9D7B1" stroke-width="3" stroke-miterlimit="10"/>
<path d="M465.255 107.59L461.107 110.875L463.181 114.606H467.983L470.307 110.394L465.255 107.59Z" fill="#3F0000" stroke="#3F0000" stroke-miterlimit="10"/>
<path d="M454.801 141.304L465.255 152.075L476.846 143.595L467.983 114.606H463.181L454.801 141.304Z" fill="#3F0000" stroke="#3F0000" stroke-miterlimit="10"/>
<path d="M493.871 100.943C493.871 100.943 485.936 127.618 483.663 143.586C483.663 143.586 476.149 199.108 479.564 215.242C479.564 215.242 494.117 220.634 504.798 217.371C504.798 217.371 507.98 203.197 509.119 190.472C509.119 190.472 508.666 210.323 510.937 213.238C510.937 213.238 525.71 211.607 531.391 214.553C531.391 214.553 541.39 185.567 534.573 150.52C534.577 150.537 527.26 110.261 493.871 100.943Z" fill="#F73C50" stroke="#F73C50" stroke-miterlimit="10"/>
<path d="M484.724 137.338L476.846 143.601L465.255 152.081L456.392 142.949C455.333 141.856 454.335 140.706 453.404 139.502L445.388 129.138C445.841 133.337 446.891 147.801 447.58 157.425L444.347 177.61L448.271 172.899L448.589 207.926C457.829 213.093 478.833 209.15 478.833 209.15C476.966 193.038 484.724 137.338 484.724 137.338Z" fill="#9E2316" stroke="#B4293C" stroke-miterlimit="10"/>
<path d="M440.211 98.2157C440.211 98.2157 417.533 100.489 397.989 132.078C397.989 132.078 392.988 136.851 389.126 135.488C389.126 135.488 366.854 123.555 353.9 122.932C353.9 122.932 347.31 136.397 342.084 138.443C342.084 138.443 360.946 154.799 369.582 159.689C369.582 159.689 396.398 175.938 404.124 170.939L417.759 159.689C417.759 159.689 415.715 202.143 420.486 213.249C420.486 213.249 433.525 219.471 448.589 215.026C448.589 215.026 448.625 211.724 448.589 207.922C448.589 207.922 448.546 172.733 447.015 149.565L445.388 129.134C445.388 129.134 442.89 110.943 440.211 98.2157Z" fill="#F23F4F" stroke="#F23F4F" stroke-miterlimit="10"/>
<path d="M460.256 232.75C460.256 232.75 481.859 237.668 484.724 281.741L479.042 281.365C479.042 281.365 478.241 241.033 460.256 232.75Z" fill="#0F3C56"/>
<path d="M344.469 136.853C344.469 136.853 370.292 161.509 386.066 168.108C386.066 168.108 369.523 163.344 342.076 138.441L344.469 136.853Z" fill="#B4293C" stroke="#B4293C" stroke-miterlimit="10"/>
<path d="M417.758 159.692C417.758 159.692 422.483 154.262 424.448 152.081C424.448 152.081 422.006 169.696 417.328 177.61L417.758 159.692Z" fill="#B4293C"/>
<path d="M508.937 189.157C508.937 189.157 512.035 162.106 508.937 143.992C508.937 143.992 514.933 177.14 509.256 204.495C509.256 204.495 508.51 193.577 508.937 189.157Z" fill="#BC394D"/>
</svg>
