<svg width="185" height="173" viewBox="0 0 185 173" fill="none" xmlns="http://www.w3.org/2000/svg">
<path d="M253.086 1.21053C253.091 16.6862 248.938 31.8779 241.062 45.1906C233.186 58.5034 221.879 69.4463 208.327 76.8705C207.558 77.2913 206.78 77.7019 205.998 78.0987C203.098 79.58 200.114 80.8913 197.062 82.026C195.847 82.4845 194.619 82.911 193.378 83.3055C193.259 83.3466 193.136 83.3876 193.016 83.4218C180.867 87.2868 168.01 88.3931 155.381 86.6605C142.751 84.9279 130.665 80.3999 119.999 73.405C118.569 72.4676 117.168 71.4892 115.796 70.4697C115.021 69.8916 114.256 69.3032 113.502 68.6976C111.368 67.0008 109.319 65.2025 107.356 63.3026C99.0091 55.2698 92.3712 45.6275 87.8418 34.9565C83.3123 24.2855 80.9851 12.8065 81.0001 1.21053C81.0001 -46.4037 119.521 -85 167.043 -85C214.565 -85 253.086 -46.4037 253.086 1.21053Z" fill="#D6E4F1"/>
<path d="M48.6331 167.818C51.7203 167.346 54.0796 166.026 53.9028 164.868C53.726 163.71 51.0801 163.153 47.9929 163.624C44.9058 164.096 42.5465 165.416 42.7232 166.574C42.9 167.732 45.546 168.289 48.6331 167.818Z" fill="#2F2E41"/>
<path d="M62.0059 165.49C65.093 165.019 67.4524 163.698 67.2756 162.54C67.0988 161.382 64.4529 160.825 61.3657 161.297C58.2786 161.768 55.9192 163.089 56.096 164.247C56.2728 165.405 58.9187 165.961 62.0059 165.49Z" fill="#2F2E41"/>
<path d="M74.4355 127.529C79.2528 123.677 82.1777 119.328 80.9686 117.815C79.7594 116.302 74.874 118.199 70.0567 122.051C65.2395 125.903 62.3145 130.252 63.5237 131.765C64.7328 133.278 69.6182 131.381 74.4355 127.529Z" fill="#2F2E41"/>
<path d="M70.617 135.755C70.7323 123.417 60.8263 113.32 48.4913 113.204C36.1563 113.087 26.0632 122.995 25.9479 135.333C25.8326 147.672 35.7386 157.768 48.0736 157.885C60.4087 158.001 70.5017 148.093 70.617 135.755Z" fill="#2F2E41"/>
<path d="M47.5745 153.389L40.8668 154.413L42.7019 166.434L49.4096 165.411L47.5745 153.389Z" fill="#2F2E41"/>
<path d="M60.99 151.341L54.2823 152.365L56.1174 164.387L62.8251 163.363L60.99 151.341Z" fill="#2F2E41"/>
<path d="M49.1402 137.416C53.3078 136.78 56.1705 132.884 55.5341 128.716C54.8977 124.547 51.0033 121.683 46.8357 122.319C42.668 122.956 39.8054 126.851 40.4417 131.02C41.0781 135.188 44.9726 138.052 49.1402 137.416Z" fill="white"/>
<path d="M48.372 132.384C49.7612 132.172 50.7154 130.873 50.5033 129.484C50.2912 128.094 48.993 127.139 47.6038 127.351C46.2146 127.564 45.2603 128.862 45.4725 130.252C45.6846 131.641 46.9827 132.596 48.372 132.384Z" fill="#3F3D56"/>
<path d="M23.7292 118.275C20.7272 110.56 25.1942 101.62 33.7066 98.3066C42.219 94.9929 51.5533 98.5604 54.5553 106.275C57.5573 113.989 52.1663 117.826 43.6539 121.14C35.1415 124.454 26.7312 125.989 23.7292 118.275Z" fill="#E6E6E6"/>
<path d="M32.5462 132.302C33.1024 130.447 28.764 127.506 22.8561 125.734C16.9482 123.961 11.7081 124.028 11.1519 125.883C10.5958 127.738 14.9342 130.679 20.8421 132.452C26.7499 134.224 31.9901 134.157 32.5462 132.302Z" fill="#2F2E41"/>
<path d="M38.6533 145.167C38.9833 147.329 45.1991 150.748 51.3734 149.805C57.5477 148.863 62.4078 141.894 62.0778 139.732C61.7478 137.57 56.3527 141.035 50.1784 141.978C44.0042 142.92 38.3233 143.006 38.6533 145.167Z" fill="white"/>
<path d="M122.201 165.713C124.94 165.945 127.232 165.299 127.319 164.272C127.406 163.244 125.255 162.223 122.515 161.991C119.776 161.759 117.484 162.404 117.397 163.432C117.31 164.46 119.461 165.481 122.201 165.713Z" fill="#2F2E41"/>
<path d="M110.315 164.457C113.055 164.689 115.347 164.044 115.434 163.016C115.521 161.988 113.37 160.967 110.63 160.736C107.89 160.504 105.599 161.149 105.512 162.177C105.425 163.204 107.575 164.225 110.315 164.457Z" fill="#2F2E41"/>
<path d="M106.992 134.92C107.965 133.519 105.139 129.871 100.679 126.771C96.2201 123.671 91.8164 122.293 90.8434 123.694C89.8705 125.094 92.6967 128.742 97.1559 131.842C101.615 134.942 106.019 136.32 106.992 134.92Z" fill="#2F2E41"/>
<path d="M118.946 156.941C129.768 157.857 139.284 149.823 140.2 138.998C141.116 128.173 133.085 118.655 122.263 117.739C111.44 116.823 101.925 124.857 101.009 135.682C100.093 146.507 108.123 156.025 118.946 156.941Z" fill="#2F2E41"/>
<path d="M128.232 153.479L122.279 152.975L121.376 163.644L127.329 164.148L128.232 153.479Z" fill="#2F2E41"/>
<path d="M116.326 152.471L110.373 151.968L109.47 162.636L115.423 163.14L116.326 152.471Z" fill="#2F2E41"/>
<path d="M115.866 138.688C119.565 139.001 122.817 136.256 123.13 132.556C123.443 128.856 120.699 125.603 117 125.29C113.301 124.977 110.049 127.723 109.736 131.423C109.423 135.122 112.167 138.375 115.866 138.688Z" fill="white"/>
<path d="M114.763 132.515C115.712 131.715 115.837 130.303 115.043 129.361C114.248 128.418 112.836 128.303 111.887 129.103C110.938 129.904 110.813 131.316 111.607 132.258C112.401 133.2 113.814 133.316 114.763 132.515Z" fill="#3F3D56"/>
<path d="M123.82 124.413C116.147 122.004 111.184 118.951 113.366 111.997C115.548 105.043 123.538 101.358 131.212 103.767C138.885 106.176 143.337 113.766 141.155 120.72C138.973 127.674 131.494 126.822 123.82 124.413Z" fill="#E6E6E6"/>
<path d="M139.831 154.015C141.51 153.718 142.104 149.141 141.157 143.792C140.211 138.443 138.083 134.348 136.404 134.645C134.725 134.942 134.132 139.52 135.078 144.868C136.025 150.217 138.153 154.312 139.831 154.015Z" fill="#2F2E41"/>
<path d="M115.671 142.795C112.074 142.491 108.895 139.915 108.732 141.833C108.57 143.752 111.486 149.438 115.084 149.743C118.681 150.047 122.244 146.533 122.406 144.615C122.568 142.696 119.269 143.1 115.671 142.795Z" fill="white"/>
<path d="M81.787 96.7761C80.7264 95.519 80.2075 93.8925 80.3444 92.2532L80.4848 90.594C80.8275 86.544 81.878 83.2605 83.5755 80.8049C85.6781 77.8793 88.0707 75.1735 90.7168 72.7288C92.5005 71.2136 94.1443 69.541 95.6284 67.7311L95.6342 67.7241L95.6397 67.7168C96.7604 66.2434 97.4246 64.4738 97.5504 62.6269C97.7338 60.4486 97.1599 58.6913 95.7401 57.432C94.3463 56.1957 92.2084 55.5047 89.4008 55.2672L89.4008 55.2671L89.3952 55.2667C86.2819 55.0387 83.1521 55.2411 80.094 55.8682C79.0093 56.0806 77.8901 56.0385 76.8244 55.7452C75.7581 55.4516 74.7743 54.9145 73.9507 54.1761C73.1271 53.4377 72.486 52.5182 72.078 51.4898C71.67 50.4615 71.5062 49.3524 71.5994 48.25C71.5994 48.2499 71.5994 48.2499 71.5994 48.2499L71.8837 44.89L71.8839 44.8878C71.9921 43.5373 72.4896 42.2471 73.3161 41.1737C74.1416 40.1015 75.26 39.2916 76.5359 38.8419C81.8486 37.0877 87.47 36.4678 93.0371 37.0224L93.0371 37.0225L93.0445 37.0231C98.9035 37.5188 104.091 38.9493 108.472 41.2628C112.863 43.5827 116.21 46.6035 118.441 50.2324L118.441 50.2333C120.663 53.8314 121.648 58.0575 121.247 62.2678L121.247 62.2678L121.246 62.2731C120.861 66.8201 119.289 70.6501 116.589 73.6804L116.589 73.6805C113.872 76.7315 110.056 80.0171 105.237 83.4444C102.674 85.2337 100.224 87.1799 97.9007 89.2719L97.8988 89.2736C96.3435 90.6887 95.1774 92.4794 94.5121 94.4744L94.5066 94.4909L94.5022 94.5077C94.1368 95.9251 93.2808 97.1669 92.0863 98.0124C90.8919 98.8579 89.4365 99.2524 87.9788 99.1257L87.9355 99.6239L87.9777 99.1256L86.0017 98.9584C84.3633 98.8179 82.8476 98.0331 81.787 96.7761Z" stroke="#0191E6"/>
<path d="M84.1785 130.944L83.9179 130.922C80.6368 130.643 77.6011 129.071 75.4781 126.553C73.3551 124.035 72.3185 120.777 72.5963 117.495C72.874 114.213 74.4433 111.175 76.9592 109.05C79.4751 106.925 82.7316 105.886 86.0131 106.161L86.2737 106.183C87.8999 106.32 89.4832 106.775 90.9332 107.524C92.3832 108.273 93.6714 109.3 94.7243 110.548C95.7772 111.795 96.5741 113.237 97.0695 114.792C97.5648 116.348 97.749 117.985 97.6114 119.612C97.4737 121.238 97.017 122.822 96.2674 124.272C95.5177 125.722 94.4898 127.01 93.2423 128.062C91.9948 129.114 90.5523 129.911 88.9971 130.405C87.4419 130.9 85.8045 131.083 84.1785 130.944Z" fill="#0191E6"/>
<path d="M123.947 22.737L110.511 21.6001C109.826 21.5413 109.192 21.2132 108.749 20.6877C108.305 20.1622 108.088 19.4822 108.145 18.7969L109.283 5.35725C109.341 4.6721 109.669 4.03822 110.195 3.59468C110.72 3.15115 111.4 2.93416 112.085 2.99134L125.521 4.12824C126.206 4.18699 126.84 4.51512 127.283 5.04064C127.727 5.56615 127.944 6.24614 127.886 6.93143L126.749 20.3711C126.69 21.0562 126.362 21.6901 125.837 22.1337C125.311 22.5772 124.632 22.7942 123.947 22.737V22.737ZM111.998 4.02516C111.587 3.99083 111.179 4.12101 110.863 4.38714C110.548 4.65326 110.351 5.03361 110.316 5.44471L109.179 18.8844C109.145 19.2955 109.275 19.7036 109.541 20.0189C109.807 20.3342 110.187 20.531 110.598 20.5663L124.034 21.7032C124.445 21.7375 124.853 21.6073 125.168 21.3412C125.484 21.0751 125.68 20.6947 125.716 20.2836L126.853 6.84397C126.887 6.43279 126.757 6.02479 126.491 5.70947C126.225 5.39416 125.845 5.19729 125.434 5.16206L111.998 4.02516Z" fill="#F2F2F2"/>
<path d="M116.247 15.3175L102.811 14.1806C102.126 14.1219 101.492 13.7937 101.049 13.2682C100.605 12.7427 100.389 12.0627 100.446 11.3774L101.583 -2.06224C101.642 -2.7474 101.97 -3.38127 102.495 -3.82481C103.021 -4.26835 103.7 -4.48534 104.386 -4.42815L117.822 -3.29125C118.507 -3.2325 119.14 -2.90437 119.584 -2.37886C120.027 -1.85334 120.244 -1.17336 120.187 -0.488068L119.049 12.9516C118.991 13.6367 118.663 14.2706 118.137 14.7142C117.612 15.1577 116.932 15.3747 116.247 15.3175V15.3175ZM104.298 -3.39433C103.887 -3.42867 103.479 -3.29849 103.164 -3.03236C102.849 -2.76623 102.652 -2.38589 102.617 -1.97479L101.479 11.4649C101.445 11.8761 101.575 12.2841 101.841 12.5994C102.107 12.9147 102.487 13.1116 102.898 13.1468L116.334 14.2837C116.745 14.318 117.153 14.1878 117.469 13.9217C117.784 13.6556 117.981 13.2752 118.016 12.8641L119.153 -0.575521C119.187 -0.986701 119.057 -1.39471 118.791 -1.71002C118.525 -2.02534 118.145 -2.2222 117.734 -2.25743L104.298 -3.39433Z" fill="#F2F2F2"/>
<path d="M172.603 100.071C174.449 100.227 176.072 98.8574 176.228 97.0112C176.384 95.165 175.015 93.5418 173.169 93.3856C171.323 93.2294 169.701 94.5995 169.544 96.4456C169.388 98.2918 170.758 99.915 172.603 100.071Z" fill="#F2F2F2"/>
<path d="M39.2494 76.8132C41.0951 76.9694 42.7179 75.5994 42.8742 73.7532C43.0304 71.907 41.6608 70.2838 39.8151 70.1276C37.9695 69.9715 36.3466 71.3415 36.1904 73.1876C36.0342 75.0338 37.4037 76.657 39.2494 76.8132Z" fill="#F2F2F2"/>
</svg>
