<svg width="17" height="22" viewBox="0 0 17 22" fill="none" xmlns="http://www.w3.org/2000/svg">
<path fill-rule="evenodd" clip-rule="evenodd" d="M11.3931 0C11.9235 0 12.4322 0.210714 12.8073 0.585787L16.4142 4.19273C16.7893 4.5678 17 5.07651 17 5.60694V20C17 21.1046 16.1046 22 15 22H2C0.89543 22 0 21.1046 0 20V2C0 0.89543 0.895431 0 2 0H11.3931ZM4 7.25C3.58579 7.25 3.25 7.58579 3.25 8C3.25 8.41421 3.58579 8.75 4 8.75H11C11.4142 8.75 11.75 8.41421 11.75 8C11.75 7.58579 11.4142 7.25 11 7.25H4ZM3.25 12C3.25 11.5858 3.58579 11.25 4 11.25H9C9.41421 11.25 9.75 11.5858 9.75 12C9.75 12.4142 9.41421 12.75 9 12.75H4C3.58579 12.75 3.25 12.4142 3.25 12ZM4 15.25C3.58579 15.25 3.25 15.5858 3.25 16C3.25 16.4142 3.58579 16.75 4 16.75H14C14.4142 16.75 14.75 16.4142 14.75 16C14.75 15.5858 14.4142 15.25 14 15.25H4Z" fill="#757575"/>
</svg>
