<svg width="19" height="19" viewBox="0 0 19 19" fill="none" xmlns="http://www.w3.org/2000/svg">
<path d="M16.9129 11.9102C16.7871 11.9121 16.6622 11.9332 16.5426 11.9728L15.521 10.1715C15.647 10.0518 15.7474 9.90703 15.8161 9.74613C15.8848 9.58522 15.9202 9.41165 15.9202 9.23621C15.9202 9.06076 15.8848 8.88719 15.8161 8.72629C15.7474 8.56539 15.647 8.4206 15.521 8.30093L16.5426 6.49878C16.7297 6.55884 16.9281 6.57316 17.1217 6.54058C17.3153 6.508 17.4987 6.42944 17.6569 6.31126C17.8151 6.19309 17.9438 6.03861 18.0325 5.86036C18.1212 5.68211 18.1674 5.48508 18.1674 5.28525C18.1674 5.08542 18.1212 4.8884 18.0325 4.71014C17.9438 4.53189 17.8151 4.37742 17.6569 4.25924C17.4987 4.14106 17.3153 4.0625 17.1217 4.02992C16.9281 3.99735 16.7297 4.01167 16.5426 4.07172L15.5194 2.26791C15.661 2.13213 15.7696 1.96448 15.8363 1.77835C15.9029 1.59222 15.9259 1.39278 15.9034 1.19599C15.8809 0.999189 15.8134 0.810492 15.7065 0.644987C15.5995 0.479483 15.456 0.341762 15.2874 0.24284C15.1189 0.143917 14.9299 0.0865378 14.7357 0.0752902C14.5415 0.0640425 14.3473 0.0992387 14.1688 0.178064C13.9904 0.256889 13.8325 0.377157 13.7078 0.529248C13.5831 0.681339 13.4951 0.861034 13.4508 1.05396H11.4158C11.3715 0.861034 11.2835 0.681339 11.1588 0.529248C11.0341 0.377157 10.8762 0.256889 10.6977 0.178064C10.5193 0.0992387 10.3251 0.0640425 10.1309 0.0752902C9.93667 0.0865378 9.74771 0.143917 9.57915 0.24284C9.41058 0.341762 9.26709 0.479483 9.16013 0.644987C9.05318 0.810492 8.98574 0.999189 8.9632 1.19599C8.94067 1.39278 8.96366 1.59222 9.03034 1.77835C9.09703 1.96448 9.20555 2.13213 9.34724 2.26791L8.32729 4.06672C8.16319 4.01667 7.99073 4.00153 7.82063 4.02224C7.65054 4.04294 7.48644 4.09906 7.33854 4.18708C7.19064 4.27511 7.0621 4.39317 6.9609 4.53394C6.8597 4.6747 6.788 4.83516 6.75027 5.00533H4.73168C4.68738 4.81299 4.59966 4.63381 4.47547 4.48203C4.35129 4.33025 4.19406 4.21005 4.01628 4.13098C3.83851 4.05191 3.64507 4.01615 3.45135 4.02654C3.25762 4.03692 3.06895 4.09317 2.9003 4.19081C2.73166 4.28845 2.58769 4.4248 2.47984 4.58902C2.37199 4.75324 2.30322 4.94081 2.27901 5.13683C2.25479 5.33285 2.27578 5.53192 2.34033 5.71823C2.40487 5.90454 2.51118 6.07296 2.65082 6.2101L1.6235 8.02226C1.4364 7.96245 1.2381 7.94833 1.04465 7.98105C0.851195 8.01377 0.668022 8.09241 0.50995 8.21061C0.351878 8.3288 0.223347 8.48324 0.134755 8.66141C0.0461634 8.83958 0 9.03649 0 9.23621C0 9.43592 0.0461634 9.63283 0.134755 9.81101C0.223347 9.98918 0.351878 10.1436 0.50995 10.2618C0.668022 10.38 0.851195 10.4586 1.04465 10.4914C1.2381 10.5241 1.4364 10.51 1.6235 10.4502L2.63935 12.2415C2.50316 12.3789 2.39993 12.5464 2.33766 12.7311C2.2754 12.9158 2.25579 13.1126 2.28035 13.3062C2.30491 13.4998 2.37299 13.6851 2.47929 13.8476C2.58559 14.0101 2.72725 14.1454 2.89326 14.2431C3.05927 14.3407 3.24515 14.3981 3.43647 14.4107C3.62778 14.4233 3.81938 14.3908 3.99636 14.3157C4.17333 14.2407 4.33093 14.125 4.4569 13.9779C4.58287 13.8307 4.67381 13.6559 4.72266 13.4671H6.75928C6.79991 13.6327 6.87292 13.7883 6.97394 13.9245C7.07496 14.0608 7.20192 14.1749 7.34723 14.26C7.49253 14.3451 7.6532 14.3995 7.81962 14.42C7.98605 14.4404 8.15481 14.4265 8.31583 14.379L9.35134 16.207C9.20933 16.3428 9.10054 16.5106 9.03368 16.6969C8.96683 16.8832 8.94376 17.0829 8.96634 17.2799C8.98891 17.477 9.0565 17.6659 9.16369 17.8315C9.27087 17.9972 9.41467 18.1349 9.58356 18.2338C9.75244 18.3326 9.94172 18.3898 10.1362 18.4007C10.3307 18.4116 10.525 18.376 10.7035 18.2966C10.882 18.2173 11.0398 18.0964 11.1642 17.9438C11.2886 17.7911 11.3762 17.6109 11.4199 17.4176H13.4532C13.4968 17.6113 13.5843 17.7919 13.7087 17.9449C13.8332 18.0978 13.9911 18.219 14.1699 18.2985C14.3486 18.3781 14.5432 18.4138 14.738 18.4029C14.9328 18.392 15.1224 18.3348 15.2915 18.2357C15.4606 18.1367 15.6045 17.9986 15.7118 17.8327C15.819 17.6667 15.8865 17.4774 15.9089 17.2801C15.9313 17.0827 15.908 16.8827 15.8408 16.6962C15.7735 16.5097 15.6643 16.3419 15.5218 16.2062L16.5459 14.4007C16.7171 14.4524 16.8972 14.4661 17.0741 14.4409C17.251 14.4157 17.4205 14.3521 17.5712 14.2544C17.7219 14.1568 17.8503 14.0273 17.9476 13.8748C18.045 13.7223 18.1091 13.5503 18.1356 13.3704C18.1621 13.1905 18.1504 13.0069 18.1013 12.832C18.0522 12.6571 17.9668 12.495 17.8509 12.3566C17.735 12.2182 17.5913 12.1067 17.4295 12.0297C17.2676 11.9527 17.0915 11.912 16.9129 11.9102ZM15.3768 9.24038C15.3768 9.43046 15.3027 9.61275 15.1707 9.74715C15.0387 9.88156 14.8597 9.95707 14.6731 9.95707C14.4864 9.95707 14.3075 9.88156 14.1755 9.74715C14.0435 9.61275 13.9694 9.43046 13.9694 9.24038C13.9691 9.14626 13.987 9.05301 14.0221 8.96596C14.0573 8.8789 14.1089 8.79974 14.174 8.73299C14.3056 8.5982 14.4844 8.52216 14.671 8.52161C14.8577 8.52105 15.0369 8.59603 15.1692 8.73004C15.3016 8.86406 15.3763 9.04613 15.3768 9.23621V9.24038ZM17.6133 5.28567C17.6071 5.4714 17.5303 5.64741 17.399 5.77656C17.2678 5.90571 17.0925 5.97791 16.91 5.97791C16.7275 5.97791 16.5522 5.90571 16.421 5.77656C16.2897 5.64741 16.2129 5.4714 16.2067 5.28567C16.2129 5.09993 16.2897 4.92392 16.421 4.79477C16.5522 4.66562 16.7275 4.59343 16.91 4.59343C17.0925 4.59343 17.2678 4.66562 17.399 4.79477C17.5303 4.92392 17.6071 5.09993 17.6133 5.28567ZM14.6731 0.615105C14.8555 0.621445 15.0283 0.699685 15.1551 0.83332C15.2819 0.966954 15.3528 1.14553 15.3528 1.33137C15.3528 1.51722 15.2819 1.6958 15.1551 1.82943C15.0283 1.96306 14.8555 2.0413 14.6731 2.04764C14.4907 2.0413 14.3179 1.96306 14.1911 1.82943C14.0643 1.6958 13.9934 1.51722 13.9934 1.33137C13.9934 1.14553 14.0643 0.966954 14.1911 0.83332C14.3179 0.699685 14.4907 0.621445 14.6731 0.615105ZM10.1935 0.615105C10.3759 0.621445 10.5487 0.699685 10.6755 0.83332C10.8023 0.966954 10.8732 1.14553 10.8732 1.33137C10.8732 1.51722 10.8023 1.6958 10.6755 1.82943C10.5487 1.96306 10.3759 2.0413 10.1935 2.04764C10.0111 2.0413 9.83831 1.96306 9.71149 1.82943C9.58468 1.6958 9.51379 1.51722 9.51379 1.33137C9.51379 1.14553 9.58468 0.966954 9.71149 0.83332C9.83831 0.699685 10.0111 0.621445 10.1935 0.615105ZM9.82568 2.54574C9.98995 2.59774 10.163 2.61464 10.334 2.59536C10.505 2.57609 10.6702 2.52106 10.8193 2.43372C10.9684 2.34639 11.0982 2.22863 11.2006 2.08783C11.303 1.94703 11.3757 1.78621 11.4142 1.61546H13.4524C13.491 1.78625 13.5638 1.94707 13.6663 2.08788C13.7687 2.22869 13.8986 2.34644 14.0478 2.43377C14.197 2.52109 14.3623 2.57611 14.5333 2.59538C14.7043 2.61465 14.8774 2.59775 15.0417 2.54574L16.065 4.35039C15.9391 4.47005 15.8388 4.61479 15.7702 4.77561C15.7016 4.93644 15.6662 5.10991 15.6662 5.28525C15.6662 5.46059 15.7016 5.63406 15.7702 5.79489C15.8388 5.95571 15.9391 6.10045 16.065 6.22011L15.0434 8.02226C14.8787 7.96988 14.7052 7.95276 14.5338 7.97199C14.3623 7.99122 14.1966 8.04637 14.0471 8.13398C13.8976 8.2216 13.7675 8.33977 13.665 8.48107C13.5625 8.62237 13.4899 8.78375 13.4516 8.95504H11.415C11.3767 8.78375 11.3041 8.62237 11.2016 8.48107C11.0991 8.33977 10.969 8.2216 10.8195 8.13398C10.67 8.04637 10.5043 7.99122 10.3328 7.97199C10.1614 7.95276 9.98786 7.96988 9.82322 8.02226L8.80737 6.22679C8.93668 6.10722 9.04 5.96142 9.11071 5.79877C9.18142 5.63612 9.21795 5.46021 9.21795 5.28233C9.21795 5.10445 9.18142 4.92854 9.11071 4.76589C9.04 4.60324 8.93668 4.45745 8.80737 4.33787L9.82568 2.54574ZM9.49061 9.23621C9.49683 9.05047 9.57366 8.87446 9.70487 8.74531C9.83609 8.61616 10.0114 8.54397 10.1939 8.54397C10.3764 8.54397 10.5517 8.61616 10.683 8.74531C10.8142 8.87446 10.891 9.05047 10.8972 9.23621C10.891 9.42194 10.8142 9.59795 10.683 9.7271C10.5517 9.85625 10.3764 9.92844 10.1939 9.92844C10.0114 9.92844 9.83609 9.85625 9.70487 9.7271C9.57366 9.59795 9.49683 9.42194 9.49061 9.23621ZM7.97175 4.56898C8.15412 4.57532 8.32695 4.65356 8.45376 4.7872C8.58058 4.92083 8.65146 5.09941 8.65146 5.28525C8.65146 5.4711 8.58058 5.64967 8.45376 5.78331C8.32695 5.91694 8.15412 5.99518 7.97175 6.00152C7.78937 5.99518 7.61654 5.91694 7.48973 5.78331C7.36292 5.64967 7.29203 5.4711 7.29203 5.28525C7.29203 5.09941 7.36292 4.92083 7.48973 4.7872C7.61654 4.65356 7.78937 4.57532 7.97175 4.56898ZM3.51102 4.56898C3.69339 4.57532 3.86622 4.65356 3.99303 4.7872C4.11985 4.92083 4.19073 5.09941 4.19073 5.28525C4.19073 5.4711 4.11985 5.64967 3.99303 5.78331C3.86622 5.91694 3.69339 5.99518 3.51102 6.00152C3.32864 5.99518 3.15581 5.91694 3.029 5.78331C2.90218 5.64967 2.8313 5.4711 2.8313 5.28525C2.8313 5.09941 2.90218 4.92083 3.029 4.7872C3.15581 4.65356 3.32864 4.57532 3.51102 4.56898ZM0.550302 9.23621C0.556528 9.05047 0.633353 8.87446 0.76457 8.74531C0.895786 8.61616 1.07113 8.54397 1.25362 8.54397C1.4361 8.54397 1.61144 8.61616 1.74266 8.74531C1.87388 8.87446 1.9507 9.05047 1.95693 9.23621C1.9507 9.42194 1.87388 9.59795 1.74266 9.7271C1.61144 9.85625 1.4361 9.92844 1.25362 9.92844C1.07113 9.92844 0.895786 9.85625 0.76457 9.7271C0.633353 9.59795 0.556528 9.42194 0.550302 9.23621ZM3.51102 13.8726C3.32864 13.8662 3.15581 13.788 3.029 13.6543C2.90218 13.5207 2.8313 13.3421 2.8313 13.1563C2.8313 12.9704 2.90218 12.7919 3.029 12.6582C3.15581 12.5246 3.32864 12.4464 3.51102 12.44C3.69339 12.4464 3.86622 12.5246 3.99303 12.6582C4.11985 12.7919 4.19073 12.9704 4.19073 13.1563C4.19073 13.3421 4.11985 13.5207 3.99303 13.6543C3.86622 13.788 3.69339 13.8662 3.51102 13.8726ZM6.74208 12.9056H4.73987C4.70446 12.7284 4.63245 12.5609 4.52862 12.4143C4.42479 12.2676 4.29151 12.1451 4.13764 12.0549C3.98376 11.9647 3.81281 11.9089 3.63613 11.8911C3.45945 11.8734 3.28108 11.8941 3.11287 11.9519L2.10193 10.1707C2.22775 10.0511 2.32808 9.90639 2.39667 9.74564C2.46527 9.58489 2.50066 9.41148 2.50066 9.23621C2.50066 9.06093 2.46527 8.88753 2.39667 8.72677C2.32808 8.56602 2.22775 8.42135 2.10193 8.30176L3.12598 6.49377C3.29114 6.54877 3.46576 6.56805 3.63866 6.55038C3.81156 6.53271 3.97894 6.47847 4.13007 6.39114C4.28121 6.30382 4.41279 6.18532 4.51638 6.04323C4.61997 5.90115 4.6933 5.7386 4.73168 5.566H6.75027C6.7881 5.7361 6.85986 5.89647 6.9611 6.03714C7.06234 6.17781 7.1909 6.29578 7.33879 6.38372C7.48668 6.47166 7.65074 6.5277 7.82079 6.54836C7.99084 6.56901 8.16324 6.55384 8.32729 6.50379L9.3456 8.30176C9.21978 8.42135 9.11946 8.56602 9.05086 8.72677C8.98227 8.88753 8.94687 9.06093 8.94687 9.23621C8.94687 9.41148 8.98227 9.58489 9.05086 9.74564C9.11946 9.90639 9.21978 10.0511 9.3456 10.1707L8.34204 11.9428C8.17485 11.8894 7.99853 11.8725 7.82449 11.893C7.65046 11.9134 7.48258 11.9709 7.33175 12.0617C7.18092 12.1525 7.05049 12.2745 6.94891 12.4199C6.84733 12.5652 6.77686 12.7307 6.74208 12.9056ZM7.97093 13.8726C7.78855 13.8662 7.61573 13.788 7.48891 13.6543C7.3621 13.5207 7.29121 13.3421 7.29121 13.1563C7.29121 12.9704 7.3621 12.7919 7.48891 12.6582C7.61573 12.5246 7.78855 12.4464 7.97093 12.44C8.15331 12.4463 8.32618 12.5244 8.45307 12.658C8.57996 12.7915 8.65095 12.97 8.65106 13.1559C8.65116 13.3417 8.58038 13.5204 8.45364 13.6541C8.3269 13.7878 8.15412 13.8661 7.97175 13.8726H7.97093ZM10.1927 17.8598C10.0103 17.8535 9.83749 17.7752 9.71068 17.6416C9.58386 17.508 9.51298 17.3294 9.51298 17.1435C9.51298 16.9577 9.58386 16.7791 9.71068 16.6455C9.83749 16.5119 10.0103 16.4336 10.1927 16.4273C10.3751 16.4335 10.5479 16.5116 10.6748 16.6452C10.8017 16.7788 10.8727 16.9573 10.8728 17.1431C10.8729 17.329 10.8021 17.5076 10.6754 17.6413C10.5487 17.775 10.3759 17.8534 10.1935 17.8598H10.1927ZM14.6723 17.8598C14.4899 17.8535 14.3171 17.7752 14.1902 17.6416C14.0634 17.508 13.9926 17.3294 13.9926 17.1435C13.9926 16.9577 14.0634 16.7791 14.1902 16.6455C14.3171 16.5119 14.4899 16.4336 14.6723 16.4273C14.8546 16.4335 15.0275 16.5116 15.1544 16.6452C15.2813 16.7788 15.3523 16.9573 15.3524 17.1431C15.3525 17.329 15.2817 17.5076 15.155 17.6413C15.0282 17.775 14.8555 17.8534 14.6731 17.8598H14.6723ZM16.065 14.122L15.0401 15.9283C14.876 15.8767 14.7033 15.8601 14.5326 15.8794C14.362 15.8988 14.1971 15.9537 14.0482 16.0409C13.8993 16.128 13.7696 16.2454 13.6673 16.3858C13.5649 16.5262 13.4921 16.6866 13.4532 16.857H11.4134C11.3746 16.687 11.3019 16.527 11.1998 16.3869C11.0978 16.2469 10.9685 16.1296 10.82 16.0426C10.6716 15.9556 10.5071 15.9006 10.3369 15.8811C10.1667 15.8616 9.99433 15.878 9.83059 15.9292L8.79999 14.1103C8.93077 13.9924 9.03588 13.8479 9.10857 13.6862C9.18126 13.5244 9.21993 13.3489 9.22209 13.1711C9.22425 12.9932 9.18986 12.8168 9.12111 12.6533C9.05237 12.4897 8.9508 12.3426 8.82293 12.2214L9.82731 10.4502C9.99202 10.5024 10.1655 10.5194 10.337 10.5C10.5085 10.4807 10.6741 10.4255 10.8236 10.3378C10.9731 10.2501 11.1032 10.1319 11.2057 9.99056C11.3081 9.84923 11.3808 9.68785 11.4191 9.51654H13.4516C13.4899 9.68785 13.5626 9.84923 13.665 9.99056C13.7675 10.1319 13.8976 10.2501 14.0471 10.3378C14.1965 10.4255 14.3622 10.4807 14.5337 10.5C14.7051 10.5194 14.8787 10.5024 15.0434 10.4502L16.065 12.2523C15.9391 12.372 15.8388 12.5167 15.7702 12.6775C15.7016 12.8384 15.6662 13.0118 15.6662 13.1872C15.6662 13.3625 15.7016 13.536 15.7702 13.6968C15.8388 13.8576 15.9391 14.0024 16.065 14.122ZM16.9129 13.9034C16.7305 13.8971 16.5577 13.8189 16.4309 13.6852C16.304 13.5516 16.2332 13.373 16.2332 13.1872C16.2332 13.0013 16.304 12.8227 16.4309 12.6891C16.5577 12.5555 16.7305 12.4772 16.9129 12.4709C17.0934 12.4798 17.2637 12.5591 17.3884 12.6923C17.5131 12.8256 17.5826 13.0027 17.5826 13.1867C17.5826 13.3708 17.5131 13.5479 17.3884 13.6811C17.2637 13.8144 17.0934 13.8937 16.9129 13.9026V13.9034Z" fill="#343637"/>
</svg>
