<svg width="576" height="429" viewBox="0 0 576 429" fill="none" xmlns="http://www.w3.org/2000/svg">
<path d="M74.851 266.229H73.6069V176.449H125.857V80.6566H351.654V21.9784H527.274V256.069H388.976V254.825H526.03V23.2225H352.898V81.9006H127.102V177.693H74.851V266.229Z" fill="#373133"/>
<path d="M491.487 53.9093H415.807C413.567 53.9093 411.743 55.7339 411.743 57.9732V90.9408C411.743 93.1801 413.567 95.0048 415.807 95.0048H420.907V108.275L433.099 95.0048H491.528C493.768 95.0048 495.592 93.1801 495.592 90.9408V57.9732C495.551 55.7339 493.726 53.9093 491.487 53.9093Z" fill="#DBDCF1"/>
<path d="M449.52 63.0324H420.078V66.3914H449.52V63.0324Z" fill="white"/>
<path d="M487.257 72.5287H420.078V75.8877H487.257V72.5287Z" fill="white"/>
<path d="M487.257 82.0665H420.078V85.4255H487.257V82.0665Z" fill="white"/>
<path d="M537.434 374.794C537.434 374.794 527.274 400.546 537.434 423.229H382.424V374.794H537.434Z" fill="#DBDCF1"/>
<path d="M542.991 423.934C543.074 425.096 542.618 426.091 541.913 426.837C541.249 427.501 540.295 427.915 539.259 427.915H212.154C203.528 427.915 196.562 420.949 196.562 412.323V385.369C196.562 376.743 203.528 369.776 212.154 369.776H539.259C541.249 369.776 542.949 371.311 543.032 373.301C543.074 375.333 541.457 377.033 539.425 377.033H400.463C393.455 377.033 387.774 382.715 387.774 389.723V407.72C387.774 414.728 393.455 420.41 400.463 420.41H539.134C541.125 420.451 542.866 421.944 542.991 423.934Z" fill="#005492"/>
<path d="M542.991 423.934C543.074 425.095 542.618 426.091 541.913 426.837C541.249 427.501 540.296 427.915 539.259 427.915H397.021C387.401 427.915 379.604 420.119 379.604 410.499V387.152C379.604 377.531 387.401 369.735 397.021 369.735H539.259C541.249 369.735 542.95 371.269 543.033 373.26C543.074 375.292 541.457 376.992 539.425 376.992H400.463C393.455 376.992 387.774 382.673 387.774 389.681V407.679C387.774 414.687 393.455 420.368 400.463 420.368H539.135C541.125 420.451 542.867 421.944 542.991 423.934Z" fill="#005492"/>
<path d="M525.118 386.281H438.656V386.903H525.118V386.281Z" fill="#373133"/>
<path d="M488.376 386.281L494.68 415.184L501.315 404.734V388.396L488.376 386.281Z" fill="#AFAFD5"/>
<path d="M520.39 393.787C520.39 393.828 520.39 393.828 520.39 393.828V415.102L507.784 405.647L494.68 415.102V393.662C494.68 388.396 488.376 386.239 488.376 386.239H516.16C520.349 387.483 520.39 393.123 520.39 393.787Z" fill="#0191E6"/>
<path d="M520.39 393.787H494.68V393.704C494.68 388.437 488.376 386.281 488.376 386.281H516.16C520.349 387.483 520.39 393.123 520.39 393.787Z" fill="#005492"/>
<path d="M211.573 316.904C211.573 316.904 221.857 345.019 211.573 366.168H414.977V316.904H211.573Z" fill="#DBDCF1"/>
<path d="M554.851 332.62V351.198C554.851 361.483 546.516 369.818 536.232 369.818H211.864C210.246 369.818 208.961 368.491 208.961 366.915V366.749C208.961 365.132 210.288 363.846 211.864 363.846H396.233C403.615 363.846 409.586 357.875 409.586 350.493V333.242C409.586 325.861 403.615 319.889 396.233 319.889H211.864C211.076 319.889 210.329 319.558 209.79 319.019C209.21 318.438 208.878 317.65 208.961 316.738C209.085 315.203 210.454 314.042 211.988 314.042H536.232C546.516 314.001 554.851 322.336 554.851 332.62Z" fill="#F1884F"/>
<path d="M417.839 330.796V352.981C417.839 362.27 410.333 369.776 401.044 369.776H211.864C210.246 369.776 208.961 368.449 208.961 366.873V366.708C208.961 365.09 210.288 363.805 211.864 363.805H396.233C403.615 363.805 409.586 357.833 409.586 350.452V333.201C409.586 325.819 403.615 319.848 396.233 319.848H211.864C211.076 319.848 210.329 319.516 209.79 318.977C209.21 318.397 208.878 317.609 208.961 316.696C209.085 315.162 210.454 314.001 211.988 314.001H401.044C410.333 314.001 417.839 321.507 417.839 330.796Z" fill="#D37146"/>
<path d="M327.437 349.788H240.975V350.41H327.437V349.788Z" fill="#373133"/>
<path d="M307.283 349.705H296.21V363.763H307.283V349.705Z" fill="#AFAFD5"/>
<path d="M300.772 361.98V406.559L288.663 395.653L277.052 406.559V363.722L300.772 361.98Z" fill="#A82329"/>
<path d="M307.241 349.705H283.729C283.729 349.705 283.729 360.238 277.052 363.763H300.565C300.565 363.722 307.241 361.98 307.241 349.705Z" fill="#EE504F"/>
<path d="M272.366 0H215.844C213.978 0 212.485 1.49287 212.485 3.35896V30.3136C212.485 32.1797 213.978 33.6726 215.844 33.6726H219.991V45.2009L229.985 33.6311H272.366C274.232 33.6311 275.725 32.1382 275.725 30.2721V3.31749C275.725 1.49287 274.232 0 272.366 0Z" fill="#DBDCF1"/>
<path d="M231.271 19.905C233.034 19.905 234.464 18.4754 234.464 16.7119C234.464 14.9484 233.034 13.5188 231.271 13.5188C229.507 13.5188 228.078 14.9484 228.078 16.7119C228.078 18.4754 229.507 19.905 231.271 19.905Z" fill="white"/>
<path d="M244.458 19.905C246.222 19.905 247.651 18.4754 247.651 16.7119C247.651 14.9484 246.222 13.5188 244.458 13.5188C242.695 13.5188 241.265 14.9484 241.265 16.7119C241.265 18.4754 242.695 19.905 244.458 19.905Z" fill="white"/>
<path d="M257.604 19.905C259.367 19.905 260.797 18.4754 260.797 16.7119C260.797 14.9484 259.367 13.5188 257.604 13.5188C255.84 13.5188 254.411 14.9484 254.411 16.7119C254.411 18.4754 255.84 19.905 257.604 19.905Z" fill="white"/>
<path d="M183.789 201.455H136.515C134.98 201.455 133.736 202.699 133.736 204.233V226.834C133.736 228.368 134.98 229.612 136.515 229.612H139.957V239.274L148.333 229.612H183.789C185.323 229.612 186.567 228.368 186.567 226.834V204.275C186.609 202.699 185.323 201.455 183.789 201.455Z" fill="#DBDCF1"/>
<path d="M149.411 218.125C150.9 218.125 152.107 216.918 152.107 215.43C152.107 213.941 150.9 212.734 149.411 212.734C147.923 212.734 146.716 213.941 146.716 215.43C146.716 216.918 147.923 218.125 149.411 218.125Z" fill="white"/>
<path d="M160.443 218.125C161.931 218.125 163.138 216.918 163.138 215.43C163.138 213.941 161.931 212.734 160.443 212.734C158.954 212.734 157.747 213.941 157.747 215.43C157.747 216.918 158.954 218.125 160.443 218.125Z" fill="white"/>
<path d="M171.431 218.125C172.92 218.125 174.127 216.918 174.127 215.43C174.127 213.941 172.92 212.734 171.431 212.734C169.943 212.734 168.736 213.941 168.736 215.43C168.736 216.918 169.943 218.125 171.431 218.125Z" fill="white"/>
<path d="M573.097 155.342H480.207V219.245H573.097V155.342Z" fill="#005492"/>
<path d="M526.611 208.09H483.234V216.218H526.611V208.09Z" fill="#AFAFD5"/>
<path d="M526.611 155.425C526.611 155.425 527.108 143.896 483.234 155.425V216.218C483.234 216.218 510.977 208.836 526.611 215.388V155.425Z" fill="#DBDCF1"/>
<path d="M487.215 160.733C487.215 160.733 514.336 154.512 523.832 160.733V163.76C523.832 163.76 516.036 158.41 487.215 163.096V160.733Z" fill="#AFAFD5"/>
<path d="M487.215 166.497V169.317C487.215 169.317 515.414 164.589 523.832 170.187V166.497C523.832 166.497 517.985 161.894 487.215 166.497Z" fill="#AFAFD5"/>
<path d="M487.215 172.883V175.164C487.215 175.164 516.741 170.768 523.832 176.035V172.883C523.832 172.883 516.907 167.492 487.215 172.883Z" fill="#AFAFD5"/>
<path d="M487.215 193.949C487.215 193.949 514.336 187.729 523.832 193.949V196.976C523.832 196.976 516.036 191.627 487.215 196.313V193.949Z" fill="#AFAFD5"/>
<path d="M487.215 199.672V202.492C487.215 202.492 515.414 197.764 523.832 203.362V199.672C523.832 199.672 517.985 195.069 487.215 199.672Z" fill="#AFAFD5"/>
<path d="M487.215 206.058V208.339C487.215 208.339 516.741 203.943 523.832 209.209V206.058C523.832 206.058 516.907 200.708 487.215 206.058Z" fill="#AFAFD5"/>
<path d="M487.215 177.942V190.756C487.215 190.756 516.492 185.946 523.832 191.171V177.942C523.832 177.942 516.243 173.049 487.215 177.942Z" fill="#AFAFD5"/>
<path d="M569.987 208.09H526.611V216.218H569.987V208.09Z" fill="#AFAFD5"/>
<path d="M526.611 155.425C526.611 155.425 526.113 143.896 569.987 155.425V216.218C569.987 216.218 542.245 208.836 526.611 215.388V155.425Z" fill="#DBDCF1"/>
<path d="M566.006 160.733C566.006 160.733 538.885 154.512 529.389 160.733V163.76C529.389 163.76 537.185 158.41 566.006 163.096V160.733Z" fill="#AFAFD5"/>
<path d="M566.006 166.497V169.317C566.006 169.317 537.807 164.589 529.389 170.187V166.497C529.389 166.497 535.236 161.894 566.006 166.497Z" fill="#AFAFD5"/>
<path d="M566.006 172.883V175.164C566.006 175.164 536.48 170.768 529.389 176.035V172.883C529.389 172.883 536.356 167.492 566.006 172.883Z" fill="#AFAFD5"/>
<path d="M566.006 193.949C566.006 193.949 538.885 187.729 529.389 193.949V196.976C529.389 196.976 537.185 191.627 566.006 196.313V193.949Z" fill="#AFAFD5"/>
<path d="M566.006 199.672V202.492C566.006 202.492 537.807 197.764 529.389 203.362V199.672C529.389 199.672 535.236 195.069 566.006 199.672Z" fill="#AFAFD5"/>
<path d="M566.006 206.058V208.339C566.006 208.339 536.48 203.943 529.389 209.209V206.058C529.389 206.058 536.356 200.708 566.006 206.058Z" fill="#AFAFD5"/>
<path d="M566.006 177.942V190.756C566.006 190.756 536.729 185.946 529.389 191.171V177.942C529.389 177.942 536.978 173.049 566.006 177.942Z" fill="#AFAFD5"/>
<path d="M542.327 214.766V225.175L537.641 219.991L532.914 225.175V214.766H542.327Z" fill="#0191E6"/>
<path d="M542.327 214.766H532.914V217.213H542.327V214.766Z" fill="#005492"/>
<path d="M153.31 254.244V352.235C153.31 355.096 150.987 357.377 148.168 357.377H5.14212C2.32225 357.377 0 355.096 0 352.235V254.244C0 251.425 2.32225 249.102 5.14212 249.102H148.168C150.987 249.102 153.31 251.425 153.31 254.244Z" fill="#DBDCF1"/>
<path d="M36.4924 323.953C39.2293 311.637 48.5598 307.034 54.7801 304.836C63.5714 301.726 67.6354 294.469 67.6354 294.469C69.8747 290.198 71.6164 287.295 73.1507 285.222C67.4695 284.558 65.2302 280.66 65.2302 280.66C67.2207 282.029 69.3356 282.692 71.2846 282.941C68.4233 281.904 66.3913 279.209 66.3913 275.974C66.3913 271.91 69.7088 268.593 73.7727 268.593C77.8367 268.593 81.1542 271.91 81.1542 275.974C81.1542 277.177 80.8639 278.296 80.3663 279.333C90.692 274.274 100.686 279.001 104.542 283.77C113.624 295.05 100.437 309.73 100.437 309.73L100.727 316.572C114.371 331.874 103.174 344.729 103.174 344.729C87.4574 355.138 64.0691 351.862 52.209 349.166C46.3619 347.839 41.4272 343.983 38.7732 338.633C36.7412 334.528 35.2898 329.386 36.4924 323.953Z" fill="#373133"/>
<path d="M90.4844 320.677V320.511C90.4844 320.511 105.496 329.8 103.588 297.289C103.588 297.289 102.344 290.613 97.6999 288.415C97.6999 288.415 91.1479 299.445 78.2926 301.353C78.2926 301.353 74.4775 295.63 71.4503 300.275C71.4503 300.275 69.2524 304.919 73.3578 308.486L67.5107 338.675L91.5211 338.799L90.7332 325.28L90.4844 320.677Z" fill="#FCBB9D"/>
<path d="M81.0298 314.416C81.0298 314.416 82.1909 322.751 90.7335 325.322L90.4432 320.677C90.4017 320.677 90.4017 320.636 90.3602 320.636C87.7477 319.433 84.9278 317.526 81.0298 314.416Z" fill="#E6A68A"/>
<path d="M126.479 357.419H30.4795L34.4605 343.775C35.6216 339.836 38.4829 336.684 42.2981 335.108L69.2527 325.197C69.2527 325.197 86.2549 342.531 91.6043 325.197L112.463 335.896C116.278 337.97 119.305 341.246 121.089 345.227L126.479 357.419Z" fill="#005492"/>
<path d="M153.31 254.244V261.253H0V254.244C0 251.383 2.32225 249.102 5.14212 249.102H148.168C150.987 249.102 153.31 251.425 153.31 254.244Z" fill="#AFAFD5"/>
<path d="M7.67119 257.313C8.74761 257.313 9.62022 256.441 9.62022 255.364C9.62022 254.288 8.74761 253.415 7.67119 253.415C6.59478 253.415 5.72217 254.288 5.72217 255.364C5.72217 256.441 6.59478 257.313 7.67119 257.313Z" fill="white"/>
<path d="M16.2557 257.313C17.3321 257.313 18.2047 256.441 18.2047 255.364C18.2047 254.288 17.3321 253.415 16.2557 253.415C15.1792 253.415 14.3066 254.288 14.3066 255.364C14.3066 256.441 15.1792 257.313 16.2557 257.313Z" fill="white"/>
<path d="M25.1717 257.313C26.2481 257.313 27.1207 256.441 27.1207 255.364C27.1207 254.288 26.2481 253.415 25.1717 253.415C24.0953 253.415 23.2227 254.288 23.2227 255.364C23.2227 256.441 24.0953 257.313 25.1717 257.313Z" fill="white"/>
<path d="M24.5084 349.291C30.4631 349.291 35.2903 344.464 35.2903 338.509C35.2903 332.554 30.4631 327.727 24.5084 327.727C18.5538 327.727 13.7266 332.554 13.7266 338.509C13.7266 344.464 18.5538 349.291 24.5084 349.291Z" fill="#5CC2AD"/>
<path d="M51.297 349.291C57.2516 349.291 62.0789 344.464 62.0789 338.509C62.0789 332.554 57.2516 327.727 51.297 327.727C45.3423 327.727 40.5151 332.554 40.5151 338.509C40.5151 344.464 45.3423 349.291 51.297 349.291Z" fill="#5CC2AD"/>
<path d="M28.6552 336.601V336.684H27.2867V336.062C27.2867 335.565 26.9135 335.191 26.4158 335.191H19.615C19.1174 335.191 18.7441 335.565 18.7441 336.062V340.665C18.7441 341.163 19.1174 341.536 19.615 341.536H26.4158C26.9135 341.536 27.2867 341.163 27.2867 340.665V340.043H28.6552V340.251C28.6552 340.997 29.2772 341.619 30.0236 341.619V335.274C29.2772 335.191 28.6552 335.813 28.6552 336.601Z" fill="white"/>
<path d="M51.3798 332.04C52.6654 332.04 53.7435 333.076 53.7435 334.403V338.55C53.7435 339.836 52.7068 340.914 51.3798 340.914C50.0943 340.914 49.0161 339.877 49.0161 338.55V334.403C49.0161 333.076 50.0943 332.04 51.3798 332.04Z" fill="white"/>
<path d="M51.3792 343.07C50.4669 343.07 49.5131 342.822 48.7252 342.283C46.6103 340.873 46.5688 338.467 46.5688 338.384H47.8129H47.1909H47.8129C47.8129 338.467 47.8544 340.251 49.3887 341.246C50.4254 341.951 51.7939 342.034 52.955 341.453C54.1161 340.873 54.7796 339.836 54.8626 338.343L56.1066 338.426C55.9408 340.873 54.6138 342.034 53.5356 342.573C52.8721 342.905 52.1257 343.07 51.3792 343.07Z" fill="white"/>
<path d="M51.9189 342.448H50.6748V344.605H51.9189V342.448Z" fill="white"/>
<path d="M213.439 53.1214V151.112C213.439 153.973 211.117 156.254 208.297 156.254H65.2715C62.4516 156.254 60.1294 153.973 60.1294 151.112V53.1214C60.1294 50.3015 62.4516 47.9793 65.2715 47.9793H208.297C211.117 47.9793 213.439 50.3015 213.439 53.1214Z" fill="#DBDCF1"/>
<path d="M146.634 120.632L146.675 120.84L147.463 125.609L149.08 135.437L125.028 135.022C124.738 134.732 127.143 107.404 127.143 107.404C127.143 107.404 120.799 103.962 120.633 97.949C120.591 96.4147 121.089 95.0047 123.37 93.7192L124.448 83.7667H155.218C155.135 83.7253 165.046 121.835 146.634 120.632Z" fill="#FCBB9D"/>
<path d="M129.34 99.6492C129.34 99.6492 128.262 91.0238 121.752 94.8389C121.752 94.8389 117.273 90.6091 121.793 87.5819C121.793 87.5819 116.983 77.3391 127.806 76.4268C127.806 76.4268 126.313 69.1698 155.258 69.7918C155.258 69.7918 159.488 70.4138 159.198 77.0488C159.198 77.0488 158.576 80.9883 155.258 81.8592C155.258 81.8592 159.198 85.467 155.258 87.5819C151.319 89.6968 140.164 85.467 140.164 85.467C140.164 85.467 143.191 87.2916 142.279 88.4942C141.366 89.6968 132.326 87.0013 132.326 87.0013L131.704 100.271L129.34 99.6492Z" fill="#373133"/>
<path d="M183.291 156.295H84.3887L87.6647 145.182C89.0332 140.579 92.5165 136.93 97.0781 135.437L124.364 126.355C124.364 126.355 140.579 143.523 148.25 126.355L170.312 136.722C173.795 138.381 176.615 141.284 178.191 144.809L183.291 156.295Z" fill="#0191E6"/>
<path d="M213.439 53.1214V60.1296H60.1294V53.1214C60.1294 50.26 62.4516 47.9793 65.2715 47.9793H208.297C211.117 47.9793 213.439 50.3015 213.439 53.1214Z" fill="#AFAFD5"/>
<path d="M67.8011 56.1901C68.8775 56.1901 69.7501 55.3175 69.7501 54.241C69.7501 53.1646 68.8775 52.292 67.8011 52.292C66.7247 52.292 65.8521 53.1646 65.8521 54.241C65.8521 55.3175 66.7247 56.1901 67.8011 56.1901Z" fill="white"/>
<path d="M76.3851 56.1901C77.4615 56.1901 78.3341 55.3175 78.3341 54.241C78.3341 53.1646 77.4615 52.292 76.3851 52.292C75.3086 52.292 74.436 53.1646 74.436 54.241C74.436 55.3175 75.3086 56.1901 76.3851 56.1901Z" fill="white"/>
<path d="M85.3011 56.1901C86.3775 56.1901 87.2501 55.3175 87.2501 54.241C87.2501 53.1646 86.3775 52.292 85.3011 52.292C84.2247 52.292 83.3521 53.1646 83.3521 54.241C83.3521 55.3175 84.2247 56.1901 85.3011 56.1901Z" fill="white"/>
<path d="M84.6378 148.168C90.5925 148.168 95.4197 143.34 95.4197 137.386C95.4197 131.431 90.5925 126.604 84.6378 126.604C78.6832 126.604 73.856 131.431 73.856 137.386C73.856 143.34 78.6832 148.168 84.6378 148.168Z" fill="#5CC2AD"/>
<path d="M111.426 148.168C117.381 148.168 122.208 143.34 122.208 137.386C122.208 131.431 117.381 126.604 111.426 126.604C105.472 126.604 100.645 131.431 100.645 137.386C100.645 143.34 105.472 148.168 111.426 148.168Z" fill="#5CC2AD"/>
<path d="M88.7845 135.478V135.561H87.4161V134.939C87.4161 134.441 87.0429 134.068 86.5452 134.068H79.7444C79.2468 134.068 78.8735 134.441 78.8735 134.939V139.542C78.8735 140.04 79.2468 140.413 79.7444 140.413H86.5452C87.0429 140.413 87.4161 140.04 87.4161 139.542V138.92H88.7845V139.127C88.7845 139.874 89.4066 140.496 90.153 140.496V134.151C89.4066 134.068 88.7845 134.69 88.7845 135.478Z" fill="white"/>
<path d="M111.509 130.917C112.795 130.917 113.873 131.953 113.873 133.28V137.427C113.873 138.713 112.836 139.791 111.509 139.791C110.224 139.791 109.146 138.754 109.146 137.427V133.28C109.146 131.953 110.224 130.917 111.509 130.917Z" fill="white"/>
<path d="M111.509 141.947C110.597 141.947 109.643 141.698 108.855 141.159C106.74 139.749 106.699 137.344 106.699 137.261H107.943H107.321H107.943C107.943 137.344 107.984 139.127 109.519 140.123C110.555 140.828 111.924 140.911 113.085 140.33C114.246 139.749 114.91 138.713 114.992 137.22L116.237 137.303C116.071 139.749 114.744 140.911 113.665 141.45C113.002 141.781 112.256 141.947 111.509 141.947Z" fill="white"/>
<path d="M112.048 141.325H110.804V143.482H112.048V141.325Z" fill="white"/>
<path d="M147.463 125.567C138.505 123.577 135.312 112.712 135.188 112.38C138.754 117.937 143.108 120.093 146.675 120.798L147.463 125.567Z" fill="#E6A68A"/>
<path d="M145.97 109.892H154.678C154.678 109.892 151.361 114.868 145.97 109.892Z" fill="white"/>
<path d="M294.137 217.047L290.571 232.266L278.835 223.392L277.716 222.562C269.588 221.277 257.645 215.098 257.645 215.098C255.488 212.444 258.267 210.578 258.267 210.578C255.945 208.339 259.262 206.182 259.262 206.182C257.479 203.694 260.879 202.492 260.879 202.492L244.167 195.193C246.656 190.466 258.391 194.737 258.391 194.737L274.149 199.879C268.841 189.429 273.113 187.231 273.113 187.231L278.296 196.23C282.028 200.169 284.517 210.205 284.517 210.205C284.517 210.205 285.18 210.661 286.217 211.324C288.871 213.108 293.847 216.467 294.137 217.047Z" fill="#FCBB9D"/>
<path d="M345.185 134.732C345.185 134.732 344.895 150.946 353.437 155.756L378.733 158.867C378.733 158.867 404.402 149.536 391.63 118.808C391.588 118.725 391.547 118.6 391.505 118.517C391.505 118.517 392.128 118.186 392.998 117.564C396.274 115.241 402.909 108.855 392.376 100.022C388.603 96.8708 374.669 90.4017 372.679 103.713C372.596 104.294 372.513 104.916 372.471 105.579C372.471 105.621 372.471 105.662 372.471 105.704C372.471 105.745 342.365 106.575 345.185 134.732Z" fill="#373133"/>
<path d="M350.535 130.709H352.028V151.153H350.825C349.539 151.153 348.337 150.531 347.59 149.453C345.268 146.219 341.412 138.796 347.632 131.953C348.337 131.165 349.415 130.709 350.535 130.709Z" fill="#0191E6"/>
<path d="M387.027 177.942L383.626 131.746C383.626 131.746 376.618 128.346 375.499 125.775C375.499 125.775 366.127 125.775 364.136 118.683C364.136 118.683 358.165 128.926 348.212 131.165C348.212 131.165 345.102 163.843 362.975 160.442L360.404 177.942H387.027Z" fill="#FCBB9D"/>
<path d="M387.317 130.709H381.968C380.433 130.709 379.148 131.787 378.857 133.28C378.194 136.515 377.448 142.445 378.816 148.665C379.148 150.117 380.433 151.195 381.926 151.195H387.068C388.354 151.195 389.556 150.573 390.303 149.495C392.584 146.26 396.482 138.879 390.303 132.036C389.515 131.207 388.437 130.709 387.317 130.709Z" fill="#0191E6"/>
<path d="M344.646 137.51C343.319 124.116 347.466 116.817 351.157 113.085C356.05 108.15 362.561 106.823 366.998 107.238C374.711 107.943 380.434 112.297 383.544 119.803C385.866 125.401 385.949 130.668 385.949 130.917H384.29C384.29 130.875 384.207 125.692 382.009 120.384C379.107 113.417 374.006 109.56 366.873 108.897C362.809 108.524 356.879 109.726 352.359 114.288C347.383 119.305 345.31 127.267 346.305 137.386L344.646 137.51Z" fill="#DBDCF1"/>
<path d="M372.472 105.621C375.997 106.657 385.037 110.058 391.63 118.808C391.589 118.725 391.547 118.6 391.506 118.517C391.506 118.517 392.128 118.186 392.999 117.564C391.05 114.537 384.663 106.077 372.679 103.713C372.596 104.335 372.513 104.957 372.472 105.621Z" fill="#89E3FE"/>
<path d="M365.878 156.13L365.671 154.471C378.899 152.854 382.756 144.27 382.922 143.896L384.456 144.56C384.29 144.975 380.143 154.388 365.878 156.13Z" fill="#DBDCF1"/>
<path d="M294.137 217.047L290.571 232.266L278.835 223.392L286.217 211.283C288.871 213.108 293.847 216.467 294.137 217.047Z" fill="#E6A68A"/>
<path d="M388.188 168.985C388.188 168.985 374.545 182.628 359.368 170.27L352.401 173.754V208.297H389.184L388.188 168.985Z" fill="#FEFEFE"/>
<path d="M346.803 173.92L324.327 227.456L289.161 211.615L282.36 236.33L346.678 272.449L346.803 235.086V173.92Z" fill="#00487D"/>
<path d="M410.457 171.514L386.778 166.165L367.122 204.606L361.856 166.58L348.752 172.427C345.393 173.92 342.821 176.698 341.536 180.14L332.04 206.016C331.003 209.044 330.713 212.32 331.418 215.471C331.998 218.084 333.242 220.862 335.896 222.853L337.928 260.423L339.172 291.525L431.233 286.963L425.842 261.584C430.486 260.009 438.075 258.101 443.756 255.074C448.567 252.544 450.599 246.739 448.401 241.762L420.244 179.476C418.419 175.454 414.77 172.51 410.457 171.514Z" fill="#005492"/>
<path d="M367.412 155.839C367.412 156.959 366.5 157.83 365.422 157.83H362.726C361.607 157.83 360.736 156.917 360.736 155.839C360.736 154.72 361.648 153.849 362.726 153.849H365.422C366.541 153.849 367.412 154.761 367.412 155.839Z" fill="#373133"/>
<path d="M396.357 167.824L389.142 188.019H380.268L384.373 194.986L367.246 204.482L357.418 192.124L362.519 187.355L355.842 183.872L353.811 169.192L361.814 166.538L368.034 201.787L386.654 165.17L396.357 167.824Z" fill="#00487D"/>
<path d="M383.751 398.846L393.164 414.645H412.613L404.071 398.846H383.751Z" fill="#FCBB9D"/>
<path d="M409.835 408.591C409.835 408.591 413.857 410.498 414.687 425.137C414.769 426.547 413.65 427.749 412.198 427.749H374.255C372.057 427.749 370.315 424.971 371.891 423.437C378.153 417.341 382.217 415.102 389.474 409.213C389.474 409.213 402.163 416.553 409.835 408.591Z" fill="#4F216C"/>
<path d="M432.684 398.846L442.098 414.645H461.546L453.004 398.846H432.684Z" fill="#FCBB9D"/>
<path d="M408.466 216.052L418.419 239.274L390.013 249.849L414.894 236.994L408.466 216.052Z" fill="#00487D"/>
<path d="M458.768 408.591C458.768 408.591 462.79 410.498 463.62 425.137C463.703 426.547 462.583 427.749 461.132 427.749H423.188C420.99 427.749 419.248 424.971 420.824 423.437C427.086 417.341 431.15 415.102 438.407 409.213C438.407 409.213 451.096 416.553 458.768 408.591Z" fill="#4F216C"/>
<path d="M342.946 273.735H428.579C428.579 273.735 444.876 310.932 421.239 319.309H360.156L342.946 273.735Z" fill="#311547"/>
<path d="M379.936 308.942L425.593 405.149H460.51L420.658 287.129C415.972 276.886 404.61 271.495 393.745 274.357C378.65 278.338 371.725 295.713 379.936 308.942Z" fill="#4F216C"/>
<path d="M328.39 308.942L375.292 405.149H410.208L369.113 287.129C364.427 276.886 353.064 271.495 342.2 274.357C327.105 278.338 320.18 295.713 328.39 308.942Z" fill="#4F216C"/>
<path d="M394.409 269.381H417.175L404.444 285.927H394.409V269.381Z" fill="#9999C4"/>
<path d="M399.717 227.995H319.599L324.327 285.927H404.444L399.717 227.995Z" fill="#AFAFD5"/>
<path d="M395.86 227.995H315.784L320.511 285.927H400.587L395.86 227.995Z" fill="#DBDCF1"/>
<path d="M353.313 148.458L365.754 149.702C365.754 149.702 357.46 157.166 353.313 148.458Z" fill="white"/>
<path d="M355.386 259.179C357.906 259.179 359.948 257.137 359.948 254.618C359.948 252.098 357.906 250.056 355.386 250.056C352.867 250.056 350.825 252.098 350.825 254.618C350.825 257.137 352.867 259.179 355.386 259.179Z" fill="white"/>
<path d="M576 426.713H0.414551V428.786H576V426.713Z" fill="#373133"/>
</svg>
