<svg width="22" height="20" viewBox="0 0 22 20" fill="none" xmlns="http://www.w3.org/2000/svg">
<path fill-rule="evenodd" clip-rule="evenodd" d="M0 3C0 1.34315 1.34315 0 3 0H19C20.6569 0 22 1.34315 22 3V9.58568L21.4856 9.0713C21.4851 9.07076 21.4845 9.07022 21.484 9.06968L17.8182 5.40384C17.4276 5.01332 16.7945 5.01332 16.4039 5.40384C16.0134 5.79437 16.0134 6.42753 16.4039 6.81806L18.3635 8.77761L9.77772 8.77762C9.22544 8.77762 8.77772 9.22533 8.77772 9.77762C8.77772 10.3299 9.22544 10.7776 9.77772 10.7776L18.3635 10.7776L16.4039 12.7372C16.0134 13.1277 16.0134 13.7609 16.404 14.1514C16.7945 14.5419 17.4276 14.5419 17.8182 14.1514L21.4839 10.4857L21.4848 10.4847M21.4858 10.4838L22 9.96955V16.5556C22 18.2124 20.6569 19.5556 19 19.5556H3C1.34315 19.5556 0 18.2124 0 16.5556V3" fill="#005492"/>
</svg>
