<svg width="207" height="59" viewBox="0 0 207 59" fill="none" xmlns="http://www.w3.org/2000/svg">
<path d="M32.5861 0.18699C32.5861 0.17899 32.9861 0.362995 33.0061 0.372995C33.4011 0.559995 33.7851 0.766994 34.1611 0.986993C34.7531 1.33199 35.3261 1.708 35.8811 2.108C36.6162 2.63861 37.3219 3.20878 37.9951 3.81599C38.821 4.55902 39.6017 5.35077 40.3331 6.18699C41.1955 7.17566 41.9938 8.21844 42.7231 9.30898C43.5673 10.5731 44.3263 11.892 44.9951 13.257C45.764 14.8288 46.4266 16.4504 46.9781 18.111C47.6123 20.0225 48.1214 21.9733 48.5021 23.951C48.941 26.2322 49.2396 28.5382 49.3961 30.856C49.5777 33.5358 49.6091 36.2237 49.4901 38.907C49.5271 39.5481 49.4166 40.1892 49.1671 40.781C49.0671 40.981 48.9671 41.192 48.8671 41.396C48.5904 41.968 48.3144 42.5403 48.0391 43.113L45.7651 47.826C44.9751 49.4633 44.1851 51.1007 43.3951 52.738C42.8618 53.8386 42.3308 54.9387 41.8021 56.038L41.5701 56.52C41.5701 56.52 37.8531 35.827 20.6321 24.151C20.6331 24.152 32.5861 0.18699 32.5861 0.18699Z" fill="#89E3FE"/>
<path d="M26.458 9.35901L18.346 25.648C18.346 25.648 37.94 36.868 40.02 58.185C40.02 58.185 36.109 33.261 0 40.875L0.634979 39.8L2.30499 36.973L4.659 32.989L7.34399 28.443L10.01 23.929L12.31 20.042C12.8347 19.1533 13.3593 18.2647 13.884 17.376C14.6557 16.0537 15.5517 14.8081 16.56 13.656C17.83 12.1361 19.3741 10.8681 21.112 9.91801C21.9189 9.46804 22.8088 9.18649 23.7277 9.09041C24.6466 8.99432 25.5754 9.0857 26.458 9.35901Z" fill="#0191E6"/>
<path d="M4.0769 47.951C4.0769 47.951 25.8769 38.466 37.8559 54.774C37.8559 54.774 33.3629 39.6319 8.48691 40.3799L4.0769 47.951Z" fill="#005492"/>
<path d="M55.2051 28.98L62.5661 11.38H62.7051L70.0901 28.98H67.4951L61.9811 14.936L63.5941 13.885L57.4481 28.985L55.2051 28.98ZM59.5271 22.58H65.8121L66.5601 24.542H58.8721L59.5271 22.58Z" fill="#1A1A8A"/>
<path d="M76.5621 19.304L76.7261 21.663L76.6571 21.289C76.9561 20.5698 77.4804 19.967 78.1511 19.571C78.8932 19.1323 79.7432 18.9099 80.6051 18.929C81.4256 18.8981 82.226 19.1867 82.8381 19.734C83.1269 19.9997 83.3564 20.3233 83.5115 20.6839C83.6666 21.0444 83.7438 21.4336 83.7381 21.826V28.976H81.5381V22.576C81.5398 22.1111 81.3785 21.6603 81.0821 21.302C80.9091 21.1246 80.6989 20.9878 80.4667 20.9013C80.2345 20.8149 79.986 20.781 79.7391 20.802C79.2005 20.7991 78.6742 20.9625 78.2321 21.27C77.7631 21.5927 77.391 22.0374 77.1561 22.556C76.8883 23.1505 76.7564 23.7971 76.7701 24.449V28.982H74.5701V19.307H76.5571L76.5621 19.304Z" fill="#1A1A8A"/>
<path d="M92.1022 29.166C91.4192 29.1668 90.7416 29.0442 90.1022 28.804C89.4859 28.5825 88.9355 28.209 88.5022 27.718L89.4142 26.456C89.7866 26.8122 90.2124 27.1081 90.6762 27.333C91.0705 27.5213 91.5013 27.621 91.9382 27.625C92.2306 27.6276 92.5218 27.5886 92.8032 27.509C93.0512 27.4401 93.2741 27.3012 93.4452 27.109C93.6143 26.9066 93.7017 26.6484 93.6902 26.385C93.6994 26.2301 93.6738 26.0751 93.6151 25.9314C93.5564 25.7878 93.4663 25.6591 93.3512 25.555C93.0978 25.3455 92.8089 25.1834 92.4982 25.076C92.1549 24.9513 91.7805 24.8346 91.3752 24.726C90.6819 24.5242 90.0532 24.1451 89.5512 23.626C89.1304 23.1593 88.9043 22.5492 88.9192 21.921C88.9167 21.416 89.05 20.9197 89.3052 20.484C89.5833 20.0187 89.9834 19.6383 90.4622 19.384C91.0374 19.0809 91.6813 18.9321 92.3312 18.952C92.94 18.9433 93.5468 19.0258 94.1312 19.197C94.6801 19.3706 95.1886 19.6529 95.6262 20.027L94.7612 21.382C94.4838 21.0884 94.1442 20.8608 93.7672 20.716C93.4367 20.5786 93.0839 20.5031 92.7262 20.493C92.4597 20.4908 92.1948 20.5344 91.9432 20.622C91.7202 20.6962 91.5192 20.8247 91.3582 20.996C91.2069 21.1659 91.127 21.3877 91.1352 21.615C91.1213 21.7612 91.1427 21.9085 91.1975 22.0448C91.2523 22.181 91.339 22.3021 91.4502 22.398C91.703 22.6082 91.9921 22.7706 92.3032 22.877C92.6442 23.002 92.9962 23.126 93.3542 23.251C93.7978 23.381 94.2221 23.5693 94.6162 23.811C94.9756 24.0303 95.2828 24.3255 95.5162 24.676C95.7533 25.0619 95.8713 25.5093 95.8552 25.962C95.859 26.5217 95.7181 27.0728 95.4462 27.562C95.1601 28.0668 94.7283 28.4736 94.2072 28.729C93.5502 29.0398 92.8286 29.1896 92.1022 29.166Z" fill="#1A1A8A"/>
<path d="M106.964 19.304L109.839 25.824L109.395 25.871L112.059 19.304H114.185L109.743 29.562L106.635 22.925L103.785 29.562L99.322 19.304H101.473L104.464 26.127L103.716 25.964L105.865 20.964L105.065 19.304H106.958H106.964Z" fill="#1A1A8A"/>
<path d="M122.644 29.2131C121.652 29.2414 120.67 29.0119 119.794 28.5471C119.02 28.1243 118.38 27.4922 117.948 26.723C117.502 25.9113 117.277 24.997 117.294 24.071C117.285 23.1532 117.54 22.2522 118.03 21.4761C118.516 20.7014 119.186 20.0592 119.981 19.6071C120.806 19.1357 121.742 18.894 122.692 18.907C123.855 18.8658 124.99 19.2667 125.869 20.029C126.752 20.8525 127.357 21.9309 127.599 23.1141L119.607 25.9141L119.094 24.628L125.614 22.2211L125.17 22.548C124.981 22.0301 124.659 21.5711 124.236 21.217C123.756 20.8277 123.149 20.6284 122.531 20.657C121.984 20.6455 121.445 20.7872 120.975 21.0661C120.504 21.345 120.121 21.7499 119.869 22.235C119.593 22.7649 119.456 23.3559 119.469 23.9531C119.459 24.5619 119.599 25.1638 119.878 25.7051C120.139 26.2049 120.536 26.6208 121.023 26.905C121.53 27.1974 122.108 27.3464 122.693 27.3361C123.113 27.3363 123.529 27.2572 123.92 27.103C124.32 26.946 124.701 26.7423 125.053 26.496L126.034 28.1091C125.532 28.4479 124.986 28.717 124.411 28.9091C123.842 29.1037 123.245 29.2063 122.644 29.2131Z" fill="#1A1A8A"/>
<path d="M134.118 19.305L134.328 22.105L134.234 21.705C134.479 21.1339 134.846 20.6236 135.31 20.21C135.75 19.807 136.255 19.4825 136.805 19.251C137.234 19.0572 137.692 18.9388 138.161 18.901L138.067 21.101C137.39 21.0238 136.705 21.1672 136.116 21.51C135.577 21.8297 135.127 22.2794 134.807 22.818C134.492 23.3435 134.327 23.9452 134.329 24.558V28.974H132.155V19.299H134.118V19.305Z" fill="#1A1A8A"/>
<path d="M152.111 15.0989C151.503 14.79 150.869 14.5321 150.218 14.3279C149.569 14.1154 148.891 14.0051 148.208 14.001C147.437 13.961 146.675 14.1838 146.047 14.6329C145.788 14.8285 145.579 15.0834 145.439 15.3763C145.299 15.6691 145.231 15.9914 145.241 16.316C145.236 16.5635 145.279 16.8096 145.37 17.0401C145.46 17.2706 145.595 17.481 145.767 17.6589C146.158 18.0538 146.617 18.3747 147.122 18.606C147.674 18.872 148.263 19.119 148.886 19.354C149.412 19.5465 149.927 19.7689 150.428 20.02C150.932 20.271 151.4 20.5896 151.818 20.967C152.239 21.352 152.573 21.8216 152.8 22.345C153.059 22.9826 153.182 23.6671 153.162 24.355C153.177 25.2246 152.943 26.0804 152.487 26.8215C152.032 27.5626 151.374 28.1581 150.592 28.538C149.667 28.9812 148.649 29.1979 147.623 29.17C146.911 29.1725 146.202 29.0902 145.509 28.925C144.86 28.7711 144.229 28.5474 143.628 28.2579C143.096 28.0029 142.581 27.714 142.086 27.393L143.086 25.616C143.494 25.9015 143.924 26.155 144.372 26.374C144.858 26.6161 145.367 26.8081 145.891 26.947C146.394 27.0843 146.912 27.1552 147.433 27.158C147.975 27.1583 148.513 27.0636 149.022 26.878C149.521 26.7003 149.965 26.3944 150.308 25.991C150.668 25.533 150.851 24.96 150.821 24.378C150.837 23.8648 150.676 23.3617 150.365 22.9529C150.038 22.5453 149.633 22.2074 149.173 21.959C148.658 21.6757 148.123 21.4297 147.573 21.223C147.021 21.0338 146.479 20.8155 145.95 20.569C145.421 20.3242 144.919 20.0224 144.455 19.669C143.995 19.3179 143.613 18.8752 143.333 18.369C143.03 17.7937 142.881 17.1498 142.901 16.4999C142.883 15.6788 143.106 14.8704 143.543 14.175C143.981 13.5048 144.59 12.964 145.308 12.609C146.108 12.2138 146.986 12.002 147.878 11.989C148.855 11.9743 149.829 12.1092 150.765 12.389C151.534 12.6265 152.275 12.9481 152.973 13.348L152.111 15.0989Z" fill="#1A1A8A"/>
<path d="M158.279 28.979V10.893H160.428V21.549L160.381 21.149C160.727 20.4905 161.249 19.9406 161.888 19.56C162.618 19.1244 163.457 18.9052 164.307 18.928C165.128 18.8971 165.928 19.1857 166.54 19.733C166.829 19.9987 167.058 20.3224 167.213 20.6829C167.369 21.0434 167.446 21.4326 167.44 21.825V28.975H165.24V22.575C165.242 22.11 165.081 21.6591 164.784 21.301C164.611 21.1236 164.401 20.9868 164.169 20.9003C163.936 20.8139 163.688 20.7799 163.441 20.801C162.901 20.799 162.374 20.9666 161.934 21.28C161.466 21.6097 161.095 22.0586 160.858 22.58C160.592 23.1665 160.46 23.805 160.472 24.449V28.982H158.272L158.279 28.979Z" fill="#1A1A8A"/>
<path d="M177.582 29.2131C176.59 29.2413 175.608 29.0119 174.732 28.5471C173.958 28.1243 173.318 27.4922 172.886 26.723C172.44 25.9113 172.215 24.997 172.232 24.071C172.223 23.1532 172.478 22.2522 172.968 21.4761C173.454 20.7014 174.124 20.0592 174.919 19.6071C175.744 19.1357 176.68 18.894 177.63 18.907C178.793 18.8658 179.928 19.2667 180.807 20.029C181.691 20.8522 182.296 21.9307 182.537 23.1141L174.545 25.9141L174.032 24.628L180.552 22.2211L180.108 22.548C179.918 22.0305 179.596 21.5717 179.174 21.217C178.694 20.8277 178.087 20.6284 177.469 20.657C176.922 20.6457 176.383 20.7874 175.913 21.0663C175.443 21.3451 175.059 21.7499 174.807 22.235C174.531 22.765 174.394 23.3559 174.407 23.9531C174.397 24.5619 174.537 25.1638 174.816 25.7051C175.077 26.2047 175.474 26.6206 175.961 26.905C176.468 27.1974 177.046 27.3464 177.631 27.3361C178.051 27.3363 178.467 27.2572 178.858 27.103C179.258 26.9461 179.639 26.7423 179.991 26.496L180.972 28.1091C180.47 28.4479 179.924 28.717 179.349 28.9091C178.78 29.1036 178.183 29.2062 177.582 29.2131Z" fill="#1A1A8A"/>
<path d="M191.602 29.2131C190.61 29.2414 189.628 29.0119 188.752 28.5471C187.978 28.1243 187.338 27.4922 186.906 26.723C186.46 25.9115 186.234 24.997 186.252 24.071C186.243 23.1532 186.498 22.2522 186.988 21.4761C187.474 20.7016 188.144 20.0594 188.938 19.6071C189.763 19.1357 190.699 18.8939 191.649 18.907C192.812 18.8658 193.947 19.2667 194.826 20.029C195.71 20.8525 196.314 21.9309 196.556 23.1141L188.564 25.9141L188.051 24.628L194.571 22.2211L194.127 22.548C193.937 22.0304 193.614 21.5716 193.192 21.217C192.712 20.8277 192.105 20.6284 191.487 20.657C190.94 20.6457 190.401 20.7874 189.931 21.0663C189.461 21.3451 189.077 21.7499 188.825 22.235C188.549 22.765 188.412 23.3559 188.425 23.9531C188.415 24.5619 188.555 25.1638 188.834 25.7051C189.095 26.2049 189.492 26.6208 189.979 26.905C190.487 27.1975 191.064 27.3465 191.65 27.3361C192.07 27.3362 192.486 27.2571 192.877 27.103C193.277 26.946 193.658 26.7423 194.01 26.496L194.991 28.1091C194.489 28.4479 193.943 28.717 193.368 28.9091C192.799 29.1036 192.203 29.2063 191.602 29.2131Z" fill="#1A1A8A"/>
<path d="M202.047 15.052H204.267V19.352H206.908V21.057H204.265V28.98H202.045V21.057H200.295V19.352H202.047V15.052Z" fill="#1A1A8A"/>
<path d="M85.9242 38.613V45.694H84.9672V42.47H81.1482V45.691H80.1912V38.61H81.1482V41.77H84.9672V38.61H85.9242V38.613Z" fill="#0190E6"/>
<path d="M94.3222 39.721C94.2968 39.7648 94.2627 39.8029 94.2222 39.833C94.1861 39.8597 94.142 39.8734 94.0972 39.872C94.0238 39.8647 93.9542 39.8358 93.8972 39.789C93.8202 39.735 93.7272 39.67 93.6122 39.603C93.4814 39.5288 93.3442 39.4665 93.2022 39.417C93.0153 39.3565 92.8195 39.3285 92.6232 39.334C92.4307 39.3304 92.2389 39.3594 92.0562 39.42C91.9052 39.4697 91.7658 39.5493 91.6462 39.654C91.5386 39.7509 91.4533 39.87 91.3962 40.003C91.3392 40.1398 91.3109 40.2869 91.3132 40.435C91.3058 40.6112 91.3575 40.7847 91.4602 40.928C91.5634 41.0647 91.6943 41.1782 91.8442 41.261C92.0167 41.3597 92.199 41.4401 92.3882 41.501C92.5882 41.568 92.7982 41.638 93.0092 41.712C93.2202 41.786 93.4282 41.866 93.6302 41.955C93.8272 42.042 94.0104 42.1572 94.1742 42.297C94.3364 42.4379 94.4672 42.6113 94.5582 42.806C94.6619 43.0393 94.7121 43.2928 94.7052 43.548C94.7065 43.8455 94.6533 44.1407 94.5482 44.419C94.4467 44.6852 94.2895 44.9266 94.0872 45.127C93.8742 45.3353 93.6201 45.4967 93.3412 45.601C93.0199 45.721 92.6791 45.7797 92.3362 45.774C91.905 45.7804 91.4773 45.6955 91.0812 45.525C90.7175 45.3676 90.3895 45.1379 90.1172 44.85L90.3922 44.395C90.4197 44.3583 90.4535 44.3268 90.4922 44.302C90.529 44.2767 90.5725 44.2631 90.6172 44.263C90.67 44.2657 90.721 44.2834 90.7642 44.314C90.8192 44.349 90.8792 44.394 90.9502 44.445C91.0212 44.496 91.0972 44.554 91.1872 44.618C91.281 44.6858 91.3815 44.7438 91.4872 44.791C91.6118 44.8468 91.7413 44.8907 91.8742 44.922C92.0349 44.9584 92.1994 44.9755 92.3642 44.973C92.5706 44.9758 92.776 44.9444 92.9722 44.88C93.1401 44.8253 93.294 44.7345 93.4232 44.614C93.5462 44.5003 93.6434 44.3615 93.7082 44.207C93.7772 44.0397 93.8112 43.86 93.8082 43.679C93.8173 43.4927 93.7657 43.3085 93.6612 43.154C93.5602 43.0126 93.429 42.8955 93.2772 42.811C93.1055 42.7122 92.923 42.6337 92.7332 42.577C92.5332 42.513 92.3202 42.446 92.1122 42.377C91.9042 42.308 91.6932 42.23 91.4912 42.143C91.2929 42.0567 91.1094 41.94 90.9472 41.797C90.7847 41.6473 90.6541 41.4664 90.5632 41.265C90.4588 41.0161 90.4087 40.7478 90.4162 40.478C90.4164 40.2264 90.4673 39.9774 90.5658 39.7458C90.6642 39.5142 90.8082 39.3048 90.9892 39.13C91.1872 38.9406 91.4212 38.7928 91.6772 38.695C91.9756 38.5815 92.293 38.5261 92.6122 38.532C92.9804 38.5277 93.3463 38.5918 93.6912 38.721C94.0107 38.8431 94.3025 39.0281 94.5492 39.265L94.3222 39.721Z" fill="#0190E6"/>
<path d="M103.996 44.232C104.022 44.2324 104.048 44.2383 104.072 44.2493C104.096 44.2603 104.117 44.2762 104.134 44.296L104.515 44.706C104.226 45.0422 103.865 45.31 103.459 45.49C102.985 45.6906 102.474 45.7868 101.959 45.772C101.485 45.7776 101.015 45.6871 100.576 45.506C100.173 45.3385 99.8106 45.0865 99.5132 44.767C99.2106 44.4363 98.9785 44.0473 98.8312 43.624C98.6659 43.1531 98.5837 42.6571 98.5882 42.158C98.5821 41.658 98.6679 41.1611 98.8412 40.692C98.9969 40.2659 99.2378 39.8759 99.5492 39.546C99.8573 39.2234 100.231 38.9702 100.644 38.803C101.092 38.622 101.571 38.5316 102.053 38.537C102.926 38.5134 103.772 38.8371 104.406 39.437L104.089 39.876C104.07 39.9086 104.044 39.9361 104.012 39.956C103.975 39.9793 103.931 39.9905 103.887 39.988C103.806 39.9783 103.73 39.9434 103.669 39.888C103.561 39.8105 103.449 39.7387 103.333 39.673C103.169 39.5824 102.995 39.5107 102.814 39.459C102.565 39.3883 102.308 39.3546 102.049 39.359C101.707 39.3555 101.367 39.4197 101.049 39.548C100.751 39.6721 100.483 39.8598 100.265 40.098C100.038 40.3542 99.8635 40.6534 99.7532 40.978C99.6267 41.3556 99.5652 41.7518 99.5712 42.15C99.5652 42.552 99.6291 42.9519 99.7602 43.332C99.8751 43.655 100.051 43.9528 100.279 44.209C100.495 44.4456 100.759 44.6326 101.054 44.757C101.361 44.8835 101.69 44.9474 102.021 44.945C102.212 44.9466 102.402 44.9339 102.591 44.907C102.751 44.8838 102.909 44.8453 103.062 44.792C103.202 44.7397 103.336 44.6727 103.462 44.592C103.593 44.5069 103.716 44.4106 103.83 44.304C103.875 44.2604 103.934 44.2347 103.996 44.232Z" fill="#0190E6"/>
<path d="M113.878 45.6951V40.6951H114.406C114.461 40.6908 114.515 40.707 114.558 40.7407C114.602 40.7744 114.631 40.823 114.64 40.8771L114.704 41.392C114.879 41.1734 115.089 40.9852 115.325 40.835C115.566 40.6874 115.843 40.6118 116.125 40.6171C116.423 40.6032 116.715 40.7041 116.941 40.899C117.16 41.1056 117.316 41.3697 117.392 41.6611C117.46 41.4907 117.554 41.332 117.671 41.191C117.78 41.062 117.91 40.9519 118.055 40.865C118.195 40.7799 118.347 40.7162 118.506 40.676C118.665 40.6368 118.828 40.6163 118.992 40.615C119.231 40.6115 119.469 40.6539 119.692 40.74C119.893 40.8212 120.072 40.947 120.217 41.108C120.368 41.2824 120.481 41.4869 120.547 41.7081C120.626 41.9695 120.664 42.2418 120.659 42.515V45.704H119.776V42.515C119.798 42.1966 119.707 41.8808 119.52 41.6221C119.427 41.5195 119.311 41.4393 119.183 41.3873C119.054 41.3354 118.916 41.313 118.777 41.322C118.636 41.3217 118.496 41.3478 118.364 41.399C118.236 41.4488 118.119 41.5251 118.022 41.623C117.918 41.73 117.839 41.8578 117.788 41.998C117.728 42.1653 117.699 42.3422 117.702 42.52V45.709H116.818V42.52C116.842 42.2011 116.757 41.8835 116.575 41.62C116.489 41.5184 116.38 41.4382 116.257 41.3862C116.134 41.3341 116 41.3115 115.867 41.3201C115.654 41.3185 115.446 41.3797 115.267 41.496C115.071 41.6236 114.898 41.7851 114.758 41.973V45.7031H113.874L113.878 45.6951Z" fill="#0190E6"/>
<path d="M124.843 41.395C125.1 41.1407 125.403 40.9371 125.736 40.795C126.074 40.6588 126.435 40.5908 126.799 40.595C127.055 40.5904 127.308 40.6374 127.545 40.733C127.754 40.8193 127.94 40.9504 128.092 41.117C128.245 41.2913 128.359 41.4958 128.428 41.717C128.506 41.9664 128.544 42.2267 128.54 42.488V45.6881H128.149C128.08 45.6925 128.011 45.6779 127.949 45.646C127.894 45.6049 127.856 45.5457 127.84 45.479L127.74 45.005C127.618 45.1194 127.49 45.2273 127.356 45.328C127.233 45.4202 127.101 45.4996 126.962 45.565C126.821 45.6298 126.672 45.6791 126.52 45.712C126.349 45.7483 126.174 45.7654 125.998 45.763C125.812 45.765 125.628 45.738 125.45 45.683C125.286 45.6335 125.133 45.5507 125.002 45.44C124.872 45.327 124.769 45.1858 124.702 45.027C124.624 44.8407 124.586 44.6401 124.59 44.4381C124.591 44.2367 124.648 44.0395 124.753 43.868C124.885 43.6635 125.067 43.496 125.281 43.381C125.581 43.2196 125.902 43.102 126.235 43.032C126.71 42.9321 127.194 42.8794 127.679 42.875V42.484C127.702 42.1699 127.612 41.858 127.426 41.604C127.334 41.5015 127.22 41.4212 127.093 41.3692C126.965 41.3172 126.828 41.2949 126.69 41.304C126.505 41.2985 126.319 41.3256 126.143 41.384C126.01 41.4318 125.883 41.4927 125.762 41.566C125.656 41.633 125.562 41.6941 125.487 41.7481C125.421 41.7983 125.34 41.8263 125.257 41.828C125.202 41.8295 125.148 41.8127 125.103 41.78C125.06 41.7483 125.024 41.7094 124.994 41.665L124.843 41.395ZM127.683 43.441C127.337 43.4497 126.991 43.4831 126.649 43.541C126.409 43.5797 126.174 43.6469 125.949 43.741C125.796 43.8034 125.661 43.9039 125.558 44.033C125.479 44.1418 125.436 44.2732 125.436 44.408C125.434 44.5252 125.456 44.6416 125.5 44.75C125.539 44.8411 125.599 44.9213 125.676 44.984C125.753 45.0467 125.842 45.0925 125.938 45.118C126.043 45.1472 126.152 45.1613 126.261 45.16C126.405 45.1615 126.548 45.1454 126.687 45.112C126.813 45.0813 126.934 45.0364 127.049 44.978C127.286 44.8512 127.5 44.6844 127.68 44.4851L127.683 43.441Z" fill="#0190E6"/>
<path d="M136.991 38.415V45.691H136.466C136.411 45.6954 136.356 45.6792 136.313 45.6456C136.269 45.612 136.239 45.5633 136.229 45.509L136.149 44.901C135.943 45.1505 135.695 45.362 135.416 45.526C135.127 45.6871 134.799 45.7685 134.468 45.762C134.199 45.7665 133.932 45.7098 133.687 45.596C133.452 45.4836 133.246 45.317 133.087 45.11C132.911 44.8697 132.782 44.5983 132.706 44.31C132.612 43.9511 132.567 43.581 132.572 43.21C132.569 42.8609 132.619 42.5133 132.719 42.179C132.808 41.8794 132.953 41.5993 133.145 41.353C133.333 41.1132 133.574 40.9206 133.849 40.7906C134.124 40.6605 134.426 40.5967 134.73 40.604C135.001 40.5961 135.27 40.6498 135.517 40.761C135.738 40.8661 135.937 41.0128 136.103 41.193V38.421H136.99L136.991 38.415ZM136.111 41.879C135.975 41.6819 135.791 41.5232 135.576 41.418C135.374 41.3289 135.154 41.2843 134.933 41.287C134.727 41.2762 134.521 41.3161 134.334 41.4033C134.147 41.4905 133.984 41.6222 133.86 41.787C133.585 42.208 133.454 42.7064 133.485 43.208C133.481 43.4899 133.509 43.7714 133.568 44.047C133.611 44.2526 133.695 44.4474 133.815 44.62C133.917 44.7637 134.055 44.8776 134.215 44.95C134.385 45.0212 134.569 45.0552 134.753 45.05C135.02 45.0553 135.283 44.9861 135.512 44.85C135.745 44.7036 135.949 44.5147 136.112 44.293V41.876L136.111 41.879Z" fill="#0190E6"/>
<path d="M145.408 44.994C145.297 45.1276 145.165 45.243 145.018 45.336C144.865 45.4329 144.701 45.5133 144.531 45.576C144.357 45.6388 144.178 45.6857 143.996 45.716C143.816 45.7477 143.633 45.7638 143.449 45.764C143.122 45.768 142.797 45.7083 142.492 45.588C142.206 45.4742 141.949 45.2995 141.737 45.076C141.515 44.8337 141.344 44.5481 141.237 44.237C141.112 43.8681 141.052 43.4805 141.058 43.091C141.056 42.7577 141.11 42.4264 141.218 42.111C141.318 41.8202 141.474 41.5523 141.679 41.323C141.884 41.0974 142.135 40.9184 142.415 40.798C142.725 40.667 143.059 40.6027 143.395 40.609C143.68 40.6068 143.962 40.658 144.227 40.76C144.477 40.8558 144.703 41.0042 144.89 41.195C145.084 41.3953 145.233 41.6336 145.329 41.895C145.439 42.1998 145.492 42.5221 145.486 42.846C145.494 42.94 145.478 43.0344 145.441 43.121C145.422 43.1457 145.396 43.1651 145.367 43.1773C145.338 43.1896 145.306 43.1943 145.275 43.191H141.929C141.933 43.4712 141.977 43.7494 142.06 44.017C142.127 44.2322 142.237 44.4315 142.383 44.603C142.518 44.7565 142.687 44.8769 142.876 44.955C143.081 45.0343 143.299 45.0734 143.519 45.07C143.712 45.0741 143.904 45.0484 144.089 44.994C144.231 44.9504 144.37 44.8945 144.502 44.827C144.601 44.7776 144.698 44.7222 144.79 44.661C144.848 44.6168 144.918 44.5901 144.99 44.584C145.023 44.5825 145.055 44.5893 145.084 44.6039C145.113 44.6184 145.138 44.6402 145.156 44.667L145.408 44.994ZM144.694 42.644C144.697 42.4539 144.667 42.2647 144.608 42.084C144.555 41.9216 144.469 41.772 144.355 41.645C144.244 41.5222 144.108 41.425 143.955 41.36C143.784 41.2906 143.601 41.2566 143.417 41.26C143.234 41.2497 143.051 41.2771 142.879 41.3404C142.707 41.4037 142.55 41.5016 142.417 41.628C142.157 41.9091 141.996 42.2678 141.959 42.649H144.696L144.694 42.644Z" fill="#0190E6"/>
<path d="M159.084 44.994C158.973 45.1276 158.841 45.243 158.694 45.336C158.541 45.4329 158.378 45.5133 158.207 45.576C158.034 45.6387 157.855 45.6856 157.673 45.716C157.492 45.7478 157.309 45.7638 157.125 45.764C156.798 45.768 156.473 45.7083 156.168 45.588C155.882 45.4743 155.624 45.2996 155.412 45.076C155.19 44.8337 155.019 44.5481 154.912 44.237C154.788 43.8681 154.727 43.4805 154.733 43.091C154.731 42.7577 154.785 42.4263 154.893 42.111C154.993 41.8202 155.149 41.5523 155.354 41.323C155.559 41.0974 155.81 40.9183 156.09 40.798C156.4 40.667 156.734 40.6027 157.07 40.609C157.355 40.6068 157.637 40.658 157.902 40.76C158.152 40.8558 158.378 41.0041 158.565 41.195C158.759 41.3953 158.908 41.6336 159.004 41.895C159.114 42.1998 159.167 42.5221 159.161 42.846C159.169 42.94 159.154 43.0345 159.116 43.121C159.097 43.1458 159.071 43.1652 159.042 43.1775C159.013 43.1897 158.982 43.1944 158.95 43.191H155.605C155.609 43.4712 155.653 43.7494 155.736 44.017C155.803 44.2321 155.913 44.4315 156.059 44.603C156.195 44.7563 156.363 44.8766 156.552 44.955C156.757 45.0342 156.976 45.0733 157.195 45.07C157.388 45.0741 157.58 45.0485 157.765 44.994C157.907 44.9504 158.046 44.8946 158.178 44.827C158.278 44.7776 158.374 44.7222 158.466 44.661C158.524 44.6167 158.594 44.59 158.666 44.584C158.699 44.5824 158.731 44.5892 158.761 44.6037C158.79 44.6183 158.815 44.6401 158.833 44.667L159.084 44.994ZM158.373 42.644C158.376 42.4539 158.347 42.2647 158.287 42.084C158.235 41.9216 158.148 41.772 158.034 41.645C157.923 41.5222 157.787 41.4249 157.634 41.36C157.463 41.2907 157.281 41.2567 157.096 41.26C156.913 41.2497 156.73 41.2771 156.558 41.3404C156.386 41.4037 156.229 41.5016 156.096 41.628C155.836 41.9092 155.675 42.2678 155.638 42.649H158.375L158.373 42.644Z" fill="#0190E6"/>
<path d="M163.077 41.395C163.334 41.14 163.637 40.9364 163.97 40.795C164.308 40.659 164.669 40.5911 165.033 40.595C165.289 40.5902 165.542 40.6371 165.779 40.733C165.987 40.8193 166.174 40.9504 166.326 41.117C166.479 41.2913 166.593 41.4957 166.662 41.717C166.74 41.9664 166.778 42.2267 166.774 42.488V45.688H166.383C166.314 45.6924 166.245 45.6779 166.183 45.646C166.128 45.6049 166.09 45.5458 166.074 45.479L165.974 45.005C165.852 45.1196 165.724 45.2274 165.59 45.328C165.342 45.5155 165.055 45.6466 164.751 45.712C164.58 45.7483 164.405 45.7654 164.229 45.763C164.043 45.765 163.859 45.738 163.681 45.683C163.517 45.6328 163.365 45.5501 163.233 45.44C163.103 45.3269 163 45.1857 162.933 45.027C162.855 44.8407 162.817 44.64 162.821 44.438C162.822 44.2366 162.878 44.0394 162.984 43.868C163.116 43.6633 163.298 43.4957 163.512 43.381C163.812 43.2196 164.133 43.102 164.466 43.032C164.941 42.932 165.425 42.8794 165.91 42.875V42.484C165.933 42.1699 165.843 41.8579 165.657 41.604C165.565 41.5014 165.451 41.4211 165.324 41.3692C165.196 41.3172 165.059 41.2949 164.921 41.304C164.736 41.2984 164.55 41.3255 164.374 41.384C164.241 41.4317 164.114 41.4927 163.993 41.566C163.887 41.633 163.793 41.694 163.718 41.748C163.652 41.7985 163.571 41.8265 163.487 41.828C163.432 41.8293 163.378 41.8124 163.334 41.78C163.291 41.7483 163.255 41.7094 163.225 41.665L163.077 41.395ZM165.917 43.441C165.571 43.4496 165.225 43.483 164.883 43.541C164.643 43.5797 164.408 43.6469 164.183 43.741C164.03 43.8035 163.896 43.904 163.793 44.033C163.713 44.1417 163.671 44.2732 163.671 44.408C163.669 44.5252 163.691 44.6415 163.735 44.75C163.774 44.841 163.835 44.9212 163.911 44.984C163.988 45.0468 164.078 45.0925 164.174 45.118C164.279 45.1472 164.388 45.1613 164.497 45.16C164.641 45.1614 164.784 45.1453 164.923 45.112C165.049 45.0812 165.17 45.0362 165.285 44.978C165.522 44.8509 165.736 44.6842 165.916 44.485V43.448L165.917 43.441Z" fill="#0190E6"/>
<path d="M173.996 41.514C173.98 41.5481 173.954 41.5767 173.922 41.5961C173.889 41.6155 173.852 41.6249 173.814 41.623C173.755 41.6191 173.697 41.6002 173.647 41.568C173.586 41.533 173.509 41.491 173.417 41.446C173.313 41.3964 173.205 41.3546 173.094 41.321C172.949 41.2801 172.799 41.2609 172.649 41.264C172.514 41.262 172.379 41.2813 172.249 41.321C172.141 41.3549 172.039 41.4081 171.949 41.478C171.87 41.5406 171.805 41.619 171.757 41.708C171.712 41.7962 171.689 41.894 171.69 41.993C171.686 42.1099 171.726 42.224 171.802 42.313C171.885 42.4047 171.985 42.4797 172.096 42.534C172.229 42.6022 172.369 42.6581 172.512 42.701C172.666 42.749 172.826 42.801 172.989 42.854C173.152 42.907 173.312 42.97 173.466 43.033C173.615 43.0963 173.755 43.1794 173.882 43.28C174.004 43.3792 174.105 43.5024 174.177 43.642C174.255 43.8023 174.293 43.9789 174.289 44.157C174.291 44.3769 174.249 44.595 174.164 44.798C174.081 44.9925 173.957 45.1663 173.799 45.307C173.626 45.4575 173.425 45.5726 173.207 45.646C172.946 45.7338 172.672 45.7761 172.397 45.771C172.073 45.775 171.752 45.7174 171.449 45.601C171.185 45.4987 170.941 45.3503 170.729 45.163L170.937 44.827C170.961 44.7873 170.992 44.7532 171.03 44.727C171.072 44.7028 171.12 44.6907 171.168 44.692C171.237 44.6946 171.303 44.7191 171.357 44.762C171.424 44.807 171.504 44.862 171.597 44.916C171.706 44.9773 171.821 45.0286 171.939 45.069C172.101 45.1187 172.27 45.1423 172.439 45.139C172.591 45.142 172.743 45.1193 172.887 45.072C173.004 45.0333 173.113 44.9726 173.207 44.893C173.289 44.8211 173.354 44.7315 173.396 44.631C173.437 44.5304 173.458 44.4227 173.457 44.314C173.462 44.19 173.422 44.0686 173.345 43.971C173.263 43.8753 173.163 43.7959 173.051 43.737C172.918 43.6681 172.779 43.6125 172.635 43.571C172.481 43.526 172.318 43.471 172.155 43.421C171.992 43.3691 171.832 43.309 171.675 43.241C171.525 43.1768 171.385 43.0916 171.259 42.988C171.136 42.8842 171.035 42.7554 170.965 42.61C170.887 42.4386 170.848 42.2515 170.853 42.063C170.852 41.873 170.892 41.6849 170.971 41.512C171.052 41.3346 171.17 41.1764 171.317 41.048C171.481 40.9066 171.67 40.7979 171.874 40.728C172.117 40.6452 172.373 40.6053 172.629 40.61C172.932 40.6047 173.233 40.658 173.516 40.767C173.767 40.865 173.998 41.0095 174.195 41.193L173.996 41.514Z" fill="#0190E6"/>
<path d="M182.554 40.688L179.762 47.171C179.737 47.2313 179.699 47.285 179.65 47.328C179.591 47.3719 179.518 47.3932 179.445 47.388H178.792L179.707 45.403L177.642 40.691H178.404C178.469 40.6873 178.533 40.708 178.584 40.749C178.624 40.7825 178.656 40.825 178.677 40.873L180.015 44.027C180.068 44.1695 180.112 44.3147 180.149 44.462C180.194 44.308 180.249 44.162 180.296 44.024L181.596 40.877C181.615 40.8241 181.65 40.7784 181.696 40.746C181.742 40.7117 181.799 40.6935 181.856 40.694H182.551L182.554 40.688Z" fill="#0190E6"/>
</svg>
