<svg width="43" height="43" viewBox="0 0 43 43" fill="none" xmlns="http://www.w3.org/2000/svg">
<circle cx="21.5" cy="21.5" r="21.5" fill="url(#paint0_linear_0_1)"/>
<path d="M19.4192 28.0671C19.1813 28.8439 19.358 29.5516 19.9122 30.1546C20.2157 30.4853 20.5858 30.7049 21.0246 30.809C21.0779 30.8213 21.1563 30.812 21.1603 30.9023C20.8592 30.8208 20.5636 30.7276 20.3016 30.5504C19.5396 30.0372 19.1838 29.3092 19.2884 28.4101C19.3772 27.6486 19.8061 27.0752 20.495 26.7095C21.5822 26.1321 23.0563 26.6458 23.5286 27.8287C23.5676 27.926 23.6179 27.9511 23.7176 27.9506C24.4682 27.9457 25.2198 27.9684 25.9699 27.9418C26.874 27.9097 27.5329 27.466 27.9356 26.6522C27.9716 26.5792 27.9899 26.4983 28.0219 26.4045C28.0846 26.4958 28.018 26.5994 27.9736 26.6873C27.5516 27.5183 26.8726 27.9654 25.9428 27.9941C25.2361 28.0158 24.5274 27.9941 23.8202 28.0015C23.6381 28.0029 23.532 27.9477 23.4491 27.7745C22.9907 26.8181 21.9889 26.3295 20.9604 26.5896C20.1807 26.7865 19.6531 27.3022 19.4192 28.0671Z" fill="white"/>
<path d="M29.6064 25.761C29.5975 27.0712 29.0132 28.1155 27.9068 28.8414C27.4498 29.141 26.9454 29.327 26.3996 29.3882C25.6653 29.4706 24.929 29.4055 24.1937 29.4247C24.0091 29.4297 23.8127 29.3857 23.6429 29.4361C23.4583 29.4914 23.4652 29.7317 23.3636 29.8783C22.9777 30.4334 22.4684 30.7828 21.7913 30.8732C21.7765 30.8751 21.7641 30.8924 21.7508 30.9023C21.7553 30.811 21.8337 30.8243 21.887 30.813C22.6322 30.6555 23.1632 30.2282 23.4796 29.5387C23.5432 29.4001 23.6419 29.3739 23.7747 29.3744C24.5134 29.3764 25.2527 29.4015 25.99 29.3695C27.3886 29.3092 28.4496 28.6707 29.1341 27.4354C29.4465 26.8713 29.5615 26.2579 29.5639 25.6228C29.5694 23.8383 29.5723 22.0533 29.5635 20.2688C29.557 18.9018 29.2866 17.592 28.6455 16.3736C28.3179 15.7503 27.9102 15.1832 27.434 14.6606C26.7411 13.8996 25.9298 13.3015 25.0089 12.8514C24.2119 12.4616 23.3661 12.2306 22.4861 12.1181C22.1195 12.0712 21.7484 12.048 21.3827 12.053C19.5019 12.0776 17.8295 12.692 16.3687 13.8819C15.4523 14.6281 14.7421 15.5381 14.2269 16.5986C13.8035 17.4691 13.533 18.3846 13.4481 19.3538C13.4269 19.5996 13.4195 19.8444 13.4195 20.0901C13.4185 21.4872 13.4185 22.8843 13.4195 24.2815C13.42 25.5192 14.5368 26.5417 15.7691 26.4134C16.8553 26.3009 17.6306 25.4782 17.7155 24.507C17.7929 23.6221 17.7298 22.7358 17.75 21.8505C17.7539 21.6654 17.7401 21.4823 17.7155 21.2987C17.5842 20.3295 16.8518 19.5971 15.8855 19.4659C15.621 19.4293 15.3619 19.4175 15.0989 19.4851C14.8655 19.5453 14.8097 19.4866 14.8433 19.2408C14.9291 18.6151 15.1014 18.0135 15.358 17.4361C15.7173 16.6277 16.2073 15.9092 16.8469 15.2987C17.9079 14.2851 19.1673 13.648 20.6222 13.4772C22.5157 13.2546 24.2435 13.7249 25.7284 14.9419C27.1014 16.0676 27.8989 17.5284 28.1254 19.2936C28.1535 19.5122 28.1121 19.5537 27.8934 19.4994C26.7589 19.2171 25.7906 19.8765 25.3988 20.7643C25.2981 20.9923 25.2374 21.2311 25.2364 21.4798C25.233 22.4397 25.2285 23.4001 25.2369 24.3599C25.2468 25.5754 26.4628 26.5901 27.662 26.3936C27.6926 26.3887 27.7227 26.3833 27.7533 26.3803C27.8426 26.3714 27.9517 26.3132 28.0153 26.3951C27.8031 26.3986 27.6067 26.4711 27.4019 26.4731C26.7762 26.479 26.253 26.2402 25.8232 25.8029C25.4027 25.3751 25.1782 24.8593 25.1831 24.2474C25.191 23.294 25.1693 22.3395 25.1945 21.3861C25.2073 20.8862 25.4388 20.4534 25.7822 20.0901C26.2249 19.6228 26.7658 19.3662 27.4172 19.3849C27.6131 19.3904 27.8135 19.4076 28.0015 19.4807C28.0908 19.5152 28.1101 19.4738 28.0987 19.3933C27.9808 18.5336 27.7543 17.7075 27.3279 16.9455C26.7283 15.8737 25.9115 15.0174 24.8466 14.3902C24.1867 14.0018 23.484 13.7412 22.7408 13.5956C22.2162 13.493 21.6788 13.4446 21.1423 13.4747C19.7882 13.5507 18.5588 13.9979 17.482 14.8161C16.2981 15.7147 15.5055 16.9016 15.0821 18.3249C14.9721 18.6965 14.8857 19.0804 14.8832 19.4782C15.623 19.2842 16.3105 19.3805 16.9194 19.8355C17.4189 20.2081 17.711 20.7139 17.7638 21.3461C17.8452 22.3277 17.8112 23.3112 17.79 24.2923C17.7702 25.186 17.3394 25.873 16.5133 26.2604C15.3605 26.8003 14.1144 26.2816 13.5868 25.2097C13.4373 24.9047 13.3667 24.5894 13.3677 24.2504C13.3712 22.7057 13.3494 21.1605 13.3781 19.6164C13.3904 18.9403 13.5384 18.2755 13.7551 17.6276C14.0783 16.6633 14.5491 15.7838 15.1882 14.9937C15.7918 14.2476 16.5098 13.6341 17.3315 13.1401C18.0042 12.736 18.7222 12.4349 19.4832 12.2435C19.9505 12.126 20.4277 12.0742 20.9069 12.0204C21.3565 11.9701 21.7967 12.0268 22.2384 12.0426C22.7566 12.0614 23.2674 12.1847 23.7702 12.3269C24.6812 12.5835 25.5167 12.9951 26.2772 13.5552C27.5495 14.4918 28.4896 15.6916 29.0576 17.1691C29.2738 17.7322 29.4347 18.313 29.5121 18.9176C29.5511 19.226 29.5689 19.5325 29.5812 19.8424C29.6617 21.8149 29.6192 23.7884 29.6064 25.761Z" fill="white"/>
<path d="M29.5812 19.8424C29.5689 19.5325 29.5511 19.226 29.5121 18.9176C29.4347 18.313 29.2738 17.7322 29.0576 17.1691C28.4896 15.6916 27.5495 14.4918 26.2772 13.5552C25.5167 12.9951 24.6812 12.5835 23.7702 12.3269C23.2674 12.1847 22.7566 12.0614 22.2384 12.0426C21.7967 12.0268 21.3565 11.9701 20.9069 12.0204C20.4277 12.0742 19.9505 12.126 19.4832 12.2435C18.7222 12.4349 18.0042 12.736 17.3315 13.1401C16.5098 13.6341 15.7918 14.2476 15.1882 14.9937C14.5491 15.7838 14.0783 16.6633 13.7551 17.6276C13.5384 18.2755 13.3904 18.9403 13.3781 19.6164C13.3494 21.1605 13.3712 22.7057 13.3677 24.2504C13.3667 24.5894 13.4373 24.9047 13.5868 25.2097C14.1144 26.2816 15.3605 26.8003 16.5133 26.2604C17.3394 25.873 17.7702 25.186 17.79 24.2923C17.8112 23.3112 17.8452 22.3277 17.7638 21.3461C17.711 20.7139 17.4189 20.2081 16.9194 19.8355C16.3105 19.3805 15.623 19.2842 14.8832 19.4782C14.8857 19.0804 14.9721 18.6965 15.0821 18.3249C15.5055 16.9016 16.2981 15.7147 17.482 14.8161C18.5588 13.9979 19.7882 13.5507 21.1423 13.4747C21.6788 13.4446 22.2162 13.493 22.7408 13.5956C23.484 13.7412 24.1867 14.0018 24.8466 14.3902C25.9115 15.0174 26.7283 15.8737 27.3279 16.9455C27.7543 17.7075 27.9808 18.5336 28.0987 19.3933C28.1101 19.4738 28.0908 19.5152 28.0015 19.4807C27.8135 19.4076 27.6131 19.3904 27.4172 19.3849C26.7658 19.3662 26.2249 19.6228 25.7822 20.0901C25.4388 20.4534 25.2073 20.8862 25.1945 21.3861C25.1693 22.3395 25.191 23.294 25.1831 24.2474C25.1782 24.8593 25.4027 25.3751 25.8232 25.8029C26.253 26.2402 26.7762 26.479 27.4019 26.4731C27.6067 26.4711 27.8031 26.3986 28.0153 26.3951H28.0247C28.0237 26.3981 28.0227 26.4015 28.0218 26.4045C27.9897 26.4983 27.9714 26.5792 27.9354 26.6522C27.5327 27.466 26.8739 27.9097 25.9698 27.9418C25.2196 27.9684 24.468 27.9457 23.7174 27.9506C23.6177 27.9511 23.5674 27.926 23.5284 27.8287C23.0561 26.6458 21.582 26.1321 20.4949 26.7095C19.8059 27.0752 19.3771 27.6486 19.2882 28.4101C19.1836 29.3092 19.5394 30.0372 20.3014 30.5504C20.5635 30.7276 20.8591 30.8208 21.1601 30.9023H21.7508C21.7641 30.8924 21.7765 30.8751 21.7913 30.8732C22.4684 30.7828 22.9777 30.4334 23.3636 29.8783C23.4652 29.7317 23.4583 29.4914 23.6429 29.4361C23.8127 29.3857 24.0091 29.4297 24.1937 29.4247C24.929 29.4055 25.6653 29.4706 26.3996 29.3882C26.9454 29.327 27.4498 29.141 27.9068 28.8414C29.0132 28.1155 29.5975 27.0712 29.6064 25.761C29.6192 23.7884 29.6617 21.8149 29.5812 19.8424ZM15.7138 20.8723C16.1614 20.9824 16.309 21.2721 16.3193 21.6072C16.3336 22.0488 16.3228 22.4915 16.3228 22.9337C16.3228 23.3517 16.3179 23.7697 16.3243 24.1872C16.3317 24.6945 15.9497 25.0602 15.4271 24.9857C15.2001 24.9531 14.8497 24.6452 14.8497 24.3417C14.8492 23.4015 14.8497 22.4619 14.8472 21.5218C14.8467 21.4132 14.8867 21.3249 14.9405 21.2365C15.1167 20.9483 15.431 20.8028 15.7138 20.8723ZM27.2914 24.9926C27.0377 24.9699 26.6656 24.6284 26.6661 24.3535C26.6676 23.4015 26.6607 22.4491 26.6696 21.4971C26.6735 21.1068 27.1552 20.7727 27.5352 20.8753C27.9438 20.9858 28.1382 21.2405 28.1387 21.6684C28.1392 22.0864 28.1387 22.5039 28.1387 22.9219C28.1387 23.3398 28.1328 23.7697 28.1402 24.1936C28.1491 24.6763 27.7735 25.036 27.2914 24.9926ZM21.4927 29.4302C21.132 29.4563 20.7056 29.0349 20.7539 28.6934C20.713 28.3084 21.1236 27.925 21.4843 27.9492C21.9413 27.9793 22.2167 28.2497 22.2246 28.6845C22.232 29.1168 21.8989 29.4001 21.4927 29.4302Z" fill="white"/>
<defs>
<linearGradient id="paint0_linear_0_1" x1="0" y1="21.5" x2="43" y2="21.5" gradientUnits="userSpaceOnUse">
<stop stop-color="#0191E6"/>
<stop offset="1" stop-color="#00365F"/>
</linearGradient>
</defs>
</svg>
