<svg width="43" height="43" viewBox="0 0 43 43" fill="none" xmlns="http://www.w3.org/2000/svg">
<circle cx="21.5" cy="21.5" r="21.5" fill="url(#paint0_linear_0_1)"/>
<path d="M30.1924 26.4185C29.7829 26.2129 29.3543 26.2934 28.9345 26.3559C28.6321 26.4005 28.3374 26.5006 28.0394 26.5767C27.1638 26.7992 26.2849 27.0047 25.4039 27.2038C24.7405 27.3539 24.0721 27.467 23.3994 27.5589C23.2623 27.5594 23.1258 27.5594 22.9888 27.5594C22.3313 27.3664 21.6504 27.2375 21.0484 26.8835C21.2126 26.8796 21.3714 26.8911 21.5253 26.9237C21.9827 27.0216 22.4313 27.169 22.9072 27.1548C23.0981 27.2087 23.2895 27.2119 23.4804 27.1543C24.0291 27.1217 24.5664 27.0265 25.0782 26.8274C25.7161 26.5789 26.3127 26.2744 26.4943 25.5244C26.552 25.3847 26.5547 25.2443 26.4981 25.1035C26.4911 24.9838 26.428 24.8876 26.36 24.7968C26.1082 24.4607 25.7226 24.4014 25.3544 24.3867C24.8035 24.365 24.2532 24.3399 23.7034 24.2986C23.0007 24.2459 22.3639 24.0457 21.8179 23.5704C20.8385 22.7182 19.6834 22.2783 18.3939 22.176C18.1623 22.1157 17.93 22.1222 17.6984 22.1755C17.5129 22.1962 17.3264 22.1875 17.1398 22.2239C16.6901 22.3109 16.2365 22.3832 15.8129 22.5632C15.659 22.6285 15.5992 22.5524 15.5486 22.4469C15.3664 22.0673 15.0559 21.8742 14.6524 21.8095C14.4027 21.7355 14.1471 21.779 13.8948 21.779C13.6294 21.779 13.3607 21.735 13.0975 21.8084C12.5309 21.8351 12.0517 22.4044 12.0376 22.914C11.9821 22.9787 12.0044 23.0565 12.0044 23.1288C12.0033 24.8174 12.0033 26.506 12.0044 28.1946C12.0044 28.2664 11.9821 28.3447 12.0376 28.4095C12.0778 28.9696 12.5271 29.4737 13.0964 29.5156C13.4885 29.589 13.8839 29.5341 14.2777 29.5461C14.4022 29.5499 14.5327 29.5787 14.6529 29.5134C15.0738 29.4406 15.3941 29.2279 15.579 28.8353C15.628 28.7314 15.6807 28.72 15.7824 28.7651C16.5792 29.1181 17.384 29.4509 18.1742 29.8174C19.1368 30.2634 20.1173 30.6196 21.1968 30.6136C21.5242 30.6685 21.8516 30.6713 22.179 30.612C22.4602 30.5962 22.7451 30.6033 23.0214 30.5592C23.5631 30.4738 24.1042 30.3863 24.6442 30.2895C25.4692 30.1416 26.2768 29.9284 27.0784 29.6962C27.7647 29.4971 28.4369 29.2497 29.1102 29.0082C29.5403 28.8543 29.9689 28.6895 30.3474 28.4241C31.2485 27.7906 31.0196 26.834 30.1924 26.4185ZM14.5724 28.7015C14.0949 28.6999 13.6174 28.6982 13.14 28.6971C12.9638 28.6574 12.8789 28.5383 12.8517 28.3687V22.9548C12.8751 22.7808 12.9773 22.6775 13.1405 22.6263C13.6174 22.6252 14.0944 22.6236 14.5713 22.622C14.7024 22.6633 14.8182 22.722 14.853 22.8721V28.4519C14.8188 28.6014 14.7035 28.6602 14.5724 28.7015ZM29.902 27.7405C29.6551 27.9276 29.3674 28.0424 29.0808 28.149C28.4956 28.3659 27.9083 28.578 27.315 28.7716C26.4715 29.0463 25.616 29.2883 24.7448 29.4514C24.1727 29.5586 23.6022 29.6907 23.0143 29.7195C22.737 29.7331 22.4596 29.7924 22.179 29.7979C21.8516 29.7984 21.5248 29.7984 21.1974 29.7984C20.337 29.7973 19.5441 29.5477 18.7692 29.1893C17.7876 28.7347 16.7891 28.317 15.7977 27.883C15.7667 27.8694 15.7373 27.8537 15.7068 27.8384C15.7068 26.3875 15.7063 24.936 15.7063 23.4845C16.3507 23.1832 17.0289 23.0222 17.7386 22.9885C17.9436 22.9891 18.1487 22.9891 18.3537 22.9896C19.4522 23.0919 20.4404 23.4524 21.2828 24.1899C21.807 24.6488 22.4194 24.9273 23.1166 25.0431C23.6158 25.1263 24.1151 25.1421 24.617 25.159C24.7502 25.2177 24.8906 25.1878 25.0287 25.1916C25.2169 25.1775 25.4012 25.2123 25.5867 25.2318C25.7058 25.2449 25.7335 25.3025 25.6895 25.4129C25.6101 25.6141 25.4518 25.7425 25.2745 25.842C24.8095 26.1031 24.3108 26.2597 23.7757 26.2945C23.6637 26.3016 23.5522 26.3249 23.4402 26.3407C23.2623 26.3407 23.0845 26.3407 22.9072 26.3407C22.4727 26.3472 22.0681 26.1825 21.6471 26.1194C21.2784 26.0639 20.9005 25.9861 20.5328 26.1667C20.1092 26.375 19.9841 26.7823 20.2196 27.1907C20.4371 27.5698 20.8064 27.74 21.1838 27.8738C21.7097 28.0609 22.2513 28.2055 22.787 28.3659C22.8245 28.3774 22.8675 28.3708 22.9077 28.373C23.0714 28.4372 23.2351 28.4274 23.3994 28.3757C23.8997 28.3175 24.3935 28.2262 24.8889 28.1375C25.8782 27.9608 26.8451 27.6921 27.8235 27.4719C28.2161 27.3832 28.6006 27.2571 28.9949 27.1793C29.257 27.1276 29.5262 27.0493 29.7997 27.1467C29.9482 27.1994 30.0766 27.2821 30.107 27.4387C30.1353 27.5861 30.0026 27.6649 29.902 27.7411V27.7405Z" fill="white" stroke="white" stroke-width="0.2"/>
<path d="M29.8868 18.8598C29.8526 18.7793 29.8455 18.7189 29.9064 18.6417C30.5737 17.79 30.8587 16.828 30.7662 15.7463C30.6999 14.9751 30.4519 14.278 29.9891 13.6602C29.2576 12.6823 28.2581 12.1837 27.0622 12.0439C26.8571 11.9884 26.6516 11.983 26.4466 12.0423C25.8413 12.0743 25.274 12.2424 24.7531 12.548C23.6132 13.2169 22.9095 14.1926 22.7055 15.5114C22.6859 15.6365 22.6506 15.7376 22.488 15.7632C22.3199 15.7898 22.1927 15.9024 22.0883 16.0443C21.917 16.2765 21.7223 16.4919 21.5569 16.7279C21.4585 16.8682 21.34 16.8731 21.2056 16.8378C20.9022 16.7573 20.6025 16.6632 20.2985 16.5838C20.106 16.5338 19.9396 16.5593 19.808 16.7453C19.6176 17.0134 19.399 17.2614 19.2027 17.5257C19.1238 17.6329 19.0385 17.6437 18.9253 17.6095C18.6311 17.5208 18.3391 17.4202 18.0394 17.3544C17.8203 17.306 17.6016 17.3071 17.4515 17.5458C17.3303 17.7384 17.172 17.9075 17.0301 18.0875C16.8916 18.263 16.7246 18.3009 16.5292 18.2012C16.154 18.0105 15.7709 17.9688 15.3801 18.0761C15.323 18.0919 15.2697 18.1234 15.212 18.1321C14.8885 18.181 14.753 18.404 14.6622 18.6884C14.4887 19.2301 14.3028 19.768 14.1195 20.3058C14.0134 20.6174 14.0934 20.8165 14.4077 20.9203C14.7732 21.0411 15.1479 21.1313 15.5166 21.2434C15.7069 21.301 15.8864 21.3516 16.0914 21.2814C16.8925 21.0057 17.6946 20.7316 18.5028 20.4793C19.3435 20.2172 20.1794 19.9409 21.0158 19.6673C21.8267 19.402 22.6419 19.1474 23.4517 18.8782C23.6213 18.8222 23.7334 18.8494 23.8606 18.9756C24.4132 19.5232 25.063 19.9039 25.8304 20.066C25.9082 20.0823 25.9479 20.1138 25.9625 20.1932C26.0093 20.4439 26.1018 20.6805 26.2073 20.9111C26.5379 21.6344 27.0377 22.1886 27.8268 22.4001C28.4598 22.5698 29.0564 22.4616 29.5535 22.0053C29.9488 21.6415 30.0908 21.1558 30.1593 20.6424C30.2197 20.408 30.2153 20.1737 30.1577 19.9398C30.1076 19.5695 30.0348 19.2051 29.8868 18.8598ZM29.2179 21.0791C29.0205 21.6333 28.3744 21.7491 27.9481 21.5903C27.3379 21.3625 27.0442 20.8583 26.8272 20.2906C26.7919 20.1987 26.8387 20.1497 26.9327 20.1481C27.7692 20.135 28.5028 19.8261 29.1945 19.3525C29.2696 19.576 29.3207 19.7946 29.3468 20.0197C29.3463 20.2133 29.3452 20.4064 29.3446 20.6C29.3294 20.767 29.2734 20.9241 29.2179 21.0791ZM29.5067 17.8063C29.4251 17.9515 29.3702 17.9896 29.2315 17.8444C28.9264 17.5257 28.5729 17.269 28.1439 17.1309C28.0742 17.1086 27.9965 17.0923 28.0927 16.9737C28.2499 16.7801 28.3114 16.537 28.3233 16.2852C28.3869 16.1477 28.3848 16.0101 28.3228 15.8725C28.2923 15.2416 27.7305 14.6793 27.1709 14.5341C27.0948 14.5145 27.0165 14.5026 26.9393 14.4873C26.8028 14.4275 26.6657 14.4286 26.5287 14.4862C25.7466 14.5537 25.0832 15.3118 25.1006 16.1422C25.1169 16.9177 25.7727 17.6562 26.5276 17.7123C26.6657 17.7666 26.8033 17.7677 26.9409 17.7117C27.6288 17.7133 28.2146 17.9543 28.6937 18.453C28.8035 18.5672 28.7839 18.6384 28.6621 18.7254C28.17 19.0773 27.6229 19.279 27.023 19.341C26.8305 19.341 26.638 19.3405 26.446 19.3405C25.5133 19.2774 24.7895 18.8179 24.1826 18.1419C23.9982 17.9363 23.8633 17.8928 23.5827 17.9831C22.8083 18.2322 22.0328 18.4796 21.2589 18.7314C20.0489 19.1251 18.8394 19.5221 17.6294 19.9164C17.0926 20.0915 16.552 20.2563 16.0185 20.4401C15.9011 20.4809 15.8037 20.4809 15.6922 20.4467C15.5046 20.3896 15.3148 20.3401 15.1261 20.2873C15.0364 20.2623 14.9896 20.2199 15.0277 20.1155C15.1664 19.7359 15.2958 19.3536 15.4361 18.975C15.4883 18.8331 15.8239 18.7613 16.0017 18.8483C16.2257 18.9582 16.4476 19.074 16.6711 19.1855C16.9561 19.328 17.1356 19.2801 17.3216 19.0321C17.5228 18.7635 17.736 18.5035 17.9388 18.236C17.9763 18.1854 18.0052 18.1892 18.0552 18.2028C18.3886 18.2974 18.7236 18.385 19.0564 18.4818C19.2946 18.5503 19.4452 18.5193 19.5921 18.3377C19.7911 18.0913 19.9896 17.8433 20.1751 17.5866C20.2653 17.461 20.3572 17.4322 20.5014 17.4784C20.7939 17.573 21.0898 17.6579 21.3862 17.7395C21.6304 17.8063 21.799 17.7356 21.9539 17.5323C22.1737 17.2446 22.4064 16.9661 22.6201 16.6746C22.7469 16.5017 22.9377 16.4658 23.1161 16.4081C23.369 16.326 23.4658 16.226 23.4789 15.9568C23.536 14.7832 24.1097 13.9098 25.0766 13.2931C25.484 13.0331 25.9489 12.8727 26.4471 12.8575H27.0214C28.3271 13.032 29.2658 13.6971 29.7656 14.9316C29.8852 15.2264 29.9271 15.5424 29.9565 15.8643C30.0195 16.5669 29.8466 17.2027 29.5067 17.8063ZM27.5119 15.9502C27.5108 16.561 27.2237 16.8927 26.6956 16.8922C26.2633 16.8922 25.9201 16.5425 25.9207 16.102C25.9207 15.6767 26.2611 15.3042 26.6489 15.3053C27.1443 15.3069 27.5125 15.5815 27.5119 15.9502Z" fill="white" stroke="white" stroke-width="0.2"/>
<path d="M30.1923 26.4185C29.7828 26.2129 29.3543 26.2934 28.9344 26.356C28.6321 26.4006 28.3373 26.5006 28.0393 26.5768C27.1637 26.7992 26.2849 27.0048 25.4039 27.2038C24.7404 27.3539 24.072 27.467 23.3993 27.5589C23.2622 27.585 23.1257 27.5845 22.9887 27.5595C22.3312 27.3664 21.6503 27.2375 21.0483 26.8835C21.2125 26.8797 21.3713 26.8911 21.5252 26.9237C21.9826 27.0216 22.4313 27.169 22.9071 27.1548C23.098 27.1744 23.2894 27.175 23.4803 27.1543C24.0291 27.1217 24.5664 27.0265 25.0781 26.8275C25.716 26.5789 26.3126 26.2744 26.4943 25.5244C26.5209 25.3847 26.5149 25.2438 26.4981 25.1035C26.491 24.9839 26.4279 24.8876 26.3599 24.7968C26.1081 24.4607 25.7226 24.4014 25.3544 24.3867C24.8035 24.365 24.2531 24.34 23.7033 24.2986C23.0007 24.2459 22.3638 24.0458 21.8178 23.5704C20.8384 22.7183 19.6833 22.2783 18.3939 22.1761C18.1622 22.1538 17.93 22.1554 17.6983 22.1755C17.5128 22.1962 17.3263 22.1875 17.1398 22.2239C16.69 22.3109 16.2365 22.3833 15.8128 22.5633C15.6589 22.6285 15.5991 22.5524 15.5485 22.4469C15.3663 22.0673 15.0558 21.8742 14.6523 21.8095C14.134 21.7867 13.6157 21.7899 13.0975 21.8084C12.5308 21.8351 12.0517 22.4045 12.0375 22.914C12.018 22.9592 12.0245 23.007 12.0245 23.0543C12.0239 24.7924 12.0239 26.5311 12.0245 28.2692C12.0245 28.3159 12.018 28.3643 12.0375 28.4095C12.0778 28.9696 12.527 29.4738 13.0964 29.5156C13.6152 29.533 14.134 29.5368 14.6528 29.5135C15.0738 29.4406 15.3941 29.2279 15.579 28.8353C15.6279 28.7314 15.6807 28.72 15.7824 28.7651C16.5791 29.1181 17.384 29.4509 18.1741 29.8175C19.1367 30.2634 20.1173 30.6196 21.1968 30.6136C21.5242 30.6327 21.8515 30.6354 22.1789 30.612C22.4601 30.5962 22.7451 30.6033 23.0213 30.5592C23.563 30.4739 24.1041 30.3863 24.6441 30.2895C25.4691 30.1416 26.2767 29.9284 27.0783 29.6962C27.7646 29.4971 28.4368 29.2497 29.1101 29.0082C29.5403 28.8543 29.9688 28.6895 30.3473 28.4242C31.2484 27.7906 31.0195 26.834 30.1923 26.4185ZM14.5723 28.7015C14.0949 28.6999 13.6174 28.6982 13.1399 28.6972C12.9637 28.6575 12.8788 28.5384 12.8517 28.3687V22.9548C12.875 22.7808 12.9773 22.6775 13.1404 22.6263C13.6174 22.6253 14.0943 22.6236 14.5713 22.622C14.7023 22.6633 14.8182 22.7221 14.853 22.8722V28.4519C14.8187 28.6014 14.7034 28.6602 14.5723 28.7015ZM29.9019 27.7406C29.655 27.9276 29.3673 28.0424 29.0807 28.149C28.4956 28.366 27.9082 28.5781 27.3149 28.7717C26.4714 29.0463 25.616 29.2883 24.7447 29.4515C24.1726 29.5586 23.6021 29.6907 23.0143 29.7196C22.7369 29.7332 22.4596 29.7924 22.1789 29.7979C21.8515 29.7984 21.5247 29.7984 21.1973 29.7984C20.337 29.7973 19.5441 29.5477 18.7691 29.1893C17.7875 28.7347 16.789 28.317 15.7976 27.883C15.7666 27.8694 15.7372 27.8537 15.7068 27.8384C15.7068 26.3875 15.7062 24.936 15.7062 23.4845C16.3507 23.1832 17.0288 23.0223 17.7385 22.9885C17.9436 22.9891 18.1486 22.9891 18.3536 22.9896C19.4522 23.0919 20.4403 23.4524 21.2827 24.1899C21.807 24.6489 22.4193 24.9273 23.1165 25.0431C23.6157 25.1264 24.115 25.1421 24.6169 25.159C24.7502 25.2177 24.8905 25.1878 25.0286 25.1916C25.2168 25.1775 25.4011 25.2123 25.5866 25.2319C25.7057 25.2449 25.7334 25.3026 25.6894 25.413C25.61 25.6142 25.4517 25.7425 25.2744 25.842C24.8095 26.1031 24.3108 26.2597 23.7756 26.2945C23.6636 26.3016 23.5521 26.325 23.4401 26.3407C23.2622 26.3407 23.0844 26.3407 22.9071 26.3407C22.4726 26.3473 22.068 26.1825 21.6471 26.1194C21.2783 26.0639 20.9004 25.9862 20.5328 26.1667C20.1091 26.375 19.984 26.7823 20.2195 27.1907C20.437 27.5698 20.8063 27.74 21.1837 27.8738C21.7096 28.0609 22.2513 28.2055 22.7869 28.366C22.8245 28.3774 22.8674 28.3709 22.9077 28.373C23.0714 28.4372 23.2351 28.4274 23.3993 28.3758C23.8996 28.3176 24.3934 28.2262 24.8889 28.1376C25.8781 27.9608 26.845 27.6922 27.8234 27.4719C28.216 27.3833 28.6005 27.2571 28.9948 27.1793C29.2569 27.1277 29.5261 27.0493 29.7997 27.1467C29.9481 27.1994 30.0765 27.2821 30.1069 27.4387C30.1352 27.5861 30.0025 27.665 29.9019 27.7411V27.7406Z" fill="white" stroke="white" stroke-width="0.2"/>
<path d="M29.8868 18.8595C29.8526 18.779 29.8455 18.7186 29.9064 18.6414C30.5737 17.7898 30.8587 16.8277 30.7662 15.7461C30.6999 14.9749 30.4519 14.2777 29.9891 13.6599C29.2576 12.6821 28.2581 12.1834 27.0622 12.0436C26.8571 12.0208 26.6516 12.023 26.4466 12.042C25.8413 12.0741 25.274 12.2421 24.7531 12.5478C23.6132 13.2167 22.9095 14.1923 22.7055 15.5111C22.6859 15.6362 22.6506 15.7374 22.488 15.7629C22.3199 15.7896 22.1927 15.9021 22.0883 16.0441C21.917 16.2763 21.7223 16.4916 21.5569 16.7277C21.4585 16.868 21.34 16.8729 21.2056 16.8375C20.9022 16.757 20.6025 16.663 20.2985 16.5836C20.106 16.5335 19.9396 16.5591 19.808 16.7451C19.6176 17.0132 19.399 17.2612 19.2027 17.5255C19.1238 17.6326 19.0385 17.6435 18.9253 17.6092C18.6311 17.5206 18.3391 17.42 18.0394 17.3542C17.8203 17.3058 17.6016 17.3069 17.4515 17.5456C17.3303 17.7381 17.172 17.9072 17.0301 18.0873C16.8916 18.2627 16.7246 18.3006 16.5292 18.2009C16.154 18.0102 15.7709 17.9685 15.3801 18.0758C15.323 18.0916 15.2697 18.1231 15.212 18.1318C14.8885 18.1808 14.753 18.4038 14.6622 18.6882C14.4887 19.2298 14.3028 19.7677 14.1195 20.3055C14.0134 20.6172 14.0934 20.8162 14.4077 20.9201C14.7732 21.0408 15.1479 21.1311 15.5166 21.2431C15.7069 21.3008 15.8864 21.3513 16.0914 21.2812C16.8925 21.0055 17.6946 20.7314 18.5028 20.479C19.3435 20.2169 20.1794 19.9406 21.0158 19.6671C21.8267 19.4017 22.6419 19.1472 23.4517 18.878C23.6213 18.822 23.7334 18.8492 23.8606 18.9753C24.4132 19.523 25.063 19.9037 25.8304 20.0657C25.9082 20.082 25.9479 20.1136 25.9625 20.193C26.0093 20.4437 26.1018 20.6803 26.2073 20.9108C26.5379 21.6341 27.0377 22.1883 27.8268 22.3999C28.4598 22.5695 29.0564 22.4613 29.5535 22.005C29.9488 21.6412 30.0908 21.1556 30.1593 20.6422C30.1794 20.4078 30.1821 20.1734 30.1577 19.9395C30.1076 19.5692 30.0348 19.2048 29.8868 18.8595ZM29.2179 21.0789C29.0205 21.633 28.3744 21.7489 27.9481 21.5901C27.3379 21.3622 27.0442 20.8581 26.8272 20.2903C26.7919 20.1984 26.8387 20.1495 26.9327 20.1478C27.7692 20.1348 28.5028 19.8259 29.1945 19.3522C29.2696 19.5757 29.3207 19.7943 29.3468 20.0195C29.3463 20.2131 29.3452 20.4062 29.3446 20.5998C29.3294 20.7667 29.2734 20.9239 29.2179 21.0789ZM29.5067 17.8061C29.4251 17.9513 29.3702 17.9894 29.2315 17.8442C28.9264 17.5255 28.5729 17.2688 28.1439 17.1307C28.0742 17.1084 27.9965 17.092 28.0927 16.9735C28.2499 16.7799 28.3114 16.5368 28.3233 16.285C28.3869 16.1474 28.3848 16.0098 28.3228 15.8722C28.2923 15.2414 27.7305 14.6791 27.1709 14.5338C27.0948 14.5143 27.0165 14.5023 26.9393 14.4871C26.8028 14.4273 26.6657 14.4283 26.5287 14.486C25.7466 14.5534 25.0832 15.3115 25.1006 16.142C25.1169 16.9175 25.7727 17.656 26.5276 17.712C26.6657 17.7664 26.8033 17.7675 26.9409 17.7115C27.6288 17.7131 28.2146 17.954 28.6937 18.4527C28.8035 18.5669 28.7839 18.6382 28.6621 18.7252C28.17 19.077 27.6229 19.2788 27.023 19.3408C26.8305 19.3408 26.638 19.3402 26.446 19.3402C25.5133 19.2772 24.7895 18.8176 24.1826 18.1416C23.9982 17.9361 23.8633 17.8926 23.5827 17.9828C22.8083 18.2319 22.0328 18.4794 21.2589 18.7312C20.0489 19.1249 18.8394 19.5219 17.6294 19.9162C17.0926 20.0913 16.552 20.2561 16.0185 20.4399C15.9011 20.4807 15.8037 20.4807 15.6922 20.4464C15.5046 20.3893 15.3148 20.3398 15.1261 20.2871C15.0364 20.262 14.9896 20.2196 15.0277 20.1152C15.1664 19.7356 15.2958 19.3533 15.4361 18.9748C15.4883 18.8328 15.8239 18.7611 16.0017 18.8481C16.2257 18.9579 16.4476 19.0738 16.6711 19.1853C16.9561 19.3277 17.1356 19.2799 17.3216 19.0319C17.5228 18.7632 17.736 18.5033 17.9388 18.2357C17.9763 18.1851 18.0052 18.189 18.0552 18.2025C18.3886 18.2972 18.7236 18.3847 19.0564 18.4815C19.2946 18.5501 19.4452 18.5191 19.5921 18.3374C19.7911 18.0911 19.9896 17.8431 20.1751 17.5864C20.2653 17.4608 20.3572 17.4319 20.5014 17.4782C20.7939 17.5728 21.0898 17.6576 21.3862 17.7392C21.6304 17.8061 21.799 17.7354 21.9539 17.532C22.1737 17.2443 22.4064 16.9659 22.6201 16.6744C22.7469 16.5014 22.9377 16.4655 23.1161 16.4079C23.369 16.3258 23.4658 16.2257 23.4789 15.9565C23.536 14.7829 24.1097 13.9095 25.0766 13.2928C25.484 13.0329 25.9489 12.8724 26.4471 12.8572H27.0214C28.3271 13.0318 29.2658 13.6969 29.7656 14.9314C29.8852 15.2261 29.9271 15.5421 29.9565 15.8641C30.0195 16.5667 29.8466 17.2024 29.5067 17.8061ZM27.5119 15.95C27.5108 16.5607 27.2237 16.8925 26.6956 16.8919C26.2633 16.8919 25.9201 16.5422 25.9207 16.1017C25.9207 15.6764 26.2611 15.3039 26.6489 15.305C27.1443 15.3066 27.5125 15.5813 27.5119 15.95Z" fill="white" stroke="white" stroke-width="0.2"/>
<path d="M12.0436 27.7003C12.0436 27.9369 12.0398 28.1729 12.0376 28.4095C11.9821 28.3448 12.0044 28.2664 12.0044 28.1947C12.0033 26.506 12.0033 24.8174 12.0044 23.1288C12.0044 23.0565 11.9821 22.9787 12.0376 22.914C12.0398 24.5096 12.042 26.1047 12.0436 27.7003Z" fill="white" stroke="white" stroke-width="0.2"/>
<path d="M14.6525 21.81C14.1342 21.8095 13.6159 21.8095 13.0977 21.8089C13.3609 21.7346 13.6295 21.7792 13.8949 21.7792C14.1603 21.7792 14.4029 21.7352 14.6525 21.81Z" fill="white" stroke="white" stroke-width="0.2"/>
<path d="M14.6529 29.5134C14.5327 29.5795 14.4022 29.5503 14.2776 29.5464C13.8839 29.5343 13.4885 29.5899 13.0964 29.5156C13.6153 29.5156 14.1341 29.5145 14.6529 29.5134Z" fill="white" stroke="white" stroke-width="0.2"/>
<path d="M22.1789 30.612C21.8516 30.6719 21.5242 30.6692 21.1968 30.6136C21.5242 30.6136 21.8516 30.6125 22.1789 30.612Z" fill="white" stroke="white" stroke-width="0.2"/>
<path d="M30.1593 20.6416C30.1588 20.4075 30.1583 20.1739 30.1577 19.9398C30.2154 20.1734 30.2197 20.4075 30.1593 20.6416Z" fill="white" stroke="white" stroke-width="0.2"/>
<path d="M18.394 22.1766C18.1624 22.1766 17.9302 22.176 17.6985 22.176C17.9302 22.1221 18.1624 22.1155 18.394 22.1766Z" fill="white" stroke="white" stroke-width="0.2"/>
<path d="M27.0622 12.0444C26.8571 12.0439 26.6516 12.0433 26.4465 12.0428C26.6516 11.9828 26.8571 11.9883 27.0622 12.0444Z" fill="white" stroke="white" stroke-width="0.2"/>
<path d="M23.4802 27.1543C23.2893 27.2126 23.0979 27.2093 22.907 27.1548C23.0979 27.1543 23.2893 27.1543 23.4802 27.1543Z" fill="white" stroke="white" stroke-width="0.2"/>
<path d="M26.4944 25.5239C26.496 25.3838 26.4971 25.2436 26.4982 25.1035C26.5548 25.2442 26.552 25.3843 26.4944 25.5239Z" fill="white" stroke="white" stroke-width="0.2"/>
<path d="M23.3996 27.5589C23.2626 27.6084 23.1261 27.626 22.989 27.5594C23.1261 27.5594 23.2626 27.5594 23.3996 27.5589Z" fill="white" stroke="white" stroke-width="0.2"/>
<path d="M15.7064 23.4845C15.7064 24.936 15.707 26.3875 15.707 27.8384C15.6743 27.789 15.6874 27.7335 15.6874 27.6807C15.6868 26.3347 15.6868 24.9888 15.6874 23.6428C15.6874 23.59 15.6749 23.5345 15.7064 23.4845Z" fill="white" stroke="white" stroke-width="0.2"/>
<path d="M18.3536 22.99C18.1486 22.99 17.9436 22.99 17.7385 22.9889C17.9436 22.9694 18.1486 22.9683 18.3536 22.99Z" fill="white" stroke="white" stroke-width="0.2"/>
<path d="M21.1975 29.7984C21.5249 29.7984 21.8517 29.7984 22.1791 29.7979C21.8517 29.8227 21.5249 29.8221 21.1975 29.7984Z" fill="white" stroke="white" stroke-width="0.2"/>
<path d="M23.3991 28.3752C23.2349 28.4275 23.0712 28.4374 22.9075 28.3725C23.0712 28.4016 23.2354 28.3961 23.3991 28.3752Z" fill="white" stroke="white" stroke-width="0.2"/>
<path d="M22.907 26.3402C23.0843 26.3402 23.2621 26.3402 23.4399 26.3402C23.2621 26.3603 23.0843 26.3608 22.907 26.3402Z" fill="white" stroke="white" stroke-width="0.2"/>
<path d="M25.0289 25.1913C24.8907 25.1875 24.7504 25.2172 24.6172 25.159C24.7521 25.2016 24.8945 25.1444 25.0289 25.1913Z" fill="white" stroke="white" stroke-width="0.2"/>
<path d="M12.8517 22.9548V28.3687C12.8322 28.3235 12.8387 28.2757 12.8387 28.2284C12.8381 26.5175 12.8381 24.806 12.8387 23.0951C12.8387 23.0478 12.8322 22.9999 12.8517 22.9548Z" fill="white" stroke="white" stroke-width="0.2"/>
<path d="M14.5712 22.6225C14.0943 22.6242 13.6173 22.6258 13.1404 22.627C13.6173 22.5966 14.0943 22.6056 14.5712 22.6225Z" fill="white" stroke="white" stroke-width="0.2"/>
<path d="M13.1399 28.6971C13.6174 28.6983 14.0949 28.7 14.5723 28.7016C14.0949 28.7185 13.6174 28.7275 13.1399 28.6971Z" fill="white" stroke="white" stroke-width="0.2"/>
<path d="M14.871 28.2925C14.871 28.3458 14.8829 28.4013 14.853 28.4519V22.8721C14.8829 22.9222 14.871 22.9776 14.871 23.0309C14.8715 24.7848 14.8715 26.5387 14.871 28.2925Z" fill="white" stroke="white" stroke-width="0.2"/>
<path d="M14.853 28.4519V22.8721C14.9123 22.9423 14.8916 23.0266 14.8916 23.106C14.8927 24.8098 14.8927 26.5136 14.8916 28.218C14.8916 28.2969 14.9128 28.3817 14.853 28.4519Z" fill="white" stroke="white" stroke-width="0.2"/>
<path d="M12.8517 22.9548V28.3687C12.794 28.305 12.8185 28.2267 12.8179 28.1549C12.8168 26.493 12.8168 24.8305 12.8179 23.1685C12.8185 23.0967 12.7946 23.0184 12.8517 22.9548Z" fill="white" stroke="white" stroke-width="0.2"/>
<path d="M15.7068 27.8384C15.641 27.7873 15.6671 27.7139 15.6666 27.6497C15.6655 26.3244 15.6655 24.9991 15.6666 23.6738C15.6666 23.6096 15.641 23.5367 15.7063 23.4845C15.7063 24.936 15.7068 26.3875 15.7068 27.8384Z" fill="white" stroke="white" stroke-width="0.2"/>
<path d="M14.5712 22.6225C14.0943 22.6241 13.6173 22.6258 13.1404 22.6269C13.2307 22.5592 13.3356 22.5878 13.4324 22.5916C13.812 22.6059 14.1938 22.5476 14.5712 22.6225Z" fill="white" stroke="white" stroke-width="0.2"/>
<path d="M14.5723 28.7015C14.2819 28.7753 13.9872 28.7263 13.6946 28.7307C13.5102 28.7335 13.3204 28.7753 13.1399 28.6971C13.6174 28.6982 14.0949 28.6999 14.5723 28.7015Z" fill="white" stroke="white" stroke-width="0.2"/>
<path d="M22.1791 29.7979C21.8517 29.8584 21.5249 29.8573 21.1975 29.7984C21.5249 29.7984 21.8517 29.7984 22.1791 29.7979Z" fill="white" stroke="white" stroke-width="0.2"/>
<path d="M18.3536 22.9901C18.1486 22.9901 17.9436 22.9901 17.7385 22.989C17.9436 22.9318 18.1486 22.9318 18.3536 22.9901Z" fill="white" stroke="white" stroke-width="0.2"/>
<path d="M23.4399 26.3407C23.2621 26.3985 23.0843 26.3936 22.907 26.3407C23.0843 26.3407 23.2621 26.3407 23.4399 26.3407Z" fill="white" stroke="white" stroke-width="0.2"/>
<path d="M23.3991 28.3752C23.2349 28.4275 23.0712 28.4374 22.9075 28.3725C23.0712 28.3736 23.2354 28.3741 23.3991 28.3752Z" fill="white" stroke="white" stroke-width="0.2"/>
<path d="M25.0289 25.1921C24.8907 25.1883 24.7504 25.2185 24.6172 25.1591C24.7553 25.1596 24.8962 25.1189 25.0289 25.1921Z" fill="white" stroke="white" stroke-width="0.2"/>
<path d="M26.5276 17.7123C26.6657 17.737 26.8033 17.7376 26.9409 17.7117C26.8033 17.7684 26.6657 17.7673 26.5276 17.7123Z" fill="white" stroke="white" stroke-width="0.2"/>
<path d="M26.9392 14.4879C26.8021 14.4592 26.6656 14.4614 26.5286 14.4868C26.6656 14.4284 26.8027 14.4273 26.9392 14.4879Z" fill="white" stroke="white" stroke-width="0.2"/>
<path d="M27.0213 12.8579H26.447C26.6385 12.8356 26.8299 12.835 27.0213 12.8579Z" fill="white" stroke="white" stroke-width="0.2"/>
<path d="M26.4458 19.3405C26.6378 19.3405 26.8303 19.341 27.0228 19.341C26.8303 19.3617 26.6378 19.3634 26.4458 19.3405Z" fill="white" stroke="white" stroke-width="0.2"/>
<path d="M28.3231 16.2847C28.3541 16.1473 28.3546 16.0099 28.3225 15.8725C28.3845 16.0099 28.3867 16.1473 28.3231 16.2847Z" fill="white" stroke="white" stroke-width="0.2"/>
<path d="M29.3447 20.5993C29.3453 20.4059 29.3464 20.2131 29.3469 20.0197C29.3638 20.2131 29.3692 20.4059 29.3447 20.5993Z" fill="white" stroke="white" stroke-width="0.2"/>
<path d="M27.0213 12.858H26.447C26.6385 12.7969 26.8299 12.8029 27.0213 12.858Z" fill="white" stroke="white" stroke-width="0.2"/>
<path d="M27.0228 19.341C26.8303 19.3999 26.6378 19.3977 26.4458 19.3405C26.6378 19.3405 26.8303 19.341 27.0228 19.341Z" fill="white" stroke="white" stroke-width="0.2"/>
<path d="M29.3447 20.5993C29.3453 20.4059 29.3464 20.2131 29.3469 20.0197C29.4018 20.2131 29.4045 20.4065 29.3447 20.5993Z" fill="white" stroke="white" stroke-width="0.2"/>
<path d="M26.9392 14.4879C26.8021 14.4873 26.6656 14.4873 26.5286 14.4868C26.6656 14.4284 26.8027 14.4273 26.9392 14.4879Z" fill="white" stroke="white" stroke-width="0.2"/>
<path d="M28.3231 16.2847C28.3225 16.1473 28.3225 16.0099 28.3225 15.8725C28.3845 16.0099 28.3867 16.1473 28.3231 16.2847Z" fill="white" stroke="white" stroke-width="0.2"/>
<path d="M26.9409 17.7117C26.8033 17.7684 26.6657 17.7673 26.5276 17.7123C26.6652 17.7117 26.8033 17.7117 26.9409 17.7117Z" fill="white" stroke="white" stroke-width="0.2"/>
<defs>
<linearGradient id="paint0_linear_0_1" x1="0" y1="21.5" x2="43" y2="21.5" gradientUnits="userSpaceOnUse">
<stop stop-color="#0191E6"/>
<stop offset="1" stop-color="#00365F"/>
</linearGradient>
</defs>
</svg>
