<svg width="16" height="16" viewBox="0 0 16 16" fill="none" xmlns="http://www.w3.org/2000/svg">
<path d="M3.21978 6.92252C4.50801 9.44165 6.5572 11.4908 9.07633 12.7791L11.0312 10.8242C11.1474 10.7079 11.2939 10.6264 11.454 10.5888C11.6141 10.5512 11.7815 10.559 11.9373 10.6115C12.9613 10.9477 14.0322 11.1185 15.11 11.1174C15.3455 11.118 15.5713 11.2119 15.7378 11.3785C15.9044 11.545 15.9982 11.7708 15.9989 12.0063V15.1111C15.9982 15.3467 15.9044 15.5724 15.7378 15.739C15.5713 15.9055 15.3455 15.9994 15.11 16C13.1254 16.0006 11.1602 15.6101 9.32665 14.8509C7.49308 14.0917 5.82708 12.9787 4.42385 11.5753C3.02063 10.172 1.90768 8.50592 1.14862 6.67229C0.389552 4.83866 -0.000754378 2.87342 1.09461e-06 0.888889C0.000608215 0.653327 0.0944538 0.427588 0.261021 0.26102C0.427589 0.0944527 0.653328 0.00060712 0.88889 0H3.99368C4.22924 0.00060712 4.45498 0.0944527 4.62155 0.26102C4.78811 0.427588 4.88196 0.653327 4.88257 0.888889C4.88078 1.96666 5.0516 3.03777 5.38853 4.06152C5.43974 4.21761 5.44687 4.38481 5.40913 4.5447C5.37139 4.70458 5.29025 4.85094 5.17465 4.96766L3.21978 6.92252Z" fill="#005492"/>
</svg>
