<svg width="43" height="43" viewBox="0 0 43 43" fill="none" xmlns="http://www.w3.org/2000/svg">
<circle cx="21.5" cy="21.5" r="21.5" fill="url(#paint0_linear_0_1)"/>
<path d="M27.8962 25.2557C27.0346 26.8143 25.8033 27.9676 24.157 28.6774C23.5612 28.9342 22.945 29.1118 22.3148 29.2215C21.7195 29.3254 21.1071 29.355 20.5027 29.3077C19.696 29.2447 18.9049 29.0655 18.1622 28.7442C16.6682 28.0968 15.454 27.1027 14.5779 25.7158C14.0871 24.9387 13.7394 24.1002 13.543 23.2063C13.4622 22.836 13.3869 22.4555 13.4036 22.0691C13.3438 21.7586 13.3438 21.4475 13.4025 21.137C13.5171 19.1506 14.319 17.4768 15.7145 16.0765C16.4857 15.3031 17.3974 14.7364 18.414 14.3575C19.0254 14.1299 19.6621 13.9625 20.3251 13.9238C20.4742 13.9152 20.6276 13.9066 20.7777 13.885C20.9935 13.8307 21.2088 13.8296 21.4246 13.885C23.2388 14.0061 24.8609 14.6094 26.2569 15.8542C26.2569 15.139 26.2526 14.4706 26.258 13.8027C26.2623 13.3189 26.758 12.8932 27.3015 13.0239C27.6594 13.11 27.8709 13.3318 27.9506 13.6864C28.0012 13.7586 27.9866 13.8409 27.9866 13.92C27.9877 15.3053 27.9877 16.69 27.9866 18.0753C27.9866 18.1469 28.0033 18.2233 27.9538 18.2884C27.8672 18.7496 27.5238 18.9999 27.0416 19.0026C25.6219 19.0112 24.2016 19.0047 22.7819 19.0053C22.3433 19.0053 21.9913 18.6038 21.9477 18.2147C21.9025 17.8148 22.2653 17.3321 22.6678 17.3116C22.7351 17.2476 22.8196 17.2761 22.8955 17.2761C23.6123 17.2734 24.3286 17.2756 25.045 17.2718C25.1112 17.2718 25.1919 17.3138 25.2468 17.2357C24.1591 16.2175 22.8626 15.6852 21.3843 15.5765H20.7772C17.4485 15.7654 15.2221 18.4327 15.0671 21.1892C14.8658 24.7762 17.589 27.3896 20.6948 27.6156C20.9252 27.5607 21.1561 27.5656 21.3864 27.6162C21.6582 27.5785 21.9327 27.5537 22.2018 27.501C23.0365 27.3363 23.8109 27.0274 24.5132 26.5366C25.3092 25.9801 25.9238 25.2708 26.4001 24.428C26.7666 23.7811 27.6137 23.9221 27.8892 24.4398C28.0308 24.7057 28.0405 24.9958 27.8962 25.2557Z" fill="white"/>
<path d="M27.8963 25.2557C27.0346 26.8143 25.8033 27.9676 24.157 28.6774C23.5612 28.9342 22.945 29.1118 22.3148 29.2215C21.7196 29.3254 21.1071 29.355 20.5027 29.3077C19.696 29.2447 18.9049 29.0655 18.1622 28.7442C16.6682 28.0968 15.4541 27.1027 14.5779 25.7158C14.0871 24.9387 13.7394 24.1002 13.543 23.2063C13.4623 22.836 13.3869 22.4555 13.4036 22.0691C13.3799 21.7581 13.3826 21.4475 13.4025 21.137C13.5172 19.1506 14.3191 17.4768 15.7146 16.0765C16.4858 15.3031 17.3974 14.7364 18.4141 14.3575C19.0254 14.1299 19.6621 13.9625 20.3251 13.9238C20.4742 13.9152 20.6276 13.9066 20.7778 13.885C20.9936 13.8646 21.2088 13.864 21.4246 13.885C23.2389 14.0061 24.8609 14.6094 26.257 15.8542C26.257 15.139 26.2527 14.4706 26.258 13.8027C26.2623 13.3189 26.758 12.8932 27.3016 13.0239C27.6595 13.11 27.871 13.3318 27.9506 13.6864C27.9743 13.7306 27.9662 13.7785 27.9662 13.8248C27.9668 15.273 27.9668 16.7212 27.9668 18.1695C27.9668 18.2093 27.9705 18.2502 27.9538 18.2884C27.8672 18.7496 27.5238 18.9999 27.0416 19.0026C25.6219 19.0112 24.2017 19.0047 22.7819 19.0053C22.3433 19.0053 21.9914 18.6038 21.9478 18.2147C21.9026 17.8148 22.2653 17.3321 22.6678 17.3116C22.9133 17.2756 23.1603 17.2982 23.4062 17.2966C23.9606 17.2922 24.5149 17.2966 25.0692 17.2922C25.1273 17.2917 25.2183 17.3482 25.2468 17.2357C24.1591 16.2175 22.8627 15.6852 21.3843 15.5765C21.1819 15.5534 20.9796 15.5539 20.7772 15.5765C17.4486 15.7654 15.2221 18.4327 15.0671 21.1892C14.8658 24.7762 17.589 27.3896 20.6949 27.6156C20.9252 27.5962 21.1556 27.5952 21.3864 27.6162C21.6582 27.5785 21.9327 27.5537 22.2018 27.501C23.0365 27.3363 23.8109 27.0274 24.5133 26.5366C25.3092 25.9801 25.9238 25.2708 26.4001 24.428C26.7666 23.7811 27.6137 23.9221 27.8893 24.4398C28.0308 24.7057 28.0405 24.9958 27.8963 25.2557Z" fill="white"/>
<path d="M27.9539 18.2884C27.9518 17.4241 27.9485 16.5603 27.948 15.696C27.9469 15.026 27.9496 14.3565 27.9507 13.6864C28.0013 13.7585 27.9868 13.8409 27.9868 13.92C27.9878 15.3053 27.9878 16.69 27.9868 18.0753C27.9868 18.1469 28.0034 18.2233 27.9539 18.2884Z" fill="white"/>
<path d="M25.2119 17.312C25.0849 17.3152 24.9585 17.3142 24.8315 17.3136C24.1103 17.3131 23.3891 17.312 22.668 17.311C22.7352 17.2475 22.8197 17.2757 22.8956 17.2757C23.6125 17.2731 24.3288 17.2752 25.0451 17.2715C25.1113 17.2715 25.192 17.3131 25.2469 17.2357C25.3131 17.296 25.2679 17.311 25.2119 17.312Z" fill="white"/>
<path d="M13.4036 22.0691C13.3438 21.7586 13.3438 21.4475 13.4025 21.137C13.403 21.4475 13.4036 21.7581 13.4036 22.0691Z" fill="white"/>
<path d="M21.3864 27.6166C21.1555 27.6166 20.9252 27.6161 20.6948 27.6161C20.9252 27.5605 21.156 27.5654 21.3864 27.6166Z" fill="white"/>
<path d="M21.4245 13.8855H20.7776C20.9934 13.8305 21.2087 13.8294 21.4245 13.8855Z" fill="white"/>
<path d="M21.3842 15.577H20.7771C20.9795 15.5209 21.1818 15.5204 21.3842 15.577Z" fill="white"/>
<defs>
<linearGradient id="paint0_linear_0_1" x1="0" y1="21.5" x2="43" y2="21.5" gradientUnits="userSpaceOnUse">
<stop stop-color="#0191E6"/>
<stop offset="1" stop-color="#00365F"/>
</linearGradient>
</defs>
</svg>
