<svg width="16" height="16" viewBox="0 0 16 16" fill="none" xmlns="http://www.w3.org/2000/svg">
<path d="M15.3412 9.16173C15.4034 8.77763 15.4344 8.38911 15.4338 8C15.4338 6.02351 14.6487 4.12796 13.2511 2.73037C11.8535 1.33278 9.95796 0.547618 7.98146 0.547618C7.59235 0.547014 7.20383 0.578013 6.81973 0.64031C5.95836 0.124331 4.94931 -0.0890834 3.95279 0.0339565C2.95627 0.156996 2.02943 0.609437 1.31943 1.31943C0.609437 2.02943 0.156996 2.95627 0.0339565 3.95279C-0.0890834 4.94931 0.124331 5.95836 0.640309 6.81973C0.570792 7.20942 0.533589 7.60419 0.52908 8C0.52908 9.97649 1.31424 11.872 2.71183 13.2696C4.10942 14.6672 6.00497 15.4524 7.98146 15.4524C8.37058 15.453 8.7591 15.422 9.14319 15.3597C10.0046 15.8757 11.0136 16.0891 12.0101 15.966C13.0067 15.843 13.9335 15.3906 14.6435 14.6806C15.3535 13.9706 15.8059 13.0437 15.929 12.0472C16.052 11.0507 15.8386 10.0416 15.3226 9.18027L15.3412 9.16173ZM11.5223 11.3863C11.1735 11.8685 10.6928 12.2398 10.1381 12.4554C9.45364 12.724 8.72273 12.8542 7.98764 12.8385C7.13202 12.8743 6.2808 12.6981 5.50969 12.3256C5.06013 12.0839 4.67461 11.7387 4.38504 11.3183C4.11979 10.9593 3.96903 10.5286 3.95248 10.0825C3.95183 9.96672 3.97509 9.85209 4.02082 9.74575C4.06654 9.63942 4.13374 9.54367 4.21819 9.46452C4.40536 9.30523 4.6463 9.22345 4.89175 9.23588C5.09688 9.23201 5.29653 9.30221 5.45408 9.43363C5.62654 9.59495 5.75972 9.79366 5.84338 10.0145C5.95059 10.2725 6.08746 10.5172 6.25122 10.7437C6.41444 10.9527 6.62669 11.1182 6.86917 11.2257C7.19852 11.367 7.55542 11.4324 7.91349 11.4172C8.42348 11.4419 8.92862 11.3081 9.35947 11.0341C9.52482 10.9372 9.66234 10.7993 9.7587 10.6336C9.85505 10.468 9.90698 10.2803 9.90944 10.0886C9.91478 9.95446 9.89167 9.82067 9.84161 9.69606C9.79155 9.57145 9.71569 9.45885 9.61901 9.36565C9.39897 9.16294 9.13439 9.01478 8.84658 8.93309C8.52525 8.82804 8.09887 8.72299 7.56126 8.60558C6.94383 8.46184 6.34165 8.25904 5.76305 8C5.30777 7.8134 4.90631 7.51603 4.59514 7.13488C4.30001 6.74202 4.14745 6.26037 4.16258 5.76923C4.15759 5.26994 4.31842 4.7831 4.61986 4.38504C4.96417 3.95727 5.42269 3.63587 5.94225 3.45813C6.59921 3.23992 7.28956 3.13951 7.98146 3.16151C8.52284 3.15194 9.06252 3.22487 9.58193 3.37779C9.98957 3.49883 10.3725 3.69132 10.7128 3.9463C10.9806 4.14744 11.2036 4.40207 11.3678 4.69401C11.5014 4.92984 11.5736 5.19543 11.5779 5.46644C11.5771 5.58196 11.5532 5.69616 11.5075 5.80229C11.4619 5.90842 11.3955 6.00434 11.3122 6.08438C11.2281 6.1755 11.1257 6.2479 11.0118 6.29687C10.8979 6.34584 10.775 6.37029 10.651 6.36863C10.4522 6.3841 10.2551 6.3221 10.101 6.19561C9.93885 6.03937 9.80319 5.8578 9.69934 5.658C9.5463 5.34305 9.32458 5.06643 9.0505 4.8485C8.69083 4.62428 8.26747 4.52441 7.84551 4.56424C7.41239 4.54598 6.98321 4.65328 6.60963 4.87321C6.47393 4.94567 6.35933 5.05208 6.27702 5.18204C6.19471 5.31201 6.1475 5.46109 6.13999 5.61474C6.1351 5.78263 6.18983 5.94683 6.29448 6.0782C6.41772 6.221 6.56921 6.33672 6.7394 6.41807C6.92063 6.51182 7.11117 6.58638 7.3079 6.64053C7.50565 6.69614 7.82698 6.77647 8.27807 6.88152C8.84658 7.00511 9.35329 7.14106 9.81675 7.28937C10.2313 7.41566 10.6264 7.59866 10.9908 7.83316C11.3087 8.03419 11.5703 8.31276 11.7509 8.64266C11.9346 9.01893 12.0196 9.43569 11.9981 9.85383C12.0037 10.4019 11.8373 10.9378 11.5223 11.3863Z" fill="#005492"/>
</svg>
