<svg width="50" height="59" viewBox="0 0 50 59" fill="none" xmlns="http://www.w3.org/2000/svg">
<path d="M32.586 0.18699C32.586 0.17899 32.986 0.362995 33.006 0.372995C33.401 0.559995 33.785 0.766994 34.161 0.986993C34.753 1.33199 35.326 1.708 35.881 2.108C36.616 2.63861 37.3218 3.20878 37.995 3.81599C38.8209 4.55902 39.6016 5.35077 40.333 6.18699C41.1954 7.17566 41.9937 8.21844 42.723 9.30898C43.5672 10.5731 44.3262 11.892 44.995 13.257C45.7639 14.8288 46.4264 16.4504 46.978 18.111C47.6122 20.0225 48.1213 21.9733 48.502 23.951C48.9409 26.2322 49.2395 28.5382 49.396 30.856C49.5776 33.5358 49.609 36.2237 49.49 38.907C49.527 39.5481 49.4165 40.1892 49.167 40.781C49.067 40.981 48.967 41.192 48.867 41.396C48.5903 41.968 48.3143 42.5403 48.039 43.113L45.765 47.826C44.975 49.4633 44.185 51.1007 43.395 52.738C42.8617 53.8386 42.3306 54.9387 41.802 56.038L41.57 56.52C41.57 56.52 37.853 35.827 20.632 24.151C20.633 24.152 32.586 0.18699 32.586 0.18699Z" fill="#89E3FE"/>
<path d="M26.458 9.35901L18.346 25.648C18.346 25.648 37.94 36.868 40.02 58.185C40.02 58.185 36.109 33.261 0 40.875L0.634979 39.8L2.30499 36.973L4.659 32.989L7.34399 28.443L10.01 23.929L12.31 20.042C12.8347 19.1533 13.3593 18.2647 13.884 17.376C14.6557 16.0537 15.5517 14.8081 16.56 13.656C17.83 12.1361 19.3741 10.8681 21.112 9.91801C21.9189 9.46804 22.8088 9.18649 23.7277 9.09041C24.6466 8.99432 25.5754 9.0857 26.458 9.35901Z" fill="#0191E6"/>
<path d="M4.07697 47.951C4.07697 47.951 25.877 38.466 37.856 54.774C37.856 54.774 33.363 39.6319 8.48697 40.3799L4.07697 47.951Z" fill="#005492"/>
</svg>
