<svg width="23" height="20" viewBox="0 0 23 20" fill="none" xmlns="http://www.w3.org/2000/svg">
<path d="M11.2497 0C5.03567 0 0 4.15625 0 9.28571C0 11.4996 0.940016 13.5268 2.50451 15.1205C1.95518 17.3701 0.117777 19.375 0.0958034 19.3973C-0.000602067 19.5 -0.0266975 19.6518 0.0296111 19.7857C0.0477391 19.9196 0.210912 20 0.35097 20C3.26506 20 5.44876 18.5804 6.52985 17.7049C7.9669 18.2545 9.56215 18.5714 11.2497 18.5714C17.4637 18.5714 22.5 14.4152 22.5 9.28571C22.5 4.15625 17.4637 0 11.2497 0ZM7.35165 10.7098C7.20223 11.567 6.42877 12.1429 5.32132 12.1429C5.14417 12.1429 4.95876 12.1289 4.76803 12.0982C4.44239 12.0446 4.07807 11.9107 3.75682 11.7902C3.39154 11.6563 3.13894 11.225 3.26946 10.854C3.39998 10.483 3.73485 10.2277 4.10312 10.3973C4.40982 10.5088 4.74166 10.6406 5.02072 10.6847C5.52347 10.7634 5.93217 10.6696 5.96733 10.4643C6.01361 10.2004 5.49095 10.0895 4.88801 9.91339C4.35537 9.75576 2.94205 9.33438 3.19035 7.85982C3.36886 6.81607 4.39053 6.2567 5.73925 6.47188C5.9988 6.51233 6.28594 6.59884 6.55621 6.69371C6.9229 6.82205 7.11785 7.22942 6.99155 7.60174C6.86823 7.97768 6.46832 8.17411 6.09917 8.04464C5.90827 7.97768 5.70638 7.91348 5.52391 7.8842C5.03083 7.81027 4.61334 7.90233 4.57906 8.10321C4.53468 8.35714 4.99172 8.45982 5.46634 8.59822C6.21343 8.81697 7.60654 9.21875 7.35165 10.7098ZM14.0623 11.4286C14.0623 11.8234 13.7478 12.1429 13.3591 12.1429C12.9705 12.1429 12.656 11.8214 12.656 11.4286V9.28571L11.8127 10.4281C11.5463 10.788 10.9535 10.788 10.6867 10.4281L9.84341 9.28571V11.4286C9.84341 11.8234 9.52893 12.1429 9.14027 12.1429C8.75161 12.1429 8.43712 11.8214 8.43712 11.4286V7.14286C8.43712 6.83594 8.63075 6.60268 8.9179 6.46518C9.20355 6.3717 9.5204 6.46779 9.70322 6.71473L11.2497 8.80804L12.7962 6.71295C12.9788 6.46603 13.2972 6.37134 13.5815 6.46339C13.8689 6.5625 14.0623 6.83482 14.0623 7.14286V11.4286ZM19.3051 10.7098C19.1557 11.567 18.3822 12.1429 17.2748 12.1429C17.0976 12.1429 16.9122 12.1289 16.7215 12.0982C16.3589 12.0424 15.9937 11.9085 15.672 11.7899C15.3068 11.656 15.0541 11.2247 15.1847 10.8538C15.3152 10.4828 15.6501 10.2662 16.0183 10.3988C16.325 10.5104 16.6569 10.6421 16.9359 10.6863C17.4387 10.763 17.8491 10.6695 17.8834 10.4658C17.9297 10.2019 17.407 10.091 16.8041 9.91491C16.2715 9.75728 14.8581 9.33589 15.1064 7.86134C15.2836 6.81759 16.304 6.25821 17.6553 6.47339C17.9149 6.51385 18.202 6.60036 18.4723 6.69522C18.839 6.82357 19.0339 7.23094 18.9076 7.60326C18.7813 7.97576 18.3829 8.17513 18.0138 8.04549C17.8229 7.97853 17.621 7.91433 17.4385 7.88505C16.9467 7.81112 16.5279 7.90318 16.4937 8.10406C16.4881 8.35714 16.9452 8.45982 17.4198 8.59822C18.1669 8.81697 19.56 9.21875 19.3051 10.7098Z" fill="#005492"/>
</svg>
