<svg width="22" height="18" viewBox="0 0 22 18" fill="none" xmlns="http://www.w3.org/2000/svg">
<path d="M20.7101 0.00218193C18.6171 0.127137 14.4568 0.581956 11.8886 2.2357C11.7114 2.3498 11.6109 2.55271 11.6109 2.76485V17.3846C11.6109 17.8486 12.0933 18.1419 12.5001 17.9266C15.1424 16.5275 18.9639 16.1459 20.8534 16.0414C21.4985 16.0056 22 15.4616 22 14.8095V1.23566C22.0004 0.524099 21.4137 -0.0396036 20.7101 0.00218193ZM10.1114 2.2357C7.54353 0.581956 3.38332 0.127538 1.29023 0.00218193C0.586677 -0.0396036 0 0.524099 0 1.23566V14.8099C0 15.4624 0.501502 16.0064 1.14662 16.0418C3.03689 16.1463 6.86022 16.5284 9.50256 17.9282C9.90819 18.1431 10.3891 17.8502 10.3891 17.3874V2.75761C10.3891 2.54507 10.289 2.35021 10.1114 2.2357Z" fill="#757575"/>
</svg>
