<svg width="43" height="43" viewBox="0 0 43 43" fill="none" xmlns="http://www.w3.org/2000/svg">
<circle cx="21.5" cy="21.5" r="21.5" fill="url(#paint0_linear_0_1)"/>
<path d="M17.7606 17.4008C17.7002 17.1002 17.8852 16.859 18.2132 16.7745C18.2505 16.7349 18.3 16.7453 18.3453 16.7453C19.1712 16.7448 19.9966 16.7448 20.822 16.7453C20.8616 16.7453 20.905 16.7363 20.9366 16.7722C21.3057 16.8411 21.4175 17.1167 21.3916 17.3847C21.3652 17.6608 21.1391 17.8392 20.8286 17.8397C19.9989 17.8401 19.1693 17.834 18.3397 17.8425C17.9749 17.8463 17.8036 17.6164 17.7606 17.4008Z" fill="white" stroke="white" stroke-width="0.2"/>
<path d="M24.6681 25.8784C24.6705 26.1629 24.4954 26.3408 24.2193 26.414H22.4156C22.1863 26.3139 22.0027 26.1742 21.9947 25.8968C21.9867 25.6282 22.1433 25.43 22.4123 25.3569C22.4506 25.3205 22.4992 25.3262 22.5449 25.3262C23.0716 25.3257 23.5987 25.3257 24.1254 25.3262C24.1716 25.3262 24.2198 25.321 24.258 25.3574C24.6157 25.4763 24.6662 25.6584 24.6681 25.8784Z" fill="white" stroke="white" stroke-width="0.2"/>
<path d="M18.3817 19.4296C20.7899 19.4286 23.1977 19.4286 25.6054 19.4296C25.6743 19.4296 25.7474 19.4126 25.8093 19.4612C26.0613 19.539 26.2255 19.7278 26.2283 19.944C26.233 20.2337 26.1042 20.3956 25.7725 20.5169C25.7257 20.5192 25.6785 20.523 25.6318 20.523C23.2005 20.5235 20.7687 20.5235 18.3373 20.523C18.2845 20.523 18.2321 20.5192 18.1793 20.5169C17.94 20.4196 17.7588 20.2724 17.7583 19.9888C17.7583 19.7231 17.9036 19.5466 18.1778 19.4612C18.2397 19.4126 18.3128 19.4296 18.3817 19.4296Z" fill="white" stroke="white" stroke-width="0.2"/>
<path d="M26.2684 25.8911C26.2759 26.1903 26.0315 26.4093 25.6992 26.4149C25.4769 26.4187 25.1938 26.1596 25.2046 25.8741C25.2164 25.5659 25.4269 25.3607 25.7568 25.3611C26.0786 25.3621 26.2599 25.5574 26.2684 25.8911Z" fill="white" stroke="white" stroke-width="0.2"/>
<path d="M26.2684 22.623C26.2812 22.8599 26.1665 23.1134 25.8512 23.1785C25.7941 23.2243 25.7271 23.2063 25.6644 23.2063C23.217 23.2073 20.7701 23.2073 18.3227 23.2063C18.2599 23.2063 18.1924 23.2238 18.1353 23.1794C17.8201 23.127 17.7106 22.8713 17.6903 22.6622C17.6681 22.4347 17.8805 22.2049 18.1358 22.1407C18.1929 22.0964 18.2604 22.1134 18.3232 22.1134C20.7531 22.1124 23.183 22.1124 25.6129 22.1138C25.6672 22.1138 25.7314 22.0846 25.7757 22.145C26.0594 22.1563 26.2524 22.3337 26.2684 22.623Z" fill="white" stroke="white" stroke-width="0.2"/>
<path d="M28.9843 27.3654C28.9853 23.9992 28.9853 20.6329 28.9843 17.2667C28.9843 17.1978 29.0013 17.1247 28.9551 17.0615C28.9064 16.699 28.7861 16.3701 28.536 16.0921C27.7866 15.2587 27.0409 14.422 26.2958 13.5848C26.014 13.2682 25.6634 13.0884 25.2462 13.0317C25.1641 12.9864 25.074 13.0029 24.9876 13.0029C22.2269 13.0015 19.4661 13.0015 16.7054 13.0025C16.6186 13.0025 16.5289 12.9878 16.4468 13.0331C15.695 13.0983 15.0636 13.7769 15.0325 14.5187C14.9857 14.582 15.0032 14.6551 15.0032 14.724C15.0023 18.9435 15.0023 23.1629 15.0032 27.3824C15.0032 27.4513 14.9857 27.5244 15.0325 27.5872C15.0542 28.2941 15.6813 29.0161 16.4468 29.0728C16.5294 29.1176 16.6191 29.1039 16.7064 29.1039C20.2311 29.1044 23.7559 29.1044 27.2807 29.1039C27.368 29.1035 27.4581 29.1176 27.5402 29.0728C28.3552 28.9454 28.8824 28.3715 28.956 27.5522C29.0032 27.4956 28.9843 27.4281 28.9843 27.3654ZM25.4704 14.2918C26.1976 15.095 26.9206 15.9019 27.6445 16.708C27.62 16.7542 27.5752 16.7443 27.536 16.7443C26.7611 16.7434 25.9867 16.742 25.2118 16.7405C25.2108 15.8713 25.2099 15.0025 25.209 14.1337C25.3265 14.136 25.4029 14.2172 25.4704 14.2918ZM27.3972 28.0147C27.3623 28.0133 27.3274 28.01 27.292 28.01C23.7597 28.0095 20.2274 28.0095 16.695 28.01C16.6601 28.01 16.6247 28.0133 16.5898 28.0147C16.3595 27.9949 16.2042 27.8632 16.1297 27.6259C16.1306 27.6197 16.1325 27.6141 16.1325 27.6084C16.1325 23.2894 16.1325 18.9704 16.1325 14.6514C16.1325 14.6061 16.1476 14.556 16.1042 14.5197C16.1934 14.2941 16.3208 14.1115 16.5898 14.0898C16.6544 14.0921 16.7191 14.0964 16.7838 14.0964C18.8725 14.0964 20.9617 14.0964 23.0509 14.0968C23.4039 14.0968 23.7569 14.1002 24.1098 14.102C24.1108 15.1157 24.1113 16.1299 24.1136 17.1436C24.1141 17.2115 24.091 17.2851 24.1415 17.347C24.1712 17.6476 24.3911 17.8387 24.7167 17.8392C25.6979 17.8406 26.6795 17.8397 27.6606 17.8401C27.7252 17.8401 27.7894 17.8434 27.8541 17.8453C27.8545 20.2582 27.855 22.6707 27.8555 25.0836C27.856 25.9307 27.8569 26.7783 27.8578 27.6254C27.7918 27.8581 27.6228 27.9694 27.3977 28.0147H27.3972Z" fill="white" stroke="white" stroke-width="0.2"/>
<path d="M17.7606 17.4008C17.7002 17.1002 17.8852 16.859 18.2132 16.7745C18.2505 16.7349 18.3 16.7453 18.3453 16.7453C19.1712 16.7448 19.9966 16.7448 20.822 16.7453C20.8616 16.7453 20.905 16.7363 20.9366 16.7722C21.3057 16.8411 21.4175 17.1167 21.3916 17.3847C21.3652 17.6608 21.1391 17.8392 20.8286 17.8397C19.9989 17.8401 19.1693 17.834 18.3397 17.8425C17.9749 17.8463 17.8036 17.6164 17.7606 17.4008Z" fill="white" stroke="white" stroke-width="0.2"/>
<path d="M24.6681 25.8784C24.6705 26.1629 24.4954 26.3408 24.2193 26.414H22.4156C22.1863 26.3139 22.0027 26.1742 21.9947 25.8968C21.9867 25.6282 22.1433 25.43 22.4123 25.3569C22.4506 25.3205 22.4992 25.3262 22.5449 25.3262C23.0716 25.3257 23.5987 25.3257 24.1254 25.3262C24.1716 25.3262 24.2198 25.321 24.258 25.3574C24.6157 25.4763 24.6662 25.6584 24.6681 25.8784Z" fill="white" stroke="white" stroke-width="0.2"/>
<path d="M18.3817 19.4296C20.7899 19.4286 23.1977 19.4286 25.6054 19.4296C25.6743 19.4296 25.7474 19.4126 25.8093 19.4612C26.0613 19.539 26.2255 19.7278 26.2283 19.944C26.233 20.2337 26.1042 20.3956 25.7725 20.5169C25.7257 20.5192 25.6785 20.523 25.6318 20.523C23.2005 20.5235 20.7687 20.5235 18.3373 20.523C18.2845 20.523 18.2321 20.5192 18.1793 20.5169C17.94 20.4196 17.7588 20.2724 17.7583 19.9888C17.7583 19.7231 17.9036 19.5466 18.1778 19.4612C18.2397 19.4126 18.3128 19.4296 18.3817 19.4296Z" fill="white" stroke="white" stroke-width="0.2"/>
<path d="M26.2684 25.8911C26.2759 26.1903 26.0315 26.4093 25.6992 26.4149C25.4769 26.4187 25.1938 26.1596 25.2046 25.8741C25.2164 25.5659 25.4269 25.3607 25.7568 25.3611C26.0786 25.3621 26.2599 25.5574 26.2684 25.8911Z" fill="white" stroke="white" stroke-width="0.2"/>
<path d="M26.2684 22.623C26.2812 22.8599 26.1665 23.1134 25.8512 23.1785C25.7941 23.2243 25.7271 23.2063 25.6644 23.2063C23.217 23.2073 20.7701 23.2073 18.3227 23.2063C18.2599 23.2063 18.1924 23.2238 18.1353 23.1794C17.8201 23.127 17.7106 22.8713 17.6903 22.6622C17.6681 22.4347 17.8805 22.2049 18.1358 22.1407C18.1929 22.0964 18.2604 22.1134 18.3232 22.1134C20.7531 22.1124 23.183 22.1124 25.6129 22.1138C25.6672 22.1138 25.7314 22.0846 25.7757 22.145C26.0594 22.1563 26.2524 22.3337 26.2684 22.623Z" fill="white" stroke="white" stroke-width="0.2"/>
<path d="M28.9665 17.2359C28.9665 17.1779 28.9759 17.1184 28.9551 17.0613C28.9065 16.6989 28.7862 16.3699 28.5361 16.092C27.7867 15.2586 27.041 14.4218 26.2959 13.5847C26.0141 13.268 25.6635 13.0882 25.2463 13.0316C25.1949 13.0117 25.1415 13.0202 25.0892 13.0202C22.2605 13.0198 19.4323 13.0198 16.6036 13.0202C16.5512 13.0202 16.4979 13.0108 16.4469 13.033C15.6951 13.0981 15.0637 13.7767 15.0325 14.5186C15.0104 14.5818 15.0212 14.647 15.0212 14.7111C15.0203 18.9391 15.0203 23.167 15.0212 27.3949C15.0212 27.4591 15.0104 27.5243 15.0325 27.587C15.0542 28.294 15.6814 29.016 16.4469 29.0726C16.5035 29.0967 16.5634 29.0854 16.6215 29.0854C20.2029 29.0863 23.7843 29.0863 27.3657 29.0854C27.4242 29.0854 27.4837 29.0967 27.5403 29.0726C28.3553 28.9452 28.8825 28.3713 28.9561 27.5521C28.9754 27.4945 28.9665 27.4355 28.9665 27.377C28.9669 23.9966 28.9669 20.6163 28.9665 17.2359ZM25.4705 14.2916C26.1977 15.0948 26.9207 15.9018 27.6446 16.7078C27.6201 16.7541 27.5752 16.7442 27.5361 16.7442C26.7612 16.7432 25.9868 16.7418 25.2119 16.7404C25.2109 15.8711 25.21 15.0023 25.209 14.1335C25.3265 14.1359 25.403 14.217 25.4705 14.2916ZM27.3973 28.0146C27.3624 28.0132 27.3275 28.0099 27.2921 28.0099C23.7598 28.0094 20.2274 28.0094 16.6951 28.0099C16.6602 28.0099 16.6248 28.0132 16.5899 28.0146C16.3596 27.9948 16.2043 27.8631 16.1298 27.6257C16.1307 27.6196 16.1326 27.6139 16.1326 27.6083C16.1326 23.2892 16.1326 18.9702 16.1326 14.6512C16.1326 14.6059 16.1477 14.5559 16.1043 14.5195C16.1935 14.294 16.3209 14.1113 16.5899 14.0896C16.6545 14.092 16.7192 14.0962 16.7838 14.0962C18.8726 14.0962 20.9617 14.0962 23.0509 14.0967C23.4039 14.0967 23.7569 14.1 24.1099 14.1019C24.1109 15.1156 24.1113 16.1297 24.1137 17.1434C24.1142 17.2114 24.091 17.285 24.1415 17.3468C24.1713 17.6474 24.3912 17.8386 24.7168 17.839C25.6979 17.8404 26.6795 17.8395 27.6607 17.84C27.7253 17.84 27.7895 17.8433 27.8541 17.8452C27.8546 20.2581 27.8551 22.6705 27.8556 25.0835C27.856 25.9306 27.857 26.7781 27.8579 27.6252C27.7919 27.8579 27.6229 27.9693 27.3978 28.0146H27.3973Z" fill="white" stroke="white" stroke-width="0.2"/>
<path d="M15.0381 27.4999C15.0381 27.5291 15.0343 27.5584 15.0325 27.5872C14.9857 27.5244 15.0032 27.4513 15.0032 27.3824C15.0023 23.1629 15.0023 18.9435 15.0032 14.724C15.0032 14.6551 14.9857 14.582 15.0325 14.5188C15.0339 14.6188 15.0372 14.7184 15.0372 14.818C15.0376 19.0454 15.0381 23.2724 15.0381 27.4999Z" fill="white" stroke="white" stroke-width="0.2"/>
<path d="M27.5402 29.0728C27.4581 29.1172 27.368 29.1032 27.2807 29.1036C23.7559 29.1041 20.2311 29.1041 16.7063 29.1036C16.619 29.1036 16.5294 29.1172 16.4468 29.0728C16.5525 29.0718 16.6582 29.0695 16.7634 29.0695C20.25 29.0695 23.737 29.0695 27.2236 29.0695C27.3293 29.0695 27.4345 29.0718 27.5402 29.0728Z" fill="white" stroke="white" stroke-width="0.2"/>
<path d="M28.956 27.5523C28.9542 27.4763 28.9499 27.3998 28.9499 27.3238C28.9494 23.9322 28.949 20.5405 28.949 17.1488C28.949 17.1195 28.9532 17.0907 28.9551 17.0615C29.0014 17.1247 28.9844 17.1978 28.9844 17.2667C28.9853 20.633 28.9853 23.9992 28.9844 27.3654C28.9844 27.4281 29.0032 27.4956 28.956 27.5523Z" fill="white" stroke="white" stroke-width="0.2"/>
<path d="M25.2462 13.0321C25.1348 13.034 25.0235 13.0374 24.9121 13.0374C22.1075 13.0388 19.3033 13.0402 16.4987 13.0412C16.4817 13.0412 16.4642 13.0359 16.4468 13.0335C16.5289 12.9877 16.6186 13.0025 16.7054 13.0025C19.4661 13.0015 22.2269 13.0015 24.9876 13.003C25.074 13.003 25.1641 12.9863 25.2462 13.0321Z" fill="white" stroke="white" stroke-width="0.2"/>
<path d="M16.1321 14.6514C16.1321 18.9704 16.1321 23.2894 16.1321 27.6084C16.1321 27.6141 16.1302 27.6197 16.1292 27.6259C16.1009 27.5574 16.1155 27.4862 16.1155 27.4163C16.1146 23.1874 16.1146 18.9586 16.1141 14.7297C16.1141 14.6598 16.125 14.5886 16.1033 14.5197C16.1467 14.556 16.1316 14.606 16.1316 14.6514H16.1321Z" fill="white" stroke="white" stroke-width="0.2"/>
<path d="M17.7606 17.4008C17.7002 17.1002 17.8852 16.859 18.2132 16.7745C18.2505 16.7349 18.3 16.7453 18.3453 16.7453C19.1712 16.7448 19.9966 16.7448 20.822 16.7453C20.8616 16.7453 20.905 16.7363 20.9366 16.7722C21.3057 16.8411 21.4175 17.1167 21.3916 17.3847C21.3652 17.6608 21.1391 17.8392 20.8286 17.8397C19.9989 17.8401 19.1693 17.834 18.3397 17.8425C17.9749 17.8463 17.8036 17.6164 17.7606 17.4008Z" fill="white" stroke="white" stroke-width="0.2"/>
<path d="M16.7833 14.0964C16.7187 14.0964 16.654 14.0921 16.5894 14.0898C16.6351 14.0733 16.6828 14.0799 16.7295 14.0799C19.1429 14.0794 21.5568 14.0794 23.9702 14.0799C24.0169 14.0799 24.0646 14.0737 24.1104 14.0884C24.1127 14.0921 24.1146 14.0964 24.1165 14.1001C24.1184 14.1035 24.1198 14.1068 24.1207 14.1101C24.1424 14.1643 24.1283 14.2224 24.1283 14.2781C24.1297 15.237 24.1292 16.1955 24.1297 17.1544C24.1297 17.2186 24.1193 17.2837 24.141 17.347C24.0905 17.2851 24.1137 17.2115 24.1132 17.1436C24.1108 16.1299 24.1104 15.1157 24.1094 14.102C23.7564 14.1002 23.4034 14.0968 23.0504 14.0968C20.9612 14.0964 18.872 14.0964 16.7833 14.0964Z" fill="white" stroke="white" stroke-width="0.2"/>
<path d="M24.258 25.3574C24.6157 25.4763 24.6662 25.6584 24.6681 25.8784C24.6705 26.1629 24.4954 26.3408 24.2193 26.414H22.4156C22.1863 26.3139 22.0027 26.1742 21.9947 25.8968C21.9867 25.6282 22.1433 25.43 22.4123 25.3569C22.4506 25.3205 22.4992 25.3262 22.5449 25.3262C23.0716 25.3257 23.5987 25.3257 24.1254 25.3262C24.1716 25.3262 24.2198 25.321 24.258 25.3574Z" fill="white" stroke="white" stroke-width="0.2"/>
<path d="M18.3817 19.4296C20.7899 19.4286 23.1977 19.4286 25.6054 19.4296C25.6743 19.4296 25.7474 19.4126 25.8093 19.4612C26.0613 19.539 26.2255 19.7278 26.2283 19.944C26.233 20.2337 26.1042 20.3956 25.7725 20.5169C25.7257 20.5192 25.6785 20.523 25.6318 20.523C23.2005 20.5235 20.7687 20.5235 18.3373 20.523C18.2845 20.523 18.2321 20.5192 18.1793 20.5169C17.94 20.4196 17.7588 20.2724 17.7583 19.9888C17.7583 19.7231 17.9036 19.5466 18.1778 19.4612C18.2397 19.4126 18.3128 19.4296 18.3817 19.4296Z" fill="white" stroke="white" stroke-width="0.2"/>
<path d="M25.7568 25.3611C26.0786 25.3621 26.2599 25.5574 26.2684 25.8911C26.2759 26.1903 26.0315 26.4093 25.6992 26.4149C25.4769 26.4187 25.1938 26.1596 25.2046 25.8741C25.2164 25.5659 25.4269 25.3607 25.7568 25.3611Z" fill="white" stroke="white" stroke-width="0.2"/>
<path d="M26.2684 22.623C26.2812 22.8599 26.1665 23.1134 25.8512 23.1785C25.7941 23.2243 25.7271 23.2063 25.6644 23.2063C23.217 23.2073 20.7701 23.2073 18.3227 23.2063C18.2599 23.2063 18.1924 23.2238 18.1353 23.1794C17.8201 23.127 17.7106 22.8713 17.6903 22.6622C17.6681 22.4347 17.8805 22.2049 18.1358 22.1407C18.1929 22.0964 18.2604 22.1134 18.3232 22.1134C20.7531 22.1124 23.183 22.1124 25.6129 22.1138C25.6672 22.1138 25.7314 22.0846 25.7757 22.145C26.0594 22.1563 26.2524 22.3337 26.2684 22.623Z" fill="white" stroke="white" stroke-width="0.2"/>
<path d="M27.2921 28.01C27.3275 28.01 27.3624 28.0134 27.3973 28.0149C27.3402 28.0373 27.2812 28.0271 27.2227 28.0271C23.7366 28.0276 20.2505 28.0276 16.7645 28.0271C16.7064 28.0271 16.6469 28.0373 16.5898 28.0149C16.6248 28.0134 16.6602 28.01 16.6951 28.01C20.2274 28.0095 23.7597 28.0095 27.2921 28.01Z" fill="white" stroke="white" stroke-width="0.2"/>
<path d="M27.8714 27.4517C27.8714 27.5098 27.8842 27.5692 27.8573 27.6254C27.8564 26.7783 27.8554 25.9307 27.8549 25.0836C27.8545 22.6707 27.854 20.2582 27.8535 17.8453C27.8875 17.9 27.8714 17.96 27.8714 18.0176C27.8719 21.1624 27.8719 24.3068 27.8714 27.4517Z" fill="white" stroke="white" stroke-width="0.2"/>
<path d="M27.5762 16.7613C26.7909 16.7547 26.0051 16.7774 25.2199 16.75C25.2166 16.75 25.2137 16.75 25.2104 16.7495H25.2048C25.1849 16.7174 25.1901 16.6816 25.1901 16.6466C25.1901 15.8486 25.1901 15.0506 25.1901 14.2521C25.1901 14.212 25.1802 14.1695 25.209 14.1337C25.2099 15.0025 25.2109 15.8713 25.2118 16.7406C25.9867 16.742 26.7611 16.7434 27.536 16.7443C27.5752 16.7443 27.62 16.7542 27.6446 16.708C27.6498 16.7613 27.6115 16.7618 27.5762 16.7613Z" fill="white" stroke="white" stroke-width="0.2"/>
<path d="M16.1321 14.6514C16.1321 18.9704 16.1321 23.2894 16.1321 27.6084C16.1321 27.6141 16.1302 27.6197 16.1292 27.6259C16.0825 27.5697 16.0971 27.5027 16.0971 27.4395C16.0967 23.1799 16.0967 18.9199 16.0967 14.6603C16.0967 14.6136 16.1009 14.5664 16.1033 14.5197C16.1467 14.556 16.1316 14.606 16.1316 14.6514H16.1321Z" fill="white" stroke="white" stroke-width="0.2"/>
<path d="M27.3973 28.0148C27.3416 28.0645 27.2741 28.0449 27.2114 28.0449C23.7328 28.0458 20.2543 28.0458 16.7758 28.0449C16.7135 28.0449 16.6455 28.0645 16.5898 28.0148C16.6248 28.0134 16.6602 28.01 16.6951 28.01C20.2274 28.0095 23.7597 28.0095 27.2921 28.01C27.3275 28.01 27.3624 28.0134 27.3973 28.0148Z" fill="white" stroke="white" stroke-width="0.2"/>
<path d="M27.8894 27.4215C27.8894 27.4904 27.9064 27.5636 27.8573 27.6254C27.8564 26.7783 27.8554 25.9307 27.8549 25.0836C27.8545 22.6707 27.854 20.2582 27.8535 17.8453C27.93 17.8807 27.888 17.9482 27.888 17.9982C27.8903 21.1393 27.8903 24.2804 27.8894 27.4215Z" fill="white" stroke="white" stroke-width="0.2"/>
<path d="M24.1434 14.101C24.1358 14.1095 24.1283 14.1123 24.1207 14.11C24.117 14.109 24.1132 14.1062 24.1094 14.102C23.7564 14.1001 23.4034 14.0968 23.0504 14.0968C20.9612 14.0963 18.872 14.0963 16.7833 14.0963C16.7187 14.0963 16.654 14.0921 16.5894 14.0897C16.6399 14.0445 16.7012 14.0619 16.7583 14.0619C19.1604 14.061 21.5629 14.061 23.9655 14.0619C24.0249 14.0624 24.0962 14.0322 24.1434 14.1006V14.101Z" fill="white" stroke="white" stroke-width="0.2"/>
<path d="M24.1435 14.1011C24.1425 15.1832 24.1421 16.2649 24.1411 17.347C24.0906 17.2852 24.1137 17.2115 24.1133 17.1436C24.1109 16.1299 24.1104 15.1157 24.1095 14.1021C24.1119 14.1011 24.1142 14.1006 24.1166 14.1002C24.1255 14.0983 24.1345 14.0987 24.1435 14.1011Z" fill="white" stroke="white" stroke-width="0.2"/>
<path d="M25.2204 16.7627C25.2171 16.7698 25.2138 16.7731 25.2105 16.7731C25.1557 16.7448 25.1723 16.6924 25.1723 16.6485C25.1713 15.8515 25.1713 15.0539 25.1727 14.2568C25.1727 14.2144 25.1501 14.1606 25.2091 14.1337C25.21 15.0025 25.211 15.8713 25.2119 16.7406C25.2157 16.7439 25.2185 16.7467 25.2199 16.75C25.2223 16.7542 25.2223 16.7585 25.2204 16.7627Z" fill="white" stroke="white" stroke-width="0.2"/>
<path d="M27.6609 16.7724C27.6463 16.784 27.6156 16.7789 27.592 16.7789C26.7982 16.7766 26.0044 16.7743 25.2102 16.772C25.2102 16.7641 25.2102 16.7567 25.2102 16.7488C25.2107 16.746 25.2112 16.7428 25.2116 16.74C25.9865 16.7414 26.7609 16.7428 27.5358 16.7437C27.575 16.7437 27.6198 16.7534 27.6444 16.708C27.6784 16.7228 27.6892 16.7488 27.6609 16.7724Z" fill="white" stroke="white" stroke-width="0.2"/>
<path d="M25.8512 23.1785C25.8055 23.195 25.7578 23.1889 25.7111 23.1889H18.2755C18.2288 23.1889 18.1811 23.1945 18.1353 23.1794C17.8201 23.1271 17.7106 22.8713 17.6903 22.6622C17.6681 22.4347 17.8805 22.2049 18.1358 22.1407C18.1934 22.1228 18.2528 22.1313 18.3114 22.1313C20.7413 22.1308 23.1717 22.1308 25.6016 22.1313C25.6596 22.1313 25.7196 22.119 25.7757 22.145C26.0594 22.1563 26.2524 22.3338 26.2684 22.623C26.2812 22.8599 26.1665 23.1134 25.8512 23.1785Z" fill="white" stroke="white" stroke-width="0.2"/>
<path d="M26.2283 19.944C26.233 20.2337 26.1042 20.3956 25.7725 20.5169C25.721 20.4975 25.6677 20.5055 25.6153 20.5055C23.1892 20.5051 20.7625 20.5051 18.3364 20.5055C18.284 20.5055 18.2302 20.497 18.1793 20.5169C17.94 20.4196 17.7588 20.2724 17.7583 19.9888C17.7583 19.7231 17.9036 19.5466 18.1778 19.4612C18.234 19.4357 18.2939 19.4475 18.352 19.4475C20.7795 19.447 23.2076 19.447 25.6356 19.4475C25.6936 19.4475 25.7531 19.4352 25.8093 19.4612C26.0613 19.539 26.2255 19.7278 26.2283 19.944Z" fill="white" stroke="white" stroke-width="0.2"/>
<path d="M21.3916 17.3847C21.3652 17.6608 21.1391 17.8392 20.8286 17.8397C19.9989 17.8401 19.1693 17.834 18.3397 17.8425C17.9749 17.8463 17.8036 17.6164 17.7606 17.4008C17.7002 17.1002 17.8852 16.859 18.2132 16.7745C18.4175 16.7491 18.6228 16.7637 18.8272 16.7642C19.5303 16.767 20.234 16.7514 20.9366 16.7722C21.3057 16.8411 21.4175 17.1167 21.3916 17.3847Z" fill="white" stroke="white" stroke-width="0.2"/>
<path d="M24.6681 25.8783C24.6705 26.1629 24.4954 26.3408 24.2193 26.414C23.6181 26.3951 23.0169 26.3951 22.4156 26.414C22.1863 26.3139 22.0027 26.1742 21.9947 25.8968C21.9867 25.6282 22.1433 25.43 22.4123 25.3569C22.9574 25.3286 23.5034 25.3512 24.0485 25.3451C24.1183 25.3441 24.1896 25.3319 24.258 25.3573C24.6157 25.4763 24.6662 25.6584 24.6681 25.8783Z" fill="white" stroke="white" stroke-width="0.2"/>
<path d="M26.2684 25.8911C26.2759 26.1903 26.0315 26.4093 25.6992 26.4149C25.4769 26.4187 25.1938 26.1596 25.2046 25.8741C25.2164 25.5659 25.4269 25.3607 25.7568 25.3611C26.0786 25.3621 26.2599 25.5574 26.2684 25.8911Z" fill="white" stroke="white" stroke-width="0.2"/>
<path d="M25.8512 23.1786C25.7941 23.2249 25.727 23.2068 25.6643 23.2068C23.2169 23.2077 20.77 23.2077 18.3226 23.2068C18.2598 23.2068 18.1924 23.2244 18.1353 23.1795C18.223 23.1771 18.3108 23.1724 18.3986 23.1724C20.8535 23.1714 23.3089 23.1714 25.7638 23.1714C25.7926 23.1714 25.8219 23.1762 25.8512 23.1786Z" fill="white" stroke="white" stroke-width="0.2"/>
<path d="M25.8092 19.4609H18.1777C18.2396 19.4127 18.3127 19.4295 18.3816 19.4295C20.7898 19.4286 23.1976 19.4286 25.6053 19.4295C25.6742 19.4295 25.7473 19.4127 25.8092 19.4609Z" fill="white" stroke="white" stroke-width="0.2"/>
<path d="M25.7757 22.1454C23.3288 22.1464 20.8818 22.1473 18.4349 22.1478C18.3354 22.1478 18.2358 22.1435 18.1357 22.1411C18.1928 22.0963 18.2603 22.1134 18.3231 22.1134C20.753 22.1125 23.1829 22.1125 25.6128 22.1139C25.6671 22.1139 25.7313 22.0843 25.7757 22.1454Z" fill="white" stroke="white" stroke-width="0.2"/>
<path d="M25.7724 20.5173C25.7257 20.5196 25.6785 20.5235 25.6318 20.5235C23.2004 20.5239 20.7686 20.5239 18.3373 20.5235C18.2844 20.5235 18.2321 20.5196 18.1792 20.5173C18.2278 20.4657 18.2901 20.4891 18.3458 20.4891C20.7597 20.4881 23.1735 20.4881 25.5874 20.4891C25.6492 20.4891 25.7172 20.4642 25.7724 20.5168V20.5173Z" fill="white" stroke="white" stroke-width="0.2"/>
<path d="M20.9366 16.7717C20.0291 16.7726 19.1211 16.7735 18.2131 16.774C18.2504 16.7351 18.3 16.7453 18.3453 16.7453C19.1711 16.7448 19.9965 16.7448 20.8219 16.7453C20.8616 16.7453 20.905 16.7364 20.9366 16.7717Z" fill="white" stroke="white" stroke-width="0.2"/>
<path d="M24.258 25.3568C23.6426 25.3563 23.0277 25.3563 22.4124 25.3563C22.4506 25.3206 22.4992 25.3262 22.545 25.3262C23.0716 25.3257 23.5988 25.3257 24.1254 25.3262C24.1717 25.3262 24.2198 25.3211 24.258 25.3568Z" fill="white" stroke="white" stroke-width="0.2"/>
<path d="M24.2192 26.4146H22.4155C22.4391 26.379 22.4759 26.3847 22.5104 26.3847C23.0484 26.3847 23.5864 26.3852 24.1239 26.3857C24.1583 26.3857 24.1951 26.3785 24.2192 26.4146Z" fill="white" stroke="white" stroke-width="0.2"/>
<defs>
<linearGradient id="paint0_linear_0_1" x1="0" y1="21.5" x2="43" y2="21.5" gradientUnits="userSpaceOnUse">
<stop stop-color="#0191E6"/>
<stop offset="1" stop-color="#00365F"/>
</linearGradient>
</defs>
</svg>
