<svg width="43" height="43" viewBox="0 0 43 43" fill="none" xmlns="http://www.w3.org/2000/svg">
<circle cx="21.5" cy="21.5" r="21.5" fill="url(#paint0_linear_0_1)"/>
<path d="M27.2747 31.345H15.3742C14.3879 31.345 13.4419 30.9532 12.7445 30.2558C12.0471 29.5584 11.6553 28.6125 11.6553 27.6261V17.2132C11.6553 17.0159 11.7336 16.8268 11.8731 16.6873C12.0126 16.5478 12.2018 16.4694 12.3991 16.4694H27.2747C28.261 16.4694 29.2069 16.8612 29.9043 17.5587C30.6018 18.2561 30.9936 19.202 30.9936 20.1883V27.6261C30.9936 28.6125 30.6018 29.5584 29.9043 30.2558C29.2069 30.9532 28.261 31.345 27.2747 31.345ZM13.1428 17.957V27.6261C13.1428 28.2179 13.3779 28.7855 13.7964 29.2039C14.2148 29.6224 14.7824 29.8575 15.3742 29.8575H27.2747C27.8665 29.8575 28.434 29.6224 28.8525 29.2039C29.2709 28.7855 29.506 28.2179 29.506 27.6261V20.1883C29.506 19.5965 29.2709 19.029 28.8525 18.6105C28.434 18.1921 27.8665 17.957 27.2747 17.957H13.1428Z" fill="white"/>
<path d="M28.7623 17.9569C28.5651 17.9569 28.3759 17.8786 28.2364 17.7391C28.0969 17.5996 28.0185 17.4104 28.0185 17.2132V15.1678C28.0328 14.9072 27.988 14.6468 27.8876 14.406C27.7871 14.1651 27.6336 13.9501 27.4384 13.7769C27.263 13.6455 27.06 13.5558 26.8448 13.5146C26.6296 13.4733 26.4078 13.4816 26.1963 13.5389L13.7231 16.3727C13.5553 16.4105 13.4058 16.5052 13.3 16.6408C13.1942 16.7765 13.1387 16.9445 13.1429 17.1165C13.1429 17.3137 13.0646 17.5029 12.9251 17.6424C12.7856 17.7819 12.5964 17.8603 12.3991 17.8603C12.2019 17.8603 12.0127 17.7819 11.8732 17.6424C11.7337 17.5029 11.6554 17.3137 11.6554 17.1165C11.651 16.608 11.8204 16.1133 12.1356 15.7143C12.4507 15.3153 12.8927 15.0359 13.3884 14.9223L25.869 12.0885C26.2983 11.98 26.7466 11.9711 27.1798 12.0627C27.613 12.1542 28.0195 12.3437 28.3681 12.6166C28.7368 12.9295 29.0304 13.3211 29.2274 13.7627C29.4243 14.2043 29.5196 14.6844 29.5061 15.1678V17.2132C29.5061 17.4104 29.4277 17.5996 29.2883 17.7391C29.1488 17.8786 28.9596 17.9569 28.7623 17.9569Z" fill="white"/>
<path d="M30.25 26.8823H25.0435C24.2544 26.8823 23.4977 26.5689 22.9398 26.0109C22.3818 25.453 22.0684 24.6962 22.0684 23.9072C22.0684 23.1181 22.3818 22.3614 22.9398 21.8035C23.4977 21.2455 24.2544 20.9321 25.0435 20.9321H30.25C30.4472 20.9321 30.6364 21.0104 30.7759 21.1499C30.9154 21.2894 30.9937 21.4786 30.9937 21.6758V26.1385C30.9937 26.3358 30.9154 26.525 30.7759 26.6645C30.6364 26.804 30.4472 26.8823 30.25 26.8823ZM25.0435 22.4196C24.649 22.4196 24.2706 22.5764 23.9916 22.8553C23.7126 23.1343 23.5559 23.5127 23.5559 23.9072C23.5559 24.3017 23.7126 24.6801 23.9916 24.9591C24.2706 25.238 24.649 25.3948 25.0435 25.3948H29.5062V22.4196H25.0435Z" fill="white"/>
<defs>
<linearGradient id="paint0_linear_0_1" x1="0" y1="21.5" x2="43" y2="21.5" gradientUnits="userSpaceOnUse">
<stop stop-color="#0191E6"/>
<stop offset="1" stop-color="#00365F"/>
</linearGradient>
</defs>
</svg>
