<svg width="16" height="16" viewBox="0 0 16 16" fill="none" xmlns="http://www.w3.org/2000/svg">
<path d="M0.0032107 16L1.08481 12.0256C0.372121 10.8039 -0.0023125 9.41439 1.07458e-05 7.99999C1.07458e-05 3.5816 3.58161 0 8.00001 0C12.4184 0 16 3.5816 16 7.99999C16 12.4184 12.4184 16 8.00001 16C6.58623 16.0023 5.19733 15.6281 3.97601 14.916L0.0032107 16ZM5.11281 4.2464C5.0095 4.25281 4.90855 4.28002 4.81601 4.3264C4.72922 4.37554 4.65 4.43698 4.58081 4.5088C4.48481 4.5992 4.43041 4.6776 4.37201 4.7536C4.07634 5.13839 3.9173 5.61073 3.92001 6.096C3.92161 6.488 4.02401 6.8696 4.18401 7.2264C4.51121 7.94799 5.04961 8.71199 5.76081 9.41999C5.93201 9.59039 6.09921 9.76159 6.27921 9.92079C7.16192 10.698 8.21381 11.2584 9.3512 11.5576L9.8064 11.6272C9.9544 11.6352 10.1024 11.624 10.2512 11.6168C10.4842 11.6048 10.7117 11.5417 10.9176 11.432C11.0224 11.378 11.1246 11.3193 11.224 11.256C11.224 11.256 11.2584 11.2336 11.324 11.184C11.432 11.104 11.4984 11.0472 11.588 10.9536C11.6544 10.8848 11.712 10.804 11.756 10.712C11.8184 10.5816 11.8808 10.3328 11.9064 10.1256C11.9256 9.96719 11.92 9.88079 11.9176 9.82719C11.9144 9.74159 11.8432 9.65279 11.7656 9.61519L11.3 9.40639C11.3 9.40639 10.604 9.10319 10.1792 8.90959C10.1344 8.89007 10.0864 8.87895 10.0376 8.87679C9.98287 8.87117 9.92756 8.87733 9.8754 8.89486C9.82325 8.91238 9.77544 8.94086 9.7352 8.97839V8.97679C9.7312 8.97679 9.6776 9.02239 9.0992 9.72319C9.06601 9.7678 9.02028 9.80152 8.96785 9.82004C8.91542 9.83856 8.85866 9.84105 8.8048 9.82719C8.75268 9.81326 8.70162 9.79561 8.652 9.77439C8.5528 9.73279 8.5184 9.71679 8.45041 9.68719L8.4464 9.68559C7.98873 9.48577 7.56498 9.21587 7.19041 8.88559C7.08961 8.79759 6.99601 8.70159 6.90001 8.60879C6.58527 8.30738 6.31098 7.9664 6.08401 7.5944L6.03681 7.51839C6.0029 7.46733 5.97549 7.41224 5.95521 7.35439C5.92481 7.23679 6.00401 7.1424 6.00401 7.1424C6.00401 7.1424 6.19841 6.92959 6.28881 6.8144C6.36408 6.71865 6.43431 6.61905 6.49921 6.516C6.59361 6.364 6.62321 6.208 6.57361 6.0872C6.34961 5.54 6.11761 4.9952 5.87921 4.4544C5.83201 4.3472 5.69201 4.2704 5.56481 4.2552C5.52161 4.2504 5.47841 4.2456 5.43521 4.2424C5.32777 4.23706 5.22011 4.23813 5.11281 4.2456V4.2464Z" fill="#005492"/>
</svg>
