<svg width="50" height="59" viewBox="0 0 50 59" fill="none" xmlns="http://www.w3.org/2000/svg">
<path d="M32.5856 0.187021C32.5856 0.179021 32.9856 0.363026 33.0056 0.373026C33.4006 0.560026 33.7846 0.767024 34.1606 0.987024C34.7526 1.33202 35.3256 1.70803 35.8806 2.10803C36.6157 2.63865 37.3214 3.20881 37.9946 3.81602C38.8205 4.55905 39.6012 5.3508 40.3326 6.18702C41.195 7.17569 41.9933 8.21847 42.7226 9.30902C43.5668 10.5731 44.3258 11.892 44.9946 13.257C45.7635 14.8288 46.4261 16.4504 46.9776 18.111C47.6119 20.0225 48.1209 21.9733 48.5016 23.951C48.9406 26.2322 49.2391 28.5382 49.3956 30.856C49.5772 33.5358 49.6086 36.2237 49.4896 38.907C49.5266 39.5482 49.4161 40.1893 49.1666 40.781C49.0666 40.981 48.9666 41.192 48.8666 41.396C48.5899 41.968 48.3139 42.5403 48.0386 43.113L45.7646 47.826C44.9746 49.4634 44.1846 51.1007 43.3946 52.738C42.8613 53.8387 42.3303 54.9387 41.8016 56.038L41.5696 56.52C41.5696 56.52 37.8526 35.827 20.6316 24.151C20.6326 24.152 32.5856 0.187021 32.5856 0.187021Z" fill="#89E3FE"/>
<path d="M26.4575 9.35904L18.3455 25.648C18.3455 25.648 37.9395 36.868 40.0195 58.185C40.0195 58.185 36.1085 33.261 -0.000488281 40.875L0.634491 39.8L2.3045 36.973L4.65851 32.989L7.34351 28.443L10.0095 23.929L12.3095 20.042C12.8342 19.1534 13.3588 18.2647 13.8835 17.376C14.6552 16.0538 15.5512 14.8081 16.5595 13.656C17.8295 12.1361 19.3736 10.8682 21.1115 9.91804C21.9184 9.46807 22.8083 9.18652 23.7272 9.09044C24.6461 8.99435 25.5749 9.08573 26.4575 9.35904Z" fill="#0191E6"/>
<path d="M4.07642 47.951C4.07642 47.951 25.8764 38.466 37.8554 54.774C37.8554 54.774 33.3624 39.632 8.48642 40.38L4.07642 47.951Z" fill="#005492"/>
</svg>
